<?xml version="1.0" encoding="UTF-8" standalone="no"?>
<!-- Created with Inkscape (http://www.inkscape.org/) -->

<svg
   xmlns:dc="http://purl.org/dc/elements/1.1/"
   xmlns:cc="http://creativecommons.org/ns#"
   xmlns:rdf="http://www.w3.org/1999/02/22-rdf-syntax-ns#"
   xmlns:svg="http://www.w3.org/2000/svg"
   xmlns="http://www.w3.org/2000/svg"
   xmlns:sodipodi="http://sodipodi.sourceforge.net/DTD/sodipodi-0.dtd"
   xmlns:inkscape="http://www.inkscape.org/namespaces/inkscape"
   width="120mm"
   height="150mm"
   viewBox="0 0 120 150"
   version="1.1"
   id="svg1599"
   inkscape:version="0.92.3 (2405546, 2018-03-11)"
   sodipodi:docname="back_layer_2.svg">
  <defs
     id="defs1593">
    <marker
       style="overflow:visible"
       refY="0.0"
       refX="0.0"
       orient="auto"
       id="DistanceX">
      <path
         id="path3434"
         style="stroke:#000000; stroke-width:0.5"
         d="M 3,-3 L -3,3 M 0,-5 L  0,5" />
    </marker>
    <pattern
       y="0"
       x="0"
       width="8"
       patternUnits="userSpaceOnUse"
       id="Hatch"
       height="8">
      <path
         id="path3437"
         stroke-width="0.25"
         stroke="#000000"
         linecap="square"
         d="M8 4 l-4,4" />
      <path
         id="path3439"
         stroke-width="0.25"
         stroke="#000000"
         linecap="square"
         d="M6 2 l-4,4" />
      <path
         id="path3441"
         stroke-width="0.25"
         stroke="#000000"
         linecap="square"
         d="M4 0 l-4,4" />
    </pattern>
    <symbol
       id="*MODEL_SPACE" />
    <symbol
       id="*PAPER_SPACE" />
    <marker
       style="overflow:visible"
       refY="0.0"
       refX="0.0"
       orient="auto"
       id="DistanceX-3">
      <path
         id="path1349"
         style="stroke:#000000; stroke-width:0.5"
         d="M 3,-3 L -3,3 M 0,-5 L  0,5" />
    </marker>
    <pattern
       y="0"
       x="0"
       width="8"
       patternUnits="userSpaceOnUse"
       id="Hatch-6"
       height="8">
      <path
         id="path1352"
         stroke-width="0.25"
         stroke="#000000"
         linecap="square"
         d="M8 4 l-4,4" />
      <path
         id="path1354"
         stroke-width="0.25"
         stroke="#000000"
         linecap="square"
         d="M6 2 l-4,4" />
      <path
         id="path1356"
         stroke-width="0.25"
         stroke="#000000"
         linecap="square"
         d="M4 0 l-4,4" />
    </pattern>
    <symbol
       id="*MODEL_SPACE-7" />
    <symbol
       id="*PAPER_SPACE-5" />
    <marker
       style="overflow:visible"
       refY="0.0"
       refX="0.0"
       orient="auto"
       id="DistanceX-36">
      <path
         id="path861"
         style="stroke:#000000; stroke-width:0.5"
         d="M 3,-3 L -3,3 M 0,-5 L  0,5" />
    </marker>
    <pattern
       y="0"
       x="0"
       width="8"
       patternUnits="userSpaceOnUse"
       id="Hatch-7"
       height="8">
      <path
         id="path864"
         stroke-width="0.25"
         stroke="#000000"
         linecap="square"
         d="M8 4 l-4,4" />
      <path
         id="path866"
         stroke-width="0.25"
         stroke="#000000"
         linecap="square"
         d="M6 2 l-4,4" />
      <path
         id="path868"
         stroke-width="0.25"
         stroke="#000000"
         linecap="square"
         d="M4 0 l-4,4" />
    </pattern>
    <symbol
       id="*MODEL_SPACE-5" />
    <symbol
       id="*PAPER_SPACE-3" />
    <marker
       style="overflow:visible"
       refY="0.0"
       refX="0.0"
       orient="auto"
       id="DistanceX-5">
      <path
         id="path994"
         style="stroke:#000000; stroke-width:0.5"
         d="M 3,-3 L -3,3 M 0,-5 L  0,5" />
    </marker>
    <pattern
       y="0"
       x="0"
       width="8"
       patternUnits="userSpaceOnUse"
       id="Hatch-62"
       height="8">
      <path
         id="path997"
         stroke-width="0.25"
         stroke="#000000"
         linecap="square"
         d="M8 4 l-4,4" />
      <path
         id="path999"
         stroke-width="0.25"
         stroke="#000000"
         linecap="square"
         d="M6 2 l-4,4" />
      <path
         id="path1001"
         stroke-width="0.25"
         stroke="#000000"
         linecap="square"
         d="M4 0 l-4,4" />
    </pattern>
    <symbol
       id="*MODEL_SPACE-9" />
    <symbol
       id="*PAPER_SPACE-1" />
  </defs>
  <sodipodi:namedview
     id="base"
     pagecolor="#ffffff"
     bordercolor="#666666"
     borderopacity="1.0"
     inkscape:pageopacity="0.0"
     inkscape:pageshadow="2"
     inkscape:zoom="1.979899"
     inkscape:cx="340.81643"
     inkscape:cy="273.47266"
     inkscape:document-units="mm"
     inkscape:current-layer="layer1"
     showgrid="false"
     inkscape:showpageshadow="false"
     inkscape:pagecheckerboard="true"
     inkscape:window-width="1920"
     inkscape:window-height="1023"
     inkscape:window-x="0"
     inkscape:window-y="0"
     inkscape:window-maximized="1" />
  <metadata
     id="metadata1596">
    <rdf:RDF>
      <cc:Work
         rdf:about="">
        <dc:format>image/svg+xml</dc:format>
        <dc:type
           rdf:resource="http://purl.org/dc/dcmitype/StillImage" />
        <dc:title />
        <cc:license
           rdf:resource="http://creativecommons.org/licenses/by/4.0/" />
        <dc:date>04.01.2019</dc:date>
        <dc:creator>
          <cc:Agent>
            <dc:title>Stefan Krüger</dc:title>
          </cc:Agent>
        </dc:creator>
        <dc:rights>
          <cc:Agent>
            <dc:title>Stefan Krüger</dc:title>
          </cc:Agent>
        </dc:rights>
        <dc:publisher>
          <cc:Agent>
            <dc:title>Stefan Krüger</dc:title>
          </cc:Agent>
        </dc:publisher>
        <dc:language>EN / DE</dc:language>
      </cc:Work>
      <cc:License
         rdf:about="http://creativecommons.org/licenses/by/4.0/">
        <cc:permits
           rdf:resource="http://creativecommons.org/ns#Reproduction" />
        <cc:permits
           rdf:resource="http://creativecommons.org/ns#Distribution" />
        <cc:requires
           rdf:resource="http://creativecommons.org/ns#Notice" />
        <cc:requires
           rdf:resource="http://creativecommons.org/ns#Attribution" />
        <cc:permits
           rdf:resource="http://creativecommons.org/ns#DerivativeWorks" />
      </cc:License>
    </rdf:RDF>
  </metadata>
  <g
     inkscape:label="Layer 1"
     inkscape:groupmode="layer"
     id="layer1"
     transform="translate(0,-147)">
    <g
       id="g1091"
       transform="matrix(0.26458333,0,0,0.26458333,-88.499998,30.000003)">
      <g
         id="g1008"
         inkscape:label="0" />
      <g
         id="g1052"
         inkscape:label="View021">
        <path
           id="path1010"
           style="fill:none;stroke:#000000"
           d="m 671.17257,515.90381 a 204.09449,204.09449 0 0 0 -219.82486,-3.9e-4"
           inkscape:connector-curvature="0" />
        <path
           id="path1012"
           style="fill:none;stroke:#000000"
           d="m 671.17121,515.90484 a 30.23622,30.23622 0 0 0 19.77998,4.55623"
           inkscape:connector-curvature="0" />
        <path
           id="path1014"
           style="fill:none;stroke:#000000"
           d="m 431.56849,520.46107 a 30.23622,30.23622 0 0 0 19.78007,-4.55629"
           inkscape:connector-curvature="0" />
        <path
           id="path1016"
           style="fill:none;stroke:#000000"
           d="M 728.87072,552.81887 A 34.015748,34.015748 0 0 0 690.95125,520.4613"
           inkscape:connector-curvature="0" />
        <path
           id="path1018"
           style="fill:none;stroke:#000000"
           d="m 431.56844,520.4613 a 34.015748,34.015748 0 0 0 -37.91948,32.35775"
           inkscape:connector-curvature="0" />
        <path
           id="path1020"
           style="fill:none;stroke:#000000"
           d="m 728.8731,552.81884 a 75.590551,75.590551 0 0 0 9.81119,34.18301"
           inkscape:connector-curvature="0" />
        <path
           id="path1022"
           style="fill:none;stroke:#000000"
           d="m 383.8364,587.00208 a 75.590551,75.590551 0 0 0 9.8113,-34.18284"
           inkscape:connector-curvature="0" />
        <path
           id="path1024"
           style="fill:none;stroke:#000000"
           d="M 668.77319,861.35439 A 204.09449,204.09449 0 0 0 738.68341,587.00064"
           inkscape:connector-curvature="0" />
        <path
           id="path1026"
           style="fill:none;stroke:#000000"
           d="M 383.83592,587.00126 A 204.09449,204.09449 0 0 0 453.7474,861.35495"
           inkscape:connector-curvature="0" />
        <path
           id="path1028"
           style="fill:none;stroke:#000000"
           d="m 668.77312,861.35422 a 37.795276,37.795276 0 0 0 -17.5677,27.23468"
           inkscape:connector-curvature="0" />
        <path
           id="path1030"
           style="fill:none;stroke:#000000"
           d="M 471.3143,888.58916 A 37.795276,37.795276 0 0 0 453.74673,861.35432"
           inkscape:connector-curvature="0" />
        <path
           id="path1032"
           style="fill:none;stroke:#000000"
           d="m 471.31404,888.58979 a 90.708661,90.708661 0 0 0 179.89169,-6.3e-4"
           inkscape:connector-curvature="0" />
        <path
           id="path1034"
           style="fill:none;stroke:#000000"
           d="m 471.73417,551.6485 a 5.858268,5.858268 0 1 0 -11.71653,0 5.858268,5.858268 0 1 0 11.71653,0 z"
           inkscape:connector-curvature="0" />
        <path
           id="path1036"
           style="fill:none;stroke:#000000"
           d="m 704.88189,687.87402 a 143.62205,143.62205 0 1 0 -287.2441,0 143.62205,143.62205 0 1 0 287.2441,0 z"
           inkscape:connector-curvature="0" />
        <path
           id="path1038"
           style="fill:none;stroke:#000000"
           d="m 662.50205,824.09839 a 5.85827,5.85827 0 1 0 -11.71654,0 5.85827,5.85827 0 1 0 11.71654,0 z"
           inkscape:connector-curvature="0" />
        <path
           id="path1040"
           style="fill:none;stroke:#000000"
           d="m 732.78614,673.37953 a 5.858268,5.858268 0 1 0 -11.71653,0 5.858268,5.858268 0 1 0 11.71653,0 z"
           inkscape:connector-curvature="0" />
        <path
           id="path1042"
           style="fill:none;stroke:#000000"
           d="m 722.18079,566.87622 a 6.047245,6.047245 0 1 0 -12.09449,0 6.047245,6.047245 0 1 0 12.09449,0 z"
           inkscape:connector-curvature="0" />
        <path
           id="path1044"
           style="fill:none;stroke:#000000"
           d="m 412.43339,566.87622 a 6.047245,6.047245 0 1 0 -12.09449,0 6.047245,6.047245 0 1 0 12.09449,0 z"
           inkscape:connector-curvature="0" />
        <path
           id="path1046"
           style="fill:none;stroke:#000000"
           d="m 401.45008,702.3685 a 5.85827,5.85827 0 1 0 -11.71654,0 5.85827,5.85827 0 1 0 11.71654,0 z"
           inkscape:connector-curvature="0" />
        <path
           id="path1048"
           style="fill:none;stroke:#000000"
           d="m 496.8378,838.59213 a 5.85827,5.85827 0 1 0 -11.71654,0 5.85827,5.85827 0 1 0 11.71654,0 z"
           inkscape:connector-curvature="0" />
        <path
           id="path1050"
           style="fill:none;stroke:#000000"
           d="m 637.39842,537.15402 a 5.858268,5.858268 0 1 0 -11.71653,0 5.858268,5.858268 0 1 0 11.71653,0 z"
           inkscape:connector-curvature="0" />
      </g>
    </g>
    <path
       inkscape:connector-curvature="0"
       style="opacity:0.98000004;vector-effect:none;fill:none;fill-opacity:0.97727272;stroke:#ff0000;stroke-width:0.2;stroke-linecap:round;stroke-linejoin:round;stroke-miterlimit:4;stroke-dasharray:none;stroke-dashoffset:0;stroke-opacity:0.97272728;paint-order:fill markers stroke"
       d="m 104.25817,217.03659 c -1.79349,1.4668 -3.75122,2.28937 -4.525709,4.18368 -0.73614,1.80054 -0.622348,3.76252 -0.580369,5.88533 m -0.122621,3.40147 c -0.0379,0.29108 -0.0857,0.57991 -0.1455,0.86521 -0.36168,1.72717 -0.264009,2.99653 -0.515734,4.51959 -0.240485,1.45504 -0.874992,3.37739 -2.958417,5.82085 -0.489426,0.57392 -1.019633,1.00668 -1.56732,1.32826 m 8.69927,-21.88303 c 0.029,0.26377 0.0487,0.53572 0.0566,0.81711 0.0958,3.43216 1.09698,7.62614 -1.09054,10.79886 -0.16172,0.23455 -0.33928,0.44474 -0.52976,0.63344 m -3.043583,1.51746 c -2.512443,0.62066 -5.090459,0.58946 -7.072403,2.90684 -1.866568,2.18246 -2.552675,3.69186 -3.287735,5.42897 m 14.751691,-17.20416 c -2.21954,1.33588 -4.742607,2.07226 -6.065931,3.91418 -1.098124,1.52846 -0.91046,3.03578 -1.120159,4.96795 m -0.930312,3.25404 c -0.271467,0.51954 -0.621665,1.05025 -1.073694,1.57955 -1.67693,1.9639 -2.234021,3.65838 -2.826211,5.3297 -0.569325,1.60679 -1.146252,3.10208 -2.762607,4.06757 -0.250939,0.1499 -0.509633,0.27514 -0.774118,0.37857 m 17.825202,-31.53315 c -1.63368,1.10111 -3.20598,1.71839 -3.91045,3.45698 -0.65209,1.60932 -0.6608,3.32649 -0.63613,5.17844 m -0.0226,3.06988 c -0.0411,0.71516 -0.12165,1.42666 -0.270449,2.11931 -0.378132,1.76011 -0.29128,3.04827 -0.55808,4.59576 -0.254702,1.47725 -0.910336,3.43403 -3.03274,5.92432 -1.027538,1.20559 -2.106149,1.88116 -3.130325,2.23401 m 10.322614,-24.17722 c 0.10545,0.56673 0.17975,1.165 0.19361,1.81029 0.0754,3.50926 1.04969,7.77408 -1.17121,11.01448 -0.42311,0.61733 -0.94981,1.07047 -1.53504,1.41296 m -3.002526,1.0184 c -2.251427,0.47513 -4.453509,0.73373 -6.224849,2.80601 -1.637446,1.91563 -2.397991,3.31771 -3.078219,4.8355 m 13.816544,-16.40032 c -1.99538,1.08926 -4.051826,1.88075 -5.223636,3.52418 -0.966245,1.35514 -0.969042,2.6896 -1.101561,4.31764 m -0.51861,2.83149 c -0.304247,0.90609 -0.799047,1.86942 -1.620552,2.83205 -1.711947,2.00602 -2.291173,3.72053 -2.906847,5.41429 -0.591305,1.62671 -1.189234,3.13977 -2.834513,4.12663 -0.675423,0.40512 -1.403139,0.63653 -2.151476,0.74908 m 18.893555,-31.7987 c -1.40007,0.75728 -2.62881,1.2627 -3.25166,2.81312 -0.56494,1.40628 -0.66351,2.88134 -0.67443,4.45941 m -0.004,2.96287 c -0.0248,1.06279 -0.10488,2.1306 -0.33162,3.16097 -0.39457,1.79304 -0.31856,3.1 -0.60043,4.67192 -0.26889,1.49944 -0.945689,3.49071 -3.106856,6.02778 -1.566836,1.83941 -3.102835,2.61022 -4.408691,2.86904 m 11.666187,-25.95313 c 0.17575,0.78927 0.3113,1.62619 0.32555,2.55593 0.055,3.58635 1.0024,7.92201 -1.2519,11.23009 -0.64664,0.94892 -1.52389,1.51997 -2.48868,1.90528 m -3.066842,0.81367 c -1.94119,0.41748 -3.777041,0.88784 -5.323355,2.69807 -1.410519,1.65125 -2.191363,2.92244 -2.83611,4.23591 m 7.38106,-8.78127 c 0.113726,-1.34439 0.253627,-2.49872 1.086218,-3.67493 1.011798,-1.42938 2.643599,-2.23325 4.347409,-3.13479 m 2.89457,-1.78761 c 0.91278,-0.72686 1.68671,-1.61244 2.12354,-2.74963 0.70293,-1.8299 0.24969,-3.43102 -0.2936,-5.1012 -0.57187,-1.75808 -1.18561,-3.45175 -1.17874,-6.17446 -0.004,-1.73904 -0.47566,-3.08083 -1.05545,-4.13983 m -14.705689,36.10757 c -2.325669,0.0139 -4.419994,-0.54657 -6.225918,0.50137 -1.718744,0.99735 -2.83559,2.65868 -4.085651,4.3887 m -2.147546,2.65387 c -0.2051,0.20993 -0.416597,0.41193 -0.635442,0.60378 -1.324816,1.16138 -2.007936,2.22806 -3.126888,3.2812 -1.060667,0.99828 -2.745346,2.15044 -5.884484,2.77547 -0.739246,0.14721 -1.424147,0.15652 -2.052439,0.0662 m 20.211161,-12.08479 c -0.141288,0.22834 -0.294582,0.45754 -0.462788,0.68706 -2.059988,2.81082 -3.768381,6.75714 -7.434522,7.96935 -0.270391,0.0894 -0.538697,0.14984 -0.804275,0.18536 m -3.333345,-0.62528 c -2.380859,-1.02772 -4.347705,-2.58977 -7.276218,-2.01688 -2.775145,0.54291 -4.166001,1.22676 -5.850571,2.08483 m 21.976207,-4.49964 c -2.595981,-0.28181 -5.051515,-1.20127 -7.211891,-0.51737 -1.78553,0.56524 -2.529152,1.8774 -3.851402,3.27626 m -2.68827,1.99169 c -0.526854,0.24053 -1.12327,0.44043 -1.797865,0.57378 -3.609927,0.713 -5.32058,2.5489 -7.556624,3.38021 -0.831556,0.30248 -1.725192,0.44264 -2.740851,0.2544 -0.289787,-0.0537 -0.568685,-0.13148 -0.836906,-0.22972 m 33.465143,-13.7181 c -1.97045,-0.16436 -3.62227,-0.65073 -5.269235,0.31012 -1.526712,0.89069 -2.59107,2.27385 -3.694417,3.77546 m -1.872594,2.44819 c -0.463436,0.54758 -0.955278,1.06738 -1.490255,1.53036 -1.359249,1.17633 -2.063993,2.25102 -3.212412,3.31419 -1.087961,1.0072 -2.814378,2.1736 -6.023566,2.81428 -1.55827,0.31116 -2.830882,0.16592 -3.851401,-0.20241 m 22.930686,-12.86848 c -0.270166,0.51581 -0.58248,1.0374 -0.970113,1.55989 -2.116164,2.85238 -3.886576,6.83396 -7.623154,8.07702 -0.710184,0.23626 -1.404038,0.27941 -2.076852,0.19931 m -2.998719,-0.99954 c -2.0784,-0.98544 -3.937492,-2.10022 -6.562869,-1.58498 -2.438782,0.47862 -3.849565,1.05221 -5.344127,1.78104 m 20.782965,-4.45994 c -2.262036,-0.34047 -4.380333,-0.93766 -6.300277,-0.32487 -1.579088,0.50401 -2.374775,1.56477 -3.455209,2.77208 m -2.113095,1.91716 c -0.786683,0.52623 -1.762699,0.98023 -2.993943,1.22407 -3.698372,0.73243 -5.457526,2.57348 -7.748799,3.41026 -0.852064,0.30041 -1.767094,0.43817 -2.807124,0.2466 -0.784441,-0.14449 -1.489725,-0.45673 -2.126421,-0.87202 m 34.492514,-13.17751 c -1.573122,-0.28257 -2.874539,-0.64626 -4.335303,0.21034 -1.326158,0.77767 -2.313091,1.90589 -3.28117,3.16497 m -1.796661,2.37228 c -0.66099,0.8357 -1.366938,1.63966 -2.168064,2.32443 -1.393685,1.19128 -2.120048,2.27398 -3.297936,3.34719 -1.115227,1.01611 -2.883435,2.19676 -6.162755,2.85284 -2.385928,0.47735 -4.087357,0.11446 -5.268309,-0.50874 m 25.116287,-13.41027 c -0.353639,0.73433 -0.764339,1.48127 -1.325464,2.22879 -2.172343,2.89392 -4.004776,6.91078 -7.811781,8.18468 -1.089501,0.36457 -2.135476,0.28986 -3.136196,0.0148 m -2.925024,-1.20311 c -1.792812,-0.84418 -3.501226,-1.57818 -5.801937,-1.12523 -2.106663,0.41474 -3.471691,0.88937 -4.804852,1.48834 m 11.103941,-2.29281 c 0.896625,-0.99592 1.696569,-1.83112 3.063983,-2.27097 1.664375,-0.53538 3.451474,-0.20084 5.363223,0.11096 m 3.399309,0.33624 c 1.170696,-0.0196 2.325185,-0.24508 3.365259,-0.87143 1.674196,-1.00822 2.293146,-2.53906 2.906421,-4.18569 0.63921,-1.71626 1.240473,-3.45068 2.987489,-5.49888 1.119933,-1.31306 1.649261,-2.61987 1.921557,-3.80282 m -34.009929,19.29009 c -0.970092,-0.79609 -1.793687,-1.71535 -2.661057,-2.44392 -0.711756,-0.5867 -1.444424,-1.03404 -2.343211,-1.20795 -1.90032,-0.3677 -3.802885,0.11947 -5.870662,0.54502 m -3.35306,0.48287 c -0.291817,0.0133 -0.583128,0.0163 -0.873032,0.007 -1.754997,-0.0579 -2.984085,0.25003 -4.522354,0.25413 -1.468048,0.004 -3.467147,-0.3057 -6.207347,-1.9659 -0.643777,-0.39015 -1.154902,-0.8434 -1.558957,-1.33174 m 22.98219,4.77112 c -0.254833,0.0801 -0.519464,0.15235 -0.795599,0.21433 -3.371848,0.75683 -7.311255,2.49053 -10.824557,0.87353 -0.258635,-0.11904 -0.495903,-0.25788 -0.714073,-0.41313 m -2.003901,-2.7342 c -1.02746,-2.36545 -1.408174,-4.89478 -3.99214,-6.47288 -2.44042,-1.49045 -4.021801,-1.92893 -5.855621,-2.38413 m 19.318492,11.62775 c -1.723488,-1.94453 -2.876529,-4.27832 -4.899509,-5.25443 -1.678612,-0.80995 -3.113958,-0.37013 -5.044096,-0.25679 m -3.342257,-0.38337 c -0.553751,-0.18309 -1.131265,-0.44231 -1.723489,-0.80256 -2.200071,-1.33796 -3.950529,-1.61987 -5.696346,-1.94168 -1.674912,-0.30874 -3.244095,-0.64277 -4.453745,-2.08636 -0.187864,-0.2242 -0.352611,-0.45997 -0.496742,-0.70496 m 34.034676,12.13692 c -0.633865,-0.62666 -1.182447,-1.28295 -1.76466,-1.84051 -0.692177,-0.65651 -1.416955,-1.1573 -2.409487,-1.34783 -1.702429,-0.32677 -3.38914,-0.008 -5.198506,0.35334 m -3.014478,0.52609 c -0.70881,0.085 -1.420952,0.12899 -2.126369,0.10151 -1.792433,-0.0698 -3.04302,0.22994 -4.609319,0.22257 -1.493705,-0.007 -3.532039,-0.33261 -6.326998,-2.02389 -1.353392,-0.81896 -2.191711,-1.77462 -2.702064,-2.72788 m 25.531971,5.98327 c -0.540411,0.21544 -1.117904,0.40467 -1.753055,0.5416 -3.45776,0.74535 -7.47703,2.46095 -11.067158,0.81983 -0.681152,-0.31137 -1.217586,-0.75302 -1.653876,-1.2706 m -1.504183,-2.77939 c -0.839473,-2.13315 -1.445593,-4.2493 -3.758672,-5.65979 -2.142969,-1.30675 -3.634362,-1.83501 -5.241338,-2.2693 m 18.381947,10.85148 c -1.435179,-1.76834 -2.564908,-3.6397 -4.370631,-4.50341 -1.489001,-0.71223 -2.790851,-0.48889 -4.40994,-0.34905 m -2.862591,-0.0453 c -0.939032,-0.15192 -1.965954,-0.4833 -3.043929,-1.13795 -2.249143,-1.3659 -4.023641,-1.66615 -5.796,-2.00724 -1.698666,-0.32691 -3.289114,-0.6784 -4.524728,-2.14634 -0.507424,-0.60284 -0.851493,-1.2849 -1.081528,-2.00668 m 34.479295,13.18605 c -0.324974,-0.39067 -0.625567,-0.77732 -0.938363,-1.13085 v 0 c -0.66457,-0.74928 -1.363724,-1.32404 -2.475759,-1.53587 -1.490591,-0.28394 -2.958455,-0.10091 -4.508876,0.17696 m -2.910112,0.52822 c -1.048306,0.16305 -2.111264,0.26905 -3.162967,0.22205 -1.829869,-0.0818 -3.101959,0.20987 -4.696286,0.19102 -1.519335,-0.018 -3.596954,-0.35952 -6.446653,-2.08201 -2.066372,-1.24901 -3.071794,-2.64157 -3.533839,-3.88746 m 27.529524,7.01338 c -0.748519,0.32893 -1.551823,0.62437 -2.46961,0.81444 -3.543668,0.73386 -7.642812,2.43139 -11.30976,0.76614 -1.047665,-0.47577 -1.760574,-1.24331 -2.30261,-2.12702 m -1.311651,-2.87796 c -0.730195,-1.83827 -1.486331,-3.56277 -3.509092,-4.79447 -1.848231,-1.12543 -3.217046,-1.69373 -4.6157,-2.12412 m 9.80969,5.84925 c 1.338019,-0.11197 2.48934,-0.17017 3.782611,0.44329 1.571611,0.74549 2.641838,2.20182 3.836254,3.71728 m 2.292972,2.52891 c 0.888272,0.76838 1.913795,1.37285 3.128465,1.59528 1.064403,0.19491 2.000829,0.0596 2.873399,-0.2388 2.346499,-0.84225 4.154154,-2.68842 7.940868,-3.4404 1.685047,-0.33462 2.901212,-1.04169 3.830352,-1.80677 m -37.956425,-7.96805 c -0.379068,-2.29011 -0.152776,-4.45056 -1.471289,-6.07399 -1.256694,-1.54732 -3.078064,-2.39485 -4.99615,-3.35879 m -2.981961,-1.70086 c -0.241949,-0.16899 -0.477183,-0.34549 -0.703657,-0.53081 -1.370993,-1.12184 -2.542906,-1.61878 -3.774888,-2.54434 -1.17251,-0.88089 -2.588042,-2.33715 -3.761733,-5.30963 -0.275957,-0.69887 -0.407646,-1.36815 -0.432605,-1.99977 m 15.344584,17.96337 c -0.247877,-0.10384 -0.498561,-0.2194 -0.751981,-0.34966 -3.103855,-1.59536 -7.285367,-2.65728 -9.085733,-6.07538 -0.133011,-0.25253 -0.237112,-0.50777 -0.316211,-0.76446 m 0.06005,-3.40305 c 0.610548,-2.52557 1.811217,-4.75835 0.698646,-7.55444 -1.04776,-2.63321 -2.010892,-3.89917 -3.16643,-5.36764 m 8.312708,20.96085 c -0.13545,-2.61296 0.37717,-5.20399 -0.664045,-7.24041 -0.859875,-1.68175 -2.294412,-2.2076 -3.907255,-3.27693 m -2.443693,-2.31326 c -0.331593,-0.47776 -0.635761,-1.0302 -0.889659,-1.67091 -0.942659,-2.37881 -2.146445,-3.65161 -3.318262,-4.97196 -1.120289,-1.26229 -2.145768,-2.50579 -2.184498,-4.39174 -0.006,-0.29309 0.01361,-0.58073 0.05551,-0.86244 m 19.354851,30.64402 c -0.147633,-1.96918 0.07445,-3.67958 -1.133712,-5.15858 -1.121064,-1.37238 -2.658528,-2.21033 -4.324608,-3.0648 m -2.730102,-1.4618 c -0.618472,-0.37015 -1.214481,-0.7722 -1.761715,-1.2255 -1.390438,-1.15178 -2.573058,-1.66765 -3.818675,-2.61908 -1.184661,-0.90487 -2.619661,-2.39778 -3.816621,-5.43252 -0.580125,-1.47083 -0.665669,-2.74013 -0.49125,-3.8044 m 16.578976,20.49101 c -0.552011,-0.18592 -1.11666,-0.41255 -1.694398,-0.71341 -3.154263,-1.64262 -7.379994,-2.75774 -9.220388,-6.23703 -0.350365,-0.66237 -0.507597,-1.34044 -0.540221,-2.01878 m 0.483837,-3.13412 c 0.618925,-2.22119 1.394661,-4.26381 0.400192,-6.76667 -0.919403,-2.31394 -1.766024,-3.60938 -2.759311,-4.92308 m 8.047089,19.77525 c -0.02523,-2.29307 0.222169,-4.49473 -0.706874,-6.30175 -0.763701,-1.48542 -1.954381,-2.10152 -3.334923,-2.96527 m -2.264225,-1.75929 c -0.658401,-0.6853 -1.277996,-1.5665 -1.74013,-2.73416 -0.963813,-2.43524 -2.175832,-3.74128 -3.357679,-5.09787 -1.128818,-1.29573 -2.161359,-2.57082 -2.207771,-4.49944 -0.01908,-0.79267 0.141429,-1.5445 0.419195,-2.25262 m 19.042902,31.71962 c 0.03145,-1.59655 0.186921,-2.94073 -0.889435,-4.25113 -0.977842,-1.19046 -2.250481,-1.99064 -3.653068,-2.74932 m -2.640169,-1.39873 c -0.935378,-0.51919 -1.84748,-1.08647 -2.657842,-1.76569 -1.409882,-1.18171 -2.603209,-1.7165 -3.862462,-2.69381 -1.196803,-0.92883 -2.651291,-2.45844 -3.871504,-5.55541 -0.885867,-2.24837 -0.835942,-3.97112 -0.443492,-5.23729 m 17.481588,22.52815 c -0.780895,-0.2338 -1.583735,-0.52193 -2.411445,-0.9584 -3.204659,-1.68987 -7.47463,-2.85818 -9.355042,-6.39866 -0.538966,-1.01478 -0.637635,-2.0593 -0.532591,-3.09418 m 0.69519,-3.09509 c 0.526703,-1.91556 0.951302,-3.73845 0.08254,-5.92793 -0.792656,-1.99767 -1.524342,-3.25994 -2.359493,-4.44466 m 4.271126,10.53407 c 1.138841,0.71838 2.104073,1.37418 2.767943,2.65864 0.808324,1.56395 0.767965,3.39257 0.766459,5.33498 m 0.210076,3.4168 c 0.205473,1.15414 0.611385,2.25813 1.395401,3.18553 1.261571,1.49229 2.873298,1.86125 4.595709,2.20632 1.798967,0.36041 3.597378,0.67893 5.895656,2.07294 1.471613,0.89259 2.843371,1.20212 4.049617,1.27685 M 16.570292,222.21843 c 1.09934,-2.03185 2.596398,-3.54772 2.60576,-5.58917 0.0074,-1.61309 -0.55844,-3.08419 -1.218139,-4.67194 -0.142605,-0.32979 -0.286079,-0.65826 -0.429382,-0.99458 m -1.128046,-3.21052 c -0.06835,-0.28473 -0.126077,-0.57084 -0.170862,-0.85784 -0.271112,-1.73739 -0.795271,-2.88983 -1.070816,-4.40239 -0.262584,-1.44142 -0.305757,-3.46928 0.868786,-6.4439 0.27596,-0.69889 0.63697,-1.27744 1.050261,-1.75574 m -0.485622,23.46309 c -0.127001,-0.23314 -0.248575,-0.47752 -0.362625,-0.7353 -0.717471,-1.62164 -1.696075,-3.26979 -2.382619,-5.06282 -0.664284,-1.75897 -1.025154,-3.6267 -0.563808,-5.45383 0.07015,-0.27784 0.163883,-0.53804 0.277286,-0.78216 m 2.330059,-2.47064 c 2.148158,-1.43637 4.544868,-2.23222 5.65381,-5.01918 1.049885,-2.63853 1.221624,-4.23626 1.37524,-6.1185 m -7.976741,21.00464 c 0.302698,-0.39952 0.627571,-0.78436 0.959542,-1.16033 1.385582,-1.57856 2.810642,-2.92396 3.273691,-4.67205 0.474335,-1.79069 -0.223544,-3.10937 -0.678789,-4.98152 m -0.20658,-3.33953 c 0.08493,-0.57378 0.241362,-1.18369 0.495267,-1.82442 0.944393,-2.38317 0.93677,-4.13772 0.972401,-5.91109 0.03408,-1.69612 0.113407,-3.29762 1.343517,-4.71915 0.191101,-0.22084 0.397324,-0.4207 0.615941,-0.60167 m -5.832121,35.53668 c 1.08998,-1.63705 2.308472,-2.81029 2.308202,-4.68502 -2.39e-4,-1.65633 -0.571917,-3.17016 -1.235991,-4.80223 -0.0087,-0.0207 -0.0923,-0.2204 -0.10097,-0.24115 m -1.10922,-2.87474 c -0.219245,-0.68319 -0.396469,-1.37699 -0.500248,-2.07735 -0.263662,-1.77932 -0.782391,-2.95596 -1.050057,-4.50015 -0.254903,-1.47056 -0.287285,-3.54238 0.910717,-6.57974 0.580059,-1.47066 1.383229,-2.45516 2.23672,-3.11369 m -1.228675,26.18326 c -0.313217,-0.48405 -0.61023,-1.01004 -0.868721,-1.60332 -0.724989,-1.66396 -1.709475,-3.35515 -2.400471,-5.19312 -0.65992,-1.80307 -1.014928,-3.71397 -0.545956,-5.58413 0.183645,-0.73234 0.522926,-1.34449 0.954589,-1.86979 m 2.466602,-1.98249 c 1.951601,-1.20598 3.910514,-2.15632 4.902654,-4.6533 0.921036,-2.31803 1.19519,-3.85066 1.363562,-5.50408 m -7.396724,19.96185 c 0.102558,-0.12373 0.206264,-0.24634 0.31066,-0.36806 1.390055,-1.62067 2.81963,-3.0049 3.291543,-4.80235 0.417495,-1.59017 -0.0424,-2.82124 -0.469146,-4.3846 m -0.457919,-2.81471 c -0.01298,-0.94727 0.137499,-2.01206 0.599654,-3.17976 0.965384,-2.43919 0.972328,-4.2218 1.023024,-6.02581 0.04844,-1.72372 0.141679,-3.34995 1.391567,-4.80206 0.513453,-0.59652 1.131121,-1.04426 1.806326,-1.38548 m -6.816239,36.16819 c 1.004971,-1.23256 1.948321,-2.16895 1.940571,-3.84089 -0.007,-1.5177 -0.467207,-2.9178 -1.042715,-4.39741 m -1.090173,-2.77654 c -0.362481,-1.00542 -0.666233,-2.03499 -0.813541,-3.08212 -0.256211,-1.82125 -0.769511,-3.02209 -1.029299,-4.59791 -0.247233,-1.49967 -0.2688,-3.61551 0.95265,-6.71559 0.885482,-2.24738 2.094422,-3.46896 3.243562,-4.12678 m -1.889568,28.33121 c -0.463188,-0.66247 -0.909153,-1.38629 -1.277361,-2.24398 -0.732506,-1.70627 -1.722875,-3.4405 -2.418323,-5.32341 -0.655556,-1.84716 -1.004703,-3.80124 -0.528104,-5.71443 0.280829,-1.12732 0.911655,-1.97457 1.68546,-2.66983 m 2.599332,-1.80715 c 1.680233,-1.04327 3.234339,-2.07616 4.101744,-4.26221 0.793835,-2.00062 1.126843,-3.4259 1.32404,-4.87264 m -4.076726,10.60064 c 0.349828,1.2936 0.619031,2.41012 0.259036,3.79298 -0.438043,1.68267 -1.664001,3.00927 -2.93668,4.49372 m -2.038009,2.7716 c -0.574194,1.02958 -0.951869,2.15508 -0.918215,3.38162 0.05409,1.97127 1.093701,3.27798 2.231042,4.60712 1.191907,1.39291 2.412103,2.73206 3.397097,5.22379 0.630879,1.59593 1.538845,2.6684 2.457112,3.45376 m 0.882488,-38.66926 c 2.189445,-0.74211 4.349416,-0.8594 5.739982,-2.40831 1.326535,-1.47759 1.878946,-3.40126 2.532291,-5.44808 m 1.214484,-3.21592 c 0.129099,-0.26615 0.266646,-0.52693 0.414269,-0.78052 0.893659,-1.53516 1.198415,-2.77593 1.914978,-4.14585 0.683787,-1.30726 1.889821,-2.93785 4.630262,-4.59805 0.643746,-0.38999 1.281999,-0.63305 1.901312,-0.76507 m -15.295332,18.06421 c 0.06297,-0.2603 0.137123,-0.52527 0.225384,-0.7953 1.079484,-3.30266 1.477718,-7.60871 4.565007,-9.92945 0.228468,-0.17173 0.464216,-0.31535 0.70543,-0.4345 m 3.378001,-0.48549 c 2.59407,0.19685 5.020679,1.02175 7.613149,-0.56143 2.435497,-1.48733 3.540175,-2.68521 4.779457,-4.08438 m -19.418182,11.70125 c 2.554764,-0.54374 5.204432,-0.44353 7.058919,-1.79644 1.533258,-1.11856 1.829965,-2.62653 2.630229,-4.39953 m 1.895267,-2.80475 c 0.418823,-0.40846 0.915593,-0.8025 1.507833,-1.16264 2.195841,-1.33526 3.25133,-2.75625 4.341313,-4.14064 1.046567,-1.32925 2.077304,-2.55315 3.915301,-2.93295 0.285383,-0.059 0.570013,-0.092 0.852858,-0.10244 m -27.078247,24.18916 c 1.912644,-0.46201 3.629285,-0.51302 4.895232,-1.93272 1.175239,-1.31796 1.76163,-2.96185 2.345213,-4.74148 m 1.01654,-2.92769 c 0.268652,-0.67002 0.572235,-1.32341 0.933945,-1.93699 0.919103,-1.5591 1.240082,-2.81328 1.978915,-4.20043 0.704509,-1.3227 1.942033,-2.97787 4.736964,-4.66912 1.353269,-0.81889 2.588926,-1.11821 3.668495,-1.1286 m -17.576311,19.7007 c 0.09522,-0.57255 0.22887,-1.16436 0.433887,-1.78097 1.117824,-3.36197 1.560429,-7.72109 4.699665,-10.09108 0.598597,-0.45192 1.243529,-0.7155 1.909123,-0.85614 m 3.179895,-0.0244 c 2.296532,0.25324 4.45966,0.68723 6.778196,-0.72656 2.13941,-1.30456 3.286612,-2.38279 4.405016,-3.59447 m -18.278252,11.23287 c 2.258344,-0.38525 4.478736,-0.48625 6.122795,-1.6923 1.352442,-0.99212 1.775774,-2.27172 2.409685,-3.78013 m 1.375619,-2.5323 c 0.571033,-0.7658 1.340558,-1.52541 2.41866,-2.18014 2.24513,-1.36347 3.330234,-2.79651 4.452171,-4.19513 1.076168,-1.34155 2.134994,-2.57612 4.011064,-2.96815 0.770327,-0.16096 1.532967,-0.14005 2.274449,0.001 m -28.15898,24.07958 c 1.57553,-0.22524 2.921832,-0.28467 4.042462,-1.54959 1.018399,-1.14953 1.608197,-2.52773 2.137583,-4.03151 m 0.967281,-2.8279 c 0.365858,-1.0064 0.782663,-1.99862 1.325491,-2.9084 0.944541,-1.58304 1.281744,-2.85062 2.04285,-4.25501 0.725201,-1.33813 1.994272,-3.01791 4.843663,-4.74018 2.066313,-1.24895 3.768031,-1.49245 5.083714,-1.32384 M 21.3618,189.59794 c 0.1056,-0.80554 0.261871,-1.64208 0.560867,-2.52685 1.156166,-3.42127 1.643136,-7.8335 4.834319,-10.25273 0.916109,-0.6945 1.931923,-0.95857 2.972257,-1.02027 m 3.175405,0.18976 c 1.980542,0.21051 3.864175,0.33144 5.890191,-0.90225 1.845779,-1.12393 2.975542,-2.07564 3.996489,-3.10781 m -9.723676,6.01199 c -0.528686,1.24457 -1.026018,2.3063 -2.193893,3.16759 -1.421365,1.04822 -3.238637,1.29582 -5.156259,1.59989 m -3.33851,0.74615 c -1.105675,0.38536 -2.129344,0.96134 -2.918675,1.88309 -1.269661,1.48268 -1.376823,3.13367 -1.439618,4.88497 -0.06579,1.83472 -0.08724,3.64525 -1.073647,6.14052 -0.63093,1.59605 -0.70091,2.99816 -0.564994,4.19554 m 26.023629,-29.35048 c 2.197838,0.72554 3.967268,1.92098 5.983507,1.53716 1.91661,-0.36485 3.488473,-1.52974 5.240486,-2.70717 m 2.921801,-1.71532 c 0.265951,-0.1224 0.535631,-0.23489 0.809038,-0.33497 1.013986,-0.37113 1.749195,-0.76087 2.541913,-1.17055 1.624867,-0.83899 3.782076,-1.94736 8.133061,-1.08104 0.739217,0.14718 1.374315,0.40064 1.918592,0.7232 m -23.147113,3.96272 c 0.205939,-0.1679 0.423638,-0.33255 0.655606,-0.49238 2.816857,-1.94083 5.803871,-5.08723 9.699128,-4.91854 0.287507,0.0125 0.562716,0.0518 0.826309,0.11399 m 2.907078,1.81465 c 1.850416,1.85883 3.058578,4.0425 5.987963,4.61543 2.775246,0.54278 4.336785,0.43333 6.217607,0.2613 m -22.066178,-3.87947 c 2.327995,1.13862 4.299048,2.86436 6.524844,3.02729 0.886535,0.0649 1.614173,-0.1124 2.343103,-0.41323 0.777605,-0.33687 1.542013,-0.80652 2.428653,-1.21799 m 3.245847,-0.8395 c 0.579636,-0.023 1.2075,0.0188 1.882341,0.15206 2.511624,0.49599 4.221533,0.18544 5.973932,-0.0814 1.670825,-0.25441 3.262228,-0.44207 4.86379,0.53407 0.24882,0.15166 0.479412,0.3217 0.693336,0.50707 m -35.942455,0.79043 c 1.805199,0.78314 3.186803,1.76779 5.032446,1.41085 1.708695,-0.33045 3.146965,-1.25952 4.683776,-2.28037 m 2.590768,-1.63135 c 0.625295,-0.34774 1.270931,-0.65868 1.939383,-0.89943 1.041061,-0.37496 1.794658,-0.76644 2.608183,-1.17836 1.664512,-0.83381 3.877302,-1.93869 8.325136,-1.0509 1.557231,0.31083 2.671635,0.93179 3.468888,1.65675 m -25.957824,3.7152 c 0.419251,-0.39639 0.881216,-0.78421 1.415074,-1.14705 2.891031,-1.96496 5.957396,-5.12816 9.941729,-4.97224 0.758048,0.0297 1.431153,0.23777 2.038229,0.55752 m 2.45156,2.05555 c 1.576618,1.70585 2.863956,3.43803 5.489903,3.95336 2.439673,0.47878 3.967729,0.47985 5.623706,0.3609 m -20.961848,-3.50175 c 1.998165,1.08607 3.764894,2.39282 5.756074,2.52732 0.911127,0.0616 1.659713,-0.11814 2.409373,-0.42103 0.598876,-0.25063 1.180483,-0.57044 1.821524,-0.88992 m 2.687833,-0.991 c 0.930944,-0.19048 2.007629,-0.23833 3.239558,0.006 2.574558,0.50984 4.316601,0.21014 6.103702,-0.0458 1.702274,-0.24386 3.321876,-0.42116 4.958631,0.57019 0.672414,0.40727 1.214876,0.94184 1.660951,1.55044 m -36.733364,-0.0871 c 1.391645,0.76932 2.488131,1.52698 4.130183,1.20467 1.48944,-0.29236 2.777008,-1.01416 4.105219,-1.85979 m 2.491957,-1.59601 c 0.909617,-0.55028 1.858249,-1.05406 2.85935,-1.40905 1.068162,-0.37877 1.840098,-0.77199 2.674456,-1.18616 1.70407,-0.82865 3.972613,-1.93001 8.517207,-1.02077 2.382049,0.47657 3.802121,1.46124 4.647864,2.47706 m -28.190925,3.44089 c 0.568023,-0.57543 1.196467,-1.14403 1.968256,-1.66175 2.965202,-1.98905 6.110928,-5.16909 10.184331,-5.02593 1.118336,0.0393 2.052863,0.44953 2.873267,1.03337 0.03595,0.0261 0.07167,0.0525 0.107193,0.0792 m 2.300163,2.23097 c 1.35789,1.46659 2.656168,2.79221 4.957414,3.24526 2.107662,0.41495 3.549798,0.49171 5.006758,0.43599 m -11.154133,-2.06365 c -0.413919,0.20496 -0.812789,0.39955 -1.217395,0.56325 -0.77039,0.30495 -1.539923,0.48703 -2.475643,0.42883 -1.736407,-0.10799 -3.286538,-1.0529 -4.968306,-1.99779 m -3.076961,-1.45959 c -1.108351,-0.37019 -2.273724,-0.53661 -3.463304,-0.28539 -1.914138,0.40424 -3.001065,1.64949 -4.106825,3.00335 -1.153959,1.41287 -2.268545,2.8579 -4.563027,4.2496 -1.471902,0.89276 -2.38231,1.96751 -3.010117,3.00655 m 38.246213,-6.23323 c 1.104175,2.02402 1.572104,4.11618 3.312435,5.22389 1.659226,1.05608 3.629054,1.28818 5.74447,1.60616 m 3.35576,0.6884 c 0.282525,0.0854 0.561174,0.18007 0.834374,0.28583 1.653887,0.64028 2.927136,0.74683 4.394081,1.23878 1.401551,0.47002 3.200855,1.40274 5.28442,3.84651 0.48931,0.57391 0.832723,1.1658 1.063625,1.75714 m -20.243689,-12.2073 c 0.265594,0.0187 0.537655,0.0477 0.81701,0.09 3.410569,0.5155 7.723827,0.22656 10.500487,2.9034 0.205586,0.1982 0.384561,0.40806 0.540247,0.6272 m 1.011322,3.25818 c 0.213204,2.58904 -0.221173,5.13203 1.763258,7.45243 1.864963,2.1807 3.246122,3.09051 4.838554,4.08612 M 81.035751,172.82078 c 0.943435,2.42317 1.260459,5.0511 2.879815,6.66743 1.34152,1.33902 2.87356,1.39729 4.753099,1.91131 m 3.074871,1.43429 c 0.471102,0.35005 0.940655,0.77942 1.392612,1.30873 1.675552,1.96238 3.260399,2.77824 4.811143,3.62603 1.491541,0.81543 2.871799,1.62428 3.560649,3.37226 0.10692,0.27134 0.18827,0.54632 0.24712,0.82342 M 73.50644,169.15898 c 0.779549,1.80094 1.110922,3.47129 2.70714,4.47919 1.480928,0.93511 3.184289,1.24517 5.026088,1.53567 m 3.040949,0.53681 c 0.702244,0.15897 1.394148,0.35538 2.056193,0.61559 1.682324,0.66122 2.971681,0.7813 4.459457,1.29192 1.42035,0.48748 3.249216,1.44652 5.371708,3.93701 1.027402,1.20552 1.523382,2.37752 1.709532,3.44377 m -22.233483,-14.1868 c 0.577456,-0.002 1.180484,0.0314 1.819603,0.13155 3.478792,0.54489 7.853969,0.29156 10.689117,3.01107 0.540911,0.51885 0.90311,1.11331 1.147045,1.74787 m 0.525127,3.13603 c 0.111265,2.30618 0.02241,4.52334 1.795301,6.59756 1.636278,1.91439 2.900391,2.88229 4.286533,3.79004 M 81.889487,172.93434 c 0.739696,2.15884 1.187437,4.33136 2.63139,5.76342 1.189345,1.17955 2.516717,1.39812 4.107704,1.78845 m 2.721385,0.96206 c 0.848373,0.44398 1.722557,1.08478 2.54412,2.04745 1.710703,2.00454 3.31157,2.84631 4.880657,3.72181 1.507657,0.84122 2.902137,1.67461 3.607777,3.45609 0.28964,0.73125 0.39938,1.48584 0.38814,2.24074 M 74.43944,169.03071 c 0.487976,1.51011 0.768054,2.81777 2.190821,3.7093 1.292455,0.80987 2.737895,1.16585 4.300289,1.44596 m 2.935465,0.50231 c 1.048845,0.20105 2.093029,0.45547 3.076107,0.84747 1.710764,0.68216 3.016223,0.81576 4.524832,1.34506 1.43913,0.50492 3.297595,1.49031 5.458959,4.02752 1.56684,1.83929 2.08386,3.4785 2.132368,4.80754 M 75.305294,169.91264 c 0.808305,-0.0309 1.656255,-0.0159 2.575018,0.13289 3.547001,0.57429 7.984117,0.35654 10.877743,3.11874 0.831167,0.79341 1.252659,1.75343 1.477825,2.77042 m 0.313195,3.16599 c 0.104129,1.9888 0.281694,3.87732 1.829096,5.6887 1.409893,1.65041 2.541892,2.61907 3.733276,3.46035 m -7.515344,-8.67275 c -1.31314,-0.32722 -2.437804,-0.65241 -3.469915,-1.66975 -1.255133,-1.23718 -1.784366,-2.98913 -2.38933,-4.82708 m -1.271998,-3.16443 c -0.559186,-1.02522 -1.294987,-1.93886 -2.334498,-2.56468 -1.671934,-1.00655 -3.319759,-0.83963 -5.05347,-0.60631 -1.821876,0.24517 -3.595907,0.53406 -6.233472,0.0103 -1.686629,-0.33496 -3.08397,-0.14585 -4.240567,0.21391 m 33.158771,20.77943 c -0.354274,2.2953 -1.237896,4.25851 -0.501454,6.19576 0.700042,1.84149 2.142588,3.20048 3.625691,4.71289 m 2.231669,2.55452 c 0.17007,0.23743 0.33116,0.47998 0.48087,0.7282 0.90632,1.50258 1.8314,2.36586 2.66477,3.66259 0.78607,1.22313 1.62355,3.11447 1.63927,6.35508 -0.004,0.76467 -0.13424,1.44545 -0.35043,2.04745 m -8.2685,-22.02716 c 0.201681,0.17532 0.402201,0.36266 0.600522,0.56477 2.422448,2.46881 6.025118,4.81561 6.580278,8.64245 0.0409,0.28205 0.0536,0.55702 0.042,0.8249 m -1.21022,3.16885 c -1.44616,2.15686 -3.35964,3.79185 -3.39364,6.77872 0.0324,2.84678 0.4346,4.32704 0.95776,6.15289 m -0.37984,-22.38916 c -0.70731,2.50173 -2.029548,4.74913 -1.747838,6.97337 0.233749,1.84555 1.376418,2.79368 2.506558,4.35367 m 1.44871,3.02029 c 0.13531,0.56609 0.21649,1.1948 0.21465,1.88894 0.007,2.58303 0.63487,4.20423 1.21983,5.8848 0.55677,1.59958 1.02365,3.13738 0.34199,4.88767 -0.10586,0.2718 -0.23308,0.52874 -0.37832,0.77175 m -7.413043,-35.25191 c -0.47453,1.91602 -1.215271,3.45778 -0.538078,5.22719 0.627137,1.63862 1.807523,2.90348 3.094051,4.23408 m 2.08193,2.24892 c 0.45733,0.5485 0.88212,1.12152 1.24293,1.72822 0.91677,1.54152 1.84715,2.42912 2.68697,3.75892 0.7918,1.25378 1.63821,3.19184 1.66174,6.51037 -0.0115,1.61296 -0.42011,2.84118 -0.98797,3.76759 m -8.533265,-24.85373 c 0.463926,0.34795 0.926576,0.7387 1.377437,1.204 2.455258,2.53394 6.084028,4.95151 6.660958,8.85807 0.10959,0.74207 0.0309,1.43428 -0.16661,2.08333 m -1.52272,2.77367 c -1.35118,1.86637 -2.80558,3.48253 -2.82785,6.16706 0.0208,2.50529 0.31027,3.98806 0.73868,5.60017 m -0.55037,-21.23305 c -0.71137,2.16409 -1.66075,4.1367 -1.40294,6.11838 0.21258,1.63401 1.10332,2.59496 2.09159,3.87951 m 1.4911,2.43701 c 0.36943,0.87514 0.63195,1.92922 0.63194,3.19798 0,2.65284 0.62092,4.31034 1.19934,6.02963 0.55003,1.63489 1.0101,3.20433 0.3178,4.99444 -0.28428,0.73506 -0.71705,1.36335 -1.23899,1.90793 m -6.683467,-36.1747 c -0.528478,1.50497 -1.093009,2.72352 -0.487703,4.29499 0.549166,1.42571 1.493781,2.57532 2.56721,3.73314 m 2.02422,2.16107 c 0.70732,0.79118 1.3752,1.62417 1.90817,2.53263 0.92721,1.58045 1.8629,2.49237 2.70916,3.85524 0.79752,1.28439 1.65286,3.26923 1.68426,6.66564 -0.0229,2.47007 -0.74155,4.07143 -1.588,5.09703 m -8.660048,-27.10847 c 0.665829,0.46507 1.334719,0.98917 1.978888,1.66209 2.48804,2.59907 6.14295,5.08742 6.74164,9.07368 0.17127,1.14036 -0.0847,2.16039 -0.5331,3.0983 m -1.71352,2.66523 c -1.16185,1.61122 -2.21316,3.15353 -2.22596,5.51213 0.0116,2.16758 0.21118,3.59037 0.53995,5.01797 m -0.1225,-11.37412 c -0.81558,-1.06376 -1.48767,-1.99286 -1.67668,-3.40994 -0.22968,-1.72204 0.40587,-3.41595 1.03239,-5.241 m 0.8928,-3.28603 c 0.1723,-1.1554 0.1376,-2.3304 -0.31115,-3.45785 -0.72242,-1.81497 -2.13115,-2.67293 -3.654907,-3.53992 -1.587476,-0.90327 -3.204266,-1.77082 -4.95019,-3.81764 -1.120153,-1.31319 -2.327868,-2.0427 -3.45513,-2.49942"
       id="path1691-3"
       sodipodi:nodetypes="ccccccccccccccccccccscccscccccccccccccccccccccccccscccccccccccscccccccsccccccccccccccccccccccccccscccssccccccccccccccccccccccscccccccccsccccscccccccsccccccscccscccccccccccccccccccccccccccccsccccccccscccccsccccccccccccccccccccccscccscccccccsccccsccccccccccccccccccccccccccccsccsccccccccssccccccccccccscccscccsccccscccccsccccccccccsccccccsscccscscccccscccscccscccscccccccccccccccccccccsccccscccccccccccccccccccccccsccccccccccccccccccccccccccccccccccccccccccccccccccccccccccccccccscccccccccccccccccccccccccscccccccccccccccccccccssccccccccccsccccccccccccccccccccccccccccccccccsccccccccccscccscccsccccccccscccccsccccccccccscccccscccccccccccc" />
    <text
       xml:space="preserve"
       style="font-style:normal;font-variant:normal;font-weight:normal;font-stretch:normal;font-size:6px;line-height:100%;font-family:Overlock;-inkscape-font-specification:Overlock;letter-spacing:0px;word-spacing:0px;fill:#00ff00;fill-opacity:1;stroke:none;stroke-width:0.26458332"
       x="-75.784225"
       y="163.5744"
       id="text855"><tspan
         sodipodi:role="line"
         id="tspan853"
         x="-75.784225"
         y="163.5744"
         style="font-size:6px;fill:#00ff00;fill-opacity:1;stroke-width:0.26458332">material:</tspan><tspan
         sodipodi:role="line"
         x="-75.784225"
         y="169.5744"
         style="font-size:6px;fill:#00ff00;fill-opacity:1;stroke-width:0.26458332"
         id="tspan921">1mm Buchen Sperrholz</tspan><tspan
         sodipodi:role="line"
         x="-75.784225"
         y="175.5744"
         style="font-size:6px;fill:#00ff00;fill-opacity:1;stroke-width:0.26458332"
         id="tspan923">Vowinkel</tspan><tspan
         sodipodi:role="line"
         x="-75.784225"
         y="181.5744"
         style="font-size:6px;fill:#00ff00;fill-opacity:1;stroke-width:0.26458332"
         id="tspan925" /><tspan
         sodipodi:role="line"
         x="-75.784225"
         y="187.5744"
         style="font-size:6px;fill:#00ff00;fill-opacity:1;stroke-width:0.26458332"
         id="tspan919">Cut:</tspan><tspan
         sodipodi:role="line"
         x="-75.784225"
         y="193.5744"
         style="font-size:6px;fill:#00ff00;fill-opacity:1;stroke-width:0.26458332"
         id="tspan863">power 80</tspan><tspan
         sodipodi:role="line"
         x="-75.784225"
         y="199.5744"
         style="font-size:6px;fill:#00ff00;fill-opacity:1;stroke-width:0.26458332"
         id="tspan865">speed 30</tspan><tspan
         sodipodi:role="line"
         x="-75.784225"
         y="205.5744"
         style="font-size:6px;fill:#00ff00;fill-opacity:1;stroke-width:0.26458332"
         id="tspan867" /><tspan
         sodipodi:role="line"
         x="-75.784225"
         y="211.5744"
         style="font-size:6px;fill:#00ff00;fill-opacity:1;stroke-width:0.26458332"
         id="tspan869">mark:</tspan><tspan
         sodipodi:role="line"
         x="-75.784225"
         y="217.5744"
         style="font-size:6px;fill:#00ff00;fill-opacity:1;stroke-width:0.26458332"
         id="tspan871">power 11</tspan><tspan
         sodipodi:role="line"
         x="-75.784225"
         y="223.5744"
         style="font-size:6px;fill:#00ff00;fill-opacity:1;stroke-width:0.26458332"
         id="tspan873">speed 100</tspan><tspan
         sodipodi:role="line"
         x="-75.784225"
         y="229.5744"
         style="font-size:6px;fill:#00ff00;fill-opacity:1;stroke-width:0.26458332"
         id="tspan875" /><tspan
         sodipodi:role="line"
         x="-75.784225"
         y="235.5744"
         style="font-size:6px;fill:#00ff00;fill-opacity:1;stroke-width:0.26458332"
         id="tspan877">but speed 100 is</tspan><tspan
         sodipodi:role="line"
         x="-75.784225"
         y="241.5744"
         style="font-size:6px;fill:#00ff00;fill-opacity:1;stroke-width:0.26458332"
         id="tspan879">not smooth...</tspan></text>
  </g>
</svg>
