<?xml version="1.0" encoding="UTF-8" standalone="no"?>
<svg
   xmlns:dc="http://purl.org/dc/elements/1.1/"
   xmlns:cc="http://creativecommons.org/ns#"
   xmlns:rdf="http://www.w3.org/1999/02/22-rdf-syntax-ns#"
   xmlns:svg="http://www.w3.org/2000/svg"
   xmlns="http://www.w3.org/2000/svg"
   xmlns:sodipodi="http://sodipodi.sourceforge.net/DTD/sodipodi-0.dtd"
   xmlns:inkscape="http://www.inkscape.org/namespaces/inkscape"
   width="95.814659mm"
   height="104.26405mm"
   version="1.1"
   id="svg80"
   sodipodi:docname="back.svg"
   inkscape:version="0.92.3 (2405546, 2018-03-11)">
  <metadata
     id="metadata84">
    <rdf:RDF>
      <cc:Work
         rdf:about="">
        <dc:format>image/svg+xml</dc:format>
        <dc:type
           rdf:resource="http://purl.org/dc/dcmitype/StillImage" />
        <dc:title></dc:title>
      </cc:Work>
    </rdf:RDF>
  </metadata>
  <sodipodi:namedview
     pagecolor="#ffffff"
     bordercolor="#666666"
     borderopacity="1"
     objecttolerance="10"
     gridtolerance="10"
     guidetolerance="10"
     inkscape:pageopacity="0"
     inkscape:pageshadow="2"
     inkscape:window-width="1920"
     inkscape:window-height="1015"
     id="namedview82"
     showgrid="false"
     inkscape:document-units="mm"
     units="mm"
     fit-margin-top="5"
     fit-margin-left="5"
     fit-margin-bottom="5"
     fit-margin-right="5"
     inkscape:showpageshadow="false"
     inkscape:zoom="2.3786089"
     inkscape:cx="207.78077"
     inkscape:cy="184.85067"
     inkscape:window-x="0"
     inkscape:window-y="0"
     inkscape:window-maximized="1"
     inkscape:current-layer="g78" />
  <desc
     id="desc2">/home/stefan/mydata/projects/20170813_MagierCharacter/amulet/amulet_V3_export/back.dxf - scale = 1.000000, origin = (0.000000, 0.000000), method = manual</desc>
  <defs
     id="defs16">
    <marker
       id="DistanceX"
       orient="auto"
       refX="0"
       refY="0"
       style="overflow:visible">
      <path
         d="M 3,-3 -3,3 M 0,-5 V 5"
         style="stroke:#000000;stroke-width:0.5"
         id="path4"
         inkscape:connector-curvature="0" />
    </marker>
    <pattern
       height="8"
       id="Hatch"
       patternUnits="userSpaceOnUse"
       width="8"
       x="0"
       y="0">
      <path
         d="M8 4 l-4,4"
         linecap="square"
         stroke="#000000"
         stroke-width="0.25"
         id="path7" />
      <path
         d="M6 2 l-4,4"
         linecap="square"
         stroke="#000000"
         stroke-width="0.25"
         id="path9" />
      <path
         d="M4 0 l-4,4"
         linecap="square"
         stroke="#000000"
         stroke-width="0.25"
         id="path11" />
    </pattern>
    <symbol
       id="*MODEL_SPACE" />
    <symbol
       id="*PAPER_SPACE" />
  </defs>
  <g
     inkscape:groupmode="layer"
     inkscape:label="0"
     id="g18"
     transform="translate(-380.19277,-558.87001)" />
  <g
     inkscape:groupmode="layer"
     inkscape:label="View003"
     id="g78"
     transform="translate(-380.19277,-558.87001)">
    <path
       d="m 462.94097,895.9626 a 147.40157,147.40157 0 0 0 196.63813,-3.4e-4"
       style="fill:none;stroke:#000000"
       id="path20"
       inkscape:connector-curvature="0" />
    <path
       d="m 462.93952,895.96227 a 18.897638,18.897638 0 0 0 -18.57975,-3.84873"
       style="fill:none;stroke:#000000"
       id="path22"
       inkscape:connector-curvature="0" />
    <path
       d="m 678.15989,892.11353 a 18.897638,18.897638 0 0 0 -18.57968,3.8487"
       style="fill:none;stroke:#000000"
       id="path24"
       inkscape:connector-curvature="0" />
    <path
       d="m 411.03612,834.39339 a 34.015748,34.015748 0 0 0 33.32462,57.72006"
       style="fill:none;stroke:#000000"
       id="path26"
       inkscape:connector-curvature="0" />
    <path
       d="m 678.15889,892.11343 a 34.015748,34.015748 0 0 0 33.32472,-57.72"
       style="fill:none;stroke:#000000"
       id="path28"
       inkscape:connector-curvature="0" />
    <path
       d="m 411.03728,834.39337 a 18.897638,18.897638 0 0 0 5.95676,-18.01488"
       style="fill:none;stroke:#000000"
       id="path30"
       inkscape:connector-curvature="0" />
    <path
       d="m 705.52563,816.37855 a 18.897638,18.897638 0 0 0 5.9568,18.01485"
       style="fill:none;stroke:#000000"
       id="path32"
       inkscape:connector-curvature="0" />
    <path
       d="M 490.91685,656.60762 A 147.40157,147.40157 0 0 0 416.99274,816.37794"
       style="fill:none;stroke:#000000"
       id="path34"
       inkscape:connector-curvature="0" />
    <path
       d="M 705.52684,816.37845 A 147.40157,147.40157 0 0 0 631.60171,656.607"
       style="fill:none;stroke:#000000"
       id="path36"
       inkscape:connector-curvature="0" />
    <path
       d="m 490.91929,656.60576 a 18.897638,18.897638 0 0 0 9.87707,-16.90698"
       style="fill:none;stroke:#000000"
       id="path38"
       inkscape:connector-curvature="0" />
    <path
       d="m 621.72332,639.69894 a 18.897638,18.897638 0 0 0 9.87693,16.90674"
       style="fill:none;stroke:#000000"
       id="path40"
       inkscape:connector-curvature="0" />
    <path
       d="m 621.72466,639.70004 a 60.472441,60.472441 0 1 0 -120.92965,-5.2e-4"
       style="fill:none;stroke:#000000"
       id="path42"
       inkscape:connector-curvature="0" />
    <path
       d="m 567.49606,595.08661 a 6.2362205,6.2362205 0 1 0 -12.47244,0 6.2362205,6.2362205 0 1 0 12.47244,0 z"
       style="fill:none;stroke:#000000"
       id="path44"
       inkscape:connector-curvature="0" />
    <path
       style="fill:#0500ff;stroke:#fd0000;fill-opacity:0.98802394;stroke-opacity:1"
       d="M 177.09375 91.267578 A 136.063 136.063 0 0 0 45.003906 227.27148 A 136.063 136.063 0 0 0 317.13086 227.27148 A 136.063 136.063 0 0 0 177.09375 91.267578 z M 148.78516 106.79492 L 213.34766 106.79492 L 269.26172 139.07617 L 301.54297 194.99023 L 301.54297 259.55273 L 269.26172 315.46484 L 213.34766 347.74609 L 148.78516 347.74609 L 92.871094 315.46484 L 60.591797 259.55273 L 60.591797 194.99023 L 92.871094 139.07617 L 148.78516 106.79492 z "
       id="path46"
       transform="translate(380.19277,558.87001)" />
    <path
       d="m 702.96945,849.31502 a 6.2362205,6.2362205 0 1 0 -12.47244,0 6.2362205,6.2362205 0 1 0 12.47244,0 z"
       style="fill:none;stroke:#000000"
       id="path48"
       inkscape:connector-curvature="0" />
    <path
       d="m 432.02268,849.31502 a 6.2362205,6.2362205 0 1 0 -12.47244,0 6.2362205,6.2362205 0 1 0 12.47244,0 z"
       style="fill:none;stroke:#000000"
       id="path50"
       inkscape:connector-curvature="0" />
    <path
       d="m 674.64567,786.14173 a 113.38583,113.38583 0 1 0 -226.77165,0 113.38583,113.38583 0 1 0 226.77165,0 z"
       style="fill:none;stroke:#000000"
       id="path52"
       inkscape:connector-curvature="0" />
  </g>
</svg>
