  0
SECTION
  2
HEADER
  9
$ACADVER
  1
AC1014
  9
$HANDSEED
  5
FFFF
  9
$MEASUREMENT
 70
     1
  0
ENDSEC
  0
SECTION
  2
TABLES
  0
TABLE
  2
VPORT
  5
8
330
0
100
AcDbSymbolTable
 70
     4
  0
VPORT
  5
2E
330
8
100
AcDbSymbolTableRecord
100
AcDbViewportTableRecord
  2
*ACTIVE
 70
     0
 10
0.0
 20
0.0
 11
1.0
 21
1.0
 12
210.0
 22
148.5
 13
0.0
 23
0.0
 14
10.0
 24
10.0
 15
10.0
 25
10.0
 16
0.0
 26
0.0
 36
1.0
 17
0.0
 27
0.0
 37
0.0
 40
341.0
 41
1.24
 42
50.0
 43
0.0
 44
0.0
 50
0.0
 51
0.0
 71
     0
 72
   100
 73
     1
 74
     3
 75
     0
 76
     0
 77
     0
 78
     0
  0
ENDTAB
  0
TABLE
  2
LTYPE
  5
5
330
0
100
AcDbSymbolTable
 70
     1
  0
LTYPE
  5
14
330
5
100
AcDbSymbolTableRecord
100
AcDbLinetypeTableRecord
  2
BYBLOCK
 70
     0
  3

 72
    65
 73
     0
 40
0.0
  0
LTYPE
  5
15
330
5
100
AcDbSymbolTableRecord
100
AcDbLinetypeTableRecord
  2
BYLAYER
 70
     0
  3

 72
    65
 73
     0
 40
0.0
  0
LTYPE
  5
16
330
5
100
AcDbSymbolTableRecord
100
AcDbLinetypeTableRecord
  2
CONTINUOUS
 70
     0
  3
Solid line
 72
    65
 73
     0
 40
0.0
  0
ENDTAB
  0
TABLE
  2
LAYER
  5
2
100
AcDbSymbolTable
 70
2
  0
LAYER
  5
50
100
AcDbSymbolTableRecord
100
AcDbLayerTableRecord
  2
0
 70
0
  6
CONTINUOUS
  0
LAYER
  5
51
100
AcDbSymbolTableRecord
100
AcDbLayerTableRecord
  2
View003
 70
0
  6
CONTINUOUS
  0
ENDTAB
  0
TABLE
  2
STYLE
  5
3
330
0
100
AcDbSymbolTable
 70
     1
  0
STYLE
  5
11
330
3
100
AcDbSymbolTableRecord
100
AcDbTextStyleTableRecord
  2
STANDARD
 70
     0
 40
0.0
 41
1.0
 50
0.0
 71
     0
 42
2.5
  3
txt
  4

  0
ENDTAB
  0
TABLE
  2
VIEW
  5
6
330
0
100
AcDbSymbolTable
 70
     0
  0
ENDTAB
  0
TABLE
  2
UCS
  5
7
330
0
100
AcDbSymbolTable
 70
     0
  0
ENDTAB
  0
TABLE
  2
APPID
  5
9
330
0
100
AcDbSymbolTable
 70
     2
  0
APPID
  5
12
330
9
100
AcDbSymbolTableRecord
100
AcDbRegAppTableRecord
  2
ACAD
 70
     0
  0
ENDTAB
  0
TABLE
  2
DIMSTYLE
  5
A
330
0
100
AcDbSymbolTable
 70
     1
  0
DIMSTYLE
105
27
330
A
100
AcDbSymbolTableRecord
100
AcDbDimStyleTableRecord
  2
ISO-25
 70
     0
  3

  4

  5

  6

  7

 40
1.0
 41
2.5
 42
0.625
 43
3.75
 44
1.25
 45
0.0
 46
0.0
 47
0.0
 48
0.0
140
2.5
141
2.5
142
0.0
143
0.03937007874016
144
1.0
145
0.0
146
1.0
147
0.625
 71
     0
 72
     0
 73
     0
 74
     0
 75
     0
 76
     0
 77
     1
 78
     8
170
     0
171
     3
172
     1
173
     0
174
     0
175
     0
176
     0
177
     0
178
     0
270
     2
271
     2
272
     2
273
     2
274
     3
340
11
275
     0
280
     0
281
     0
282
     0
283
     0
284
     8
285
     0
286
     0
287
     3
288
     0
  0
ENDTAB
  0
TABLE
  2
BLOCK_RECORD
  5
1
330
0
100
AcDbSymbolTable
 70
     1
  0
BLOCK_RECORD
  5
1F
330
1
100
AcDbSymbolTableRecord
100
AcDbBlockTableRecord
  2
*MODEL_SPACE
  0
BLOCK_RECORD
  5
1B
330
1
100
AcDbSymbolTableRecord
100
AcDbBlockTableRecord
  2
*PAPER_SPACE
  0
ENDTAB
  0
ENDSEC
  0
SECTION
  2
BLOCKS
  0
BLOCK
  5
20
330
1F
100
AcDbEntity
  8
0
100
AcDbBlockBegin
  2
*MODEL_SPACE
 70
     0
 10
0.0
 20
0.0
 30
0.0
  3
*MODEL_SPACE
  1

  0
ENDBLK
  5
21
330
1F
100
AcDbEntity
  8
0
100
AcDbBlockEnd
  0
BLOCK
  5
1C
330
1B
100
AcDbEntity
 67
     1
  8
0
100
AcDbBlockBegin
  2
*PAPER_SPACE
  1

  0
ENDBLK
  5
1D
330
1B
100
AcDbEntity
 67
     1
  8
0
100
AcDbBlockEnd
  0
ENDSEC
  0
SECTION
  2
ENTITIES
  0
SPLINE
  5
100
100
AcDbEntity
  8
View003
 62
7
100
AcDbSpline
 70
8
 71
3
 72
8
 73
4
 74
0
 40
0
 40
0
 40
0
 40
0
 40
1
 40
1
 40
1
 40
1
 10
21.893795
 20
15.074969
 30
0.0
 10
36.702437
 20
1.817296
 30
0.0
 10
59.112370
 20
1.817334
 30
0.0
 10
73.920966
 20
15.075059
 30
0.0
  0
SPLINE
  5
101
100
AcDbEntity
  8
View003
 62
7
100
AcDbSpline
 70
8
 71
3
 72
8
 73
4
 74
0
 40
0
 40
0
 40
0
 40
0
 40
1
 40
1
 40
1
 40
1
 10
21.893411
 20
15.075056
 30
0.0
 10
20.556288
 20
16.272145
 30
0.0
 10
18.680152
 20
16.660780
 30
0.0
 10
16.977519
 20
16.093366
 30
0.0
  0
SPLINE
  5
102
100
AcDbEntity
  8
View003
 62
7
100
AcDbSpline
 70
8
 71
3
 72
8
 73
4
 74
0
 40
0
 40
0
 40
0
 40
0
 40
1
 40
1
 40
1
 40
1
 10
78.837134
 20
16.093369
 30
0.0
 10
77.134507
 20
16.660777
 30
0.0
 10
75.258381
 20
16.272146
 30
0.0
 10
73.921260
 20
15.075067
 30
0.0
  0
SPLINE
  5
103
100
AcDbEntity
  8
View003
 62
7
100
AcDbSpline
 70
8
 71
3
 72
8
 73
4
 74
0
 40
0
 40
0
 40
0
 40
0
 40
1
 40
1
 40
1
 40
1
 10
8.160636
 20
31.365156
 30
0.0
 10
4.962389
 20
28.528712
 30
0.0
 10
4.200684
 20
23.833865
 30
0.0
 10
6.338097
 20
20.131748
 30
0.0
  0
SPLINE
  5
104
100
AcDbEntity
  8
View003
 62
7
100
AcDbSpline
 70
8
 71
3
 72
8
 73
4
 74
0
 40
0
 40
0
 40
0
 40
0
 40
1
 40
1
 40
1
 40
1
 10
6.338097
 20
20.131748
 30
0.0
 10
8.475511
 20
16.429632
 30
0.0
 10
12.922216
 20
14.741856
 30
0.0
 10
16.977775
 20
16.093390
 30
0.0
  0
SPLINE
  5
105
100
AcDbEntity
  8
View003
 62
7
100
AcDbSpline
 70
8
 71
3
 72
8
 73
4
 74
0
 40
0
 40
0
 40
0
 40
0
 40
1
 40
1
 40
1
 40
1
 10
78.836869
 20
16.093395
 30
0.0
 10
82.892426
 20
14.741855
 30
0.0
 10
87.339134
 20
16.429623
 30
0.0
 10
89.476553
 20
20.131735
 30
0.0
  0
SPLINE
  5
106
100
AcDbEntity
  8
View003
 62
7
100
AcDbSpline
 70
8
 71
3
 72
8
 73
4
 74
0
 40
0
 40
0
 40
0
 40
0
 40
1
 40
1
 40
1
 40
1
 10
89.476553
 20
20.131735
 30
0.0
 10
91.613973
 20
23.833848
 30
0.0
 10
90.852277
 20
28.528695
 30
0.0
 10
87.654035
 20
31.365145
 30
0.0
  0
SPLINE
  5
107
100
AcDbEntity
  8
View003
 62
7
100
AcDbSpline
 70
8
 71
3
 72
8
 73
4
 74
0
 40
0
 40
0
 40
0
 40
0
 40
1
 40
1
 40
1
 40
1
 10
8.160943
 20
31.365161
 30
0.0
 10
9.503651
 20
32.555978
 30
0.0
 10
10.105149
 20
34.375074
 30
0.0
 10
9.737003
 20
36.131598
 30
0.0
  0
SPLINE
  5
108
100
AcDbEntity
  8
View003
 62
7
100
AcDbSpline
 70
8
 71
3
 72
8
 73
4
 74
0
 40
0
 40
0
 40
0
 40
0
 40
1
 40
1
 40
1
 40
1
 10
86.077653
 20
36.131582
 30
0.0
 10
85.709511
 20
34.375059
 30
0.0
 10
86.311014
 20
32.555966
 30
0.0
 10
87.653723
 20
31.365153
 30
0.0
  0
SPLINE
  5
109
100
AcDbEntity
  8
View003
 62
7
100
AcDbSpline
 70
8
 71
3
 72
8
 73
4
 74
0
 40
0
 40
0
 40
0
 40
0
 40
1
 40
1
 40
1
 40
1
 10
29.295746
 20
78.404307
 30
0.0
 10
14.153563
 20
70.181405
 30
0.0
 10
6.202129
 20
52.996171
 30
0.0
 10
9.736659
 20
36.131744
 30
0.0
  0
SPLINE
  5
10a
100
AcDbEntity
  8
View003
 62
7
100
AcDbSpline
 70
8
 71
3
 72
8
 73
4
 74
0
 40
0
 40
0
 40
0
 40
0
 40
1
 40
1
 40
1
 40
1
 10
86.077973
 20
36.131609
 30
0.0
 10
89.612599
 20
52.996197
 30
0.0
 10
81.661026
 20
70.181617
 30
0.0
 10
66.518615
 20
78.404471
 30
0.0
  0
SPLINE
  5
10b
100
AcDbEntity
  8
View003
 62
7
100
AcDbSpline
 70
8
 71
3
 72
8
 73
4
 74
0
 40
0
 40
0
 40
0
 40
0
 40
1
 40
1
 40
1
 40
1
 10
29.296392
 20
78.404799
 30
0.0
 10
30.932304
 20
79.293157
 30
0.0
 10
31.939248
 20
81.016784
 30
0.0
 10
31.909700
 20
82.878105
 30
0.0
  0
SPLINE
  5
10c
100
AcDbEntity
  8
View003
 62
7
100
AcDbSpline
 70
8
 71
3
 72
8
 73
4
 74
0
 40
0
 40
0
 40
0
 40
0
 40
1
 40
1
 40
1
 40
1
 10
63.904958
 20
82.878062
 30
0.0
 10
63.875426
 20
81.016773
 30
0.0
 10
64.882352
 20
79.293177
 30
0.0
 10
66.518229
 20
78.404821
 30
0.0
  0
SPLINE
  5
10d
100
AcDbEntity
  8
View003
 62
7
100
AcDbSpline
 70
8
 71
3
 72
8
 73
4
 74
0
 40
0
 40
0
 40
0
 40
0
 40
1
 40
1
 40
1
 40
1
 10
63.905313
 20
82.877771
 30
0.0
 10
63.997017
 20
88.653818
 30
0.0
 10
60.968051
 20
94.030786
 30
0.0
 10
55.980581
 20
96.945621
 30
0.0
  0
SPLINE
  5
10e
100
AcDbEntity
  8
View003
 62
7
100
AcDbSpline
 70
8
 71
3
 72
8
 73
4
 74
0
 40
0
 40
0
 40
0
 40
0
 40
1
 40
1
 40
1
 40
1
 10
55.980581
 20
96.945621
 30
0.0
 10
50.993111
 20
99.860455
 30
0.0
 10
44.821691
 20
99.860482
 30
0.0
 10
39.834195
 20
96.945690
 30
0.0
  0
SPLINE
  5
10f
100
AcDbEntity
  8
View003
 62
7
100
AcDbSpline
 70
8
 71
3
 72
8
 73
4
 74
0
 40
0
 40
0
 40
0
 40
0
 40
1
 40
1
 40
1
 40
1
 10
39.834195
 20
96.945690
 30
0.0
 10
34.846700
 20
94.030898
 30
0.0
 10
31.817688
 20
88.653956
 30
0.0
 10
31.909343
 20
82.877909
 30
0.0
  0
SPLINE
  5
110
100
AcDbEntity
  8
View003
 62
7
100
AcDbSpline
 70
8
 71
3
 72
8
 73
4
 74
0
 40
0
 40
0
 40
0
 40
0
 40
1
 40
1
 40
1
 40
1
 10
49.557329
 20
94.681741
 30
0.0
 10
49.557565
 20
95.271387
 30
0.0
 10
49.243128
 20
95.816343
 30
0.0
 10
48.732520
 20
96.111234
 30
0.0
  0
SPLINE
  5
111
100
AcDbEntity
  8
View003
 62
7
100
AcDbSpline
 70
8
 71
3
 72
8
 73
4
 74
0
 40
0
 40
0
 40
0
 40
0
 40
1
 40
1
 40
1
 40
1
 10
48.732520
 20
96.111234
 30
0.0
 10
48.221911
 20
96.406125
 30
0.0
 10
47.592747
 20
96.406125
 30
0.0
 10
47.082138
 20
96.111234
 30
0.0
  0
SPLINE
  5
112
100
AcDbEntity
  8
View003
 62
7
100
AcDbSpline
 70
8
 71
3
 72
8
 73
4
 74
0
 40
0
 40
0
 40
0
 40
0
 40
1
 40
1
 40
1
 40
1
 10
47.082138
 20
96.111234
 30
0.0
 10
46.571529
 20
95.816343
 30
0.0
 10
46.257093
 20
95.271387
 30
0.0
 10
46.257329
 20
94.681741
 30
0.0
  0
SPLINE
  5
113
100
AcDbEntity
  8
View003
 62
7
100
AcDbSpline
 70
8
 71
3
 72
8
 73
4
 74
0
 40
0
 40
0
 40
0
 40
0
 40
1
 40
1
 40
1
 40
1
 10
46.257329
 20
94.681741
 30
0.0
 10
46.257093
 20
94.092096
 30
0.0
 10
46.571529
 20
93.547140
 30
0.0
 10
47.082138
 20
93.252249
 30
0.0
  0
SPLINE
  5
114
100
AcDbEntity
  8
View003
 62
7
100
AcDbSpline
 70
8
 71
3
 72
8
 73
4
 74
0
 40
0
 40
0
 40
0
 40
0
 40
1
 40
1
 40
1
 40
1
 10
47.082138
 20
93.252249
 30
0.0
 10
47.592747
 20
92.957358
 30
0.0
 10
48.221911
 20
92.957358
 30
0.0
 10
48.732520
 20
93.252249
 30
0.0
  0
SPLINE
  5
115
100
AcDbEntity
  8
View003
 62
7
100
AcDbSpline
 70
8
 71
3
 72
8
 73
4
 74
0
 40
0
 40
0
 40
0
 40
0
 40
1
 40
1
 40
1
 40
1
 10
48.732520
 20
93.252249
 30
0.0
 10
49.243128
 20
93.547140
 30
0.0
 10
49.557565
 20
94.092096
 30
0.0
 10
49.557329
 20
94.681741
 30
0.0
  0
LINE
  5
116
100
AcDbEntity
  8
View003
 62
7
100
AcDbLine
 10
49.557329
 20
94.681741
 30
0.0
 11
49.557329
 21
94.681741
 31
0.0
  0
SPLINE
  5
117
100
AcDbEntity
  8
View003
 62
1
100
AcDbSpline
 70
8
 71
3
 72
8
 73
4
 74
0
 40
0
 40
0
 40
0
 40
0
 40
1
 40
1
 40
1
 40
1
 10
46.856055
 20
80.116170
 30
0.0
 10
27.391576
 20
79.547548
 30
0.0
 10
11.907437
 20
63.604587
 30
0.0
 10
11.907410
 20
44.131804
 30
0.0
  0
SPLINE
  5
118
100
AcDbEntity
  8
View003
 62
1
100
AcDbSpline
 70
8
 71
3
 72
8
 73
4
 74
0
 40
0
 40
0
 40
0
 40
0
 40
1
 40
1
 40
1
 40
1
 10
11.907410
 20
44.131804
 30
0.0
 10
11.907410
 20
31.270242
 30
0.0
 10
18.768971
 20
19.385669
 30
0.0
 10
29.907411
 20
12.954888
 30
0.0
  0
SPLINE
  5
119
100
AcDbEntity
  8
View003
 62
1
100
AcDbSpline
 70
8
 71
3
 72
8
 73
4
 74
0
 40
0
 40
0
 40
0
 40
0
 40
1
 40
1
 40
1
 40
1
 10
29.907411
 20
12.954888
 30
0.0
 10
41.045850
 20
6.524107
 30
0.0
 10
54.768973
 20
6.524107
 30
0.0
 10
65.907413
 20
12.954888
 30
0.0
  0
SPLINE
  5
11a
100
AcDbEntity
  8
View003
 62
1
100
AcDbSpline
 70
8
 71
3
 72
8
 73
4
 74
0
 40
0
 40
0
 40
0
 40
0
 40
1
 40
1
 40
1
 40
1
 10
65.907413
 20
12.954888
 30
0.0
 10
77.045852
 20
19.385669
 30
0.0
 10
83.907414
 20
31.270242
 30
0.0
 10
83.907414
 20
44.131804
 30
0.0
  0
SPLINE
  5
11b
100
AcDbEntity
  8
View003
 62
1
100
AcDbSpline
 70
8
 71
3
 72
8
 73
4
 74
0
 40
0
 40
0
 40
0
 40
0
 40
1
 40
1
 40
1
 40
1
 10
83.907414
 20
44.131804
 30
0.0
 10
83.907338
 20
53.861868
 30
0.0
 10
79.968655
 20
63.177546
 30
0.0
 10
72.988691
 20
69.956503
 30
0.0
  0
SPLINE
  5
11c
100
AcDbEntity
  8
View003
 62
1
100
AcDbSpline
 70
8
 71
3
 72
8
 73
4
 74
0
 40
0
 40
0
 40
0
 40
0
 40
1
 40
1
 40
1
 40
1
 10
72.988691
 20
69.956503
 30
0.0
 10
66.008728
 20
76.735459
 30
0.0
 10
56.581968
 20
80.400330
 30
0.0
 10
46.856055
 20
80.116170
 30
0.0
  0
LINE
  5
11d
100
AcDbEntity
  8
View003
 62
1
100
AcDbLine
 10
46.856055
 20
80.116170
 30
0.0
 11
46.856055
 21
80.116170
 31
0.0
  0
LINE
  5
11e
100
AcDbEntity
  8
View003
 62
1
100
AcDbLine
 10
39.366074
 20
76.007894
 30
0.0
 11
56.448235
 21
76.007894
 31
0.0
  0
LINE
  5
11f
100
AcDbEntity
  8
View003
 62
1
100
AcDbLine
 10
56.448235
 20
76.007894
 30
0.0
 11
71.242163
 21
67.466813
 31
0.0
  0
LINE
  5
120
100
AcDbEntity
  8
View003
 62
1
100
AcDbLine
 10
71.242163
 20
67.466813
 30
0.0
 11
79.783244
 21
52.672885
 31
0.0
  0
LINE
  5
121
100
AcDbEntity
  8
View003
 62
1
100
AcDbLine
 10
79.783244
 20
52.672885
 30
0.0
 11
79.783244
 21
35.590724
 31
0.0
  0
LINE
  5
122
100
AcDbEntity
  8
View003
 62
1
100
AcDbLine
 10
79.783244
 20
35.590724
 30
0.0
 11
71.242163
 21
20.797311
 31
0.0
  0
LINE
  5
123
100
AcDbEntity
  8
View003
 62
1
100
AcDbLine
 10
71.242163
 20
20.797311
 30
0.0
 11
56.448235
 21
12.256230
 31
0.0
  0
LINE
  5
124
100
AcDbEntity
  8
View003
 62
1
100
AcDbLine
 10
56.448235
 20
12.256230
 30
0.0
 11
39.366074
 21
12.256230
 31
0.0
  0
LINE
  5
125
100
AcDbEntity
  8
View003
 62
1
100
AcDbLine
 10
39.366074
 20
12.256230
 30
0.0
 11
24.572144
 21
20.797311
 31
0.0
  0
LINE
  5
126
100
AcDbEntity
  8
View003
 62
1
100
AcDbLine
 10
24.572144
 20
20.797311
 30
0.0
 11
16.031580
 21
35.590724
 31
0.0
  0
LINE
  5
127
100
AcDbEntity
  8
View003
 62
1
100
AcDbLine
 10
16.031580
 20
35.590724
 30
0.0
 11
16.031580
 21
52.672885
 31
0.0
  0
LINE
  5
128
100
AcDbEntity
  8
View003
 62
1
100
AcDbLine
 10
16.031580
 20
52.672885
 30
0.0
 11
24.572144
 21
67.466813
 31
0.0
  0
LINE
  5
129
100
AcDbEntity
  8
View003
 62
1
100
AcDbLine
 10
24.572144
 20
67.466813
 30
0.0
 11
39.366074
 21
76.007894
 31
0.0
  0
LINE
  5
12a
100
AcDbEntity
  8
View003
 62
1
100
AcDbLine
 10
39.366074
 20
76.007894
 30
0.0
 11
39.366074
 21
76.007894
 31
0.0
  0
SPLINE
  5
12b
100
AcDbEntity
  8
View003
 62
7
100
AcDbSpline
 70
8
 71
3
 72
8
 73
4
 74
0
 40
0
 40
0
 40
0
 40
0
 40
1
 40
1
 40
1
 40
1
 10
85.401330
 20
27.417141
 30
0.0
 10
85.401566
 20
28.006787
 30
0.0
 10
85.087129
 20
28.551743
 30
0.0
 10
84.576521
 20
28.846634
 30
0.0
  0
SPLINE
  5
12c
100
AcDbEntity
  8
View003
 62
7
100
AcDbSpline
 70
8
 71
3
 72
8
 73
4
 74
0
 40
0
 40
0
 40
0
 40
0
 40
1
 40
1
 40
1
 40
1
 10
84.576521
 20
28.846634
 30
0.0
 10
84.065912
 20
29.141525
 30
0.0
 10
83.436748
 20
29.141525
 30
0.0
 10
82.926139
 20
28.846634
 30
0.0
  0
SPLINE
  5
12d
100
AcDbEntity
  8
View003
 62
7
100
AcDbSpline
 70
8
 71
3
 72
8
 73
4
 74
0
 40
0
 40
0
 40
0
 40
0
 40
1
 40
1
 40
1
 40
1
 10
82.926139
 20
28.846634
 30
0.0
 10
82.415531
 20
28.551743
 30
0.0
 10
82.101094
 20
28.006787
 30
0.0
 10
82.101330
 20
27.417141
 30
0.0
  0
SPLINE
  5
12e
100
AcDbEntity
  8
View003
 62
7
100
AcDbSpline
 70
8
 71
3
 72
8
 73
4
 74
0
 40
0
 40
0
 40
0
 40
0
 40
1
 40
1
 40
1
 40
1
 10
82.101330
 20
27.417141
 30
0.0
 10
82.101094
 20
26.827496
 30
0.0
 10
82.415531
 20
26.282540
 30
0.0
 10
82.926139
 20
25.987649
 30
0.0
  0
SPLINE
  5
12f
100
AcDbEntity
  8
View003
 62
7
100
AcDbSpline
 70
8
 71
3
 72
8
 73
4
 74
0
 40
0
 40
0
 40
0
 40
0
 40
1
 40
1
 40
1
 40
1
 10
82.926139
 20
25.987649
 30
0.0
 10
83.436748
 20
25.692758
 30
0.0
 10
84.065912
 20
25.692758
 30
0.0
 10
84.576521
 20
25.987649
 30
0.0
  0
SPLINE
  5
130
100
AcDbEntity
  8
View003
 62
7
100
AcDbSpline
 70
8
 71
3
 72
8
 73
4
 74
0
 40
0
 40
0
 40
0
 40
0
 40
1
 40
1
 40
1
 40
1
 10
84.576521
 20
25.987649
 30
0.0
 10
85.087129
 20
26.282540
 30
0.0
 10
85.401566
 20
26.827496
 30
0.0
 10
85.401330
 20
27.417141
 30
0.0
  0
LINE
  5
131
100
AcDbEntity
  8
View003
 62
7
100
AcDbLine
 10
85.401330
 20
27.417141
 30
0.0
 11
85.401330
 21
27.417141
 31
0.0
  0
SPLINE
  5
132
100
AcDbEntity
  8
View003
 62
7
100
AcDbSpline
 70
8
 71
3
 72
8
 73
4
 74
0
 40
0
 40
0
 40
0
 40
0
 40
1
 40
1
 40
1
 40
1
 10
13.713330
 20
27.417141
 30
0.0
 10
13.713566
 20
28.006787
 30
0.0
 10
13.399130
 20
28.551743
 30
0.0
 10
12.888521
 20
28.846634
 30
0.0
  0
SPLINE
  5
133
100
AcDbEntity
  8
View003
 62
7
100
AcDbSpline
 70
8
 71
3
 72
8
 73
4
 74
0
 40
0
 40
0
 40
0
 40
0
 40
1
 40
1
 40
1
 40
1
 10
12.888521
 20
28.846634
 30
0.0
 10
12.377913
 20
29.141525
 30
0.0
 10
11.748748
 20
29.141525
 30
0.0
 10
11.238140
 20
28.846634
 30
0.0
  0
SPLINE
  5
134
100
AcDbEntity
  8
View003
 62
7
100
AcDbSpline
 70
8
 71
3
 72
8
 73
4
 74
0
 40
0
 40
0
 40
0
 40
0
 40
1
 40
1
 40
1
 40
1
 10
11.238140
 20
28.846634
 30
0.0
 10
10.727531
 20
28.551743
 30
0.0
 10
10.413094
 20
28.006787
 30
0.0
 10
10.413331
 20
27.417141
 30
0.0
  0
SPLINE
  5
135
100
AcDbEntity
  8
View003
 62
7
100
AcDbSpline
 70
8
 71
3
 72
8
 73
4
 74
0
 40
0
 40
0
 40
0
 40
0
 40
1
 40
1
 40
1
 40
1
 10
10.413331
 20
27.417141
 30
0.0
 10
10.413094
 20
26.827496
 30
0.0
 10
10.727531
 20
26.282540
 30
0.0
 10
11.238140
 20
25.987649
 30
0.0
  0
SPLINE
  5
136
100
AcDbEntity
  8
View003
 62
7
100
AcDbSpline
 70
8
 71
3
 72
8
 73
4
 74
0
 40
0
 40
0
 40
0
 40
0
 40
1
 40
1
 40
1
 40
1
 10
11.238140
 20
25.987649
 30
0.0
 10
11.748748
 20
25.692758
 30
0.0
 10
12.377913
 20
25.692758
 30
0.0
 10
12.888521
 20
25.987649
 30
0.0
  0
SPLINE
  5
137
100
AcDbEntity
  8
View003
 62
7
100
AcDbSpline
 70
8
 71
3
 72
8
 73
4
 74
0
 40
0
 40
0
 40
0
 40
0
 40
1
 40
1
 40
1
 40
1
 10
12.888521
 20
25.987649
 30
0.0
 10
13.399130
 20
26.282540
 30
0.0
 10
13.713566
 20
26.827496
 30
0.0
 10
13.713330
 20
27.417141
 30
0.0
  0
LINE
  5
138
100
AcDbEntity
  8
View003
 62
7
100
AcDbLine
 10
13.713330
 20
27.417141
 30
0.0
 11
13.713330
 21
27.417141
 31
0.0
  0
SPLINE
  5
139
100
AcDbEntity
  8
View003
 62
7
100
AcDbSpline
 70
8
 71
3
 72
8
 73
4
 74
0
 40
0
 40
0
 40
0
 40
0
 40
1
 40
1
 40
1
 40
1
 10
77.907330
 20
44.131741
 30
0.0
 10
77.910513
 20
54.851830
 30
0.0
 10
72.193242
 20
64.758964
 30
0.0
 10
62.909902
 20
70.119928
 30
0.0
  0
SPLINE
  5
13a
100
AcDbEntity
  8
View003
 62
7
100
AcDbSpline
 70
8
 71
3
 72
8
 73
4
 74
0
 40
0
 40
0
 40
0
 40
0
 40
1
 40
1
 40
1
 40
1
 10
62.909902
 20
70.119928
 30
0.0
 10
53.626563
 20
75.480892
 30
0.0
 10
42.188098
 20
75.480892
 30
0.0
 10
32.904758
 20
70.119928
 30
0.0
  0
SPLINE
  5
13b
100
AcDbEntity
  8
View003
 62
7
100
AcDbSpline
 70
8
 71
3
 72
8
 73
4
 74
0
 40
0
 40
0
 40
0
 40
0
 40
1
 40
1
 40
1
 40
1
 10
32.904758
 20
70.119928
 30
0.0
 10
23.621418
 20
64.758964
 30
0.0
 10
17.904147
 20
54.851830
 30
0.0
 10
17.907331
 20
44.131741
 30
0.0
  0
SPLINE
  5
13c
100
AcDbEntity
  8
View003
 62
7
100
AcDbSpline
 70
8
 71
3
 72
8
 73
4
 74
0
 40
0
 40
0
 40
0
 40
0
 40
1
 40
1
 40
1
 40
1
 10
17.907331
 20
44.131741
 30
0.0
 10
17.904147
 20
33.411651
 30
0.0
 10
23.621418
 20
23.504518
 30
0.0
 10
32.904758
 20
18.143554
 30
0.0
  0
SPLINE
  5
13d
100
AcDbEntity
  8
View003
 62
7
100
AcDbSpline
 70
8
 71
3
 72
8
 73
4
 74
0
 40
0
 40
0
 40
0
 40
0
 40
1
 40
1
 40
1
 40
1
 10
32.904758
 20
18.143554
 30
0.0
 10
42.188098
 20
12.782590
 30
0.0
 10
53.626563
 20
12.782590
 30
0.0
 10
62.909902
 20
18.143554
 30
0.0
  0
SPLINE
  5
13e
100
AcDbEntity
  8
View003
 62
7
100
AcDbSpline
 70
8
 71
3
 72
8
 73
4
 74
0
 40
0
 40
0
 40
0
 40
0
 40
1
 40
1
 40
1
 40
1
 10
62.909902
 20
18.143554
 30
0.0
 10
72.193242
 20
23.504518
 30
0.0
 10
77.910513
 20
33.411651
 30
0.0
 10
77.907330
 20
44.131741
 30
0.0
  0
LINE
  5
13f
100
AcDbEntity
  8
View003
 62
7
100
AcDbLine
 10
77.907330
 20
44.131741
 30
0.0
 11
77.907330
 21
44.131741
 31
0.0
  0
ENDSEC
  0
SECTION
  2
OBJECTS
  0
DICTIONARY
  5
C
330
0
100
AcDbDictionary
  3
ACAD_GROUP
350
D
  3
ACAD_MLINESTYLE
350
17
  0
DICTIONARY
  5
D
330
C
100
AcDbDictionary
  0
DICTIONARY
  5
1A
330
C
100
AcDbDictionary
  0
DICTIONARY
  5
17
330
C
100
AcDbDictionary
  3
STANDARD
350
18
  0
DICTIONARY
  5
19
330
C
100
AcDbDictionary
  0
ENDSEC
  0
EOF
