<?xml version="1.0" encoding="UTF-8" standalone="no"?>
<svg width="297mm" height="210mm"
 viewBox="0 0 2970 2100"
 xmlns="http://www.w3.org/2000/svg" xmlns:xlink="http://www.w3.org/1999/xlink"  version="1.2" baseProfile="tiny">
<title>FreeCAD SVG Export</title>
<desc>Drawing page: Page002 exported from FreeCAD document: amulet</desc>
<defs>
</defs>
<g fill="none" stroke="black" stroke-width="1" fill-rule="evenodd" stroke-linecap="square" stroke-linejoin="bevel" >

<g fill="none" stroke="#000000" stroke-opacity="1" stroke-width="1" stroke-linecap="square" stroke-linejoin="bevel" transform="matrix(1,0,0,1,0,0)"
font-family="Noto Sans" font-size="35.2778" font-weight="400" font-style="normal" 
>
</g>

<g fill="none" stroke="#000000" stroke-opacity="1" stroke-width="1" stroke-linecap="square" stroke-linejoin="bevel" transform="matrix(1,0,0,1,0,2100)"
font-family="Noto Sans" font-size="35.2778" font-weight="400" font-style="normal" 
>
</g>

<g fill="none" stroke="#000000" stroke-opacity="1" stroke-width="1" stroke-linecap="square" stroke-linejoin="bevel" transform="matrix(1,0,0,1,0,2100)"
font-family="Noto Sans" font-size="35.2778" font-weight="400" font-style="normal" 
>
</g>

<g fill="none" stroke="#000000" stroke-opacity="1" stroke-width="1" stroke-linecap="square" stroke-linejoin="bevel" transform="matrix(2.82319,0,0,2.82258,0,0)"
font-family="Noto Sans" font-size="35.2778" font-weight="400" font-style="normal" 
>
</g>

<g fill="none" stroke="#000000" stroke-opacity="1" stroke-width="1" stroke-linecap="square" stroke-linejoin="bevel" transform="matrix(2.82319,0,0,2.82258,0,0)"
font-family="Noto Sans" font-size="35.2778" font-weight="400" font-style="normal" 
>
</g>

<g fill="none" stroke="#000000" stroke-opacity="1" stroke-width="1" stroke-linecap="square" stroke-linejoin="bevel" transform="matrix(2.82319,0,0,2.82258,0,0)"
font-family="Noto Sans" font-size="35.2778" font-weight="400" font-style="normal" 
>
</g>

<g fill="none" stroke="#000000" stroke-opacity="1" stroke-width="1" stroke-linecap="square" stroke-linejoin="bevel" transform="matrix(2.82319,0,0,2.82258,0,0)"
font-family="Noto Sans" font-size="35.2778" font-weight="400" font-style="normal" 
>
</g>

<g fill="none" stroke="#000000" stroke-opacity="1" stroke-width="1" stroke-linecap="square" stroke-linejoin="bevel" transform="matrix(1,0,0,1,0,0)"
font-family="Noto Sans" font-size="35.2778" font-weight="400" font-style="normal" 
>
</g>

<g fill="none" stroke="#000000" stroke-opacity="1" stroke-width="1" stroke-linecap="square" stroke-linejoin="bevel" transform="matrix(2.82319,0,0,2.82258,0,0)"
font-family="Noto Sans" font-size="35.2778" font-weight="400" font-style="normal" 
>
</g>

<g fill="none" stroke="#000000" stroke-opacity="1" stroke-width="1" stroke-linecap="square" stroke-linejoin="bevel" transform="matrix(1,0,0,1,1477.94,1051.76)"
font-family="Noto Sans" font-size="35.2778" font-weight="400" font-style="normal" 
>
</g>

<g fill="none" stroke="#000000" stroke-opacity="1" stroke-width="1" stroke-linecap="square" stroke-linejoin="bevel" transform="matrix(1,0,0,1,1477.94,1051.76)"
font-family="Noto Sans" font-size="35.2778" font-weight="400" font-style="normal" 
>
</g>

<g fill="none" stroke="#000000" stroke-opacity="1" stroke-width="1" stroke-linecap="square" stroke-linejoin="bevel" transform="matrix(1,0,0,1,1471.21,1709.38)"
font-family="Noto Sans" font-size="35.2778" font-weight="400" font-style="normal" 
>
</g>

<g fill="none" stroke="#000000" stroke-opacity="1" stroke-width="1" stroke-linecap="square" stroke-linejoin="bevel" transform="matrix(0.353,0,0,0.353,1463.21,1766.74)"
font-family="Noto Sans" font-size="35.2778" font-weight="400" font-style="normal" 
>
</g>

<g fill="none" stroke="#000000" stroke-opacity="1" stroke-width="1" stroke-linecap="square" stroke-linejoin="bevel" transform="matrix(0.353,0,0,0.353,1463.21,1766.74)"
font-family="Noto Sans" font-size="35.2778" font-weight="400" font-style="normal" 
>
</g>

<g fill="none" stroke="#000000" stroke-opacity="1" stroke-width="1" stroke-linecap="square" stroke-linejoin="bevel" transform="matrix(0.353,0,0,0.353,1463.21,1766.74)"
font-family="Noto Sans" font-size="35.2778" font-weight="400" font-style="normal" 
>
</g>

<g fill="none" stroke="#000000" stroke-opacity="1" stroke-width="1" stroke-linecap="square" stroke-linejoin="bevel" transform="matrix(0.353,0,0,0.353,1463.21,1766.74)"
font-family="Noto Sans" font-size="35.2778" font-weight="400" font-style="normal" 
>
</g>

<g fill="none" stroke="#000000" stroke-opacity="1" stroke-width="1" stroke-linecap="square" stroke-linejoin="bevel" transform="matrix(1,0,0,1,0,0)"
font-family="Noto Sans" font-size="35.2778" font-weight="400" font-style="normal" 
>
</g>

<g fill="none" stroke="#000000" stroke-opacity="1" stroke-width="1" stroke-linecap="square" stroke-linejoin="bevel" transform="matrix(0.353,0,0,0.353,1463.21,1766.74)"
font-family="Noto Sans" font-size="35.2778" font-weight="400" font-style="normal" 
>
</g>

<g fill="none" stroke="#000000" stroke-opacity="1" stroke-width="1" stroke-linecap="square" stroke-linejoin="bevel" transform="matrix(0.353,0,0,0.353,1463.21,1766.74)"
font-family="Noto Sans" font-size="35.2778" font-weight="400" font-style="normal" 
>
</g>

<g fill="none" stroke="#000000" stroke-opacity="1" stroke-width="1" stroke-linecap="square" stroke-linejoin="bevel" transform="matrix(1,0,0,1,1471.21,1709.38)"
font-family="Noto Sans" font-size="35.2778" font-weight="400" font-style="normal" 
>
</g>

<g fill="none" stroke="#000000" stroke-opacity="1" stroke-width="1" stroke-linecap="square" stroke-linejoin="bevel" transform="matrix(1,0,0,1,1477.94,1051.76)"
font-family="Noto Sans" font-size="35.2778" font-weight="400" font-style="normal" 
>
</g>

<g fill="#ffffff" fill-opacity="1" stroke="none" transform="matrix(1,0,0,1,1477.94,1051.76)"
font-family="Noto Sans" font-size="35.2778" font-weight="400" font-style="normal" 
>
<path vector-effect="non-scaling-stroke" fill-rule="evenodd" d="M466.702,-360.278 C450.98,-387.932 442.081,-418.938 440.743,-450.721 C439.691,-475.722 428.278,-499.156 409.243,-515.399 C390.208,-531.642 365.27,-539.227 340.415,-536.333 C322.102,-534.201 303.615,-538.46 288.08,-548.388 C110.767,-661.716 -116.228,-661.716 -293.541,-548.388 C-309.076,-538.46 -327.563,-534.201 -345.876,-536.333 C-370.731,-539.227 -395.669,-531.642 -414.704,-515.399 C-433.739,-499.156 -445.152,-475.722 -446.204,-450.721 C-447.542,-418.938 -456.441,-387.932 -472.163,-360.278 C-615.636,-107.928 -533.935,212.699 -287.193,365.616 C-261.665,381.437 -244.599,407.894 -240.712,437.675 C-225.113,557.204 -123.273,646.616 -2.73051,646.616 C117.812,646.616 219.652,557.204 235.251,437.675 C239.138,407.894 256.204,381.437 281.732,365.616 C528.474,212.699 610.175,-107.928 466.702,-360.278 "/>
</g>

<g fill="none" stroke="#000000" stroke-opacity="1" stroke-width="1" stroke-linecap="square" stroke-linejoin="bevel" transform="matrix(1,0,0,1,1477.94,1051.76)"
font-family="Noto Sans" font-size="35.2778" font-weight="400" font-style="normal" 
>
</g>

<g fill="none" stroke="#000000" stroke-opacity="1" stroke-width="1" stroke-linecap="square" stroke-linejoin="bevel" transform="matrix(1,0,0,1,1477.94,1051.76)"
font-family="Noto Sans" font-size="35.2778" font-weight="400" font-style="normal" 
>
</g>

<g fill="none" stroke="#000000" stroke-opacity="1" stroke-width="1" stroke-linecap="square" stroke-linejoin="bevel" transform="matrix(1,0,0,1,1477.94,1051.76)"
font-family="Noto Sans" font-size="35.2778" font-weight="400" font-style="normal" 
>
</g>

<g fill="none" stroke="#000000" stroke-opacity="1" stroke-width="1" stroke-linecap="square" stroke-linejoin="bevel" transform="matrix(1,0,0,1,0,0)"
font-family="Noto Sans" font-size="35.2778" font-weight="400" font-style="normal" 
>
</g>

<g fill="none" stroke="#000000" stroke-opacity="1" stroke-width="1" stroke-linecap="square" stroke-linejoin="bevel" transform="matrix(1,0,0,1,1477.94,1051.76)"
font-family="Noto Sans" font-size="35.2778" font-weight="400" font-style="normal" 
>
</g>

<g fill="none" stroke="#000000" stroke-opacity="1" stroke-width="1" stroke-linecap="square" stroke-linejoin="bevel" transform="matrix(1,0,0,1,1477.94,1051.76)"
font-family="Noto Sans" font-size="35.2778" font-weight="400" font-style="normal" 
>
</g>

<g fill="#ffffff" fill-opacity="1" stroke="none" transform="matrix(1,0,0,1,1477.94,1051.76)"
font-family="Noto Sans" font-size="35.2778" font-weight="400" font-style="normal" 
>
<path vector-effect="non-scaling-stroke" fill-rule="evenodd" d="M377.269,-93.3837 C377.269,116.484 207.138,286.616 -2.73051,286.616 C-212.599,286.616 -382.731,116.484 -382.731,-93.3837 C-382.731,-303.252 -212.599,-473.384 -2.73051,-473.384 C207.138,-473.384 377.269,-303.252 377.269,-93.3837 "/>
</g>

<g fill="none" stroke="#000000" stroke-opacity="1" stroke-width="1" stroke-linecap="square" stroke-linejoin="bevel" transform="matrix(1,0,0,1,1477.94,1051.76)"
font-family="Noto Sans" font-size="35.2778" font-weight="400" font-style="normal" 
>
</g>

<g fill="none" stroke="#000000" stroke-opacity="1" stroke-width="1" stroke-linecap="square" stroke-linejoin="bevel" transform="matrix(1,0,0,1,1477.94,1051.76)"
font-family="Noto Sans" font-size="35.2778" font-weight="400" font-style="normal" 
>
</g>

<g fill="none" stroke="#000000" stroke-opacity="1" stroke-width="1" stroke-linecap="square" stroke-linejoin="bevel" transform="matrix(1,0,0,1,1477.94,1051.76)"
font-family="Noto Sans" font-size="35.2778" font-weight="400" font-style="normal" 
>
</g>

<g fill="none" stroke="#000000" stroke-opacity="1" stroke-width="1" stroke-linecap="square" stroke-linejoin="bevel" transform="matrix(1,0,0,1,0,0)"
font-family="Noto Sans" font-size="35.2778" font-weight="400" font-style="normal" 
>
</g>

<g fill="none" stroke="#000000" stroke-opacity="1" stroke-width="1" stroke-linecap="square" stroke-linejoin="bevel" transform="matrix(1,0,0,1,1477.94,1051.76)"
font-family="Noto Sans" font-size="35.2778" font-weight="400" font-style="normal" 
>
</g>

<g fill="none" stroke="#000000" stroke-opacity="1" stroke-width="1" stroke-linecap="square" stroke-linejoin="bevel" transform="matrix(1,0,0,1,1477.94,1051.76)"
font-family="Noto Sans" font-size="35.2778" font-weight="400" font-style="normal" 
>
</g>

<g fill="#ffffff" fill-opacity="1" stroke="none" transform="matrix(1,0,0,1,1477.94,1051.76)"
font-family="Noto Sans" font-size="35.2778" font-weight="400" font-style="normal" 
>
<path vector-effect="non-scaling-stroke" fill-rule="evenodd" d="M22.2695,480.616 L22.2695,410.616 L-27.7305,410.616 L-27.7305,480.616 L22.2695,480.616"/>
</g>

<g fill="none" stroke="#000000" stroke-opacity="1" stroke-width="1" stroke-linecap="square" stroke-linejoin="bevel" transform="matrix(1,0,0,1,1477.94,1051.76)"
font-family="Noto Sans" font-size="35.2778" font-weight="400" font-style="normal" 
>
</g>

<g fill="none" stroke="#000000" stroke-opacity="1" stroke-width="1" stroke-linecap="square" stroke-linejoin="bevel" transform="matrix(1,0,0,1,1477.94,1051.76)"
font-family="Noto Sans" font-size="35.2778" font-weight="400" font-style="normal" 
>
</g>

<g fill="none" stroke="#000000" stroke-opacity="1" stroke-width="1" stroke-linecap="square" stroke-linejoin="bevel" transform="matrix(1,0,0,1,1477.94,1051.76)"
font-family="Noto Sans" font-size="35.2778" font-weight="400" font-style="normal" 
>
</g>

<g fill="none" stroke="#000000" stroke-opacity="1" stroke-width="1" stroke-linecap="square" stroke-linejoin="bevel" transform="matrix(1,0,0,1,0,0)"
font-family="Noto Sans" font-size="35.2778" font-weight="400" font-style="normal" 
>
</g>

<g fill="none" stroke="#000000" stroke-opacity="1" stroke-width="1" stroke-linecap="square" stroke-linejoin="bevel" transform="matrix(1,0,0,1,1477.94,1051.76)"
font-family="Noto Sans" font-size="35.2778" font-weight="400" font-style="normal" 
>
</g>

<g fill="none" stroke="#000000" stroke-opacity="1" stroke-width="1" stroke-linecap="square" stroke-linejoin="bevel" transform="matrix(1,0,0,1,1477.94,1051.76)"
font-family="Noto Sans" font-size="35.2778" font-weight="400" font-style="normal" 
>
</g>

<g fill="none" stroke="#000000" stroke-opacity="1" stroke-width="7" stroke-linecap="round" stroke-linejoin="bevel" transform="matrix(1,0,0,1,1477.94,1051.76)"
font-family="Noto Sans" font-size="35.2778" font-weight="400" font-style="normal" 
>
<path vector-effect="none" fill-rule="evenodd" d="M288.08,-548.388 C110.767,-661.716 -116.228,-661.716 -293.541,-548.388 "/>
</g>

<g fill="none" stroke="#000000" stroke-opacity="1" stroke-width="1" stroke-linecap="square" stroke-linejoin="bevel" transform="matrix(1,0,0,1,1477.94,1051.76)"
font-family="Noto Sans" font-size="35.2778" font-weight="400" font-style="normal" 
>
</g>

<g fill="none" stroke="#000000" stroke-opacity="1" stroke-width="1" stroke-linecap="square" stroke-linejoin="bevel" transform="matrix(1,0,0,1,1477.94,1051.76)"
font-family="Noto Sans" font-size="35.2778" font-weight="400" font-style="normal" 
>
</g>

<g fill="none" stroke="#000000" stroke-opacity="1" stroke-width="7" stroke-linecap="round" stroke-linejoin="bevel" transform="matrix(1,0,0,1,1477.94,1051.76)"
font-family="Noto Sans" font-size="35.2778" font-weight="400" font-style="normal" 
>
<path vector-effect="none" fill-rule="evenodd" d="M340.415,-536.333 C322.102,-534.201 303.615,-538.46 288.08,-548.388 "/>
</g>

<g fill="none" stroke="#000000" stroke-opacity="1" stroke-width="1" stroke-linecap="square" stroke-linejoin="bevel" transform="matrix(1,0,0,1,1477.94,1051.76)"
font-family="Noto Sans" font-size="35.2778" font-weight="400" font-style="normal" 
>
</g>

<g fill="none" stroke="#000000" stroke-opacity="1" stroke-width="1" stroke-linecap="square" stroke-linejoin="bevel" transform="matrix(1,0,0,1,1477.94,1051.76)"
font-family="Noto Sans" font-size="35.2778" font-weight="400" font-style="normal" 
>
</g>

<g fill="none" stroke="#000000" stroke-opacity="1" stroke-width="7" stroke-linecap="round" stroke-linejoin="bevel" transform="matrix(1,0,0,1,1477.94,1051.76)"
font-family="Noto Sans" font-size="35.2778" font-weight="400" font-style="normal" 
>
<path vector-effect="none" fill-rule="evenodd" d="M22.2695,410.616 L-27.7305,410.616"/>
</g>

<g fill="none" stroke="#000000" stroke-opacity="1" stroke-width="1" stroke-linecap="square" stroke-linejoin="bevel" transform="matrix(1,0,0,1,1477.94,1051.76)"
font-family="Noto Sans" font-size="35.2778" font-weight="400" font-style="normal" 
>
</g>

<g fill="none" stroke="#000000" stroke-opacity="1" stroke-width="1" stroke-linecap="square" stroke-linejoin="bevel" transform="matrix(1,0,0,1,1477.94,1051.76)"
font-family="Noto Sans" font-size="35.2778" font-weight="400" font-style="normal" 
>
</g>

<g fill="none" stroke="#000000" stroke-opacity="1" stroke-width="7" stroke-linecap="round" stroke-linejoin="bevel" transform="matrix(1,0,0,1,1477.94,1051.76)"
font-family="Noto Sans" font-size="35.2778" font-weight="400" font-style="normal" 
>
<path vector-effect="none" fill-rule="evenodd" d="M-27.7305,410.616 L-27.7305,480.616"/>
</g>

<g fill="none" stroke="#000000" stroke-opacity="1" stroke-width="1" stroke-linecap="square" stroke-linejoin="bevel" transform="matrix(1,0,0,1,1477.94,1051.76)"
font-family="Noto Sans" font-size="35.2778" font-weight="400" font-style="normal" 
>
</g>

<g fill="none" stroke="#000000" stroke-opacity="1" stroke-width="1" stroke-linecap="square" stroke-linejoin="bevel" transform="matrix(1,0,0,1,1477.94,1051.76)"
font-family="Noto Sans" font-size="35.2778" font-weight="400" font-style="normal" 
>
</g>

<g fill="none" stroke="#000000" stroke-opacity="1" stroke-width="7" stroke-linecap="round" stroke-linejoin="bevel" transform="matrix(1,0,0,1,1477.94,1051.76)"
font-family="Noto Sans" font-size="35.2778" font-weight="400" font-style="normal" 
>
<path vector-effect="none" fill-rule="evenodd" d="M-27.7305,480.616 L22.2695,480.616"/>
</g>

<g fill="none" stroke="#000000" stroke-opacity="1" stroke-width="1" stroke-linecap="square" stroke-linejoin="bevel" transform="matrix(1,0,0,1,1477.94,1051.76)"
font-family="Noto Sans" font-size="35.2778" font-weight="400" font-style="normal" 
>
</g>

<g fill="none" stroke="#000000" stroke-opacity="1" stroke-width="1" stroke-linecap="square" stroke-linejoin="bevel" transform="matrix(1,0,0,1,1477.94,1051.76)"
font-family="Noto Sans" font-size="35.2778" font-weight="400" font-style="normal" 
>
</g>

<g fill="none" stroke="#000000" stroke-opacity="1" stroke-width="7" stroke-linecap="round" stroke-linejoin="bevel" transform="matrix(1,0,0,1,1477.94,1051.76)"
font-family="Noto Sans" font-size="35.2778" font-weight="400" font-style="normal" 
>
<path vector-effect="none" fill-rule="evenodd" d="M22.2695,480.616 L22.2695,410.616"/>
</g>

<g fill="none" stroke="#000000" stroke-opacity="1" stroke-width="1" stroke-linecap="square" stroke-linejoin="bevel" transform="matrix(1,0,0,1,1477.94,1051.76)"
font-family="Noto Sans" font-size="35.2778" font-weight="400" font-style="normal" 
>
</g>

<g fill="none" stroke="#000000" stroke-opacity="1" stroke-width="1" stroke-linecap="square" stroke-linejoin="bevel" transform="matrix(1,0,0,1,1477.94,1051.76)"
font-family="Noto Sans" font-size="35.2778" font-weight="400" font-style="normal" 
>
</g>

<g fill="none" stroke="#000000" stroke-opacity="1" stroke-width="7" stroke-linecap="round" stroke-linejoin="bevel" transform="matrix(1,0,0,1,1477.94,1051.76)"
font-family="Noto Sans" font-size="35.2778" font-weight="400" font-style="normal" 
>
<path vector-effect="none" fill-rule="evenodd" d="M-293.541,-548.388 C-309.076,-538.46 -327.563,-534.201 -345.876,-536.333 "/>
</g>

<g fill="none" stroke="#000000" stroke-opacity="1" stroke-width="1" stroke-linecap="square" stroke-linejoin="bevel" transform="matrix(1,0,0,1,1477.94,1051.76)"
font-family="Noto Sans" font-size="35.2778" font-weight="400" font-style="normal" 
>
</g>

<g fill="none" stroke="#000000" stroke-opacity="1" stroke-width="1" stroke-linecap="square" stroke-linejoin="bevel" transform="matrix(1,0,0,1,1477.94,1051.76)"
font-family="Noto Sans" font-size="35.2778" font-weight="400" font-style="normal" 
>
</g>

<g fill="none" stroke="#000000" stroke-opacity="1" stroke-width="7" stroke-linecap="round" stroke-linejoin="bevel" transform="matrix(1,0,0,1,1477.94,1051.76)"
font-family="Noto Sans" font-size="35.2778" font-weight="400" font-style="normal" 
>
<path vector-effect="none" fill-rule="evenodd" d="M440.743,-450.721 C439.691,-475.722 428.278,-499.156 409.243,-515.399 C390.208,-531.642 365.27,-539.227 340.415,-536.333 "/>
</g>

<g fill="none" stroke="#000000" stroke-opacity="1" stroke-width="1" stroke-linecap="square" stroke-linejoin="bevel" transform="matrix(1,0,0,1,1477.94,1051.76)"
font-family="Noto Sans" font-size="35.2778" font-weight="400" font-style="normal" 
>
</g>

<g fill="none" stroke="#000000" stroke-opacity="1" stroke-width="1" stroke-linecap="square" stroke-linejoin="bevel" transform="matrix(1,0,0,1,1477.94,1051.76)"
font-family="Noto Sans" font-size="35.2778" font-weight="400" font-style="normal" 
>
</g>

<g fill="none" stroke="#000000" stroke-opacity="1" stroke-width="7" stroke-linecap="round" stroke-linejoin="bevel" transform="matrix(1,0,0,1,1477.94,1051.76)"
font-family="Noto Sans" font-size="35.2778" font-weight="400" font-style="normal" 
>
<path vector-effect="none" fill-rule="evenodd" d="M-345.876,-536.333 C-370.731,-539.227 -395.669,-531.642 -414.704,-515.399 C-433.739,-499.156 -445.152,-475.722 -446.204,-450.721 "/>
</g>

<g fill="none" stroke="#000000" stroke-opacity="1" stroke-width="1" stroke-linecap="square" stroke-linejoin="bevel" transform="matrix(1,0,0,1,1477.94,1051.76)"
font-family="Noto Sans" font-size="35.2778" font-weight="400" font-style="normal" 
>
</g>

<g fill="none" stroke="#000000" stroke-opacity="1" stroke-width="1" stroke-linecap="square" stroke-linejoin="bevel" transform="matrix(1,0,0,1,1477.94,1051.76)"
font-family="Noto Sans" font-size="35.2778" font-weight="400" font-style="normal" 
>
</g>

<g fill="none" stroke="#000000" stroke-opacity="1" stroke-width="7" stroke-linecap="round" stroke-linejoin="bevel" transform="matrix(1,0,0,1,1477.94,1051.76)"
font-family="Noto Sans" font-size="35.2778" font-weight="400" font-style="normal" 
>
<path vector-effect="none" fill-rule="evenodd" d="M466.702,-360.278 C450.98,-387.932 442.081,-418.938 440.743,-450.721 "/>
</g>

<g fill="none" stroke="#000000" stroke-opacity="1" stroke-width="1" stroke-linecap="square" stroke-linejoin="bevel" transform="matrix(1,0,0,1,1477.94,1051.76)"
font-family="Noto Sans" font-size="35.2778" font-weight="400" font-style="normal" 
>
</g>

<g fill="none" stroke="#000000" stroke-opacity="1" stroke-width="1" stroke-linecap="square" stroke-linejoin="bevel" transform="matrix(1,0,0,1,1477.94,1051.76)"
font-family="Noto Sans" font-size="35.2778" font-weight="400" font-style="normal" 
>
</g>

<g fill="none" stroke="#000000" stroke-opacity="1" stroke-width="7" stroke-linecap="round" stroke-linejoin="bevel" transform="matrix(1,0,0,1,1477.94,1051.76)"
font-family="Noto Sans" font-size="35.2778" font-weight="400" font-style="normal" 
>
<path vector-effect="none" fill-rule="evenodd" d="M-446.204,-450.721 C-447.542,-418.938 -456.441,-387.932 -472.163,-360.278 "/>
</g>

<g fill="none" stroke="#000000" stroke-opacity="1" stroke-width="1" stroke-linecap="square" stroke-linejoin="bevel" transform="matrix(1,0,0,1,1477.94,1051.76)"
font-family="Noto Sans" font-size="35.2778" font-weight="400" font-style="normal" 
>
</g>

<g fill="none" stroke="#000000" stroke-opacity="1" stroke-width="1" stroke-linecap="square" stroke-linejoin="bevel" transform="matrix(1,0,0,1,1477.94,1051.76)"
font-family="Noto Sans" font-size="35.2778" font-weight="400" font-style="normal" 
>
</g>

<g fill="none" stroke="#000000" stroke-opacity="1" stroke-width="7" stroke-linecap="round" stroke-linejoin="bevel" transform="matrix(1,0,0,1,1477.94,1051.76)"
font-family="Noto Sans" font-size="35.2778" font-weight="400" font-style="normal" 
>
<path vector-effect="none" fill-rule="evenodd" d="M281.732,365.616 C528.474,212.699 610.175,-107.928 466.702,-360.278 "/>
</g>

<g fill="none" stroke="#000000" stroke-opacity="1" stroke-width="1" stroke-linecap="square" stroke-linejoin="bevel" transform="matrix(1,0,0,1,1477.94,1051.76)"
font-family="Noto Sans" font-size="35.2778" font-weight="400" font-style="normal" 
>
</g>

<g fill="none" stroke="#000000" stroke-opacity="1" stroke-width="1" stroke-linecap="square" stroke-linejoin="bevel" transform="matrix(1,0,0,1,1477.94,1051.76)"
font-family="Noto Sans" font-size="35.2778" font-weight="400" font-style="normal" 
>
</g>

<g fill="none" stroke="#000000" stroke-opacity="1" stroke-width="7" stroke-linecap="round" stroke-linejoin="bevel" transform="matrix(1,0,0,1,1477.94,1051.76)"
font-family="Noto Sans" font-size="35.2778" font-weight="400" font-style="normal" 
>
<path vector-effect="none" fill-rule="evenodd" d="M-472.163,-360.278 C-615.636,-107.928 -533.935,212.699 -287.193,365.616 "/>
</g>

<g fill="none" stroke="#000000" stroke-opacity="1" stroke-width="1" stroke-linecap="square" stroke-linejoin="bevel" transform="matrix(1,0,0,1,1477.94,1051.76)"
font-family="Noto Sans" font-size="35.2778" font-weight="400" font-style="normal" 
>
</g>

<g fill="none" stroke="#000000" stroke-opacity="1" stroke-width="1" stroke-linecap="square" stroke-linejoin="bevel" transform="matrix(1,0,0,1,1477.94,1051.76)"
font-family="Noto Sans" font-size="35.2778" font-weight="400" font-style="normal" 
>
</g>

<g fill="none" stroke="#000000" stroke-opacity="1" stroke-width="7" stroke-linecap="round" stroke-linejoin="bevel" transform="matrix(1,0,0,1,1477.94,1051.76)"
font-family="Noto Sans" font-size="35.2778" font-weight="400" font-style="normal" 
>
<path vector-effect="none" fill-rule="evenodd" d="M235.251,437.675 C239.138,407.894 256.204,381.437 281.732,365.616 "/>
</g>

<g fill="none" stroke="#000000" stroke-opacity="1" stroke-width="1" stroke-linecap="square" stroke-linejoin="bevel" transform="matrix(1,0,0,1,1477.94,1051.76)"
font-family="Noto Sans" font-size="35.2778" font-weight="400" font-style="normal" 
>
</g>

<g fill="none" stroke="#000000" stroke-opacity="1" stroke-width="1" stroke-linecap="square" stroke-linejoin="bevel" transform="matrix(1,0,0,1,1477.94,1051.76)"
font-family="Noto Sans" font-size="35.2778" font-weight="400" font-style="normal" 
>
</g>

<g fill="none" stroke="#000000" stroke-opacity="1" stroke-width="7" stroke-linecap="round" stroke-linejoin="bevel" transform="matrix(1,0,0,1,1477.94,1051.76)"
font-family="Noto Sans" font-size="35.2778" font-weight="400" font-style="normal" 
>
<path vector-effect="none" fill-rule="evenodd" d="M-287.193,365.616 C-261.665,381.437 -244.599,407.894 -240.712,437.675 "/>
</g>

<g fill="none" stroke="#000000" stroke-opacity="1" stroke-width="1" stroke-linecap="square" stroke-linejoin="bevel" transform="matrix(1,0,0,1,1477.94,1051.76)"
font-family="Noto Sans" font-size="35.2778" font-weight="400" font-style="normal" 
>
</g>

<g fill="none" stroke="#000000" stroke-opacity="1" stroke-width="1" stroke-linecap="square" stroke-linejoin="bevel" transform="matrix(1,0,0,1,1477.94,1051.76)"
font-family="Noto Sans" font-size="35.2778" font-weight="400" font-style="normal" 
>
</g>

<g fill="none" stroke="#000000" stroke-opacity="1" stroke-width="7" stroke-linecap="round" stroke-linejoin="bevel" transform="matrix(1,0,0,1,1477.94,1051.76)"
font-family="Noto Sans" font-size="35.2778" font-weight="400" font-style="normal" 
>
<path vector-effect="none" fill-rule="evenodd" d="M-240.712,437.675 C-225.113,557.204 -123.273,646.616 -2.73051,646.616 C117.812,646.616 219.652,557.204 235.251,437.675 "/>
</g>

<g fill="none" stroke="#000000" stroke-opacity="1" stroke-width="1" stroke-linecap="square" stroke-linejoin="bevel" transform="matrix(1,0,0,1,1477.94,1051.76)"
font-family="Noto Sans" font-size="35.2778" font-weight="400" font-style="normal" 
>
</g>

<g fill="none" stroke="#000000" stroke-opacity="1" stroke-width="1" stroke-linecap="square" stroke-linejoin="bevel" transform="matrix(1,0,0,1,1477.94,1051.76)"
font-family="Noto Sans" font-size="35.2778" font-weight="400" font-style="normal" 
>
</g>

<g fill="none" stroke="#000000" stroke-opacity="1" stroke-width="7" stroke-linecap="round" stroke-linejoin="bevel" transform="matrix(1,0,0,1,1477.94,1051.76)"
font-family="Noto Sans" font-size="35.2778" font-weight="400" font-style="normal" 
>
<path vector-effect="none" fill-rule="evenodd" d="M377.269,-93.3837 C377.269,116.484 207.138,286.616 -2.73051,286.616 C-212.599,286.616 -382.731,116.484 -382.731,-93.3837 C-382.731,-303.252 -212.599,-473.384 -2.73051,-473.384 C207.138,-473.384 377.269,-303.252 377.269,-93.3837 "/>
</g>

<g fill="none" stroke="#000000" stroke-opacity="1" stroke-width="1" stroke-linecap="square" stroke-linejoin="bevel" transform="matrix(1,0,0,1,1477.94,1051.76)"
font-family="Noto Sans" font-size="35.2778" font-weight="400" font-style="normal" 
>
</g>

<g fill="none" stroke="#000000" stroke-opacity="1" stroke-width="1" stroke-linecap="square" stroke-linejoin="bevel" transform="matrix(1,0,0,1,0,0)"
font-family="Noto Sans" font-size="35.2778" font-weight="400" font-style="normal" 
>
</g>
</g>
</svg>
