<?xml version="1.0" encoding="UTF-8" standalone="no"?>
<svg
   xmlns:dc="http://purl.org/dc/elements/1.1/"
   xmlns:cc="http://creativecommons.org/ns#"
   xmlns:rdf="http://www.w3.org/1999/02/22-rdf-syntax-ns#"
   xmlns:svg="http://www.w3.org/2000/svg"
   xmlns="http://www.w3.org/2000/svg"
   xmlns:sodipodi="http://sodipodi.sourceforge.net/DTD/sodipodi-0.dtd"
   xmlns:inkscape="http://www.inkscape.org/namespaces/inkscape"
   width="95.814659mm"
   height="104.26436mm"
   version="1.1"
   id="svg1287"
   sodipodi:docname="front.svg"
   inkscape:version="0.92.3 (2405546, 2018-03-11)">
  <metadata
     id="metadata1291">
    <rdf:RDF>
      <cc:Work
         rdf:about="">
        <dc:format>image/svg+xml</dc:format>
        <dc:type
           rdf:resource="http://purl.org/dc/dcmitype/StillImage" />
        <dc:title />
        <cc:license
           rdf:resource="http://creativecommons.org/licenses/by/4.0/" />
      </cc:Work>
      <cc:License
         rdf:about="http://creativecommons.org/licenses/by/4.0/">
        <cc:permits
           rdf:resource="http://creativecommons.org/ns#Reproduction" />
        <cc:permits
           rdf:resource="http://creativecommons.org/ns#Distribution" />
        <cc:requires
           rdf:resource="http://creativecommons.org/ns#Notice" />
        <cc:requires
           rdf:resource="http://creativecommons.org/ns#Attribution" />
        <cc:permits
           rdf:resource="http://creativecommons.org/ns#DerivativeWorks" />
      </cc:License>
    </rdf:RDF>
  </metadata>
  <sodipodi:namedview
     pagecolor="#ffffff"
     bordercolor="#666666"
     borderopacity="1"
     objecttolerance="10"
     gridtolerance="10"
     guidetolerance="10"
     inkscape:pageopacity="0"
     inkscape:pageshadow="2"
     inkscape:window-width="1920"
     inkscape:window-height="1015"
     id="namedview1289"
     showgrid="false"
     inkscape:document-units="mm"
     units="mm"
     fit-margin-top="5"
     fit-margin-left="5"
     fit-margin-bottom="5"
     fit-margin-right="5"
     inkscape:showpageshadow="false"
     inkscape:zoom="2.3786089"
     inkscape:cx="119.49792"
     inkscape:cy="147.5917"
     inkscape:window-x="0"
     inkscape:window-y="0"
     inkscape:window-maximized="1"
     inkscape:current-layer="g1285"
     inkscape:snap-smooth-nodes="true" />
  <desc
     id="desc1193">/home/stefan/mydata/projects/20170813_MagierCharacter/amulet/amulet_V3_export/front.dxf - scale = 1.000000, origin = (0.000000, 0.000000), method = manual</desc>
  <defs
     id="defs1207">
    <marker
       id="DistanceX"
       orient="auto"
       refX="0"
       refY="0"
       style="overflow:visible">
      <path
         d="M 3,-3 -3,3 M 0,-5 V 5"
         style="stroke:#000000;stroke-width:0.5"
         id="path1195"
         inkscape:connector-curvature="0" />
    </marker>
    <pattern
       height="8"
       id="Hatch"
       patternUnits="userSpaceOnUse"
       width="8"
       x="0"
       y="0">
      <path
         d="M8 4 l-4,4"
         linecap="square"
         stroke="#000000"
         stroke-width="0.25"
         id="path1198" />
      <path
         d="M6 2 l-4,4"
         linecap="square"
         stroke="#000000"
         stroke-width="0.25"
         id="path1200" />
      <path
         d="M4 0 l-4,4"
         linecap="square"
         stroke="#000000"
         stroke-width="0.25"
         id="path1202" />
    </pattern>
    <symbol
       id="*MODEL_SPACE" />
    <symbol
       id="*PAPER_SPACE" />
  </defs>
  <g
     inkscape:groupmode="layer"
     inkscape:label="0"
     id="g1209"
     transform="translate(-377.52442,-499.06494)" />
  <g
     inkscape:groupmode="layer"
     inkscape:label="View007"
     id="g1285"
     transform="translate(-377.52442,-499.06494)">
    <path
       inkscape:connector-curvature="0"
       style="fill:#0500ff;fill-opacity:0.98802394;stroke:#fd0000;stroke-opacity:1"
       d="m 555.01355,529.84708 a 136.063,136.063 0 0 0 -132.08984,136.0039 136.06348,136.06348 0 0 0 272.12695,0 136.063,136.063 0 0 0 -140.03711,-136.0039 z m -28.30859,15.52734 h 64.5625 l 55.91406,32.28125 32.28125,55.91406 v 64.5625 l -32.28125,55.91211 -55.91406,32.28125 h -64.5625 L 470.7909,754.04434 438.5116,698.13223 v -64.5625 l 32.2793,-55.91406 z"
       id="path46" />
    <path
       d="m 656.91075,556.04152 a 147.40157,147.40157 0 0 0 -196.63813,-3.4e-4"
       style="fill:none;stroke:#000000"
       id="path1211"
       inkscape:connector-curvature="0" />
    <path
       d="m 441.6952,559.89364 a 18.897638,18.897638 0 0 0 18.57975,-3.84873"
       style="fill:none;stroke:#000000"
       id="path1213"
       inkscape:connector-curvature="0" />
    <path
       d="m 656.91187,556.04495 a 18.897638,18.897638 0 0 0 18.57967,3.8487"
       style="fill:none;stroke:#000000"
       id="path1215"
       inkscape:connector-curvature="0" />
    <path
       d="m 441.6924,559.89033 a 34.015748,34.015748 0 0 0 -33.32463,57.72006"
       style="fill:none;stroke:#000000"
       id="path1217"
       inkscape:connector-curvature="0" />
    <path
       d="m 708.81526,617.61035 a 34.015748,34.015748 0 0 0 -33.32472,-57.72"
       style="fill:none;stroke:#000000"
       id="path1219"
       inkscape:connector-curvature="0" />
    <path
       d="m 414.32569,635.62831 a 18.897638,18.897638 0 0 0 -5.95675,-18.01488"
       style="fill:none;stroke:#000000"
       id="path1221"
       inkscape:connector-curvature="0" />
    <path
       d="m 708.81786,617.61341 a 18.897638,18.897638 0 0 0 -5.95679,18.01484"
       style="fill:none;stroke:#000000"
       id="path1223"
       inkscape:connector-curvature="0" />
    <path
       d="m 414.3244,635.62584 a 147.40157,147.40157 0 0 0 73.9241,159.77032"
       style="fill:none;stroke:#000000"
       id="path1225"
       inkscape:connector-curvature="0" />
    <path
       d="M 628.93336,795.39678 A 147.40157,147.40157 0 0 0 702.85849,635.62533"
       style="fill:none;stroke:#000000"
       id="path1227"
       inkscape:connector-curvature="0" />
    <path
       d="m 498.12801,812.305 a 18.897638,18.897638 0 0 0 -9.87707,-16.90698"
       style="fill:none;stroke:#000000"
       id="path1229"
       inkscape:connector-curvature="0" />
    <path
       d="m 628.93568,795.3981 a 18.897638,18.897638 0 0 0 -9.87692,16.90674"
       style="fill:none;stroke:#000000"
       id="path1231"
       inkscape:connector-curvature="0" />
    <path
       d="m 498.12666,812.30578 a 60.472441,60.472441 0 1 0 120.92966,-5.3e-4"
       style="fill:none;stroke:#000000"
       id="path1233"
       inkscape:connector-curvature="0" />
    <path
       d="m 671.97732,665.86205 a 113.38583,113.38583 0 1 0 -226.77165,0 113.38583,113.38583 0 1 0 226.77165,0 z"
       style="fill:none;stroke:#000000"
       id="path1249"
       inkscape:connector-curvature="0" />
    <path
       id="path1259"
       style="fill:#05fffb;fill-opacity:0.98802394;stroke:#ff0000;stroke-opacity:1"
       d="m 575.59937,826.11553 v -25.25632 -8.75943 h -34.01575 v 8.75943 25.25632 z"
       inkscape:connector-curvature="0"
       sodipodi:nodetypes="ccccccc" />
    <path
       d="m 549.14268,795.87931 h 18.89763"
       style="fill:none;stroke:#000000"
       id="path1251"
       inkscape:connector-curvature="0" />
    <path
       d="M 568.04031,795.87931 V 822.336"
       style="fill:none;stroke:#000000"
       id="path1253"
       inkscape:connector-curvature="0" />
    <path
       d="M 568.04031,822.336 H 549.14268"
       style="fill:none;stroke:#000000"
       id="path1255"
       inkscape:connector-curvature="0" />
    <path
       d="M 549.14268,822.336 V 795.87931"
       style="fill:none;stroke:#000000"
       id="path1257"
       inkscape:connector-curvature="0" />
  </g>
</svg>
