  0
SECTION
  2
HEADER
  9
$ACADVER
  1
AC1014
  9
$HANDSEED
  5
FFFF
  9
$MEASUREMENT
 70
     1
  0
ENDSEC
  0
SECTION
  2
TABLES
  0
TABLE
  2
VPORT
  5
8
330
0
100
AcDbSymbolTable
 70
     4
  0
VPORT
  5
2E
330
8
100
AcDbSymbolTableRecord
100
AcDbViewportTableRecord
  2
*ACTIVE
 70
     0
 10
0.0
 20
0.0
 11
1.0
 21
1.0
 12
210.0
 22
148.5
 13
0.0
 23
0.0
 14
10.0
 24
10.0
 15
10.0
 25
10.0
 16
0.0
 26
0.0
 36
1.0
 17
0.0
 27
0.0
 37
0.0
 40
341.0
 41
1.24
 42
50.0
 43
0.0
 44
0.0
 50
0.0
 51
0.0
 71
     0
 72
   100
 73
     1
 74
     3
 75
     0
 76
     0
 77
     0
 78
     0
  0
ENDTAB
  0
TABLE
  2
LTYPE
  5
5
330
0
100
AcDbSymbolTable
 70
     1
  0
LTYPE
  5
14
330
5
100
AcDbSymbolTableRecord
100
AcDbLinetypeTableRecord
  2
BYBLOCK
 70
     0
  3

 72
    65
 73
     0
 40
0.0
  0
LTYPE
  5
15
330
5
100
AcDbSymbolTableRecord
100
AcDbLinetypeTableRecord
  2
BYLAYER
 70
     0
  3

 72
    65
 73
     0
 40
0.0
  0
LTYPE
  5
16
330
5
100
AcDbSymbolTableRecord
100
AcDbLinetypeTableRecord
  2
CONTINUOUS
 70
     0
  3
Solid line
 72
    65
 73
     0
 40
0.0
  0
ENDTAB
  0
TABLE
  2
LAYER
  5
2
100
AcDbSymbolTable
 70
2
  0
LAYER
  5
50
100
AcDbSymbolTableRecord
100
AcDbLayerTableRecord
  2
0
 70
0
  6
CONTINUOUS
  0
LAYER
  5
51
100
AcDbSymbolTableRecord
100
AcDbLayerTableRecord
  2
View007
 70
0
  6
CONTINUOUS
  0
ENDTAB
  0
TABLE
  2
STYLE
  5
3
330
0
100
AcDbSymbolTable
 70
     1
  0
STYLE
  5
11
330
3
100
AcDbSymbolTableRecord
100
AcDbTextStyleTableRecord
  2
STANDARD
 70
     0
 40
0.0
 41
1.0
 50
0.0
 71
     0
 42
2.5
  3
txt
  4

  0
ENDTAB
  0
TABLE
  2
VIEW
  5
6
330
0
100
AcDbSymbolTable
 70
     0
  0
ENDTAB
  0
TABLE
  2
UCS
  5
7
330
0
100
AcDbSymbolTable
 70
     0
  0
ENDTAB
  0
TABLE
  2
APPID
  5
9
330
0
100
AcDbSymbolTable
 70
     2
  0
APPID
  5
12
330
9
100
AcDbSymbolTableRecord
100
AcDbRegAppTableRecord
  2
ACAD
 70
     0
  0
ENDTAB
  0
TABLE
  2
DIMSTYLE
  5
A
330
0
100
AcDbSymbolTable
 70
     1
  0
DIMSTYLE
105
27
330
A
100
AcDbSymbolTableRecord
100
AcDbDimStyleTableRecord
  2
ISO-25
 70
     0
  3

  4

  5

  6

  7

 40
1.0
 41
2.5
 42
0.625
 43
3.75
 44
1.25
 45
0.0
 46
0.0
 47
0.0
 48
0.0
140
2.5
141
2.5
142
0.0
143
0.03937007874016
144
1.0
145
0.0
146
1.0
147
0.625
 71
     0
 72
     0
 73
     0
 74
     0
 75
     0
 76
     0
 77
     1
 78
     8
170
     0
171
     3
172
     1
173
     0
174
     0
175
     0
176
     0
177
     0
178
     0
270
     2
271
     2
272
     2
273
     2
274
     3
340
11
275
     0
280
     0
281
     0
282
     0
283
     0
284
     8
285
     0
286
     0
287
     3
288
     0
  0
ENDTAB
  0
TABLE
  2
BLOCK_RECORD
  5
1
330
0
100
AcDbSymbolTable
 70
     1
  0
BLOCK_RECORD
  5
1F
330
1
100
AcDbSymbolTableRecord
100
AcDbBlockTableRecord
  2
*MODEL_SPACE
  0
BLOCK_RECORD
  5
1B
330
1
100
AcDbSymbolTableRecord
100
AcDbBlockTableRecord
  2
*PAPER_SPACE
  0
ENDTAB
  0
ENDSEC
  0
SECTION
  2
BLOCKS
  0
BLOCK
  5
20
330
1F
100
AcDbEntity
  8
0
100
AcDbBlockBegin
  2
*MODEL_SPACE
 70
     0
 10
0.0
 20
0.0
 30
0.0
  3
*MODEL_SPACE
  1

  0
ENDBLK
  5
21
330
1F
100
AcDbEntity
  8
0
100
AcDbBlockEnd
  0
BLOCK
  5
1C
330
1B
100
AcDbEntity
 67
     1
  8
0
100
AcDbBlockBegin
  2
*PAPER_SPACE
  1

  0
ENDBLK
  5
1D
330
1B
100
AcDbEntity
 67
     1
  8
0
100
AcDbBlockEnd
  0
ENDSEC
  0
SECTION
  2
ENTITIES
  0
SPLINE
  5
100
100
AcDbEntity
  8
View007
 62
1
100
AcDbSpline
 70
8
 71
3
 72
8
 73
4
 74
0
 40
0
 40
0
 40
0
 40
0
 40
1
 40
1
 40
1
 40
1
 10
46.960666
 20
96.119919
 30
0.0
 10
27.496187
 20
95.551296
 30
0.0
 10
12.012050
 20
79.608336
 30
0.0
 10
12.011895
 20
60.135554
 30
0.0
  0
SPLINE
  5
101
100
AcDbEntity
  8
View007
 62
1
100
AcDbSpline
 70
8
 71
3
 72
8
 73
4
 74
0
 40
0
 40
0
 40
0
 40
0
 40
1
 40
1
 40
1
 40
1
 10
12.011895
 20
60.135554
 30
0.0
 10
12.017285
 20
40.257043
 30
0.0
 10
28.133512
 20
24.145184
 30
0.0
 10
48.012023
 20
24.145184
 30
0.0
  0
SPLINE
  5
102
100
AcDbEntity
  8
View007
 62
1
100
AcDbSpline
 70
8
 71
3
 72
8
 73
4
 74
0
 40
0
 40
0
 40
0
 40
0
 40
1
 40
1
 40
1
 40
1
 10
48.012023
 20
24.145184
 30
0.0
 10
67.890534
 20
24.145184
 30
0.0
 10
84.006762
 20
40.257043
 30
0.0
 10
84.012151
 20
60.135554
 30
0.0
  0
SPLINE
  5
103
100
AcDbEntity
  8
View007
 62
1
100
AcDbSpline
 70
8
 71
3
 72
8
 73
4
 74
0
 40
0
 40
0
 40
0
 40
0
 40
1
 40
1
 40
1
 40
1
 10
84.012151
 20
60.135554
 30
0.0
 10
84.012076
 20
69.865640
 30
0.0
 10
80.073376
 20
79.181338
 30
0.0
 10
73.093384
 20
85.960298
 30
0.0
  0
SPLINE
  5
104
100
AcDbEntity
  8
View007
 62
1
100
AcDbSpline
 70
8
 71
3
 72
8
 73
4
 74
0
 40
0
 40
0
 40
0
 40
0
 40
1
 40
1
 40
1
 40
1
 10
73.093384
 20
85.960298
 30
0.0
 10
66.113393
 20
92.739258
 30
0.0
 10
56.686601
 20
96.404114
 30
0.0
 10
46.960666
 20
96.119919
 30
0.0
  0
LINE
  5
105
100
AcDbEntity
  8
View007
 62
1
100
AcDbLine
 10
46.960666
 20
96.119919
 30
0.0
 11
46.960666
 21
96.119919
 31
0.0
  0
LINE
  5
106
100
AcDbEntity
  8
View007
 62
1
100
AcDbLine
 10
39.470685
 20
92.011643
 30
0.0
 11
56.552846
 21
92.011643
 31
0.0
  0
LINE
  5
107
100
AcDbEntity
  8
View007
 62
1
100
AcDbLine
 10
56.552846
 20
92.011643
 30
0.0
 11
71.346774
 21
83.470563
 31
0.0
  0
LINE
  5
108
100
AcDbEntity
  8
View007
 62
1
100
AcDbLine
 10
71.346774
 20
83.470563
 30
0.0
 11
79.887855
 21
68.676634
 31
0.0
  0
LINE
  5
109
100
AcDbEntity
  8
View007
 62
1
100
AcDbLine
 10
79.887855
 20
68.676634
 30
0.0
 11
79.887855
 21
51.594473
 31
0.0
  0
LINE
  5
10a
100
AcDbEntity
  8
View007
 62
1
100
AcDbLine
 10
79.887855
 20
51.594473
 30
0.0
 11
71.346774
 21
36.801060
 31
0.0
  0
LINE
  5
10b
100
AcDbEntity
  8
View007
 62
1
100
AcDbLine
 10
71.346774
 20
36.801060
 30
0.0
 11
56.552846
 21
28.259980
 31
0.0
  0
LINE
  5
10c
100
AcDbEntity
  8
View007
 62
1
100
AcDbLine
 10
56.552846
 20
28.259980
 30
0.0
 11
39.470685
 21
28.259980
 31
0.0
  0
LINE
  5
10d
100
AcDbEntity
  8
View007
 62
1
100
AcDbLine
 10
39.470685
 20
28.259980
 30
0.0
 11
24.676756
 21
36.801060
 31
0.0
  0
LINE
  5
10e
100
AcDbEntity
  8
View007
 62
1
100
AcDbLine
 10
24.676756
 20
36.801060
 30
0.0
 11
16.136191
 21
51.594473
 31
0.0
  0
LINE
  5
10f
100
AcDbEntity
  8
View007
 62
1
100
AcDbLine
 10
16.136191
 20
51.594473
 30
0.0
 11
16.136191
 21
68.676634
 31
0.0
  0
LINE
  5
110
100
AcDbEntity
  8
View007
 62
1
100
AcDbLine
 10
16.136191
 20
68.676634
 30
0.0
 11
24.676756
 21
83.470563
 31
0.0
  0
LINE
  5
111
100
AcDbEntity
  8
View007
 62
1
100
AcDbLine
 10
24.676756
 20
83.470563
 30
0.0
 11
39.470685
 21
92.011643
 31
0.0
  0
SPLINE
  5
112
100
AcDbEntity
  8
View007
 62
7
100
AcDbSpline
 70
8
 71
3
 72
8
 73
4
 74
0
 40
0
 40
0
 40
0
 40
0
 40
1
 40
1
 40
1
 40
1
 10
73.920966
 20
89.189307
 30
0.0
 10
59.112370
 20
102.447031
 30
0.0
 10
36.702437
 20
102.447070
 30
0.0
 10
21.893795
 20
89.189397
 30
0.0
  0
SPLINE
  5
113
100
AcDbEntity
  8
View007
 62
7
100
AcDbSpline
 70
8
 71
3
 72
8
 73
4
 74
0
 40
0
 40
0
 40
0
 40
0
 40
1
 40
1
 40
1
 40
1
 10
16.978519
 20
88.170100
 30
0.0
 10
18.681152
 20
87.602686
 30
0.0
 10
20.557288
 20
87.991321
 30
0.0
 10
21.894411
 20
89.188410
 30
0.0
  0
SPLINE
  5
114
100
AcDbEntity
  8
View007
 62
7
100
AcDbSpline
 70
8
 71
3
 72
8
 73
4
 74
0
 40
0
 40
0
 40
0
 40
0
 40
1
 40
1
 40
1
 40
1
 10
73.921263
 20
89.188399
 30
0.0
 10
75.258383
 20
87.991321
 30
0.0
 10
77.134508
 20
87.602690
 30
0.0
 10
78.837134
 20
88.170097
 30
0.0
  0
SPLINE
  5
115
100
AcDbEntity
  8
View007
 62
7
100
AcDbSpline
 70
8
 71
3
 72
8
 73
4
 74
0
 40
0
 40
0
 40
0
 40
0
 40
1
 40
1
 40
1
 40
1
 10
16.977778
 20
88.170976
 30
0.0
 10
12.922219
 20
89.522512
 30
0.0
 10
8.475511
 20
87.834737
 30
0.0
 10
6.338096
 20
84.132619
 30
0.0
  0
SPLINE
  5
116
100
AcDbEntity
  8
View007
 62
7
100
AcDbSpline
 70
8
 71
3
 72
8
 73
4
 74
0
 40
0
 40
0
 40
0
 40
0
 40
1
 40
1
 40
1
 40
1
 10
6.338096
 20
84.132619
 30
0.0
 10
4.200682
 20
80.430502
 30
0.0
 10
4.962387
 20
75.735654
 30
0.0
 10
8.160636
 20
72.899210
 30
0.0
  0
SPLINE
  5
117
100
AcDbEntity
  8
View007
 62
7
100
AcDbSpline
 70
8
 71
3
 72
8
 73
4
 74
0
 40
0
 40
0
 40
0
 40
0
 40
1
 40
1
 40
1
 40
1
 10
87.654035
 20
72.899220
 30
0.0
 10
90.852277
 20
75.735670
 30
0.0
 10
91.613973
 20
80.430518
 30
0.0
 10
89.476553
 20
84.132630
 30
0.0
  0
SPLINE
  5
118
100
AcDbEntity
  8
View007
 62
7
100
AcDbSpline
 70
8
 71
3
 72
8
 73
4
 74
0
 40
0
 40
0
 40
0
 40
0
 40
1
 40
1
 40
1
 40
1
 10
89.476553
 20
84.132630
 30
0.0
 10
87.339134
 20
87.834742
 30
0.0
 10
82.892426
 20
89.522511
 30
0.0
 10
78.836869
 20
88.170970
 30
0.0
  0
SPLINE
  5
119
100
AcDbEntity
  8
View007
 62
7
100
AcDbSpline
 70
8
 71
3
 72
8
 73
4
 74
0
 40
0
 40
0
 40
0
 40
0
 40
1
 40
1
 40
1
 40
1
 10
9.737003
 20
68.131968
 30
0.0
 10
10.105150
 20
69.888492
 30
0.0
 10
9.503653
 20
71.707588
 30
0.0
 10
8.160946
 20
72.898405
 30
0.0
  0
SPLINE
  5
11a
100
AcDbEntity
  8
View007
 62
7
100
AcDbSpline
 70
8
 71
3
 72
8
 73
4
 74
0
 40
0
 40
0
 40
0
 40
0
 40
1
 40
1
 40
1
 40
1
 10
87.654723
 20
72.898411
 30
0.0
 10
86.312016
 20
71.707598
 30
0.0
 10
85.710515
 20
69.888506
 30
0.0
 10
86.078655
 20
68.131984
 30
0.0
  0
SPLINE
  5
11b
100
AcDbEntity
  8
View007
 62
7
100
AcDbSpline
 70
8
 71
3
 72
8
 73
4
 74
0
 40
0
 40
0
 40
0
 40
0
 40
1
 40
1
 40
1
 40
1
 10
9.736661
 20
68.132622
 30
0.0
 10
6.202132
 20
51.268195
 30
0.0
 10
14.153564
 20
34.082961
 30
0.0
 10
29.295746
 20
25.860058
 30
0.0
  0
SPLINE
  5
11c
100
AcDbEntity
  8
View007
 62
7
100
AcDbSpline
 70
8
 71
3
 72
8
 73
4
 74
0
 40
0
 40
0
 40
0
 40
0
 40
1
 40
1
 40
1
 40
1
 10
66.518615
 20
25.859894
 30
0.0
 10
81.661026
 20
34.082749
 30
0.0
 10
89.612599
 20
51.268168
 30
0.0
 10
86.077973
 20
68.132757
 30
0.0
  0
SPLINE
  5
11d
100
AcDbEntity
  8
View007
 62
7
100
AcDbSpline
 70
8
 71
3
 72
8
 73
4
 74
0
 40
0
 40
0
 40
0
 40
0
 40
1
 40
1
 40
1
 40
1
 10
31.909700
 20
21.386261
 30
0.0
 10
31.939248
 20
23.247581
 30
0.0
 10
30.932304
 20
24.971209
 30
0.0
 10
29.296392
 20
25.859566
 30
0.0
  0
SPLINE
  5
11e
100
AcDbEntity
  8
View007
 62
7
100
AcDbSpline
 70
8
 71
3
 72
8
 73
4
 74
0
 40
0
 40
0
 40
0
 40
0
 40
1
 40
1
 40
1
 40
1
 10
66.519229
 20
25.859545
 30
0.0
 10
64.883353
 20
24.971188
 30
0.0
 10
63.876428
 20
23.247592
 30
0.0
 10
63.905961
 20
21.386303
 30
0.0
  0
SPLINE
  5
11f
100
AcDbEntity
  8
View007
 62
7
100
AcDbSpline
 70
8
 71
3
 72
8
 73
4
 74
0
 40
0
 40
0
 40
0
 40
0
 40
1
 40
1
 40
1
 40
1
 10
31.909343
 20
21.386054
 30
0.0
 10
31.817719
 20
15.610027
 30
0.0
 10
34.846738
 20
10.233116
 30
0.0
 10
39.834222
 20
7.318343
 30
0.0
  0
SPLINE
  5
120
100
AcDbEntity
  8
View007
 62
7
100
AcDbSpline
 70
8
 71
3
 72
8
 73
4
 74
0
 40
0
 40
0
 40
0
 40
0
 40
1
 40
1
 40
1
 40
1
 10
39.834222
 20
7.318343
 30
0.0
 10
44.821705
 20
4.403570
 30
0.0
 10
50.993101
 20
4.403597
 30
0.0
 10
55.980559
 20
7.318414
 30
0.0
  0
SPLINE
  5
121
100
AcDbEntity
  8
View007
 62
7
100
AcDbSpline
 70
8
 71
3
 72
8
 73
4
 74
0
 40
0
 40
0
 40
0
 40
0
 40
1
 40
1
 40
1
 40
1
 10
55.980559
 20
7.318414
 30
0.0
 10
60.968017
 20
10.233230
 30
0.0
 10
63.996989
 20
15.610168
 30
0.0
 10
63.905315
 20
21.386195
 30
0.0
  0
SPLINE
  5
122
100
AcDbEntity
  8
View007
 62
7
100
AcDbSpline
 70
8
 71
3
 72
8
 73
4
 74
0
 40
0
 40
0
 40
0
 40
0
 40
1
 40
1
 40
1
 40
1
 10
77.907330
 20
60.132625
 30
0.0
 10
77.910513
 20
70.852714
 30
0.0
 10
72.193242
 20
80.759848
 30
0.0
 10
62.909902
 20
86.120812
 30
0.0
  0
SPLINE
  5
123
100
AcDbEntity
  8
View007
 62
7
100
AcDbSpline
 70
8
 71
3
 72
8
 73
4
 74
0
 40
0
 40
0
 40
0
 40
0
 40
1
 40
1
 40
1
 40
1
 10
62.909902
 20
86.120812
 30
0.0
 10
53.626563
 20
91.481776
 30
0.0
 10
42.188098
 20
91.481776
 30
0.0
 10
32.904758
 20
86.120812
 30
0.0
  0
SPLINE
  5
124
100
AcDbEntity
  8
View007
 62
7
100
AcDbSpline
 70
8
 71
3
 72
8
 73
4
 74
0
 40
0
 40
0
 40
0
 40
0
 40
1
 40
1
 40
1
 40
1
 10
32.904758
 20
86.120812
 30
0.0
 10
23.621418
 20
80.759848
 30
0.0
 10
17.904147
 20
70.852714
 30
0.0
 10
17.907331
 20
60.132625
 30
0.0
  0
SPLINE
  5
125
100
AcDbEntity
  8
View007
 62
7
100
AcDbSpline
 70
8
 71
3
 72
8
 73
4
 74
0
 40
0
 40
0
 40
0
 40
0
 40
1
 40
1
 40
1
 40
1
 10
17.907331
 20
60.132625
 30
0.0
 10
17.904147
 20
49.412535
 30
0.0
 10
23.621418
 20
39.505402
 30
0.0
 10
32.904758
 20
34.144438
 30
0.0
  0
SPLINE
  5
126
100
AcDbEntity
  8
View007
 62
7
100
AcDbSpline
 70
8
 71
3
 72
8
 73
4
 74
0
 40
0
 40
0
 40
0
 40
0
 40
1
 40
1
 40
1
 40
1
 10
32.904758
 20
34.144438
 30
0.0
 10
42.188098
 20
28.783474
 30
0.0
 10
53.626563
 20
28.783474
 30
0.0
 10
62.909902
 20
34.144438
 30
0.0
  0
SPLINE
  5
127
100
AcDbEntity
  8
View007
 62
7
100
AcDbSpline
 70
8
 71
3
 72
8
 73
4
 74
0
 40
0
 40
0
 40
0
 40
0
 40
1
 40
1
 40
1
 40
1
 10
62.909902
 20
34.144438
 30
0.0
 10
72.193242
 20
39.505402
 30
0.0
 10
77.910513
 20
49.412535
 30
0.0
 10
77.907330
 20
60.132625
 30
0.0
  0
LINE
  5
128
100
AcDbEntity
  8
View007
 62
7
100
AcDbLine
 10
77.907330
 20
60.132625
 30
0.0
 11
77.907330
 21
60.132625
 31
0.0
  0
LINE
  5
129
100
AcDbEntity
  8
View007
 62
1
100
AcDbLine
 10
52.407331
 20
17.732225
 30
0.0
 11
52.407331
 21
24.414626
 31
0.0
  0
LINE
  5
12a
100
AcDbEntity
  8
View007
 62
1
100
AcDbLine
 10
52.407331
 20
24.414626
 30
0.0
 11
52.407331
 21
26.732225
 31
0.0
  0
LINE
  5
12b
100
AcDbEntity
  8
View007
 62
1
100
AcDbLine
 10
52.407331
 20
26.732225
 30
0.0
 11
43.407330
 21
26.732225
 31
0.0
  0
LINE
  5
12c
100
AcDbEntity
  8
View007
 62
1
100
AcDbLine
 10
43.407330
 20
26.732225
 30
0.0
 11
43.407330
 21
24.414626
 31
0.0
  0
LINE
  5
12d
100
AcDbEntity
  8
View007
 62
1
100
AcDbLine
 10
43.407330
 20
24.414626
 30
0.0
 11
43.407330
 21
17.732225
 31
0.0
  0
LINE
  5
12e
100
AcDbEntity
  8
View007
 62
1
100
AcDbLine
 10
43.407330
 20
17.732225
 30
0.0
 11
52.407331
 21
17.732225
 31
0.0
  0
LINE
  5
12f
100
AcDbEntity
  8
View007
 62
7
100
AcDbLine
 10
45.407331
 20
25.732225
 30
0.0
 11
50.407329
 21
25.732225
 31
0.0
  0
LINE
  5
130
100
AcDbEntity
  8
View007
 62
7
100
AcDbLine
 10
50.407329
 20
25.732225
 30
0.0
 11
50.407329
 21
18.732225
 31
0.0
  0
LINE
  5
131
100
AcDbEntity
  8
View007
 62
7
100
AcDbLine
 10
50.407329
 20
18.732225
 30
0.0
 11
45.407331
 21
18.732225
 31
0.0
  0
LINE
  5
132
100
AcDbEntity
  8
View007
 62
7
100
AcDbLine
 10
45.407331
 20
18.732225
 30
0.0
 11
45.407331
 21
25.732225
 31
0.0
  0
ENDSEC
  0
SECTION
  2
OBJECTS
  0
DICTIONARY
  5
C
330
0
100
AcDbDictionary
  3
ACAD_GROUP
350
D
  3
ACAD_MLINESTYLE
350
17
  0
DICTIONARY
  5
D
330
C
100
AcDbDictionary
  0
DICTIONARY
  5
1A
330
C
100
AcDbDictionary
  0
DICTIONARY
  5
17
330
C
100
AcDbDictionary
  3
STANDARD
350
18
  0
DICTIONARY
  5
19
330
C
100
AcDbDictionary
  0
ENDSEC
  0
EOF
