999
FreeCAD v0.18 15058 (Git)
  0
SECTION
  2
HEADER
  9
$ACADVER
  1
AC1014
  9
$ACADMAINTVER
 70
     9
  9
$DWGCODEPAGE
  3
ANSI_1252
  9
$TEXTSTYLE
  7
STANDARD
  9
$DIMSTYLE
  2
STANDARD
  9
$DIMTXSTY
  7
STANDARD
  9
$CMLSTYLE
  2
STANDARD
  9
$HANDSEED
  5
FFF
  0
ENDSEC
  0
SECTION
  2
CLASSES
  0
CLASS
  1
ACDBDICTIONARYWDFLT
  2
AcDbDictionaryWithDefault
  3
ObjectDBX Classes
 90
        0
280
     0
281
     0
  0
CLASS
  1
XRECORD
  2
AcDbXrecord
  3
ObjectDBX Classes
 90
        0
280
     0
281
     0
  0
CLASS
  1
LWPOLYLINE
  2
AcDbPolyline
  3
ObjectDBX Classes
 90
        0
280
     0
281
     1
  0
ENDSEC
  0
SECTION
  2
TABLES
  0
TABLE
  2
VPORT
  5
20
330
0
100
AcDbSymbolTable
 70
     1
  0
VPORT
  5
21
330
20
100
AcDbSymbolTableRecord
100
AcDbViewportTableRecord
  2
*ACTIVE
 70
     0
  0
ENDTAB
  0
TABLE
  2
LTYPE
  5
22
330
0
100
AcDbSymbolTable
 70
     1
  0
LTYPE
  5
23
330
21
100
AcDbSymbolTableRecord
100
AcDbLinetypeTableRecord
  2
BYBLOCK
 70
     0
  3

 72
    65
 73
     0
 40
0.0
  0
LTYPE
  5
24
330
21
100
AcDbSymbolTableRecord
100
AcDbLinetypeTableRecord
  2
BYLAYER
 70
     0
  3

 72
    65
 73
     0
 40
0.0
  0
LTYPE
  5
25
330
21
100
AcDbSymbolTableRecord
100
AcDbLinetypeTableRecord
  2
CONTINUOUS
 70
     0
  3
Solid line
 72
    65
 73
     0
 40
0.0
  0
ENDTAB
  0
TABLE
  2
LAYER
  5
31
330
0
100
AcDbSymbolTable
 70
2
  0
LAYER
  5
32
330
31
100
AcDbSymbolTableRecord
100
AcDbLayerTableRecord
  2
0
 70
   0
 62
   7
  6
CONTINUOUS
  0
LAYER
  5
33
330
31
100
AcDbSymbolTableRecord
100
AcDbLayerTableRecord
  2
View
 70
    0
 62
    7
  6
CONTINUOUS
  0
ENDTAB
  0
TABLE
  2
STYLE
  5
60
330
0
100
AcDbSymbolTable
 70
     2
  0
STYLE
  5
61
330
60
100
AcDbSymbolTableRecord
100
AcDbTextStyleTableRecord
  2
STANDARD
 70
     0
 40
0.0
 41
1.0
 50
0.0
 71
     0
 42
2.5
  3
arial.ttf
  4

  0
STYLE
  5
62
330
60
100
AcDbSymbolTableRecord
100
AcDbTextStyleTableRecord
  2
ANNOTATIVE
 70
     0
 40
0.0
 41
1.0
 50
0.0
 71
     0
 42
2.5
  3
arial.ttf
  4

  0
ENDTAB
  0
TABLE
  2
VIEW
  5
63
330
0
100
AcDbSymbolTable
 70
     0
  0
ENDTAB
  0
TABLE
  2
UCS
  5
64
330
0
100
AcDbSymbolTable
 70
     0
  0
ENDTAB
  0
TABLE
  2
APPID
  5
65
330
0
100
AcDbSymbolTable
 70
     2
  0
APPID
  5
66
330
65
100
AcDbSymbolTableRecord
100
AcDbRegAppTableRecord
  2
ACAD
 70
     0
  0
APPID
  5
67
330
65
100
AcDbSymbolTableRecord
100
AcDbRegAppTableRecord
  2
ACADANNOTATIVE
 70
     0
  0
ENDTAB
  0
TABLE
  2
DIMSTYLE
  5
68
330
0
100
AcDbSymbolTable
 70
     2
  0
DIMSTYLE
105
69
330
68
100
AcDbSymbolTableRecord
100
AcDbDimStyleTableRecord
  2
STANDARD
 70
     0
  3

  4

  5

  6

  7

 40
0.0
 41
2.5
 42
0.625
 43
3.75
 44
1.25
 45
0.0
 46
0.0
 47
0.0
 48
0.0
140
2.5
141
2.5
142
0.0
143
0.03937007874016
144
1.0
145
0.0
146
1.0
147
0.625
 71
     0
 72
     0
 73
     0
 74
     0
 75
     0
 76
     0
 77
     1
 78
     8
170
     0
171
     3
172
     1
173
     0
174
     0
175
     0
176
     0
177
     0
178
     0
270
     2
271
     2
272
     2
273
     2
274
     3
340
61
275
     0
280
     0
281
     0
282
     0
283
     0
284
     8
285
     0
286
     0
287
     3
288
     0
  0
ENDTAB
  0
TABLE
  2
BLOCK_RECORD
  5
111
330
0
100
AcDbSymbolTable
  70
5
  0
BLOCK_RECORD
  5
112
330
111
100
AcDbSymbolTableRecord
100
AcDbBlockTableRecord
  2
*MODEL_SPACE
  0
BLOCK_RECORD
  5
113
330
111
100
AcDbSymbolTableRecord
100
AcDbBlockTableRecord
  2
*PAPER_SPACE
  0
ENDTAB
  0
ENDSEC
  0
SECTION
  2
BLOCKS
  0
BLOCK
  5
211
330
112
100
AcDbEntity
  8
0
100
AcDbBlockBegin
  2
*MODEL_SPACE
 70
   0
 10
0
 20
0
 30
0
  3
*MODEL_SPACE
  1
 
  0
ENDBLK
  5
212
330
112
100
AcDbEntity
  8
0
100
AcDbBlockEnd
  0
BLOCK
  5
213
330
113
100
AcDbEntity
 67
1
  8
0
100
AcDbBlockBegin
  2
*PAPER_SPACE
 70
   0
 10
0
 20
0
 30
0
  3
*PAPER_SPACE
  1
 
  0
ENDBLK
  5
214
330
113
100
AcDbEntity
 67
    1
  8
0
100
AcDbBlockEnd
  0
ENDSEC
  0
SECTION
  2
ENTITIES
  0
ARC
  5
301
330
112
100
AcDbEntity
  8
View
100
AcDbCircle
 10
148.5
 20
95
 30
0
 40
54
100
AcDbArc
 50
-122.584
 51
-57.4158
  0
ARC
  5
302
330
112
100
AcDbEntity
  8
View
100
AcDbCircle
 10
181.889
 20
42.7587
 30
0
 40
8
100
AcDbArc
 50
83.3591
 51
122.584
  0
ARC
  5
303
330
112
100
AcDbEntity
  8
View
100
AcDbCircle
 10
115.111
 20
42.7587
 30
0
 40
8
100
AcDbArc
 50
57.4158
 51
96.6409
  0
ARC
  5
304
330
112
100
AcDbEntity
  8
View
100
AcDbCircle
 10
183.855
 20
59.6447
 30
0
 40
9
100
AcDbArc
 50
-96.6409
 51
-95.05
  0
LINE
  5
305
330
112
100
AcDbEntity
  8
View
100
AcDbLine
 10
183.063
 20
50.6796
 30
0
 11
183.028
 21
66.8036
 31
0
  0
LINE
  5
306
330
112
100
AcDbEntity
  8
View
100
AcDbLine
 10
180.98
 20
63.2572
 30
0
 11
183.028
 21
66.8036
 31
0
  0
LINE
  5
307
330
112
100
AcDbEntity
  8
View
100
AcDbLine
 10
178.339
 20
64.7822
 30
0
 11
180.98
 21
63.2572
 31
0
  0
LINE
  5
308
330
112
100
AcDbEntity
  8
View
100
AcDbLine
 10
178.376
 20
64.8461
 30
0
 11
178.339
 21
64.7822
 31
0
  0
LINE
  5
309
330
112
100
AcDbEntity
  8
View
100
AcDbLine
 10
178.376
 20
64.8461
 30
0
 11
168.357
 21
59.0616
 31
0
  0
LINE
  5
30A
330
112
100
AcDbEntity
  8
View
100
AcDbLine
 10
171.25
 20
54.05
 30
0
 11
168.357
 21
59.0616
 31
0
  0
LINE
  5
30B
330
112
100
AcDbEntity
  8
View
100
AcDbLine
 10
171.25
 20
51
 30
0
 11
171.25
 21
54.05
 31
0
  0
LINE
  5
30C
330
112
100
AcDbEntity
  8
View
100
AcDbLine
 10
137.25
 20
51
 30
0
 11
171.25
 21
51
 31
0
  0
LINE
  5
30D
330
112
100
AcDbEntity
  8
View
100
AcDbLine
 10
137.25
 20
54.05
 30
0
 11
137.25
 21
51
 31
0
  0
LINE
  5
30E
330
112
100
AcDbEntity
  8
View
100
AcDbLine
 10
137.324
 20
54.05
 30
0
 11
137.25
 21
54.05
 31
0
  0
LINE
  5
30F
330
112
100
AcDbEntity
  8
View
100
AcDbLine
 10
137.324
 20
54.05
 30
0
 11
127.305
 21
59.8345
 31
0
  0
LINE
  5
310
330
112
100
AcDbEntity
  8
View
100
AcDbLine
 10
124.411
 20
54.8229
 30
0
 11
127.305
 21
59.8345
 31
0
  0
LINE
  5
311
330
112
100
AcDbEntity
  8
View
100
AcDbLine
 10
121.77
 20
53.2979
 30
0
 11
124.411
 21
54.8229
 31
0
  0
LINE
  5
312
330
112
100
AcDbEntity
  8
View
100
AcDbLine
 10
113.972
 20
66.8036
 30
0
 11
121.77
 21
53.2979
 31
0
  0
LINE
  5
313
330
112
100
AcDbEntity
  8
View
100
AcDbLine
 10
113.937
 20
50.6796
 30
0
 11
113.972
 21
66.8036
 31
0
  0
ARC
  5
314
330
112
100
AcDbEntity
  8
View
100
AcDbCircle
 10
113.145
 20
59.6447
 30
0
 40
9
100
AcDbArc
 50
-84.95
 51
-83.3591
  0
LINE
  5
315
330
112
100
AcDbEntity
  8
View
100
AcDbLine
 10
130.815
 20
53.3186
 30
0
 11
131.092
 21
50.1552
 31
0
  0
LINE
  5
316
330
112
100
AcDbEntity
  8
View
100
AcDbLine
 10
127.938
 20
54.6606
 30
0
 11
130.815
 21
53.3186
 31
0
  0
LINE
  5
317
330
112
100
AcDbEntity
  8
View
100
AcDbLine
 10
131.092
 20
50.1552
 30
0
 11
128.491
 21
48.3339
 31
0
  0
LINE
  5
318
330
112
100
AcDbEntity
  8
View
100
AcDbLine
 10
125.336
 20
52.8392
 30
0
 11
127.938
 21
54.6606
 31
0
  0
LINE
  5
319
330
112
100
AcDbEntity
  8
View
100
AcDbLine
 10
128.491
 20
48.3339
 30
0
 11
125.613
 21
49.6759
 31
0
  0
LINE
  5
31A
330
112
100
AcDbEntity
  8
View
100
AcDbLine
 10
125.613
 20
49.6759
 30
0
 11
125.336
 21
52.8392
 31
0
  0
LINE
  5
31B
330
112
100
AcDbEntity
  8
View
100
AcDbLine
 10
175.755
 20
58.844
 30
0
 11
178.633
 21
57.5021
 31
0
  0
LINE
  5
31C
330
112
100
AcDbEntity
  8
View
100
AcDbLine
 10
173.154
 20
57.0227
 30
0
 11
175.755
 21
58.844
 31
0
  0
LINE
  5
31D
330
112
100
AcDbEntity
  8
View
100
AcDbLine
 10
178.633
 20
57.5021
 30
0
 11
178.91
 21
54.3387
 31
0
  0
LINE
  5
31E
330
112
100
AcDbEntity
  8
View
100
AcDbLine
 10
173.431
 20
53.8594
 30
0
 11
173.154
 21
57.0227
 31
0
  0
LINE
  5
31F
330
112
100
AcDbEntity
  8
View
100
AcDbLine
 10
178.91
 20
54.3387
 30
0
 11
176.308
 21
52.5174
 31
0
  0
LINE
  5
320
330
112
100
AcDbEntity
  8
View
100
AcDbLine
 10
176.308
 20
52.5174
 30
0
 11
173.431
 21
53.8594
 31
0
  0
ARC
  5
321
330
112
100
AcDbEntity
  8
View
100
AcDbCircle
 10
183.855
 20
59.6447
 30
0
 40
9
100
AcDbArc
 50
-62.1417
 51
-2.4093
  0
ARC
  5
322
330
112
100
AcDbEntity
  8
View
100
AcDbCircle
 10
183.855
 20
59.6447
 30
0
 40
9
100
AcDbArc
 50
-95.05
 51
-62.1417
  0
ARC
  5
323
330
112
100
AcDbEntity
  8
View
100
AcDbCircle
 10
113.145
 20
59.6447
 30
0
 40
9
100
AcDbArc
 50
-117.858
 51
-84.95
  0
ARC
  5
324
330
112
100
AcDbEntity
  8
View
100
AcDbCircle
 10
113.145
 20
59.6447
 30
0
 40
9
100
AcDbArc
 50
-177.591
 51
-117.858
  0
LINE
  5
325
330
112
100
AcDbEntity
  8
View
100
AcDbLine
 10
183.028
 20
66.8036
 30
0
 11
185.976
 21
71.9095
 31
0
  0
LINE
  5
326
330
112
100
AcDbEntity
  8
View
100
AcDbLine
 10
185.976
 20
71.9095
 30
0
 11
197.98
 21
92.7021
 31
0
  0
LINE
  5
327
330
112
100
AcDbEntity
  8
View
100
AcDbLine
 10
104.77
 20
82.7428
 30
0
 11
111.024
 21
71.9095
 31
0
  0
LINE
  5
328
330
112
100
AcDbEntity
  8
View
100
AcDbLine
 10
113.972
 20
66.8036
 30
0
 11
111.024
 21
71.9095
 31
0
  0
ARC
  5
329
330
112
100
AcDbEntity
  8
View
100
AcDbCircle
 10
212.83
 20
58.4256
 30
0
 40
20
100
AcDbArc
 50
150.38
 51
177.591
  0
ARC
  5
32A
330
112
100
AcDbEntity
  8
View
100
AcDbCircle
 10
84.1703
 20
58.4256
 30
0
 40
20
100
AcDbArc
 50
2.4093
 51
29.6202
  0
ARC
  5
32B
330
112
100
AcDbEntity
  8
View
100
AcDbCircle
 10
148.5
 20
95
 30
0
 40
54
100
AcDbArc
 50
-29.6202
 51
58.2117
  0
ARC
  5
32C
330
112
100
AcDbEntity
  8
View
100
AcDbCircle
 10
148.5
 20
95
 30
0
 40
54
100
AcDbArc
 50
121.788
 51
-150.38
  0
ARC
  5
32D
330
112
100
AcDbEntity
  8
View
100
AcDbCircle
 10
182.214
 20
149.4
 30
0
 40
10
100
AcDbArc
 50
-172.564
 51
-121.788
  0
ARC
  5
32E
330
112
100
AcDbEntity
  8
View
100
AcDbCircle
 10
114.786
 20
149.4
 30
0
 40
10
100
AcDbArc
 50
-58.2117
 51
-7.4356
  0
ARC
  5
32F
330
112
100
AcDbEntity
  8
View
100
AcDbCircle
 10
148.5
 20
145
 30
0
 40
24
100
AcDbArc
 50
7.4356
 51
172.564
  0
LINE
  5
330
330
112
100
AcDbEntity
  8
View
100
AcDbLine
 10
100.959
 20
87.6532
 30
0
 11
98.0815
 21
88.9952
 31
0
  0
LINE
  5
331
330
112
100
AcDbEntity
  8
View
100
AcDbLine
 10
98.0815
 20
88.9952
 30
0
 11
97.8047
 21
92.1585
 31
0
  0
LINE
  5
332
330
112
100
AcDbEntity
  8
View
100
AcDbLine
 10
103.561
 20
89.4745
 30
0
 11
100.959
 21
87.6532
 31
0
  0
LINE
  5
333
330
112
100
AcDbEntity
  8
View
100
AcDbLine
 10
97.8047
 20
92.1585
 30
0
 11
100.406
 21
93.9799
 31
0
  0
LINE
  5
334
330
112
100
AcDbEntity
  8
View
100
AcDbLine
 10
103.284
 20
92.6379
 30
0
 11
103.561
 21
89.4745
 31
0
  0
LINE
  5
335
330
112
100
AcDbEntity
  8
View
100
AcDbLine
 10
100.406
 20
93.9799
 30
0
 11
103.284
 21
92.6379
 31
0
  0
LINE
  5
336
330
112
100
AcDbEntity
  8
View
100
AcDbLine
 10
118.367
 20
132.498
 30
0
 11
118.09
 21
135.661
 31
0
  0
LINE
  5
337
330
112
100
AcDbEntity
  8
View
100
AcDbLine
 10
118.09
 20
135.661
 30
0
 11
120.692
 21
137.483
 31
0
  0
LINE
  5
338
330
112
100
AcDbEntity
  8
View
100
AcDbLine
 10
121.245
 20
131.156
 30
0
 11
118.367
 21
132.498
 31
0
  0
LINE
  5
339
330
112
100
AcDbEntity
  8
View
100
AcDbLine
 10
120.692
 20
137.483
 30
0
 11
123.569
 21
136.141
 31
0
  0
LINE
  5
33A
330
112
100
AcDbEntity
  8
View
100
AcDbLine
 10
123.846
 20
132.977
 30
0
 11
121.245
 21
131.156
 31
0
  0
LINE
  5
33B
330
112
100
AcDbEntity
  8
View
100
AcDbLine
 10
123.569
 20
136.141
 30
0
 11
123.846
 21
132.977
 31
0
  0
LINE
  5
33C
330
112
100
AcDbEntity
  8
View
100
AcDbLine
 10
165.908
 20
139.845
 30
0
 11
168.509
 21
141.666
 31
0
  0
LINE
  5
33D
330
112
100
AcDbEntity
  8
View
100
AcDbLine
 10
168.509
 20
141.666
 30
0
 11
171.387
 21
140.324
 31
0
  0
LINE
  5
33E
330
112
100
AcDbEntity
  8
View
100
AcDbLine
 10
166.185
 20
136.681
 30
0
 11
165.908
 21
139.845
 31
0
  0
LINE
  5
33F
330
112
100
AcDbEntity
  8
View
100
AcDbLine
 10
171.387
 20
140.324
 30
0
 11
171.664
 21
137.161
 31
0
  0
LINE
  5
340
330
112
100
AcDbEntity
  8
View
100
AcDbLine
 10
169.062
 20
135.339
 30
0
 11
166.185
 21
136.681
 31
0
  0
LINE
  5
341
330
112
100
AcDbEntity
  8
View
100
AcDbLine
 10
171.664
 20
137.161
 30
0
 11
169.062
 21
135.339
 31
0
  0
LINE
  5
342
330
112
100
AcDbEntity
  8
View
100
AcDbLine
 10
139.5
 20
141
 30
0
 11
157.5
 21
141
 31
0
  0
LINE
  5
343
330
112
100
AcDbEntity
  8
View
100
AcDbLine
 10
139.5
 20
156
 30
0
 11
139.5
 21
141
 31
0
  0
LINE
  5
344
330
112
100
AcDbEntity
  8
View
100
AcDbLine
 10
157.5
 20
156
 30
0
 11
139.5
 21
156
 31
0
  0
LINE
  5
345
330
112
100
AcDbEntity
  8
View
100
AcDbLine
 10
157.5
 20
141
 30
0
 11
157.5
 21
156
 31
0
  0
LINE
  5
346
330
112
100
AcDbEntity
  8
View
100
AcDbLine
 10
197.98
 20
92.7021
 30
0
 11
195.339
 21
94.2271
 31
0
  0
LINE
  5
347
330
112
100
AcDbEntity
  8
View
100
AcDbLine
 10
195.339
 20
94.2271
 30
0
 11
189.552
 21
94.2271
 31
0
  0
LINE
  5
348
330
112
100
AcDbEntity
  8
View
100
AcDbLine
 10
189.552
 20
105.796
 30
0
 11
189.552
 21
94.2271
 31
0
  0
LINE
  5
349
330
112
100
AcDbEntity
  8
View
100
AcDbLine
 10
189.552
 20
105.796
 30
0
 11
189.589
 21
105.732
 31
0
  0
LINE
  5
34A
330
112
100
AcDbEntity
  8
View
100
AcDbLine
 10
189.589
 20
105.732
 30
0
 11
192.23
 21
107.257
 31
0
  0
LINE
  5
34B
330
112
100
AcDbEntity
  8
View
100
AcDbLine
 10
107.411
 20
84.2678
 30
0
 11
104.77
 21
82.7428
 31
0
  0
LINE
  5
34C
330
112
100
AcDbEntity
  8
View
100
AcDbLine
 10
192.23
 20
107.257
 30
0
 11
175.23
 21
136.702
 31
0
  0
LINE
  5
34D
330
112
100
AcDbEntity
  8
View
100
AcDbLine
 10
107.448
 20
84.2039
 30
0
 11
107.411
 21
84.2678
 31
0
  0
LINE
  5
34E
330
112
100
AcDbEntity
  8
View
100
AcDbLine
 10
175.23
 20
136.702
 30
0
 11
172.589
 21
135.177
 31
0
  0
LINE
  5
34F
330
112
100
AcDbEntity
  8
View
100
AcDbLine
 10
107.448
 20
84.2039
 30
0
 11
107.448
 21
95.7729
 31
0
  0
LINE
  5
350
330
112
100
AcDbEntity
  8
View
100
AcDbLine
 10
172.589
 20
135.177
 30
0
 11
169.695
 21
130.165
 31
0
  0
LINE
  5
351
330
112
100
AcDbEntity
  8
View
100
AcDbLine
 10
101.661
 20
95.7729
 30
0
 11
107.448
 21
95.7729
 31
0
  0
LINE
  5
352
330
112
100
AcDbEntity
  8
View
100
AcDbLine
 10
159.676
 20
135.95
 30
0
 11
169.695
 21
130.165
 31
0
  0
LINE
  5
353
330
112
100
AcDbEntity
  8
View
100
AcDbLine
 10
99.0199
 20
97.2979
 30
0
 11
101.661
 21
95.7729
 31
0
  0
LINE
  5
354
330
112
100
AcDbEntity
  8
View
100
AcDbLine
 10
159.676
 20
135.95
 30
0
 11
159.75
 21
135.95
 31
0
  0
LINE
  5
355
330
112
100
AcDbEntity
  8
View
100
AcDbLine
 10
116.02
 20
126.743
 30
0
 11
99.0199
 21
97.2979
 31
0
  0
LINE
  5
356
330
112
100
AcDbEntity
  8
View
100
AcDbLine
 10
159.75
 20
135.95
 30
0
 11
159.75
 21
139
 31
0
  0
LINE
  5
357
330
112
100
AcDbEntity
  8
View
100
AcDbLine
 10
118.661
 20
125.218
 30
0
 11
116.02
 21
126.743
 31
0
  0
LINE
  5
358
330
112
100
AcDbEntity
  8
View
100
AcDbLine
 10
159.75
 20
139
 30
0
 11
125.75
 21
139
 31
0
  0
LINE
  5
359
330
112
100
AcDbEntity
  8
View
100
AcDbLine
 10
118.624
 20
125.154
 30
0
 11
118.661
 21
125.218
 31
0
  0
LINE
  5
35A
330
112
100
AcDbEntity
  8
View
100
AcDbLine
 10
125.75
 20
139
 30
0
 11
125.75
 21
135.95
 31
0
  0
LINE
  5
35B
330
112
100
AcDbEntity
  8
View
100
AcDbLine
 10
118.624
 20
125.154
 30
0
 11
128.643
 21
130.938
 31
0
  0
LINE
  5
35C
330
112
100
AcDbEntity
  8
View
100
AcDbLine
 10
125.75
 20
135.95
 30
0
 11
128.643
 21
130.938
 31
0
  0
LINE
  5
35D
330
112
100
AcDbEntity
  8
View
100
AcDbLine
 10
196.041
 20
102.347
 30
0
 11
198.919
 21
101.005
 31
0
  0
LINE
  5
35E
330
112
100
AcDbEntity
  8
View
100
AcDbLine
 10
198.919
 20
101.005
 30
0
 11
199.195
 21
97.8415
 31
0
  0
LINE
  5
35F
330
112
100
AcDbEntity
  8
View
100
AcDbLine
 10
193.439
 20
100.525
 30
0
 11
196.041
 21
102.347
 31
0
  0
LINE
  5
360
330
112
100
AcDbEntity
  8
View
100
AcDbLine
 10
199.195
 20
97.8415
 30
0
 11
196.594
 21
96.0201
 31
0
  0
LINE
  5
361
330
112
100
AcDbEntity
  8
View
100
AcDbLine
 10
193.716
 20
97.3621
 30
0
 11
193.439
 21
100.525
 31
0
  0
LINE
  5
362
330
112
100
AcDbEntity
  8
View
100
AcDbLine
 10
196.594
 20
96.0201
 30
0
 11
193.716
 21
97.3621
 31
0
  0
LINE
  5
363
330
112
100
AcDbEntity
  8
View
100
AcDbLine
 10
108.984
 20
71.914
 30
0
 11
108.939
 21
51.6877
 31
0
  0
LINE
  5
364
330
112
100
AcDbEntity
  8
View
100
AcDbLine
 10
111.024
 20
71.9095
 30
0
 11
108.984
 21
71.914
 31
0
  0
LINE
  5
365
330
112
100
AcDbEntity
  8
View
100
AcDbLine
 10
185.976
 20
71.9095
 30
0
 11
188.016
 21
71.914
 31
0
  0
LINE
  5
366
330
112
100
AcDbEntity
  8
View
100
AcDbLine
 10
188.016
 20
71.914
 30
0
 11
188.061
 21
51.6877
 31
0
  0
ENDSEC
  0
SECTION
  2
OBJECTS
  0
DICTIONARY
  5
500
330
0
100
AcDbDictionary
  3
ACAD_GROUP
350
501
  0
DICTIONARY
  5
501
330
500
100
AcDbDictionary
  0
ENDSEC
  0
EOF