  0
SECTION
  2
HEADER
  9
$ACADVER
  1
AC1014
  9
$HANDSEED
  5
FFFF
  9
$MEASUREMENT
 70
     1
  0
ENDSEC
  0
SECTION
  2
TABLES
  0
TABLE
  2
VPORT
  5
8
330
0
100
AcDbSymbolTable
 70
     4
  0
VPORT
  5
2E
330
8
100
AcDbSymbolTableRecord
100
AcDbViewportTableRecord
  2
*ACTIVE
 70
     0
 10
0.0
 20
0.0
 11
1.0
 21
1.0
 12
210.0
 22
148.5
 13
0.0
 23
0.0
 14
10.0
 24
10.0
 15
10.0
 25
10.0
 16
0.0
 26
0.0
 36
1.0
 17
0.0
 27
0.0
 37
0.0
 40
341.0
 41
1.24
 42
50.0
 43
0.0
 44
0.0
 50
0.0
 51
0.0
 71
     0
 72
   100
 73
     1
 74
     3
 75
     0
 76
     0
 77
     0
 78
     0
  0
ENDTAB
  0
TABLE
  2
LTYPE
  5
5
330
0
100
AcDbSymbolTable
 70
     1
  0
LTYPE
  5
14
330
5
100
AcDbSymbolTableRecord
100
AcDbLinetypeTableRecord
  2
BYBLOCK
 70
     0
  3

 72
    65
 73
     0
 40
0.0
  0
LTYPE
  5
15
330
5
100
AcDbSymbolTableRecord
100
AcDbLinetypeTableRecord
  2
BYLAYER
 70
     0
  3

 72
    65
 73
     0
 40
0.0
  0
LTYPE
  5
16
330
5
100
AcDbSymbolTableRecord
100
AcDbLinetypeTableRecord
  2
CONTINUOUS
 70
     0
  3
Solid line
 72
    65
 73
     0
 40
0.0
  0
ENDTAB
  0
TABLE
  2
LAYER
  5
2
100
AcDbSymbolTable
 70
2
  0
LAYER
  5
50
100
AcDbSymbolTableRecord
100
AcDbLayerTableRecord
  2
0
 70
0
  6
CONTINUOUS
  0
LAYER
  5
51
100
AcDbSymbolTableRecord
100
AcDbLayerTableRecord
  2
View
 70
0
  6
CONTINUOUS
  0
ENDTAB
  0
TABLE
  2
STYLE
  5
3
330
0
100
AcDbSymbolTable
 70
     1
  0
STYLE
  5
11
330
3
100
AcDbSymbolTableRecord
100
AcDbTextStyleTableRecord
  2
STANDARD
 70
     0
 40
0.0
 41
1.0
 50
0.0
 71
     0
 42
2.5
  3
txt
  4

  0
ENDTAB
  0
TABLE
  2
VIEW
  5
6
330
0
100
AcDbSymbolTable
 70
     0
  0
ENDTAB
  0
TABLE
  2
UCS
  5
7
330
0
100
AcDbSymbolTable
 70
     0
  0
ENDTAB
  0
TABLE
  2
APPID
  5
9
330
0
100
AcDbSymbolTable
 70
     2
  0
APPID
  5
12
330
9
100
AcDbSymbolTableRecord
100
AcDbRegAppTableRecord
  2
ACAD
 70
     0
  0
ENDTAB
  0
TABLE
  2
DIMSTYLE
  5
A
330
0
100
AcDbSymbolTable
 70
     1
  0
DIMSTYLE
105
27
330
A
100
AcDbSymbolTableRecord
100
AcDbDimStyleTableRecord
  2
ISO-25
 70
     0
  3

  4

  5

  6

  7

 40
1.0
 41
2.5
 42
0.625
 43
3.75
 44
1.25
 45
0.0
 46
0.0
 47
0.0
 48
0.0
140
2.5
141
2.5
142
0.0
143
0.03937007874016
144
1.0
145
0.0
146
1.0
147
0.625
 71
     0
 72
     0
 73
     0
 74
     0
 75
     0
 76
     0
 77
     1
 78
     8
170
     0
171
     3
172
     1
173
     0
174
     0
175
     0
176
     0
177
     0
178
     0
270
     2
271
     2
272
     2
273
     2
274
     3
340
11
275
     0
280
     0
281
     0
282
     0
283
     0
284
     8
285
     0
286
     0
287
     3
288
     0
  0
ENDTAB
  0
TABLE
  2
BLOCK_RECORD
  5
1
330
0
100
AcDbSymbolTable
 70
     1
  0
BLOCK_RECORD
  5
1F
330
1
100
AcDbSymbolTableRecord
100
AcDbBlockTableRecord
  2
*MODEL_SPACE
  0
BLOCK_RECORD
  5
1B
330
1
100
AcDbSymbolTableRecord
100
AcDbBlockTableRecord
  2
*PAPER_SPACE
  0
ENDTAB
  0
ENDSEC
  0
SECTION
  2
BLOCKS
  0
BLOCK
  5
20
330
1F
100
AcDbEntity
  8
0
100
AcDbBlockBegin
  2
*MODEL_SPACE
 70
     0
 10
0.0
 20
0.0
 30
0.0
  3
*MODEL_SPACE
  1

  0
ENDBLK
  5
21
330
1F
100
AcDbEntity
  8
0
100
AcDbBlockEnd
  0
BLOCK
  5
1C
330
1B
100
AcDbEntity
 67
     1
  8
0
100
AcDbBlockBegin
  2
*PAPER_SPACE
  1

  0
ENDBLK
  5
1D
330
1B
100
AcDbEntity
 67
     1
  8
0
100
AcDbBlockEnd
  0
ENDSEC
  0
SECTION
  2
ENTITIES
  0
SPLINE
  5
100
100
AcDbEntity
  8
View
 62
7
100
AcDbSpline
 70
8
 71
3
 72
8
 73
4
 74
0
 40
0
 40
0
 40
0
 40
0
 40
1
 40
1
 40
1
 40
1
 10
73.921202
 20
89.188997
 30
0.0
 10
59.112606
 20
102.446722
 30
0.0
 10
36.702673
 20
102.446762
 30
0.0
 10
21.894030
 20
89.189089
 30
0.0
  0
SPLINE
  5
101
100
AcDbEntity
  8
View
 62
7
100
AcDbSpline
 70
8
 71
3
 72
8
 73
4
 74
0
 40
0
 40
0
 40
0
 40
0
 40
1
 40
1
 40
1
 40
1
 10
19.645320
 20
88.033850
 30
0.0
 10
20.481339
 20
88.220010
 30
0.0
 10
21.255521
 20
88.617806
 30
0.0
 10
21.893646
 20
89.189102
 30
0.0
  0
SPLINE
  5
102
100
AcDbEntity
  8
View
 62
7
100
AcDbSpline
 70
8
 71
3
 72
8
 73
4
 74
0
 40
0
 40
0
 40
0
 40
0
 40
1
 40
1
 40
1
 40
1
 10
16.977754
 20
88.170793
 30
0.0
 10
17.838072
 20
87.884086
 30
0.0
 10
18.760166
 20
87.836749
 30
0.0
 10
19.645320
 20
88.033850
 30
0.0
  0
SPLINE
  5
103
100
AcDbEntity
  8
View
 62
7
100
AcDbSpline
 70
8
 71
3
 72
8
 73
4
 74
0
 40
0
 40
0
 40
0
 40
0
 40
1
 40
1
 40
1
 40
1
 10
76.169766
 20
88.033860
 30
0.0
 10
77.054931
 20
87.836748
 30
0.0
 10
77.977039
 20
87.884081
 30
0.0
 10
78.837369
 20
88.170790
 30
0.0
  0
SPLINE
  5
104
100
AcDbEntity
  8
View
 62
7
100
AcDbSpline
 70
8
 71
3
 72
8
 73
4
 74
0
 40
0
 40
0
 40
0
 40
0
 40
1
 40
1
 40
1
 40
1
 10
73.921496
 20
89.189089
 30
0.0
 10
74.559608
 20
88.617810
 30
0.0
 10
75.333769
 20
88.220022
 30
0.0
 10
76.169766
 20
88.033860
 30
0.0
  0
SPLINE
  5
105
100
AcDbEntity
  8
View
 62
7
100
AcDbSpline
 70
8
 71
3
 72
8
 73
4
 74
0
 40
0
 40
0
 40
0
 40
0
 40
1
 40
1
 40
1
 40
1
 10
44.532553
 20
95.973763
 30
0.0
 10
34.831652
 20
95.060277
 30
0.0
 10
25.915357
 20
90.253484
 30
0.0
 10
19.820321
 20
82.651349
 30
0.0
  0
LINE
  5
106
100
AcDbEntity
  8
View
 62
7
100
AcDbLine
 10
44.532566
 20
95.973318
 30
0.0
 11
44.907565
 21
91.991318
 31
0.0
  0
LINE
  5
107
100
AcDbEntity
  8
View
 62
7
100
AcDbLine
 10
50.907566
 20
91.991318
 30
0.0
 11
44.907565
 21
91.991318
 31
0.0
  0
LINE
  5
108
100
AcDbEntity
  8
View
 62
7
100
AcDbLine
 10
51.282566
 20
95.973318
 30
0.0
 11
50.907566
 21
91.991318
 31
0.0
  0
SPLINE
  5
109
100
AcDbEntity
  8
View
 62
7
100
AcDbSpline
 70
8
 71
3
 72
8
 73
4
 74
0
 40
0
 40
0
 40
0
 40
0
 40
1
 40
1
 40
1
 40
1
 10
75.994728
 20
82.651447
 30
0.0
 10
69.899694
 20
90.253526
 30
0.0
 10
60.983435
 20
95.060280
 30
0.0
 10
51.282579
 20
95.973763
 30
0.0
  0
SPLINE
  5
10a
100
AcDbEntity
  8
View
 62
7
100
AcDbSpline
 70
8
 71
3
 72
8
 73
4
 74
0
 40
0
 40
0
 40
0
 40
0
 40
1
 40
1
 40
1
 40
1
 10
19.820321
 20
82.651349
 30
0.0
 10
18.567135
 20
81.088290
 30
0.0
 10
17.446612
 20
79.423350
 30
0.0
 10
16.470424
 20
77.673870
 30
0.0
  0
SPLINE
  5
10b
100
AcDbEntity
  8
View
 62
7
100
AcDbSpline
 70
8
 71
3
 72
8
 73
4
 74
0
 40
0
 40
0
 40
0
 40
0
 40
1
 40
1
 40
1
 40
1
 10
16.978011
 20
88.170668
 30
0.0
 10
15.878819
 20
88.536980
 30
0.0
 10
14.719236
 20
88.687605
 30
0.0
 10
13.562936
 20
88.614274
 30
0.0
  0
SPLINE
  5
10c
100
AcDbEntity
  8
View
 62
7
100
AcDbSpline
 70
8
 71
3
 72
8
 73
4
 74
0
 40
0
 40
0
 40
0
 40
0
 40
1
 40
1
 40
1
 40
1
 10
13.562936
 20
88.614274
 30
0.0
 10
9.935716
 20
88.384239
 30
0.0
 10
6.802855
 20
85.995101
 30
0.0
 10
5.621369
 20
82.557990
 30
0.0
  0
SPLINE
  5
10d
100
AcDbEntity
  8
View
 62
7
100
AcDbSpline
 70
8
 71
3
 72
8
 73
4
 74
0
 40
0
 40
0
 40
0
 40
0
 40
1
 40
1
 40
1
 40
1
 10
5.621369
 20
82.557990
 30
0.0
 10
4.439883
 20
79.120880
 30
0.0
 10
5.441689
 20
75.310475
 30
0.0
 10
8.160872
 20
72.898902
 30
0.0
  0
SPLINE
  5
10e
100
AcDbEntity
  8
View
 62
7
100
AcDbSpline
 70
8
 71
3
 72
8
 73
4
 74
0
 40
0
 40
0
 40
0
 40
0
 40
1
 40
1
 40
1
 40
1
 10
79.344769
 20
77.673761
 30
0.0
 10
78.368544
 20
79.423318
 30
0.0
 10
77.247973
 20
81.088328
 30
0.0
 10
75.994728
 20
82.651447
 30
0.0
  0
SPLINE
  5
10f
100
AcDbEntity
  8
View
 62
7
100
AcDbSpline
 70
8
 71
3
 72
8
 73
4
 74
0
 40
0
 40
0
 40
0
 40
0
 40
1
 40
1
 40
1
 40
1
 10
82.252196
 20
88.614274
 30
0.0
 10
81.095890
 20
88.687606
 30
0.0
 10
79.936302
 20
88.536978
 30
0.0
 10
78.837105
 20
88.170663
 30
0.0
  0
SPLINE
  5
110
100
AcDbEntity
  8
View
 62
7
100
AcDbSpline
 70
8
 71
3
 72
8
 73
4
 74
0
 40
0
 40
0
 40
0
 40
0
 40
1
 40
1
 40
1
 40
1
 10
87.654270
 20
72.898913
 30
0.0
 10
90.373447
 20
75.310488
 30
0.0
 10
91.375247
 20
79.120891
 30
0.0
 10
90.193759
 20
82.557997
 30
0.0
  0
SPLINE
  5
111
100
AcDbEntity
  8
View
 62
7
100
AcDbSpline
 70
8
 71
3
 72
8
 73
4
 74
0
 40
0
 40
0
 40
0
 40
0
 40
1
 40
1
 40
1
 40
1
 10
90.193759
 20
82.557997
 30
0.0
 10
89.012271
 20
85.995104
 30
0.0
 10
85.879412
 20
88.384238
 30
0.0
 10
82.252196
 20
88.614274
 30
0.0
  0
SPLINE
  5
112
100
AcDbEntity
  8
View
 62
7
100
AcDbSpline
 70
8
 71
3
 72
8
 73
4
 74
0
 40
0
 40
0
 40
0
 40
0
 40
1
 40
1
 40
1
 40
1
 10
16.470424
 20
77.673870
 30
0.0
 10
10.878808
 20
67.652843
 30
0.0
 10
10.399705
 20
55.566402
 30
0.0
 10
15.180559
 20
45.134213
 30
0.0
  0
SPLINE
  5
113
100
AcDbEntity
  8
View
 62
7
100
AcDbSpline
 70
8
 71
3
 72
8
 73
4
 74
0
 40
0
 40
0
 40
0
 40
0
 40
1
 40
1
 40
1
 40
1
 10
80.634676
 20
45.134440
 30
0.0
 10
85.415403
 20
55.566542
 30
0.0
 10
84.936285
 20
67.652830
 30
0.0
 10
79.344769
 20
77.673761
 30
0.0
  0
SPLINE
  5
114
100
AcDbEntity
  8
View
 62
7
100
AcDbSpline
 70
8
 71
3
 72
8
 73
4
 74
0
 40
0
 40
0
 40
0
 40
0
 40
1
 40
1
 40
1
 40
1
 10
9.737238
 20
68.132658
 30
0.0
 10
10.105386
 20
69.889183
 30
0.0
 10
9.503887
 20
71.708281
 30
0.0
 10
8.161179
 20
72.899098
 30
0.0
  0
SPLINE
  5
115
100
AcDbEntity
  8
View
 62
7
100
AcDbSpline
 70
8
 71
3
 72
8
 73
4
 74
0
 40
0
 40
0
 40
0
 40
0
 40
1
 40
1
 40
1
 40
1
 10
87.653958
 20
72.899103
 30
0.0
 10
86.311250
 20
71.708291
 30
0.0
 10
85.709748
 20
69.889200
 30
0.0
 10
86.077888
 20
68.132677
 30
0.0
  0
SPLINE
  5
116
100
AcDbEntity
  8
View
 62
7
100
AcDbSpline
 70
8
 71
3
 72
8
 73
4
 74
0
 40
0
 40
0
 40
0
 40
0
 40
1
 40
1
 40
1
 40
1
 10
9.736894
 20
68.132315
 30
0.0
 10
6.202364
 20
51.267886
 30
0.0
 10
14.153798
 20
34.082650
 30
0.0
 10
29.295982
 20
25.859748
 30
0.0
  0
SPLINE
  5
117
100
AcDbEntity
  8
View
 62
7
100
AcDbSpline
 70
8
 71
3
 72
8
 73
4
 74
0
 40
0
 40
0
 40
0
 40
0
 40
1
 40
1
 40
1
 40
1
 10
66.518851
 20
25.859587
 30
0.0
 10
81.661260
 20
34.082441
 30
0.0
 10
89.612833
 20
51.267859
 30
0.0
 10
86.078208
 20
68.132447
 30
0.0
  0
SPLINE
  5
118
100
AcDbEntity
  8
View
 62
7
100
AcDbSpline
 70
8
 71
3
 72
8
 73
4
 74
0
 40
0
 40
0
 40
0
 40
0
 40
1
 40
1
 40
1
 40
1
 10
31.909935
 20
21.386252
 30
0.0
 10
31.939484
 20
23.247573
 30
0.0
 10
30.932539
 20
24.971200
 30
0.0
 10
29.296627
 20
25.859558
 30
0.0
  0
SPLINE
  5
119
100
AcDbEntity
  8
View
 62
7
100
AcDbSpline
 70
8
 71
3
 72
8
 73
4
 74
0
 40
0
 40
0
 40
0
 40
0
 40
1
 40
1
 40
1
 40
1
 10
66.518465
 20
25.859536
 30
0.0
 10
64.882587
 20
24.971180
 30
0.0
 10
63.875661
 20
23.247584
 30
0.0
 10
63.905193
 20
21.386295
 30
0.0
  0
SPLINE
  5
11a
100
AcDbEntity
  8
View
 62
7
100
AcDbSpline
 70
8
 71
3
 72
8
 73
4
 74
0
 40
0
 40
0
 40
0
 40
0
 40
1
 40
1
 40
1
 40
1
 10
31.909578
 20
21.386147
 30
0.0
 10
31.817924
 20
15.610100
 30
0.0
 10
34.846936
 20
10.233157
 30
0.0
 10
39.834431
 20
7.318365
 30
0.0
  0
SPLINE
  5
11b
100
AcDbEntity
  8
View
 62
7
100
AcDbSpline
 70
8
 71
3
 72
8
 73
4
 74
0
 40
0
 40
0
 40
0
 40
0
 40
1
 40
1
 40
1
 40
1
 10
39.834431
 20
7.318365
 30
0.0
 10
44.821926
 20
4.403573
 30
0.0
 10
50.993346
 20
4.403600
 30
0.0
 10
55.980816
 20
7.318435
 30
0.0
  0
SPLINE
  5
11c
100
AcDbEntity
  8
View
 62
7
100
AcDbSpline
 70
8
 71
3
 72
8
 73
4
 74
0
 40
0
 40
0
 40
0
 40
0
 40
1
 40
1
 40
1
 40
1
 10
55.980816
 20
7.318435
 30
0.0
 10
60.968287
 20
10.233269
 30
0.0
 10
63.997252
 20
15.610238
 30
0.0
 10
63.905548
 20
21.386284
 30
0.0
  0
LINE
  5
11d
100
AcDbEntity
  8
View
 62
7
100
AcDbLine
 10
8.887566
 20
76.847316
 30
0.0
 11
10.475566
 21
79.597316
 31
0.0
  0
LINE
  5
11e
100
AcDbEntity
  8
View
 62
7
100
AcDbLine
 10
10.475566
 20
79.597316
 30
0.0
 11
13.650566
 21
79.597316
 31
0.0
  0
LINE
  5
11f
100
AcDbEntity
  8
View
 62
7
100
AcDbLine
 10
10.475566
 20
74.097317
 30
0.0
 11
8.887566
 21
76.847316
 31
0.0
  0
LINE
  5
120
100
AcDbEntity
  8
View
 62
7
100
AcDbLine
 10
13.650566
 20
79.597316
 30
0.0
 11
15.238566
 21
76.847316
 31
0.0
  0
LINE
  5
121
100
AcDbEntity
  8
View
 62
7
100
AcDbLine
 10
13.650566
 20
74.097317
 30
0.0
 11
10.475566
 21
74.097317
 31
0.0
  0
LINE
  5
122
100
AcDbEntity
  8
View
 62
7
100
AcDbLine
 10
15.238566
 20
76.847316
 30
0.0
 11
13.650566
 21
74.097317
 31
0.0
  0
LINE
  5
123
100
AcDbEntity
  8
View
 62
7
100
AcDbLine
 10
76.998565
 20
46.801318
 30
0.0
 11
73.998566
 21
41.604316
 31
0.0
  0
LINE
  5
124
100
AcDbEntity
  8
View
 62
7
100
AcDbLine
 10
77.259566
 20
39.288318
 30
0.0
 11
73.998566
 21
41.604316
 31
0.0
  0
SPLINE
  5
125
100
AcDbEntity
  8
View
 62
7
100
AcDbSpline
 70
8
 71
3
 72
8
 73
4
 74
0
 40
0
 40
0
 40
0
 40
0
 40
1
 40
1
 40
1
 40
1
 10
56.907557
 20
25.275466
 30
0.0
 10
65.132420
 20
27.399114
 30
0.0
 10
72.341389
 20
32.362793
 30
0.0
 10
77.259662
 20
39.288747
 30
0.0
  0
LINE
  5
126
100
AcDbEntity
  8
View
 62
7
100
AcDbLine
 10
56.907565
 20
16.132318
 30
0.0
 11
56.907565
 21
25.275416
 31
0.0
  0
LINE
  5
127
100
AcDbEntity
  8
View
 62
7
100
AcDbLine
 10
38.907564
 20
16.132318
 30
0.0
 11
56.907565
 21
16.132318
 31
0.0
  0
LINE
  5
128
100
AcDbEntity
  8
View
 62
7
100
AcDbLine
 10
38.907564
 20
25.275416
 30
0.0
 11
38.907564
 21
16.132318
 31
0.0
  0
SPLINE
  5
129
100
AcDbEntity
  8
View
 62
7
100
AcDbSpline
 70
8
 71
3
 72
8
 73
4
 74
0
 40
0
 40
0
 40
0
 40
0
 40
1
 40
1
 40
1
 40
1
 10
18.555322
 20
39.288953
 30
0.0
 10
23.473533
 20
32.362981
 30
0.0
 10
30.682444
 20
27.399258
 30
0.0
 10
38.907268
 20
25.275543
 30
0.0
  0
LINE
  5
12a
100
AcDbEntity
  8
View
 62
7
100
AcDbLine
 10
18.555565
 20
39.288318
 30
0.0
 11
21.816565
 21
41.604316
 31
0.0
  0
LINE
  5
12b
100
AcDbEntity
  8
View
 62
7
100
AcDbLine
 10
18.816566
 20
46.801318
 30
0.0
 11
21.816565
 21
41.604316
 31
0.0
  0
LINE
  5
12c
100
AcDbEntity
  8
View
 62
7
100
AcDbLine
 10
15.180564
 20
45.134318
 30
0.0
 11
18.816566
 21
46.801318
 31
0.0
  0
LINE
  5
12d
100
AcDbEntity
  8
View
 62
7
100
AcDbLine
 10
80.634565
 20
45.134318
 30
0.0
 11
76.998565
 21
46.801318
 31
0.0
  0
LINE
  5
12e
100
AcDbEntity
  8
View
 62
7
100
AcDbLine
 10
80.576566
 20
76.847316
 30
0.0
 11
82.164566
 21
79.597316
 31
0.0
  0
LINE
  5
12f
100
AcDbEntity
  8
View
 62
7
100
AcDbLine
 10
82.164566
 20
79.597316
 30
0.0
 11
85.339566
 21
79.597316
 31
0.0
  0
LINE
  5
130
100
AcDbEntity
  8
View
 62
7
100
AcDbLine
 10
82.164566
 20
74.097317
 30
0.0
 11
80.576566
 21
76.847316
 31
0.0
  0
LINE
  5
131
100
AcDbEntity
  8
View
 62
7
100
AcDbLine
 10
85.339566
 20
79.597316
 30
0.0
 11
86.927566
 21
76.847316
 31
0.0
  0
LINE
  5
132
100
AcDbEntity
  8
View
 62
7
100
AcDbLine
 10
85.339566
 20
74.097317
 30
0.0
 11
82.164566
 21
74.097317
 31
0.0
  0
LINE
  5
133
100
AcDbEntity
  8
View
 62
7
100
AcDbLine
 10
86.927566
 20
76.847316
 30
0.0
 11
85.339566
 21
74.097317
 31
0.0
  0
LINE
  5
134
100
AcDbEntity
  8
View
 62
7
100
AcDbLine
 10
44.732564
 20
9.582317
 30
0.0
 11
46.319564
 21
12.332317
 31
0.0
  0
LINE
  5
135
100
AcDbEntity
  8
View
 62
7
100
AcDbLine
 10
46.319564
 20
12.332317
 30
0.0
 11
49.495564
 21
12.332317
 31
0.0
  0
LINE
  5
136
100
AcDbEntity
  8
View
 62
7
100
AcDbLine
 10
46.319564
 20
6.832317
 30
0.0
 11
44.732564
 21
9.582317
 31
0.0
  0
LINE
  5
137
100
AcDbEntity
  8
View
 62
7
100
AcDbLine
 10
49.495564
 20
12.332317
 30
0.0
 11
51.082564
 21
9.582317
 31
0.0
  0
LINE
  5
138
100
AcDbEntity
  8
View
 62
7
100
AcDbLine
 10
49.495564
 20
6.832317
 30
0.0
 11
46.319564
 21
6.832317
 31
0.0
  0
LINE
  5
139
100
AcDbEntity
  8
View
 62
7
100
AcDbLine
 10
51.082564
 20
9.582317
 30
0.0
 11
49.495564
 21
6.832317
 31
0.0
  0
SPLINE
  5
13a
100
AcDbEntity
  8
View
 62
1
100
AcDbSpline
 70
8
 71
3
 72
8
 73
4
 74
0
 40
0
 40
0
 40
0
 40
0
 40
1
 40
1
 40
1
 40
1
 10
19.645678
 20
88.034191
 30
0.0
 10
19.498138
 20
88.001335
 30
0.0
 10
19.362925
 20
87.927354
 30
0.0
 10
19.255700
 20
87.820815
 30
0.0
  0
SPLINE
  5
13b
100
AcDbEntity
  8
View
 62
1
100
AcDbSpline
 70
8
 71
3
 72
8
 73
4
 74
0
 40
0
 40
0
 40
0
 40
0
 40
1
 40
1
 40
1
 40
1
 10
19.255134
 20
87.820188
 30
0.0
 10
18.047826
 20
86.620608
 30
0.0
 10
17.913474
 20
84.713151
 30
0.0
 10
18.940711
 20
83.356180
 30
0.0
  0
LINE
  5
13c
100
AcDbEntity
  8
View
 62
1
100
AcDbLine
 10
18.941566
 20
83.356318
 30
0.0
 11
19.820565
 21
82.651317
 31
0.0
  0
SPLINE
  5
13d
100
AcDbEntity
  8
View
 62
1
100
AcDbSpline
 70
8
 71
3
 72
8
 73
4
 74
0
 40
0
 40
0
 40
0
 40
0
 40
1
 40
1
 40
1
 40
1
 10
13.211702
 20
86.081608
 30
0.0
 10
11.834143
 20
85.988347
 30
0.0
 10
10.793014
 20
84.796013
 30
0.0
 10
10.886275
 20
83.418454
 30
0.0
  0
SPLINE
  5
13e
100
AcDbEntity
  8
View
 62
1
100
AcDbSpline
 70
8
 71
3
 72
8
 73
4
 74
0
 40
0
 40
0
 40
0
 40
0
 40
1
 40
1
 40
1
 40
1
 10
10.886275
 20
83.418454
 30
0.0
 10
10.979535
 20
82.040895
 30
0.0
 10
12.171870
 20
80.999766
 30
0.0
 10
13.549429
 20
81.093027
 30
0.0
  0
SPLINE
  5
13f
100
AcDbEntity
  8
View
 62
1
100
AcDbSpline
 70
8
 71
3
 72
8
 73
4
 74
0
 40
0
 40
0
 40
0
 40
0
 40
1
 40
1
 40
1
 40
1
 10
14.954401
 20
80.338946
 30
0.0
 10
14.669728
 20
80.839422
 30
0.0
 10
14.123705
 20
81.132783
 30
0.0
 10
13.549246
 20
81.093892
 30
0.0
  0
LINE
  5
140
100
AcDbEntity
  8
View
 62
1
100
AcDbLine
 10
14.954565
 20
80.338316
 30
0.0
 11
16.470564
 21
77.673317
 31
0.0
  0
SPLINE
  5
141
100
AcDbEntity
  8
View
 62
1
100
AcDbSpline
 70
8
 71
3
 72
8
 73
4
 74
0
 40
0
 40
0
 40
0
 40
0
 40
1
 40
1
 40
1
 40
1
 10
14.275411
 20
88.265714
 30
0.0
 10
14.116391
 20
88.499910
 30
0.0
 10
13.845444
 20
88.632630
 30
0.0
 10
13.562931
 20
88.614713
 30
0.0
  0
SPLINE
  5
142
100
AcDbEntity
  8
View
 62
1
100
AcDbSpline
 70
8
 71
3
 72
8
 73
4
 74
0
 40
0
 40
0
 40
0
 40
0
 40
1
 40
1
 40
1
 40
1
 10
13.212127
 20
86.082516
 30
0.0
 10
13.712480
 20
86.116389
 30
0.0
 10
14.156496
 20
86.415306
 30
0.0
 10
14.376143
 20
86.866145
 30
0.0
  0
SPLINE
  5
143
100
AcDbEntity
  8
View
 62
1
100
AcDbSpline
 70
8
 71
3
 72
8
 73
4
 74
0
 40
0
 40
0
 40
0
 40
0
 40
1
 40
1
 40
1
 40
1
 10
14.376143
 20
86.866145
 30
0.0
 10
14.595789
 20
87.316983
 30
0.0
 10
14.557513
 20
87.850871
 30
0.0
 10
14.275797
 20
88.265765
 30
0.0
  0
LINE
  5
144
100
AcDbEntity
  8
View
 62
1
100
AcDbLine
 10
76.873566
 20
83.356318
 30
0.0
 11
75.994564
 21
82.651317
 31
0.0
  0
SPLINE
  5
145
100
AcDbEntity
  8
View
 62
1
100
AcDbSpline
 70
8
 71
3
 72
8
 73
4
 74
0
 40
0
 40
0
 40
0
 40
0
 40
1
 40
1
 40
1
 40
1
 10
76.874415
 20
83.356175
 30
0.0
 10
77.901651
 20
84.713139
 30
0.0
 10
77.767307
 20
86.620589
 30
0.0
 10
76.560011
 20
87.820172
 30
0.0
  0
SPLINE
  5
146
100
AcDbEntity
  8
View
 62
1
100
AcDbSpline
 70
8
 71
3
 72
8
 73
4
 74
0
 40
0
 40
0
 40
0
 40
0
 40
1
 40
1
 40
1
 40
1
 10
76.559434
 20
87.820812
 30
0.0
 10
76.452207
 20
87.927354
 30
0.0
 10
76.316990
 20
88.001337
 30
0.0
 10
76.169446
 20
88.034191
 30
0.0
  0
SPLINE
  5
147
100
AcDbEntity
  8
View
 62
1
100
AcDbSpline
 70
8
 71
3
 72
8
 73
4
 74
0
 40
0
 40
0
 40
0
 40
0
 40
1
 40
1
 40
1
 40
1
 10
82.252198
 20
88.614713
 30
0.0
 10
81.969686
 20
88.632629
 30
0.0
 10
81.698740
 20
88.499911
 30
0.0
 10
81.539720
 20
88.265717
 30
0.0
  0
SPLINE
  5
148
100
AcDbEntity
  8
View
 62
1
100
AcDbSpline
 70
8
 71
3
 72
8
 73
4
 74
0
 40
0
 40
0
 40
0
 40
0
 40
1
 40
1
 40
1
 40
1
 10
81.539337
 20
88.265770
 30
0.0
 10
81.257619
 20
87.850877
 30
0.0
 10
81.219340
 20
87.316988
 30
0.0
 10
81.438986
 20
86.866148
 30
0.0
  0
SPLINE
  5
149
100
AcDbEntity
  8
View
 62
1
100
AcDbSpline
 70
8
 71
3
 72
8
 73
4
 74
0
 40
0
 40
0
 40
0
 40
0
 40
1
 40
1
 40
1
 40
1
 10
81.438986
 20
86.866148
 30
0.0
 10
81.658632
 20
86.415308
 30
0.0
 10
82.102648
 20
86.116390
 30
0.0
 10
82.603001
 20
86.082516
 30
0.0
  0
SPLINE
  5
14a
100
AcDbEntity
  8
View
 62
1
100
AcDbSpline
 70
8
 71
3
 72
8
 73
4
 74
0
 40
0
 40
0
 40
0
 40
0
 40
1
 40
1
 40
1
 40
1
 10
82.265703
 20
81.093027
 30
0.0
 10
83.643139
 20
80.999967
 30
0.0
 10
84.835259
 20
82.041055
 30
0.0
 10
84.928510
 20
83.418479
 30
0.0
  0
SPLINE
  5
14b
100
AcDbEntity
  8
View
 62
1
100
AcDbSpline
 70
8
 71
3
 72
8
 73
4
 74
0
 40
0
 40
0
 40
0
 40
0
 40
1
 40
1
 40
1
 40
1
 10
84.928510
 20
83.418479
 30
0.0
 10
85.021761
 20
84.795902
 30
0.0
 10
83.980838
 20
85.988167
 30
0.0
 10
82.603427
 20
86.081608
 30
0.0
  0
SPLINE
  5
14c
100
AcDbEntity
  8
View
 62
1
100
AcDbSpline
 70
8
 71
3
 72
8
 73
4
 74
0
 40
0
 40
0
 40
0
 40
0
 40
1
 40
1
 40
1
 40
1
 10
82.265882
 20
81.093892
 30
0.0
 10
81.691430
 20
81.132783
 30
0.0
 10
81.145411
 20
80.839427
 30
0.0
 10
80.860736
 20
80.338959
 30
0.0
  0
LINE
  5
14d
100
AcDbEntity
  8
View
 62
1
100
AcDbLine
 10
80.860564
 20
80.338316
 30
0.0
 11
79.344565
 21
77.673317
 31
0.0
  0
ENDSEC
  0
SECTION
  2
OBJECTS
  0
DICTIONARY
  5
C
330
0
100
AcDbDictionary
  3
ACAD_GROUP
350
D
  3
ACAD_MLINESTYLE
350
17
  0
DICTIONARY
  5
D
330
C
100
AcDbDictionary
  0
DICTIONARY
  5
1A
330
C
100
AcDbDictionary
  0
DICTIONARY
  5
17
330
C
100
AcDbDictionary
  3
STANDARD
350
18
  0
DICTIONARY
  5
19
330
C
100
AcDbDictionary
  0
ENDSEC
  0
EOF
