<?xml version="1.0" encoding="UTF-8" standalone="no"?>
<!-- Created with Inkscape (http://www.inkscape.org/) -->

<svg
   xmlns:dc="http://purl.org/dc/elements/1.1/"
   xmlns:cc="http://creativecommons.org/ns#"
   xmlns:rdf="http://www.w3.org/1999/02/22-rdf-syntax-ns#"
   xmlns:svg="http://www.w3.org/2000/svg"
   xmlns="http://www.w3.org/2000/svg"
   xmlns:xlink="http://www.w3.org/1999/xlink"
   xmlns:sodipodi="http://sodipodi.sourceforge.net/DTD/sodipodi-0.dtd"
   xmlns:inkscape="http://www.inkscape.org/namespaces/inkscape"
   width="200mm"
   height="200mm"
   viewBox="0 0 200 200"
   version="1.1"
   id="svg8"
   inkscape:version="0.92.3 (2405546, 2018-03-11)"
   sodipodi:docname="ideas2.svg">
  <defs
     id="defs2">
    <inkscape:path-effect
       effect="skeletal"
       id="path-effect963"
       is_visible="true"
       pattern="m 222,123 -2,4 m 5,-10 -2,4 m -3,-4 5,10 m -3,6 -2,4 m 5,-10 -2,4 m -3,-4 5,10"
       copytype="repeated_stretched"
       prop_scale="2"
       scale_y_rel="true"
       spacing="0"
       normal_offset="0"
       tang_offset="0"
       prop_units="false"
       vertical_pattern="true"
       fuse_tolerance="0.2" />
    <inkscape:path-effect
       effect="skeletal"
       id="path-effect963-6"
       is_visible="true"
       pattern="#path927-5"
       copytype="repeated_stretched"
       prop_scale="1.7"
       scale_y_rel="true"
       spacing="0"
       normal_offset="0"
       tang_offset="0"
       prop_units="false"
       vertical_pattern="true"
       fuse_tolerance="0.5" />
  </defs>
  <sodipodi:namedview
     id="base"
     pagecolor="#ffffff"
     bordercolor="#666666"
     borderopacity="1.0"
     inkscape:pageopacity="0.0"
     inkscape:pageshadow="2"
     inkscape:zoom="2.371244"
     inkscape:cx="406.08418"
     inkscape:cy="392.82657"
     inkscape:document-units="mm"
     inkscape:current-layer="layer2"
     showgrid="true"
     inkscape:window-width="1920"
     inkscape:window-height="1015"
     inkscape:window-x="0"
     inkscape:window-y="0"
     inkscape:window-maximized="1"
     inkscape:snap-bbox="true"
     inkscape:bbox-paths="true"
     inkscape:bbox-nodes="true"
     inkscape:snap-bbox-edge-midpoints="true"
     inkscape:snap-bbox-midpoints="true"
     inkscape:object-paths="true"
     inkscape:snap-intersection-paths="true"
     inkscape:snap-smooth-nodes="true"
     inkscape:snap-midpoints="true"
     inkscape:snap-object-midpoints="true"
     inkscape:snap-center="true"
     inkscape:snap-text-baseline="true"
     inkscape:snap-page="true"
     showguides="true"
     inkscape:guide-bbox="true"
     inkscape:snap-nodes="false"
     inkscape:snap-others="false">
    <inkscape:grid
       type="xygrid"
       id="grid967"
       units="mm"
       spacingx="1"
       spacingy="1"
       empspacing="10" />
  </sodipodi:namedview>
  <metadata
     id="metadata5">
    <rdf:RDF>
      <cc:Work
         rdf:about="">
        <dc:format>image/svg+xml</dc:format>
        <dc:type
           rdf:resource="http://purl.org/dc/dcmitype/StillImage" />
        <dc:title></dc:title>
      </cc:Work>
    </rdf:RDF>
  </metadata>
  <g
     inkscape:label="base"
     inkscape:groupmode="layer"
     id="layer1"
     style="display:inline;opacity:0.95999995"
     transform="translate(0,-97)">
    <circle
       style="opacity:1;fill:none;fill-opacity:1;stroke:#000000;stroke-width:0.41006529;stroke-linecap:round;stroke-linejoin:bevel;stroke-miterlimit:4;stroke-dasharray:none;stroke-dashoffset:0;stroke-opacity:1;paint-order:markers stroke fill"
       id="path817"
       cx="100"
       cy="197"
       r="35" />
    <circle
       style="opacity:1;fill:#fafafa;fill-opacity:1;stroke:#000000;stroke-width:0.39017949;stroke-linecap:round;stroke-linejoin:bevel;stroke-miterlimit:4;stroke-dasharray:none;stroke-dashoffset:0;stroke-opacity:1;paint-order:markers stroke fill"
       id="path817-6"
       cx="100"
       cy="197"
       r="23" />
  </g>
  <g
     inkscape:groupmode="layer"
     id="layer4"
     inkscape:label="base_taps"
     style="display:none">
    <g
       id="g1160">
      <path
         sodipodi:nodetypes="cccc"
         inkscape:connector-curvature="0"
         id="path1155"
         d="m 72,80.000002 h 56 L 100,150 Z"
         style="fill:none;stroke:#000000;stroke-width:0.26458332px;stroke-linecap:butt;stroke-linejoin:miter;stroke-opacity:1" />
      <path
         style="fill:none;stroke:#01f0ff;stroke-width:0.2;stroke-linecap:round;stroke-linejoin:round;stroke-miterlimit:4;stroke-dasharray:none;stroke-opacity:0.19607843"
         d="M 100,98.000001 V 102"
         id="path1162"
         inkscape:connector-curvature="0" />
      <path
         style="fill:none;stroke:#01f0ff;stroke-width:0.2;stroke-linecap:round;stroke-linejoin:round;stroke-miterlimit:4;stroke-dasharray:none;stroke-opacity:0.19607843"
         d="M 97.999999,100 H 102"
         id="path1164"
         inkscape:connector-curvature="0" />
    </g>
    <use
       x="0"
       y="0"
       xlink:href="#g1160"
       id="use1166"
       transform="rotate(-120,100,100)"
       width="100%"
       height="100%" />
    <use
       x="0"
       y="0"
       xlink:href="#g1160"
       id="use1166-9"
       transform="matrix(0.5,-0.8660254,-0.8660254,-0.5,136.60254,236.60254)"
       width="100%"
       height="100%" />
  </g>
  <g
     inkscape:groupmode="layer"
     id="layer2"
     inkscape:label="Pattern"
     style="display:inline"
     transform="translate(0,-97)">
    <path
       inkscape:connector-curvature="0"
       d="m 212,223 -2,4.00001 M 215,217 l -2.00001,4.00001 M 210,217 l 5,10.00001 M 212,233 l -2,4 m 5,-9.99999 L 212.99999,231 M 210,227.00001 215,237"
       style="display:inline;fill:none;stroke:#000000;stroke-width:0.2999998;stroke-linecap:round;stroke-linejoin:round;stroke-miterlimit:4;stroke-dasharray:none;stroke-opacity:1"
       id="path927-5" />
    <path
       style="display:inline;fill:none;stroke:#000000;stroke-width:0.1;stroke-linecap:round;stroke-linejoin:round;stroke-miterlimit:4;stroke-dasharray:none;stroke-opacity:1"
       d="m 93.092237,226.04023 c -1.692813,0.66616 -3.524685,1.17323 -5.414321,1.51161 -0.201212,0.0372 -0.40334,0.0727 -0.606348,0.10656 -2.391397,-4.79337 -3.390639,-9.6816 -3.475882,-14.25408 0,0 0,-1e-5 0,-1e-5 -1.828999,-0.0341 -3.708521,-0.21443 -5.612284,-0.57161 m 34.944918,14.82576 c -0.20295,-0.0338 -0.40502,-0.0693 -0.60618,-0.10653 -5.02587,-0.89999 -9.64312,-2.99334 -12.322207,-6.0991 -1.114502,1.29201 -2.564422,2.40881 -4.239643,3.33738 m 8.8935,1.86223 c -1.2459,1.57825 -2.77323,3.05558 -4.653911,4.34757 -4.5207,-3.10571 -6.9997,-7.2823 -8.435773,-11.35736 -0.05742,-0.16428 -0.113018,-0.32863 -0.166831,-0.49303 -1.71286,0.56027 -3.5503,0.94879 -5.47201,1.16709 m -2.940717,0.19995 c -1.9959,0.0485 -4.055915,-0.0725 -6.139737,-0.36147 -1e-6,0 -3e-6,0 -5e-6,0 -0.722327,-5.20957 -0.395092,-10.27034 1.005569,-14.55249 -0.164383,-0.0538 -0.328722,-0.1094 -0.492992,-0.16682 -1.532179,-0.53995 -3.078712,-1.22735 -4.577284,-2.11526 m 2.332796,8.83984 c -1.921428,-0.54167 -3.853956,-1.2755 -5.771304,-2.23206 0.03383,-0.203 0.06935,-0.40511 0.106548,-0.6063 0,0 0,0 0,-1e-5 0.89999,-5.0258 2.993309,-9.643 6.099025,-12.32209 0,0 0,0 0,0 6e-6,-1e-5 1.2e-5,-1e-5 1.8e-5,-2e-5 -1.29201,-1.11453 -2.408812,-2.56447 -3.337377,-4.23972 m -1.862211,8.8936 c -1.578248,-1.24588 -3.055577,-2.7732 -4.347576,-4.65386 -6e-6,-1e-5 -1.2e-5,-2e-5 -1.8e-5,-3e-5 3.105712,-4.52073 7.282295,-6.99977 11.357346,-8.43589 0.164289,-0.0574 0.328647,-0.11302 0.49305,-0.16684 -0.56027,-1.71286 -0.948792,-3.55029 -1.167093,-5.47201 m -5.723518,7.16698 c -0.666152,-1.69281 -1.173227,-3.52467 -1.511608,-5.4143 -0.03721,-0.20122 -0.07273,-0.40336 -0.106559,-0.60637 4.793355,-2.39139 9.681585,-3.39064 14.254053,-3.47588 1.1e-5,0 2.2e-5,0 3.3e-5,0 0.0341,-1.829 0.214436,-3.70852 0.571619,-5.61229 m -7.683971,5.00115 c -0.04845,-1.99589 0.07255,-4.0559 0.361474,-6.13971 2e-6,-1e-5 3e-6,-2e-5 5e-6,-4e-5 5.209564,-0.72232 10.270337,-0.39508 14.552485,1.00558 0.05381,-0.16437 0.109399,-0.3287 0.166808,-0.49296 0.53996,-1.53219 1.227358,-3.07873 2.115281,-4.57731 m -8.839847,2.33279 c 0.541679,-1.92143 1.275503,-3.85396 2.232072,-5.7713 0.20298,0.0338 0.405081,0.0693 0.606267,0.10654 5.025816,0.89999 9.643017,2.99331 12.322113,6.09903 0,0 0,0 0,0 1e-5,10e-6 2e-5,2e-5 3e-5,3e-5 1.11453,-1.29201 2.56448,-2.40881 4.23972,-3.33737 m -8.893598,-1.86222 c 1.245882,-1.57824 2.773197,-3.05557 4.653848,-4.34756 2e-5,-1e-5 3e-5,-2e-5 5e-5,-3e-5 4.52071,3.10571 6.99975,7.28228 8.43586,11.35732 0.0574,0.1643 0.11303,0.32867 0.16685,0.49308 1.71286,-0.56026 3.5503,-0.94878 5.47201,-1.16708 m -7.16696,-5.72353 c 1.69279,-0.66614 3.52464,-1.17322 5.41426,-1.51159 0.20123,-0.0372 0.40338,-0.0727 0.60641,-0.10657 2.39138,4.79334 3.39062,9.68156 3.47586,14.25402 0,2e-5 0,5e-5 0,7e-5 1.829,0.0341 3.70852,0.21444 5.61229,0.57163 m -5.00114,-7.68398 c 1.99588,-0.0485 4.05587,0.0726 6.13966,0.36147 3e-5,1e-5 6e-5,1e-5 8e-5,1e-5 0.72232,5.20957 0.39508,10.27034 -1.00559,14.55249 0.16436,0.0538 0.32868,0.10939 0.49292,0.16679 1.5322,0.53997 3.07876,1.22737 4.57735,2.1153 m -2.33278,-8.83985 c 1.92143,0.54168 3.85396,1.27551 5.7713,2.23208 -0.0338,0.20297 -0.0693,0.40505 -0.10653,0.60622 -0.89999,5.02582 -2.99332,9.64303 -6.09903,12.32213 0,0 0,0 0,0 -2e-5,2e-5 -4e-5,3e-5 -6e-5,5e-5 1.29201,1.11453 2.4088,2.56448 3.33736,4.23973 m 1.86224,-8.8936 c 1.57823,1.24588 3.05554,2.77318 4.34752,4.65382 2e-5,3e-5 4e-5,6e-5 6e-5,8e-5 -3.1057,4.5207 -7.28227,6.99973 -11.3573,8.43585 -0.16431,0.0574 -0.32869,0.11304 -0.49312,0.16686 0.56027,1.71286 0.94879,3.5503 1.16709,5.47201 m 5.72353,-7.16696 c 0.66614,1.69278 1.1732,3.52462 1.51158,5.41421 0.0372,0.20125 0.0727,0.40342 0.10657,0.60646 -4.79333,2.39137 -9.68153,3.39061 -14.25398,3.47586 -4e-5,0 -7e-5,0 -1.1e-4,0 -0.0341,1.829 -0.21444,3.70852 -0.57162,5.61228 m 7.68397,-5.00113 c 0.0485,1.99586 -0.0725,4.05584 -0.36146,6.13962 -1e-5,4e-5 -1e-5,8e-5 -2e-5,1.2e-4 -5.20957,0.72232 -10.27034,0.39508 -14.55248,-1.00559 -0.0538,0.16435 -0.10939,0.32865 -0.16679,0.49289 -0.53996,1.53221 -1.22737,3.07878 -2.11531,4.57738 m 8.83985,-2.33278 c -0.54168,1.92143 -1.27551,3.85395 -2.23208,5.7713"
       id="path950"
       inkscape:connector-curvature="0"
       sodipodi:nodetypes="aaaaa"
       inkscape:path-effect="#path-effect963-6"
       inkscape:original-d="m 100.00001,226.22642 c -13.777472,0 -29.226419,-15.44897 -29.226419,-29.22642 0,-13.77748 15.448947,-29.22642 29.226419,-29.22642 13.77746,0 29.2264,15.44894 29.2264,29.22642 0,13.77745 -15.44894,29.22642 -29.2264,29.22642 z" />
  </g>
  <g
     inkscape:groupmode="layer"
     id="layer3"
     inkscape:label="Pattern_ideas"
     style="display:none"
     transform="translate(0,-97)">
    <path
       style="display:inline;fill:none;stroke:#000000;stroke-width:0.5;stroke-linecap:butt;stroke-linejoin:miter;stroke-miterlimit:4;stroke-dasharray:none;stroke-opacity:1"
       d="m 40.595604,91.337162 c -0.205531,-0.430516 -0.411501,-1.09434 -0.992672,-1.191204 -0.261109,-0.04352 -0.529423,0 -0.794136,0 -0.198533,0 -0.399063,-0.02807 -0.595601,0 -0.270118,0.03859 -0.527775,0.139343 -0.794136,0.198534 -1.385513,0.307892 -0.60084,0.0026 -1.786809,0.595602 -0.264713,0.132357 -0.529423,0.264713 -0.794136,0.397068 -0.264713,0.132358 -0.543166,0.240213 -0.794136,0.397067 -0.280594,0.175374 -0.529424,0.397069 -0.794136,0.595604 -0.264713,0.198533 -0.560162,0.361627 -0.794137,0.595601 -0.515451,0.515453 -0.67814,0.959212 -0.99267,1.588272 -0.293304,0.586611 -0.604018,1.153078 -0.794137,1.786808 -0.07671,0.255686 -0.382567,2.009871 -0.397068,2.183876 -0.03297,0.395695 0,0.794137 0,1.191205 0,1.326615 -0.102901,2.664465 0.198534,3.970685 0.201611,0.87364 0.566104,1.60037 0.992671,2.38241 0.18478,0.33876 0.341498,0.70226 0.595602,0.99266 0.217893,0.24903 0.518819,0.41206 0.794137,0.59561 0.321072,0.21405 0.640048,0.43888 0.99267,0.5956 0.831711,0.36965 1.743986,0.23913 2.580943,0 0.20122,-0.0575 0.408424,-0.10495 0.595603,-0.19853 0.416375,-0.20819 1.261896,-0.87837 1.389738,-1.38974 0.126767,-0.50707 0.0039,-0.29188 -0.198533,-0.5956 -0.262766,-0.39415 -0.118539,-0.5079 -0.595603,-0.79414 -0.179451,-0.10767 -0.397069,-0.13236 -0.595602,-0.19854 -0.198535,-0.0662 -0.389178,-0.16413 -0.595603,-0.19853 -0.195832,-0.0326 -0.399064,0.0281 -0.595601,0 -0.759979,-0.10857 -0.686274,-0.29903 -1.38974,-0.19853 -0.270116,0.0386 -0.52402,0.15994 -0.794136,0.19853 -0.196539,0.0281 -0.411268,-0.0737 -0.595602,0 -0.173792,0.0695 -0.250906,0.28014 -0.397069,0.39707 -0.186322,0.14906 -0.390997,0.2743 -0.595602,0.39707 -0.12689,0.0761 -0.308281,0.0802 -0.397068,0.19853 -0.01799,0.024 -0.367955,1.13298 -0.397068,1.1912 -0.106709,0.21342 -0.29036,0.38219 -0.397068,0.59561 -0.109885,0.21977 -0.375865,1.22011 -0.397069,1.38974 -0.03283,0.26266 0.02923,0.53104 0,0.79413 -0.03726,0.33538 -0.164957,0.6569 -0.198534,0.99267 -0.03292,0.32925 0,0.66178 0,0.99267 0,0.39707 0,0.79414 0,1.19121 0,0.46325 0.033,0.92767 0,1.38974 -0.03334,0.46676 -0.162644,0.92316 -0.198534,1.38973 -0.03045,0.3959 0,0.79414 0,1.19121 0,0.46325 -0.03553,0.92786 0,1.38974 0.03175,0.41276 0.305902,1.72804 0.397068,2.18387 0.06618,0.33089 0.06149,0.68431 0.198534,0.99267 0.154651,0.34797 0.878733,1.12935 1.191205,1.38974 0.753691,0.62808 2.019801,0.91391 2.978011,0.79414 0.551688,-0.069 0.876943,-0.25056 1.38974,-0.39707 0.262361,-0.075 0.543338,-0.0911 0.794136,-0.19853 0.438286,-0.18784 0.672466,-0.47394 0.99267,-0.79414 0.132357,-0.13236 0.28476,-0.24732 0.397068,-0.39707 0.144388,-0.19252 0.360669,-0.81067 0.397068,-0.99267 0.123179,-0.6159 -0.329179,-1.41484 -0.794136,-1.78681 -0.186323,-0.14905 -0.397068,-0.26471 -0.595601,-0.39706 -0.198536,-0.13236 -0.36924,-0.32162 -0.595604,-0.39707 -0.188347,-0.0628 -0.39977,0.0326 -0.595601,0 -0.206428,-0.0344 -0.389178,-0.16413 -0.595604,-0.19854 -0.49182,-0.082 -0.920639,0.0645 -1.389737,0.19854 -0.201222,0.0575 -0.408423,0.10494 -0.595603,0.19853 -0.500897,0.25045 -0.623349,0.42482 -0.992671,0.79414 -0.132356,0.13235 -0.264712,0.26471 -0.397068,0.39707 -0.132356,0.13235 -0.300765,0.23656 -0.397068,0.39707 -0.10767,0.17944 -0.120812,0.40129 -0.198534,0.5956 -0.05496,0.13739 -0.169513,0.25196 -0.198534,0.39707 -0.03894,0.19467 0,0.39706 0,0.5956 0,0.19853 0,0.39707 0,0.5956 0,0.19853 -0.02808,0.39906 0,0.5956 0.123786,0.86651 0.208505,0.63549 0.397068,1.38974 0.08184,0.32737 0.101571,0.66946 0.198534,0.99267 0.102405,0.34135 0.275278,0.65775 0.397068,0.99267 0.143036,0.39335 0.264712,0.79414 0.397069,1.19121 0.264711,0.79413 0.547958,1.58233 0.794136,2.3824 0.141686,0.46048 0.244715,0.93268 0.397068,1.38974 0.377756,1.13327 0.977503,2.1586 1.588272,3.17655 0.198536,0.33089 0.341498,0.70226 0.595604,0.99267 0.22493,0.25706 1.534208,1.09016 1.786806,1.1912 0.313309,0.12533 0.661781,0.13236 0.992671,0.19854 C 39.338222,136.86765 39.662559,137 40,137 c 0.337445,0 0.663263,-0.12533 0.992672,-0.19853 0.528339,-0.11741 1.339517,-0.31605 1.786805,-0.59561 0.60524,-0.37827 0.575056,-0.69006 0.992672,-1.1912 0.179745,-0.21569 0.456301,-0.35182 0.595601,-0.5956 0.135377,-0.23691 0.09105,-0.54334 0.198535,-0.79414 0.09399,-0.21931 0.331518,-0.36617 0.397069,-0.5956 0.07272,-0.25453 0,-0.52942 0,-0.79414 0,-0.19853 0.03264,-0.39977 0,-0.5956 -0.10309,-0.61854 -0.188865,-0.58593 -0.595604,-0.99267 -0.295592,-0.29559 -0.766842,-0.9078 -1.191204,-0.99267 -0.194678,-0.0389 -0.397069,0 -0.595601,0 -0.198536,0 -0.39977,-0.0326 -0.595604,0 -0.206425,0.0344 -0.397068,0.13236 -0.595601,0.19853 -0.198535,0.0662 -0.408424,0.10495 -0.595603,0.19854 -0.213418,0.10671 -0.397068,0.26471 -0.595601,0.39707 -0.198536,0.13235 -0.446545,0.21074 -0.595604,0.39707 -0.13073,0.16341 -0.09086,0.41615 -0.198532,0.5956 -0.0963,0.1605 -0.327552,0.22327 -0.397069,0.39707 -0.07373,0.18433 0.02807,0.39906 0,0.5956 -0.03859,0.27011 -0.16469,0.52338 -0.198535,0.79413 -0.117441,0.93952 0.09779,0.7794 0.198535,1.78681 0.03292,0.32925 -0.07178,0.66966 0,0.99267 0.0642,0.28891 0.276868,0.52369 0.397069,0.79414 0.401574,0.90354 0.666003,1.85721 1.389737,2.58094 0.233976,0.23398 0.560162,0.36163 0.794136,0.59561 0.299635,0.29963 0.512614,0.67595 0.794136,0.99267 0.248711,0.2798 0.545426,0.51433 0.794137,0.79413 0.817451,0.91964 1.45507,1.95518 2.382408,2.77948 0.316712,0.28152 0.629312,0.57612 0.992672,0.79414 0.305594,0.18335 0.654579,0.28437 0.992669,0.39707 1.379763,0.45992 1.359514,0.39275 2.779477,0.5956 0.463249,0.0662 0.92179,0.19853 1.38974,0.19853 0.837621,0 2.478447,-0.49403 3.176545,-0.99267 0.626015,-0.44715 0.658575,-0.72154 0.992672,-1.38974 0.160157,-0.32031 0.537176,-0.98076 0.595601,-1.38974 0.03744,-0.26205 0,-0.52942 0,-0.79413 0,-0.33089 0,-0.66178 0,-0.99267 0,-0.26471 0,-0.52943 0,-0.79414 0,-0.26471 0.03744,-0.53209 0,-0.79414 -0.0296,-0.20717 -0.132355,-0.39707 -0.198533,-0.5956 -0.06618,-0.19854 -0.09087,-0.41615 -0.198535,-0.5956 -0.37728,-0.6288 -0.407062,-0.24424 -0.992669,-0.59561 -0.160507,-0.0963 -0.236564,-0.30076 -0.397069,-0.39706 -0.179451,-0.10767 -0.397068,-0.13236 -0.595603,-0.19854 -0.198533,-0.0662 -0.386329,-0.19853 -0.595601,-0.19853 -0.147979,0 -0.259675,0.14357 -0.397068,0.19853 -0.194307,0.0777 -0.416153,0.0909 -0.595604,0.19854 -0.425132,0.25508 -0.373896,0.42462 -0.595601,0.79413 -0.04325,0.0721 -0.560694,0.78322 -0.595603,0.99267 -0.04352,0.26111 0.03744,0.53209 0,0.79414 -0.0296,0.20717 -0.168939,0.38844 -0.198536,0.5956 -0.12112,0.84785 0.01704,0.82821 0.397071,1.58828 0.132355,0.26471 0.264711,0.52942 0.397068,0.79413 0.314529,0.62906 0.477219,1.07283 0.992669,1.58828 0.233974,0.23397 0.529424,0.39706 0.794137,0.5956 0.264713,0.19853 0.529423,0.39707 0.794136,0.5956 0.264713,0.19854 0.513543,0.42023 0.794136,0.5956 0.842055,0.52629 0.845479,0.32348 1.786808,0.79414 2.706971,1.35348 -0.631796,0.009 1.985341,0.79414 0.34135,0.1024 0.64321,0.32717 0.992669,0.39706 0.324464,0.0649 0.661781,0 0.992672,0 0.33089,0 0.663802,0.0365 0.992669,0 0.27119,-0.0301 0.529426,-0.13235 0.794136,-0.19853 0.63949,-0.15987 1.029248,-0.1963 1.588273,-0.5956 0.228473,-0.1632 0.397068,-0.39707 0.595603,-0.59561 0.132355,-0.13235 0.280138,-0.2509 0.397068,-0.39706 0.337865,-0.42233 0.703014,-1.04155 0.794137,-1.58828 0.03264,-0.19583 0,-0.39706 0,-0.5956 0,-0.19853 0.03264,-0.39977 0,-0.5956 -0.09133,-0.54798 -0.290714,-0.73387 -0.595604,-1.1912 -0.132355,-0.19854 -0.274304,-0.391 -0.397068,-0.59561 -0.233569,-0.38928 -0.09732,-0.47103 -0.595601,-0.5956 -0.128405,-0.0321 -0.264713,0 -0.397068,0 -0.132358,0 -0.264713,0 -0.397068,0 -0.132358,0 -0.264713,0 -0.397068,0 -0.06618,0 -0.139343,-0.0296 -0.198536,0 -0.08371,0.0419 -0.132355,0.13236 -0.198532,0.19854 -0.06618,0.0662 -0.175837,0.10773 -0.198536,0.19853 -0.04815,0.19261 0,0.39707 0,0.5956 0,0.19854 0,0.39707 0,0.5956 0,0.26472 0,0.52943 0,0.79414 0,0.33089 -0.06489,0.6682 0,0.99267 0.06989,0.34946 0.264713,0.66178 0.397068,0.99267 0.06029,0.15071 0.608656,1.60132 0.794137,1.78681 0.209274,0.20927 0.537175,0.25023 0.794136,0.39707 0.207171,0.11838 0.382185,0.29036 0.595603,0.39706 0.284819,0.14241 1.135296,0.33346 1.389738,0.39707"
       id="path853"
       inkscape:connector-curvature="0" />
    <g
       transform="translate(0,-1.5663438e-6)"
       style="display:inline"
       id="g1042">
      <path
         inkscape:connector-curvature="0"
         id="path855"
         d="m 33.353726,155.04813 c -0.833781,0.0964 -0.927981,-0.0669 -1.588272,-0.39707 -0.132358,-0.0662 -0.292433,-0.0939 -0.397068,-0.19854 -0.104638,-0.10463 -0.08015,-0.30827 -0.198536,-0.39706 -0.167417,-0.12557 -0.416152,-0.0909 -0.595601,-0.19854 -0.160506,-0.0963 -0.264712,-0.26471 -0.397068,-0.39706 -0.198535,-0.0662 -0.408424,-0.10495 -0.595603,-0.19854 -2.384076,-1.19204 0.85394,0.31383 -0.992669,-0.79414 -0.179451,-0.10767 -0.416153,-0.0909 -0.595604,-0.19853 -0.160504,-0.0963 -0.250904,-0.28014 -0.397068,-0.39707 -0.488405,-0.39072 -0.633148,-0.31477 -0.992669,-0.79413 -0.08879,-0.11839 -0.0939,-0.29244 -0.198535,-0.39707 -0.168722,-0.16872 -0.409281,-0.24801 -0.595602,-0.39707 -0.146163,-0.11693 -0.264712,-0.26471 -0.397068,-0.39707 -0.198534,-0.19853 -0.415858,-0.37991 -0.595603,-0.5956 -0.152753,-0.1833 -0.264712,-0.39707 -0.397068,-0.5956 -0.198534,-0.26472 -0.380262,-0.54291 -0.595602,-0.79414 -1.951473,-2.27672 0.646895,0.84543 -1.191205,-0.99267 -0.168721,-0.16872 -0.244315,-0.4123 -0.397068,-0.5956 -1.74006,-1.74006 0.389358,0.46723 -0.99267,-1.19121 -0.179745,-0.21569 -0.415858,-0.37991 -0.595602,-0.5956 -0.152754,-0.1833 -0.25838,-0.40144 -0.397068,-0.5956 -0.192327,-0.26926 -0.420231,-0.51354 -0.595603,-0.79414 -0.526284,-0.84205 -0.323472,-0.84547 -0.794136,-1.7868 -0.172571,-0.34515 -0.423031,-0.64753 -0.595602,-0.99268 -0.328855,-0.6577 -0.547045,-1.50437 -0.794137,-2.18387 -0.853215,-2.34634 0.125144,0.49888 -0.99267,-2.18388 -0.16098,-0.38635 -0.221673,-0.81118 -0.397068,-1.1912 -0.223586,-0.48444 -0.555528,-0.91252 -0.794137,-1.38974 -0.502323,-1.00464 -0.773164,-1.93291 -1.191204,-2.97801 -0.18718,-0.46795 -0.42609,-0.9151 -0.595602,-1.38974 -0.437599,-1.22527 -0.376399,-1.37532 -0.595603,-2.58094 -0.120727,-0.664 -0.322539,-1.31458 -0.397068,-1.98534 -0.02923,-0.2631 0,-0.52942 0,-0.79414"
         style="fill:none;stroke:#000000;stroke-width:0.5;stroke-linecap:butt;stroke-linejoin:miter;stroke-miterlimit:4;stroke-dasharray:none;stroke-opacity:1" />
      <path
         inkscape:connector-curvature="0"
         id="path857"
         d="m 19.654874,141.54781 c -0.529424,0 -1.058848,0 -1.588273,0 -0.132355,0 -0.267282,0.0259 -0.397068,0 -0.205209,-0.041 -0.390393,-0.15749 -0.595602,-0.19853 -0.129786,-0.026 -0.267282,0.0259 -0.397068,0 -0.20521,-0.041 -0.390393,-0.1575 -0.595602,-0.19854 -0.757177,-0.15143 -0.03301,0.2813 -0.992671,-0.19853 -0.08371,-0.0419 -0.132356,-0.13236 -0.198534,-0.19854 -0.132356,-0.0662 -0.259673,-0.14357 -0.397068,-0.19853 -0.194305,-0.0777 -0.428183,-0.073 -0.595602,-0.19854 -0.118383,-0.0888 -0.0939,-0.29243 -0.198534,-0.39706 -0.104637,-0.10464 -0.273943,-0.11645 -0.397068,-0.19854 -0.07787,-0.0519 -0.132356,-0.13235 -0.198535,-0.19853 -0.459589,-0.45959 -0.397068,-0.60652 -0.397068,-1.19121 0,-0.13235 -0.04185,-0.2715 0,-0.39706 0.0296,-0.0888 0.15668,-0.11483 0.198534,-0.19854 0.0296,-0.0592 -0.04679,-0.15174 0,-0.19853 0.104637,-0.10464 0.273943,-0.11645 0.397069,-0.19854 0.363264,-0.24217 0.01981,-0.25311 0.595602,-0.39706 0.128404,-0.0321 0.271504,0.0419 0.397068,0 0.08879,-0.0296 0.109747,-0.16894 0.198534,-0.19854 0.125564,-0.0419 0.264712,0 0.397068,0 0.06618,0 0.135752,-0.0209 0.198534,0 0.140385,0.0468 0.253508,0.16265 0.397069,0.19854 0.128404,0.0321 0.278685,-0.0592 0.397068,0 0.167418,0.0837 0.264712,0.26471 0.397068,0.39706 0.198534,0.19854 0.42714,0.37099 0.595602,0.59561 0.177574,0.23676 0.232901,0.54788 0.397068,0.79413 0.606342,0.90951 -0.322675,-0.84388 0.397068,0.59561"
         style="fill:none;stroke:#000000;stroke-width:0.5;stroke-linecap:butt;stroke-linejoin:miter;stroke-miterlimit:4;stroke-dasharray:none;stroke-opacity:1" />
      <path
         inkscape:connector-curvature="0"
         id="path859"
         d="m 14.890056,134.00351 c -0.230635,-0.92253 -0.198534,-0.52127 -0.198534,-1.1912 0,-0.13236 -0.0321,-0.26866 0,-0.39707 0.03589,-0.14356 0.169513,-0.25196 0.198534,-0.39707 0.03894,-0.19467 -0.03894,-0.40092 0,-0.5956 0.02902,-0.1451 0.162644,-0.25351 0.198534,-0.39707 0.0321,-0.1284 -0.0321,-0.26866 0,-0.39706 0.03589,-0.14356 0.132356,-0.26472 0.198534,-0.39707 0.06618,-0.13236 0.116451,-0.27395 0.198535,-0.39707 0.05191,-0.0779 0.146619,-0.12066 0.198534,-0.19854 0.120905,-0.18135 0.169465,-0.4818 0.397068,-0.5956 0.05919,-0.0296 0.139342,0.0296 0.198534,0 0.08371,-0.0418 0.114824,-0.15668 0.198534,-0.19853 0.05919,-0.0296 0.132356,0 0.198534,0 0.06618,0 0.151739,-0.0468 0.198534,0 0,0.29212 -0.04679,0.15174 0.198534,0.39707 0.06618,0.0662 0.132356,0.13235 0.198534,0.19853 0.06618,0.0662 0.168938,0.10975 0.198534,0.19853 0.04186,0.12557 -0.0321,0.26867 0,0.39707 0.03589,0.14356 0.162644,0.25351 0.198534,0.39707 0.0321,0.12841 0,0.26471 0,0.39707 0,0.39707 0,0.79414 0,1.1912 0,0.39707 0,0.79414 0,1.19121 0,0.19853 0.03894,0.40092 0,0.5956 -0.02902,0.14511 -0.162644,0.25351 -0.198534,0.39707 -0.0321,0.1284 0.04186,0.2715 0,0.39707 -0.0296,0.0888 -0.132356,0.13235 -0.198534,0.19853 -0.06618,0.13236 -0.162644,0.25351 -0.198534,0.39707 -0.0321,0.1284 0.04185,0.2715 0,0.39707 -0.0296,0.0888 -0.21313,0.10609 -0.198534,0.19853 0.190315,1.20533 0.529424,2.38241 0.794136,3.57362"
         style="fill:none;stroke:#000000;stroke-width:0.5;stroke-linecap:butt;stroke-linejoin:miter;stroke-miterlimit:4;stroke-dasharray:none;stroke-opacity:1" />
      <path
         inkscape:connector-curvature="0"
         id="path861"
         d="m 14.890056,134.00351 c -1.058848,-0.99267 -2.117697,-1.98534 -3.176545,-2.97801 -0.132356,-0.0662 -0.273943,-0.11645 -0.397068,-0.19853 -0.344398,-0.2296 -0.363403,-0.68307 -0.595603,-0.99267 -0.112307,-0.14974 -0.28476,-0.24732 -0.397068,-0.39707 -0.4218115,-0.56242 -0.05177,-0.20708 -0.198534,-0.79413 -0.03589,-0.14356 -0.1626438,-0.25351 -0.198534,-0.39707 -0.048152,-0.19261 0.062782,-0.40726 0,-0.59561 -0.046795,-0.14038 -0.198534,-0.24909 -0.198534,-0.39706 0,-0.0936 0.1566793,-0.11483 0.198534,-0.19854 0.029596,-0.0592 -0.029596,-0.13934 0,-0.19853 0.041855,-0.0837 0.156679,-0.11483 0.198534,-0.19854 0.0296,-0.0592 -0.04679,-0.15174 0,-0.19853 0.02452,-0.0245 0.669638,0 0.794136,0 0.568743,0 0.466155,-0.0647 0.992671,0.19853 0.132356,0.0662 0.273942,0.11645 0.397068,0.19854 0.07787,0.0519 0.109747,0.16894 0.198534,0.19853 0.125564,0.0419 0.286941,-0.0734 0.397068,0 0.123126,0.0821 0.0939,0.29243 0.198534,0.39707 0.104637,0.10464 0.273943,0.11645 0.397069,0.19853 0.07787,0.0519 0.132356,0.13236 0.198534,0.19854 0.132356,0.13235 0.28476,0.24732 0.397068,0.39707 0.08879,0.11838 0.132356,0.26471 0.198534,0.39707 0.06618,0.13235 0.143576,0.25967 0.198534,0.39706 0.07772,0.19431 0.157492,0.3904 0.198534,0.5956 0.05191,0.25958 -0.0642,0.53733 0,0.79414 0.03589,0.14356 0.162644,0.25351 0.198534,0.39707 0.04815,0.1926 0,0.39707 0,0.5956 0,0.86031 0,1.72063 0,2.58094"
         style="fill:none;stroke:#000000;stroke-width:0.5;stroke-linecap:butt;stroke-linejoin:miter;stroke-miterlimit:4;stroke-dasharray:none;stroke-opacity:1" />
      <path
         inkscape:connector-curvature="0"
         id="path863"
         d="m 11.713511,131.0255 c 0.463246,-0.79414 0.907897,-1.59942 1.389738,-2.3824 0.04905,-0.0797 0.132355,-0.13234 0.198535,-0.19854 0.06618,-0.0662 0.120664,-0.14663 0.198534,-0.19853 0.123125,-0.0821 0.292431,-0.0939 0.397068,-0.19854 0.104634,-0.10464 0.109744,-0.27868 0.198534,-0.39707 0.112308,-0.14974 0.313358,-0.22965 0.397068,-0.39706 0.122024,-0.24406 0.09105,-0.54334 0.198534,-0.79414 0.09399,-0.21932 0.278685,-0.38843 0.397068,-0.5956 0.146836,-0.25697 0.280485,-0.52211 0.397069,-0.79414 0.164873,-0.3847 0.241623,-0.80259 0.397068,-1.1912 0.05496,-0.1374 0.169514,-0.25197 0.198534,-0.39707 0.03893,-0.19468 -0.03894,-0.40093 0,-0.5956 0.02902,-0.14511 0.169514,-0.25197 0.198534,-0.39707 0.03893,-0.19468 0,-0.39707 0,-0.5956 0,-0.13236 0.0321,-0.26867 0,-0.39707 -0.07178,-0.28712 -0.303478,-0.51337 -0.397068,-0.79414 -0.02093,-0.0628 0.0296,-0.13933 0,-0.19853 -0.04185,-0.0837 -0.132354,-0.13234 -0.198534,-0.19854 -0.06618,-0.0662 -0.109744,-0.16893 -0.198534,-0.19853 -0.01931,-0.006 -0.969501,-0.006 -0.992671,0 -0.14356,0.0359 -0.264712,0.13233 -0.397068,0.19853 -0.132356,0.0662 -0.292432,0.0939 -0.397068,0.19854 -0.104634,0.10463 -0.109744,0.27868 -0.198534,0.39707 -0.112308,0.14974 -0.284761,0.24732 -0.397069,0.39706 -0.144388,0.19252 -0.360668,0.81068 -0.397068,0.99268 -0.09177,0.45885 -0.07541,0.93827 -0.198534,1.38973 -0.106632,0.39098 -1.487162,2.79692 0,0 -1.035612,-1.87829 -0.99267,-1.42538 -0.99267,-2.77947 0,-0.13236 0.0321,-0.26867 0,-0.39707 -0.07178,-0.28712 -0.325288,-0.50702 -0.397068,-0.79414 -0.0321,-0.1284 0.04916,-0.27418 0,-0.39707 -0.08862,-0.22154 -0.303076,-0.37628 -0.397068,-0.5956 -0.107485,-0.2508 -0.102727,-0.53865 -0.198535,-0.79413 -0.103917,-0.27712 -0.287152,-0.51935 -0.397068,-0.79414 -0.3706373,-0.92659 -0.3600865,-1.31578 -0.794136,-2.18388 -0.1725712,-0.34514 -0.4522897,-0.63438 -0.5956023,-0.99267 -0.1253232,-0.3133 -0.091825,-0.67254 -0.198534,-0.99267 -0.308385,-0.92515 -0.5858575,-0.74541 -0.7941364,-1.7868 -0.064893,-0.32447 0.032925,-0.66343 0,-0.99267 -0.033577,-0.33577 -0.132356,-0.66178 -0.1985341,-0.99267 -0.1000385,-0.5002 -0.3547332,-1.7182 -0.3970681,-2.18388 -0.029957,-0.32953 0,-0.66178 0,-0.99267 0,-0.26471 -0.032834,-0.53147 0,-0.79414 0.033844,-0.27075 0.159946,-0.52402 0.198534,-0.79413 0.028077,-0.19654 -0.032639,-0.39977 0,-0.5956 0.034404,-0.20643 0.1641298,-0.38918 0.1985341,-0.59561 0.057906,-0.34743 -0.077208,-1.0809 0,-1.38974 0.07178,-0.28712 0.2931507,-0.51702 0.3970682,-0.79413 0.8109427,-2.162516 -0.5098861,0.6227 0.5956023,-1.588274 0.066178,-0.132357 0.075408,-0.314985 0.198534,-0.397069 0.020325,-0.01355 0.6811309,0 0.7941364,0"
         style="fill:none;stroke:#000000;stroke-width:0.5;stroke-linecap:butt;stroke-linejoin:miter;stroke-miterlimit:4;stroke-dasharray:none;stroke-opacity:1" />
      <path
         inkscape:connector-curvature="0"
         id="path865"
         d="m 12.507647,123.67974 c -2.668225,-3.73551 -0.620997,-0.30011 -0.99267,-1.7868 -0.143949,-0.5758 -0.154892,-0.23234 -0.397068,-0.59561 -0.120906,-0.18136 -0.169466,-0.4818 -0.397069,-0.5956 -1.4592148,-0.4864 -0.10111,0.0649 -0.794136,-0.39707 -0.1231254,-0.0821 -0.2701774,-0.1224 -0.3970681,-0.19853 -0.2046049,-0.12277 -0.3821845,-0.29036 -0.5956022,-0.39707 -0.1871797,-0.0936 -0.3970681,-0.13235 -0.5956022,-0.19853 -0.3970682,-0.13236 -0.8025937,-0.24163 -1.1912044,-0.39707 -0.1373947,-0.055 -0.2535079,-0.16264 -0.3970682,-0.19854 -0.1284044,-0.0321 -0.2715043,0.0419 -0.3970684,0 -0.088787,-0.0296 -0.104944,-0.19853 -0.1985341,-0.19853 -0.09359,0 -0.1148246,0.15668 -0.198534,0.19853 -0.059191,0.0296 -0.1517391,-0.0468 -0.1985341,0 -0.09359,0.0936 0.059191,0.27869 0,0.39707 -0.041855,0.0837 -0.1689383,0.10975 -0.1985341,0.19854 -0.00435,0.013 -0.00435,0.97963 0,0.99267 0.029596,0.0888 0.1466199,0.12066 0.1985341,0.19853 0.3133286,0.47 0.1034129,0.50048 0.5956022,0.99267 0.1687216,0.16872 0.3970684,0.26471 0.5956025,0.39707 0.1985341,0.13235 0.3970681,0.26471 0.5956022,0.39707 0.4937181,0.32914 0.8139933,0.57823 1.3897385,0.79413 3.0120923,1.12954 -1.0101019,-0.56286 1.3897383,0.39707 0.137395,0.055 0.273943,0.11645 0.397068,0.19854 0.07787,0.0519 0.105517,0.20886 0.198534,0.19853 0.542381,-0.0603 1.058849,-0.26472 1.588273,-0.39707"
         style="fill:none;stroke:#000000;stroke-width:0.5;stroke-linecap:butt;stroke-linejoin:miter;stroke-miterlimit:4;stroke-dasharray:none;stroke-opacity:1" />
      <path
         inkscape:connector-curvature="0"
         id="path867"
         d="m 9.1325678,116.73105 c -0.4328679,-0.70508 -0.3970682,-0.72835 -0.3970682,-1.38974 0,-0.19853 -0.032639,-0.39977 0,-0.5956 0.094065,-0.56439 0.211904,-0.52976 0.3970682,-0.99267 0.077722,-0.19431 0.1208119,-0.4013 0.198534,-0.5956 0.1655559,-0.41389 0.359741,-0.64934 0.7941362,-0.79414 0.06278,-0.0209 0.135752,0.0209 0.198534,0 0.140385,-0.0468 0.253508,-0.16264 0.397068,-0.19853 0.128405,-0.0321 0.264713,0 0.397069,0 0.429788,0 0.407548,-0.0592 0.794136,0.19853 0.186003,0.124 0.546612,0.79671 0.595602,0.99267 0.0321,0.12841 -0.04185,0.27151 0,0.39707 0.0296,0.0888 0.168939,0.10975 0.198534,0.19853 0.04185,0.12557 0,0.26471 0,0.39707 0,0.13236 0,0.26471 0,0.39707 0,0.13236 0,0.26471 0,0.39707 0,0.13235 0.0321,0.26866 0,0.39706 -0.03589,0.14356 -0.169513,0.25197 -0.198534,0.39707 -0.03894,0.19468 0.03264,0.39977 0,0.59561 -0.173051,1.0383 -0.12629,0.21048 -0.595602,0.99266 -0.10767,0.17946 -0.09086,0.41616 -0.198534,0.59561 -0.0963,0.1605 -0.284761,0.24732 -0.397068,0.39707 -0.721167,0.96155 0.210173,-0.0117 -0.397069,0.5956 -0.06618,0.0662 -0.114824,0.15668 -0.198534,0.19853 -0.05919,0.0296 -0.198533,-0.0662 -0.198534,0 0,0.46795 0.132356,0.92649 0.198534,1.38974"
         style="fill:none;stroke:#000000;stroke-width:0.5;stroke-linecap:butt;stroke-linejoin:miter;stroke-miterlimit:4;stroke-dasharray:none;stroke-opacity:1" />
      <path
         inkscape:connector-curvature="0"
         id="path869"
         d="m 9.1325678,116.73105 c -1.6194154,-3.0364 -1.5882726,-1.85298 -1.5882726,-3.17655 0,-0.0662 0.029596,-0.13934 0,-0.19853 -0.053017,-0.10603 -0.4910812,-0.49108 -0.5956022,-0.5956 -0.066178,-0.0662 -0.1323562,-0.13236 -0.1985341,-0.19854 -0.066178,-0.0662 -0.109747,-0.16893 -0.1985343,-0.19853 -0.1255639,-0.0419 -0.2686637,0.0321 -0.3970682,0 -0.1435602,-0.0359 -0.2647119,-0.13236 -0.3970681,-0.19853 -0.132356,-0.0662 -0.2647119,-0.13236 -0.3970681,-0.19854 -0.132356,-0.0662 -0.2739425,-0.11645 -0.3970682,-0.19853 -0.438186,-0.29213 0.1016185,-0.19854 -0.5956022,-0.19854 -0.066178,0 -0.1393425,-0.0296 -0.1985341,0 -0.083709,0.0419 -0.1148246,0.15668 -0.198534,0.19854 -0.2738493,0.13692 -0.1775833,-0.24044 -0.3970682,0.19853 -0.021794,0.0436 -0.00491,1.17648 0,1.19121 0.029596,0.0888 0.132356,0.13235 0.1985341,0.19853 0.132356,0.13236 0.2647122,0.26471 0.3970681,0.39707 0.4347626,0.43476 0.8274037,0.91004 1.3897385,1.1912 0.1871798,0.0936 0.416152,0.0909 0.5956022,0.19854 0.1605056,0.0963 0.2232764,0.32755 0.3970682,0.39706 0.1843344,0.0737 0.4009236,-0.0389 0.5956025,0 0.1451049,0.029 0.2701774,0.12241 0.3970681,0.19854 0.5353518,0.32121 1.0588482,0.66178 1.5882726,0.99267"
         style="fill:none;stroke:#000000;stroke-width:0.5;stroke-linecap:butt;stroke-linejoin:miter;stroke-miterlimit:4;stroke-dasharray:none;stroke-opacity:1" />
    </g>
    <g
       id="g932"
       transform="translate(-11.614244,-9.9267047)"
       style="display:inline;stroke-width:0.5;stroke-miterlimit:4;stroke-dasharray:none">
      <path
         style="fill:none;stroke:#000000;stroke-width:0.5;stroke-linecap:butt;stroke-linejoin:miter;stroke-miterlimit:4;stroke-dasharray:none;stroke-opacity:1"
         d="m 154.85659,137.37859 c 3.32524,-1.04989 6.59146,-2.28875 9.96039,-3.1981 1.86879,-1.6157 0.5714,-4.1871 0.36703,-6.21935 -0.70646,-2.49283 2.0601,-3.50149 4.01559,-3.7102 1.90875,-0.14172 4.98456,-1.31772 3.54131,-3.74569 -0.60362,-1.61436 -2.74647,-3.04734 -2.17178,-4.83207 1.65281,-2.11179 5.19696,-2.20509 6.08551,-5.01447 0.0394,-1.90615 -1.73644,-3.25795 -2.44739,-4.93981 -1.35314,-2.08269 0.50143,-3.54339 2.38381,-4.00941 2.33775,-0.71601 3.56523,-3.597877 1.85021,-5.570534 -1.03545,-1.526463 -2.68064,-2.562101 -3.53272,-4.224668"
         id="path871"
         inkscape:connector-curvature="0" />
      <path
         style="fill:none;stroke:#000000;stroke-width:0.5;stroke-linecap:butt;stroke-linejoin:miter;stroke-miterlimit:4;stroke-dasharray:none;stroke-opacity:1"
         d="m 174.90853,91.914288 c 2.35022,-0.874062 4.21897,-2.664205 6.55162,-3.573613"
         id="path873"
         inkscape:connector-curvature="0" />
      <path
         style="fill:none;stroke:#000000;stroke-width:0.5;stroke-linecap:butt;stroke-linejoin:miter;stroke-miterlimit:4;stroke-dasharray:none;stroke-opacity:1"
         d="m 160.41554,140.75367 c 0.318,-3.73014 -0.088,-8.02582 2.60397,-11.01868 1.88163,-1.42905 4.91928,-0.5247 6.32004,-2.67559 1.04404,-2.52761 -1.74225,-5.09421 -0.45033,-7.58489 1.54642,-1.41785 4.09724,-0.62587 5.69626,-2.11922 2.08453,-1.91233 -1.63063,-3.23608 -1.8267,-5.19339 -0.79047,-1.76438 -0.14513,-4.33292 1.99436,-4.68808 2.35169,0.2494 4.29232,-2.07153 2.95023,-4.22959 -0.88849,-1.88606 -2.67126,-3.382787 -2.98475,-5.512424 0.6796,-1.636263 3.00481,-1.833078 3.97416,-3.42907 0.21684,-0.249387 0.41456,-0.515949 0.58351,-0.800173"
         id="path875"
         inkscape:connector-curvature="0" />
      <path
         style="fill:none;stroke:#000000;stroke-width:0.5;stroke-linecap:butt;stroke-linejoin:miter;stroke-miterlimit:4;stroke-dasharray:none;stroke-opacity:1"
         d="m 179.27628,93.502561 c 1.03736,-1.930327 -0.75473,-3.705011 -1.9965,-4.994249 -0.92747,-0.497619 -0.97309,-2.284935 -1.97419,-2.351511"
         id="path877"
         inkscape:connector-curvature="0" />
    </g>
  </g>
</svg>
