<?xml version='1.0' encoding='UTF-8' standalone='no'?>
<svg baseProfile="tiny" height="210mm" width="297mm" version="1.2" xmlns="http://www.w3.org/2000/svg" xmlns:xlink="http://www.w3.org/1999/xlink" viewBox="0 0 2970 2100">
 <title>FreeCAD SVG Export</title>
 <desc>Drawing page: Page011 exported from FreeCAD document: amulet</desc>
 <defs/>
 <g fill-rule="evenodd" id="Page011" stroke-linecap="square" stroke="black" fill="none" stroke-width="1" stroke-linejoin="bevel">
  <g font-weight="400" stroke-linecap="square" stroke="#000000" fill="none" font-size="35.2778" font-style="normal" transform="matrix(1,0,0,1,0,0)" stroke-width="1" stroke-linejoin="bevel" stroke-opacity="1" font-family="Noto Sans"/>
  <g font-weight="400" stroke-linecap="square" stroke="#000000" fill="none" font-size="35.2778" font-style="normal" transform="matrix(1,0,0,1,0,2100)" stroke-width="1" stroke-linejoin="bevel" stroke-opacity="1" font-family="Noto Sans"/>
  <g font-weight="400" stroke-linecap="square" stroke="#000000" fill="none" font-size="35.2778" font-style="normal" transform="matrix(1,0,0,1,0,2100)" stroke-width="1" stroke-linejoin="bevel" stroke-opacity="1" font-family="Noto Sans"/>
  <g font-weight="400" stroke-linecap="square" stroke="#000000" fill="none" font-size="35.2778" font-style="normal" transform="matrix(2.82319,0,0,2.82258,0,0)" stroke-width="1" stroke-linejoin="bevel" stroke-opacity="1" font-family="Noto Sans"/>
  <g font-weight="400" stroke-linecap="square" stroke="#000000" fill="none" font-size="35.2778" font-style="normal" transform="matrix(2.82319,0,0,2.82258,0,0)" stroke-width="1" stroke-linejoin="bevel" stroke-opacity="1" font-family="Noto Sans"/>
  <g font-weight="400" stroke-linecap="square" stroke="#000000" fill="none" font-size="35.2778" font-style="normal" transform="matrix(2.82319,0,0,2.82258,0,0)" stroke-width="1" stroke-linejoin="bevel" stroke-opacity="1" font-family="Noto Sans"/>
  <g font-weight="400" stroke-linecap="square" stroke="#000000" fill="none" font-size="35.2778" font-style="normal" transform="matrix(2.82319,0,0,2.82258,0,0)" stroke-width="1" stroke-linejoin="bevel" stroke-opacity="1" font-family="Noto Sans"/>
  <g font-weight="400" stroke-linecap="square" stroke="#000000" fill="none" font-size="35.2778" font-style="normal" transform="matrix(1,0,0,1,0,0)" stroke-width="1" stroke-linejoin="bevel" stroke-opacity="1" font-family="Noto Sans"/>
  <g font-weight="400" stroke-linecap="square" stroke="#000000" fill="none" font-size="35.2778" font-style="normal" transform="matrix(2.82319,0,0,2.82258,0,0)" stroke-width="1" stroke-linejoin="bevel" stroke-opacity="1" font-family="Noto Sans"/>
  <g font-weight="400" stroke-linecap="square" stroke="#000000" fill="none" font-size="35.2778" font-style="normal" transform="matrix(1,0,0,1,1485,1050)" stroke-width="1" stroke-linejoin="bevel" stroke-opacity="1" font-family="Noto Sans"/>
  <g font-weight="400" stroke-linecap="square" stroke="#000000" fill="none" font-size="35.2778" font-style="normal" transform="matrix(1,0,0,1,1485,1050)" stroke-width="1" stroke-linejoin="bevel" stroke-opacity="1" font-family="Noto Sans"/>
  <g font-weight="400" stroke-linecap="square" stroke="#000000" fill="none" font-size="35.2778" font-style="normal" transform="matrix(1,0,0,1,1481,1705)" stroke-width="1" stroke-linejoin="bevel" stroke-opacity="1" font-family="Noto Sans"/>
  <g font-weight="400" stroke-linecap="square" stroke="#000000" fill="none" font-size="35.2778" font-style="normal" transform="matrix(0.353,0,0,0.353,1473,1762.36)" stroke-width="1" stroke-linejoin="bevel" stroke-opacity="1" font-family="Noto Sans"/>
  <g font-weight="400" stroke-linecap="square" stroke="#000000" fill="none" font-size="35.2778" font-style="normal" transform="matrix(0.353,0,0,0.353,1473,1762.36)" stroke-width="1" stroke-linejoin="bevel" stroke-opacity="1" font-family="Noto Sans"/>
  <g font-weight="400" stroke-linecap="square" stroke="#000000" fill="none" font-size="35.2778" font-style="normal" transform="matrix(0.353,0,0,0.353,1473,1762.36)" stroke-width="1" stroke-linejoin="bevel" stroke-opacity="1" font-family="Noto Sans"/>
  <g font-weight="400" stroke-linecap="square" stroke="#000000" fill="none" font-size="35.2778" font-style="normal" transform="matrix(0.353,0,0,0.353,1473,1762.36)" stroke-width="1" stroke-linejoin="bevel" stroke-opacity="1" font-family="Noto Sans"/>
  <g font-weight="400" stroke-linecap="square" stroke="#000000" fill="none" font-size="35.2778" font-style="normal" transform="matrix(1,0,0,1,0,0)" stroke-width="1" stroke-linejoin="bevel" stroke-opacity="1" font-family="Noto Sans"/>
  <g font-weight="400" stroke-linecap="square" stroke="#000000" fill="none" font-size="35.2778" font-style="normal" transform="matrix(0.353,0,0,0.353,1473,1762.36)" stroke-width="1" stroke-linejoin="bevel" stroke-opacity="1" font-family="Noto Sans"/>
  <g font-weight="400" stroke-linecap="square" stroke="#000000" fill="none" font-size="35.2778" font-style="normal" transform="matrix(0.353,0,0,0.353,1473,1762.36)" stroke-width="1" stroke-linejoin="bevel" stroke-opacity="1" font-family="Noto Sans"/>
  <g font-weight="400" stroke-linecap="square" stroke="#000000" fill="none" font-size="35.2778" font-style="normal" transform="matrix(1,0,0,1,1481,1705)" stroke-width="1" stroke-linejoin="bevel" stroke-opacity="1" font-family="Noto Sans"/>
  <g font-weight="400" stroke-linecap="square" stroke="#000000" fill="none" font-size="35.2778" font-style="normal" transform="matrix(1,0,0,1,1485,1050)" stroke-width="1" stroke-linejoin="bevel" stroke-opacity="1" font-family="Noto Sans"/>
  <g font-weight="400" fill-opacity="1" stroke="none" fill="#ffffff" font-size="35.2778" font-style="normal" transform="matrix(1,0,0,1,1485,1050)" font-family="Noto Sans">
   <path fill-rule="evenodd" vector-effect="non-scaling-stroke" d="M443.474,-457.337 C444.811,-425.554 453.71,-394.548 469.433,-366.895 C612.906,-114.544 531.205,206.083 284.463,359 C258.934,374.821 241.868,401.278 237.982,431.059 C222.382,550.587 120.542,640 -4.55762e-11,640 C-120.542,640 -222.382,550.587 -237.982,431.059 C-241.868,401.278 -258.934,374.821 -284.463,359 C-531.205,206.083 -612.906,-114.544 -469.433,-366.895 C-453.71,-394.548 -444.811,-425.554 -443.474,-457.337 C-442.422,-482.338 -431.009,-505.773 -411.974,-522.016 C-392.939,-538.259 -368.001,-545.843 -343.145,-542.95 C-324.832,-540.817 -306.345,-545.076 -290.811,-555.005 C-113.498,-668.332 113.498,-668.332 290.811,-555.005 C306.345,-545.076 324.832,-540.817 343.145,-542.95 C368.001,-545.843 392.939,-538.259 411.974,-522.016 C431.009,-505.773 442.422,-482.338 443.474,-457.337 "/>
  </g>
  <g font-weight="400" stroke-linecap="square" stroke="#000000" fill="none" font-size="35.2778" font-style="normal" transform="matrix(1,0,0,1,1485,1050)" stroke-width="1" stroke-linejoin="bevel" stroke-opacity="1" font-family="Noto Sans"/>
  <g font-weight="400" stroke-linecap="square" stroke="#000000" fill="none" font-size="35.2778" font-style="normal" transform="matrix(1,0,0,1,1485,1050)" stroke-width="1" stroke-linejoin="bevel" stroke-opacity="1" font-family="Noto Sans"/>
  <g font-weight="400" stroke-linecap="square" stroke="#000000" fill="none" font-size="35.2778" font-style="normal" transform="matrix(1,0,0,1,1485,1050)" stroke-width="1" stroke-linejoin="bevel" stroke-opacity="1" font-family="Noto Sans"/>
  <g font-weight="400" stroke-linecap="square" stroke="#000000" fill="none" font-size="35.2778" font-style="normal" transform="matrix(1,0,0,1,0,0)" stroke-width="1" stroke-linejoin="bevel" stroke-opacity="1" font-family="Noto Sans"/>
  <g font-weight="400" stroke-linecap="square" stroke="#000000" fill="none" font-size="35.2778" font-style="normal" transform="matrix(1,0,0,1,1485,1050)" stroke-width="1" stroke-linejoin="bevel" stroke-opacity="1" font-family="Noto Sans"/>
  <g font-weight="400" stroke-linecap="square" stroke="#000000" fill="none" font-size="35.2778" font-style="normal" transform="matrix(1,0,0,1,1485,1050)" stroke-width="1" stroke-linejoin="bevel" stroke-opacity="1" font-family="Noto Sans"/>
  <g font-weight="400" fill-opacity="1" stroke="none" fill="#ffffff" font-size="35.2778" font-style="normal" transform="matrix(1,0,0,1,1485,1050)" font-family="Noto Sans">
   <path fill-rule="evenodd" vector-effect="non-scaling-stroke" d="M380,-100 C380,109.868 209.868,280 0,280 C-209.868,280 -380,109.868 -380,-100 C-380,-309.868 -209.868,-480 0,-480 C209.868,-480 380,-309.868 380,-100 "/>
  </g>
  <g font-weight="400" stroke-linecap="square" stroke="#000000" fill="none" font-size="35.2778" font-style="normal" transform="matrix(1,0,0,1,1485,1050)" stroke-width="1" stroke-linejoin="bevel" stroke-opacity="1" font-family="Noto Sans"/>
  <g font-weight="400" stroke-linecap="square" stroke="#000000" fill="none" font-size="35.2778" font-style="normal" transform="matrix(1,0,0,1,1485,1050)" stroke-width="1" stroke-linejoin="bevel" stroke-opacity="1" font-family="Noto Sans"/>
  <g font-weight="400" stroke-linecap="square" stroke="#000000" fill="none" font-size="35.2778" font-style="normal" transform="matrix(1,0,0,1,1485,1050)" stroke-width="1" stroke-linejoin="bevel" stroke-opacity="1" font-family="Noto Sans"/>
  <g font-weight="400" stroke-linecap="square" stroke="#000000" fill="none" font-size="35.2778" font-style="normal" transform="matrix(1,0,0,1,0,0)" stroke-width="1" stroke-linejoin="bevel" stroke-opacity="1" font-family="Noto Sans"/>
  <g font-weight="400" stroke-linecap="square" stroke="#000000" fill="none" font-size="35.2778" font-style="normal" transform="matrix(1,0,0,1,1485,1050)" stroke-width="1" stroke-linejoin="bevel" stroke-opacity="1" font-family="Noto Sans"/>
  <g font-weight="400" stroke-linecap="square" stroke="#000000" fill="none" font-size="35.2778" font-style="normal" transform="matrix(1,0,0,1,1485,1050)" stroke-width="1" stroke-linejoin="bevel" stroke-opacity="1" font-family="Noto Sans"/>
  <g font-weight="400" fill-opacity="1" stroke="none" fill="#ffffff" font-size="35.2778" font-style="normal" transform="matrix(1,0,0,1,1485,1050)" font-family="Noto Sans">
   <path fill-rule="evenodd" vector-effect="non-scaling-stroke" d="M15,440 L15,420 C15,411.716 8.28427,405 -3.62652e-12,405 C-8.28427,405 -15,411.716 -15,420 L-15,420 L-15,440 L-15,440 C-15,448.284 -8.28427,455 3.59804e-12,455 C8.28427,455 15,448.284 15,440 "/>
  </g>
  <g font-weight="400" stroke-linecap="square" stroke="#000000" fill="none" font-size="35.2778" font-style="normal" transform="matrix(1,0,0,1,1485,1050)" stroke-width="1" stroke-linejoin="bevel" stroke-opacity="1" font-family="Noto Sans"/>
  <g font-weight="400" stroke-linecap="square" stroke="#000000" fill="none" font-size="35.2778" font-style="normal" transform="matrix(1,0,0,1,1485,1050)" stroke-width="1" stroke-linejoin="bevel" stroke-opacity="1" font-family="Noto Sans"/>
  <g font-weight="400" stroke-linecap="square" stroke="#000000" fill="none" font-size="35.2778" font-style="normal" transform="matrix(1,0,0,1,1485,1050)" stroke-width="1" stroke-linejoin="bevel" stroke-opacity="1" font-family="Noto Sans"/>
  <g font-weight="400" stroke-linecap="square" stroke="#000000" fill="none" font-size="35.2778" font-style="normal" transform="matrix(1,0,0,1,0,0)" stroke-width="1" stroke-linejoin="bevel" stroke-opacity="1" font-family="Noto Sans"/>
  <g font-weight="400" stroke-linecap="square" stroke="#000000" fill="none" font-size="35.2778" font-style="normal" transform="matrix(1,0,0,1,1485,1050)" stroke-width="1" stroke-linejoin="bevel" stroke-opacity="1" font-family="Noto Sans"/>
  <g font-weight="400" stroke-linecap="square" stroke="#000000" fill="none" font-size="35.2778" font-style="normal" transform="matrix(1,0,0,1,1485,1050)" stroke-width="1" stroke-linejoin="bevel" stroke-opacity="1" font-family="Noto Sans"/>
  <g font-weight="400" stroke-linecap="round" stroke="#000000" fill="none" font-size="35.2778" font-style="normal" transform="matrix(1,0,0,1,1485,1050)" stroke-width="7" stroke-linejoin="bevel" stroke-opacity="1" font-family="Noto Sans">
   <path fill-rule="evenodd" vector-effect="none" d="M290.811,-555.005 C113.498,-668.332 -113.498,-668.332 -290.811,-555.005 "/>
  </g>
  <g font-weight="400" stroke-linecap="square" stroke="#000000" fill="none" font-size="35.2778" font-style="normal" transform="matrix(1,0,0,1,1485,1050)" stroke-width="1" stroke-linejoin="bevel" stroke-opacity="1" font-family="Noto Sans"/>
  <g font-weight="400" stroke-linecap="square" stroke="#000000" fill="none" font-size="35.2778" font-style="normal" transform="matrix(1,0,0,1,1485,1050)" stroke-width="1" stroke-linejoin="bevel" stroke-opacity="1" font-family="Noto Sans"/>
  <g font-weight="400" stroke-linecap="round" stroke="#000000" fill="none" font-size="35.2778" font-style="normal" transform="matrix(1,0,0,1,1485,1050)" stroke-width="7" stroke-linejoin="bevel" stroke-opacity="1" font-family="Noto Sans">
   <path fill-rule="evenodd" vector-effect="none" d="M290.811,-555.005 C306.345,-545.076 324.832,-540.817 343.145,-542.95 "/>
  </g>
  <g font-weight="400" stroke-linecap="square" stroke="#000000" fill="none" font-size="35.2778" font-style="normal" transform="matrix(1,0,0,1,1485,1050)" stroke-width="1" stroke-linejoin="bevel" stroke-opacity="1" font-family="Noto Sans"/>
  <g font-weight="400" stroke-linecap="square" stroke="#000000" fill="none" font-size="35.2778" font-style="normal" transform="matrix(1,0,0,1,1485,1050)" stroke-width="1" stroke-linejoin="bevel" stroke-opacity="1" font-family="Noto Sans"/>
  <g font-weight="400" stroke-linecap="round" stroke="#000000" fill="none" font-size="35.2778" font-style="normal" transform="matrix(1,0,0,1,1485,1050)" stroke-width="7" stroke-linejoin="bevel" stroke-opacity="1" font-family="Noto Sans">
   <path fill-rule="evenodd" vector-effect="none" d="M-343.145,-542.95 C-324.832,-540.817 -306.345,-545.076 -290.811,-555.005 "/>
  </g>
  <g font-weight="400" stroke-linecap="square" stroke="#000000" fill="none" font-size="35.2778" font-style="normal" transform="matrix(1,0,0,1,1485,1050)" stroke-width="1" stroke-linejoin="bevel" stroke-opacity="1" font-family="Noto Sans"/>
  <g font-weight="400" stroke-linecap="square" stroke="#000000" fill="none" font-size="35.2778" font-style="normal" transform="matrix(1,0,0,1,1485,1050)" stroke-width="1" stroke-linejoin="bevel" stroke-opacity="1" font-family="Noto Sans"/>
  <g font-weight="400" stroke-linecap="round" stroke="#000000" fill="none" font-size="35.2778" font-style="normal" transform="matrix(1,0,0,1,1485,1050)" stroke-width="7" stroke-linejoin="bevel" stroke-opacity="1" font-family="Noto Sans">
   <path fill-rule="evenodd" vector-effect="none" d="M443.474,-457.337 C442.422,-482.338 431.009,-505.773 411.974,-522.016 C392.939,-538.259 368.001,-545.843 343.145,-542.95 "/>
  </g>
  <g font-weight="400" stroke-linecap="square" stroke="#000000" fill="none" font-size="35.2778" font-style="normal" transform="matrix(1,0,0,1,1485,1050)" stroke-width="1" stroke-linejoin="bevel" stroke-opacity="1" font-family="Noto Sans"/>
  <g font-weight="400" stroke-linecap="square" stroke="#000000" fill="none" font-size="35.2778" font-style="normal" transform="matrix(1,0,0,1,1485,1050)" stroke-width="1" stroke-linejoin="bevel" stroke-opacity="1" font-family="Noto Sans"/>
  <g font-weight="400" stroke-linecap="round" stroke="#000000" fill="none" font-size="35.2778" font-style="normal" transform="matrix(1,0,0,1,1485,1050)" stroke-width="7" stroke-linejoin="bevel" stroke-opacity="1" font-family="Noto Sans">
   <path fill-rule="evenodd" vector-effect="none" d="M-343.145,-542.95 C-368.001,-545.843 -392.939,-538.259 -411.974,-522.016 C-431.009,-505.773 -442.422,-482.338 -443.474,-457.337 "/>
  </g>
  <g font-weight="400" stroke-linecap="square" stroke="#000000" fill="none" font-size="35.2778" font-style="normal" transform="matrix(1,0,0,1,1485,1050)" stroke-width="1" stroke-linejoin="bevel" stroke-opacity="1" font-family="Noto Sans"/>
  <g font-weight="400" stroke-linecap="square" stroke="#000000" fill="none" font-size="35.2778" font-style="normal" transform="matrix(1,0,0,1,1485,1050)" stroke-width="1" stroke-linejoin="bevel" stroke-opacity="1" font-family="Noto Sans"/>
  <g font-weight="400" stroke-linecap="round" stroke="#000000" fill="none" font-size="35.2778" font-style="normal" transform="matrix(1,0,0,1,1485,1050)" stroke-width="7" stroke-linejoin="bevel" stroke-opacity="1" font-family="Noto Sans">
   <path fill-rule="evenodd" vector-effect="none" d="M443.474,-457.337 C444.811,-425.554 453.71,-394.548 469.433,-366.895 "/>
  </g>
  <g font-weight="400" stroke-linecap="square" stroke="#000000" fill="none" font-size="35.2778" font-style="normal" transform="matrix(1,0,0,1,1485,1050)" stroke-width="1" stroke-linejoin="bevel" stroke-opacity="1" font-family="Noto Sans"/>
  <g font-weight="400" stroke-linecap="square" stroke="#000000" fill="none" font-size="35.2778" font-style="normal" transform="matrix(1,0,0,1,1485,1050)" stroke-width="1" stroke-linejoin="bevel" stroke-opacity="1" font-family="Noto Sans"/>
  <g font-weight="400" stroke-linecap="round" stroke="#000000" fill="none" font-size="35.2778" font-style="normal" transform="matrix(1,0,0,1,1485,1050)" stroke-width="7" stroke-linejoin="bevel" stroke-opacity="1" font-family="Noto Sans">
   <path fill-rule="evenodd" vector-effect="none" d="M-469.433,-366.895 C-453.71,-394.548 -444.811,-425.554 -443.474,-457.337 "/>
  </g>
  <g font-weight="400" stroke-linecap="square" stroke="#000000" fill="none" font-size="35.2778" font-style="normal" transform="matrix(1,0,0,1,1485,1050)" stroke-width="1" stroke-linejoin="bevel" stroke-opacity="1" font-family="Noto Sans"/>
  <g font-weight="400" stroke-linecap="square" stroke="#000000" fill="none" font-size="35.2778" font-style="normal" transform="matrix(1,0,0,1,1485,1050)" stroke-width="1" stroke-linejoin="bevel" stroke-opacity="1" font-family="Noto Sans"/>
  <g font-weight="400" stroke-linecap="round" stroke="#000000" fill="none" font-size="35.2778" font-style="normal" transform="matrix(1,0,0,1,1485,1050)" stroke-width="7" stroke-linejoin="bevel" stroke-opacity="1" font-family="Noto Sans">
   <path fill-rule="evenodd" vector-effect="none" d="M284.463,359 C531.205,206.083 612.906,-114.544 469.433,-366.895 "/>
  </g>
  <g font-weight="400" stroke-linecap="square" stroke="#000000" fill="none" font-size="35.2778" font-style="normal" transform="matrix(1,0,0,1,1485,1050)" stroke-width="1" stroke-linejoin="bevel" stroke-opacity="1" font-family="Noto Sans"/>
  <g font-weight="400" stroke-linecap="square" stroke="#000000" fill="none" font-size="35.2778" font-style="normal" transform="matrix(1,0,0,1,1485,1050)" stroke-width="1" stroke-linejoin="bevel" stroke-opacity="1" font-family="Noto Sans"/>
  <g font-weight="400" stroke-linecap="round" stroke="#000000" fill="none" font-size="35.2778" font-style="normal" transform="matrix(1,0,0,1,1485,1050)" stroke-width="7" stroke-linejoin="bevel" stroke-opacity="1" font-family="Noto Sans">
   <path fill-rule="evenodd" vector-effect="none" d="M-469.433,-366.895 C-612.906,-114.544 -531.205,206.083 -284.463,359 "/>
  </g>
  <g font-weight="400" stroke-linecap="square" stroke="#000000" fill="none" font-size="35.2778" font-style="normal" transform="matrix(1,0,0,1,1485,1050)" stroke-width="1" stroke-linejoin="bevel" stroke-opacity="1" font-family="Noto Sans"/>
  <g font-weight="400" stroke-linecap="square" stroke="#000000" fill="none" font-size="35.2778" font-style="normal" transform="matrix(1,0,0,1,1485,1050)" stroke-width="1" stroke-linejoin="bevel" stroke-opacity="1" font-family="Noto Sans"/>
  <g font-weight="400" stroke-linecap="round" stroke="#000000" fill="none" font-size="35.2778" font-style="normal" transform="matrix(1,0,0,1,1485,1050)" stroke-width="7" stroke-linejoin="bevel" stroke-opacity="1" font-family="Noto Sans">
   <path fill-rule="evenodd" vector-effect="none" d="M284.463,359 C258.934,374.821 241.868,401.278 237.982,431.059 "/>
  </g>
  <g font-weight="400" stroke-linecap="square" stroke="#000000" fill="none" font-size="35.2778" font-style="normal" transform="matrix(1,0,0,1,1485,1050)" stroke-width="1" stroke-linejoin="bevel" stroke-opacity="1" font-family="Noto Sans"/>
  <g font-weight="400" stroke-linecap="square" stroke="#000000" fill="none" font-size="35.2778" font-style="normal" transform="matrix(1,0,0,1,1485,1050)" stroke-width="1" stroke-linejoin="bevel" stroke-opacity="1" font-family="Noto Sans"/>
  <g font-weight="400" stroke-linecap="round" stroke="#000000" fill="none" font-size="35.2778" font-style="normal" transform="matrix(1,0,0,1,1485,1050)" stroke-width="7" stroke-linejoin="bevel" stroke-opacity="1" font-family="Noto Sans">
   <path fill-rule="evenodd" vector-effect="none" d="M-237.982,431.059 C-241.868,401.278 -258.934,374.821 -284.463,359 "/>
  </g>
  <g font-weight="400" stroke-linecap="square" stroke="#000000" fill="none" font-size="35.2778" font-style="normal" transform="matrix(1,0,0,1,1485,1050)" stroke-width="1" stroke-linejoin="bevel" stroke-opacity="1" font-family="Noto Sans"/>
  <g font-weight="400" stroke-linecap="square" stroke="#000000" fill="none" font-size="35.2778" font-style="normal" transform="matrix(1,0,0,1,1485,1050)" stroke-width="1" stroke-linejoin="bevel" stroke-opacity="1" font-family="Noto Sans"/>
  <g font-weight="400" stroke-linecap="round" stroke="#000000" fill="none" font-size="35.2778" font-style="normal" transform="matrix(1,0,0,1,1485,1050)" stroke-width="7" stroke-linejoin="bevel" stroke-opacity="1" font-family="Noto Sans">
   <path fill-rule="evenodd" vector-effect="none" d="M-237.982,431.059 C-222.382,550.587 -120.542,640 -4.55762e-11,640 C120.542,640 222.382,550.587 237.982,431.059 "/>
  </g>
  <g font-weight="400" stroke-linecap="square" stroke="#000000" fill="none" font-size="35.2778" font-style="normal" transform="matrix(1,0,0,1,1485,1050)" stroke-width="1" stroke-linejoin="bevel" stroke-opacity="1" font-family="Noto Sans"/>
  <g font-weight="400" stroke-linecap="square" stroke="#000000" fill="none" font-size="35.2778" font-style="normal" transform="matrix(1,0,0,1,1485,1050)" stroke-width="1" stroke-linejoin="bevel" stroke-opacity="1" font-family="Noto Sans"/>
  <g font-weight="400" stroke-linecap="round" stroke="#000000" fill="none" font-size="35.2778" font-style="normal" transform="matrix(1,0,0,1,1485,1050)" stroke-width="7" stroke-linejoin="bevel" stroke-opacity="1" font-family="Noto Sans">
   <path fill-rule="evenodd" vector-effect="none" d="M380,-100 C380,109.868 209.868,280 0,280 C-209.868,280 -380,109.868 -380,-100 C-380,-309.868 -209.868,-480 0,-480 C209.868,-480 380,-309.868 380,-100 "/>
  </g>
  <g font-weight="400" stroke-linecap="square" stroke="#000000" fill="none" font-size="35.2778" font-style="normal" transform="matrix(1,0,0,1,1485,1050)" stroke-width="1" stroke-linejoin="bevel" stroke-opacity="1" font-family="Noto Sans"/>
  <g font-weight="400" stroke-linecap="square" stroke="#000000" fill="none" font-size="35.2778" font-style="normal" transform="matrix(1,0,0,1,1485,1050)" stroke-width="1" stroke-linejoin="bevel" stroke-opacity="1" font-family="Noto Sans"/>
  <g font-weight="400" stroke-linecap="round" stroke="#000000" fill="none" font-size="35.2778" font-style="normal" transform="matrix(1,0,0,1,1485,1050)" stroke-width="7" stroke-linejoin="bevel" stroke-opacity="1" font-family="Noto Sans">
   <path fill-rule="evenodd" vector-effect="none" d="M-15,440 L-15,420"/>
  </g>
  <g font-weight="400" stroke-linecap="square" stroke="#000000" fill="none" font-size="35.2778" font-style="normal" transform="matrix(1,0,0,1,1485,1050)" stroke-width="1" stroke-linejoin="bevel" stroke-opacity="1" font-family="Noto Sans"/>
  <g font-weight="400" stroke-linecap="square" stroke="#000000" fill="none" font-size="35.2778" font-style="normal" transform="matrix(1,0,0,1,1485,1050)" stroke-width="1" stroke-linejoin="bevel" stroke-opacity="1" font-family="Noto Sans"/>
  <g font-weight="400" stroke-linecap="round" stroke="#000000" fill="none" font-size="35.2778" font-style="normal" transform="matrix(1,0,0,1,1485,1050)" stroke-width="7" stroke-linejoin="bevel" stroke-opacity="1" font-family="Noto Sans">
   <path fill-rule="evenodd" vector-effect="none" d="M15,440 C15,448.284 8.28427,455 3.59804e-12,455 C-8.28427,455 -15,448.284 -15,440 "/>
  </g>
  <g font-weight="400" stroke-linecap="square" stroke="#000000" fill="none" font-size="35.2778" font-style="normal" transform="matrix(1,0,0,1,1485,1050)" stroke-width="1" stroke-linejoin="bevel" stroke-opacity="1" font-family="Noto Sans"/>
  <g font-weight="400" stroke-linecap="square" stroke="#000000" fill="none" font-size="35.2778" font-style="normal" transform="matrix(1,0,0,1,1485,1050)" stroke-width="1" stroke-linejoin="bevel" stroke-opacity="1" font-family="Noto Sans"/>
  <g font-weight="400" stroke-linecap="round" stroke="#000000" fill="none" font-size="35.2778" font-style="normal" transform="matrix(1,0,0,1,1485,1050)" stroke-width="7" stroke-linejoin="bevel" stroke-opacity="1" font-family="Noto Sans">
   <path fill-rule="evenodd" vector-effect="none" d="M15,440 L15,420"/>
  </g>
  <g font-weight="400" stroke-linecap="square" stroke="#000000" fill="none" font-size="35.2778" font-style="normal" transform="matrix(1,0,0,1,1485,1050)" stroke-width="1" stroke-linejoin="bevel" stroke-opacity="1" font-family="Noto Sans"/>
  <g font-weight="400" stroke-linecap="square" stroke="#000000" fill="none" font-size="35.2778" font-style="normal" transform="matrix(1,0,0,1,1485,1050)" stroke-width="1" stroke-linejoin="bevel" stroke-opacity="1" font-family="Noto Sans"/>
  <g font-weight="400" stroke-linecap="round" stroke="#000000" fill="none" font-size="35.2778" font-style="normal" transform="matrix(1,0,0,1,1485,1050)" stroke-width="7" stroke-linejoin="bevel" stroke-opacity="1" font-family="Noto Sans">
   <path fill-rule="evenodd" vector-effect="none" d="M-15,420 C-15,411.716 -8.28427,405 -3.62652e-12,405 C8.28427,405 15,411.716 15,420 "/>
  </g>
  <g font-weight="400" stroke-linecap="square" stroke="#000000" fill="none" font-size="35.2778" font-style="normal" transform="matrix(1,0,0,1,1485,1050)" stroke-width="1" stroke-linejoin="bevel" stroke-opacity="1" font-family="Noto Sans"/>
  <g font-weight="400" stroke-linecap="square" stroke="#000000" fill="none" font-size="35.2778" font-style="normal" transform="matrix(1,0,0,1,1485,950)" stroke-width="1" stroke-linejoin="bevel" stroke-opacity="1" font-family="Noto Sans"/>
  <g font-weight="400" fill-opacity="1" stroke-linecap="round" stroke="#000000" fill="#000000" font-size="35.2778" font-style="normal" transform="matrix(1,0,0,1,1485,950)" stroke-width="3.5" stroke-linejoin="bevel" stroke-opacity="1" font-family="Noto Sans">
   <path fill-rule="evenodd" vector-effect="none" d="M0,42 L0,-42 M42,0 L-42,0"/>
  </g>
  <g font-weight="400" stroke-linecap="square" stroke="#000000" fill="none" font-size="35.2778" font-style="normal" transform="matrix(1,0,0,1,1485,950)" stroke-width="1" stroke-linejoin="bevel" stroke-opacity="1" font-family="Noto Sans"/>
  <g font-weight="400" stroke-linecap="square" stroke="#000000" fill="none" font-size="35.2778" font-style="normal" transform="matrix(1,0,0,1,1818.89,427.587)" stroke-width="1" stroke-linejoin="bevel" stroke-opacity="1" font-family="Noto Sans"/>
  <g font-weight="400" fill-opacity="1" stroke-linecap="round" stroke="#000000" fill="#000000" font-size="35.2778" font-style="normal" transform="matrix(1,0,0,1,1818.89,427.587)" stroke-width="3.5" stroke-linejoin="bevel" stroke-opacity="1" font-family="Noto Sans">
   <path fill-rule="evenodd" vector-effect="none" d="M0,42 L0,-42 M42,0 L-42,0"/>
  </g>
  <g font-weight="400" stroke-linecap="square" stroke="#000000" fill="none" font-size="35.2778" font-style="normal" transform="matrix(1,0,0,1,1818.89,427.587)" stroke-width="1" stroke-linejoin="bevel" stroke-opacity="1" font-family="Noto Sans"/>
  <g font-weight="400" stroke-linecap="square" stroke="#000000" fill="none" font-size="35.2778" font-style="normal" transform="matrix(1,0,0,1,1151.11,427.587)" stroke-width="1" stroke-linejoin="bevel" stroke-opacity="1" font-family="Noto Sans"/>
  <g font-weight="400" fill-opacity="1" stroke-linecap="round" stroke="#000000" fill="#000000" font-size="35.2778" font-style="normal" transform="matrix(1,0,0,1,1151.11,427.587)" stroke-width="3.5" stroke-linejoin="bevel" stroke-opacity="1" font-family="Noto Sans">
   <path fill-rule="evenodd" vector-effect="none" d="M0,42 L0,-42 M42,0 L-42,0"/>
  </g>
  <g font-weight="400" stroke-linecap="square" stroke="#000000" fill="none" font-size="35.2778" font-style="normal" transform="matrix(1,0,0,1,1151.11,427.587)" stroke-width="1" stroke-linejoin="bevel" stroke-opacity="1" font-family="Noto Sans"/>
  <g font-weight="400" stroke-linecap="square" stroke="#000000" fill="none" font-size="35.2778" font-style="normal" transform="matrix(1,0,0,1,1838.55,596.447)" stroke-width="1" stroke-linejoin="bevel" stroke-opacity="1" font-family="Noto Sans"/>
  <g font-weight="400" fill-opacity="1" stroke-linecap="round" stroke="#000000" fill="#000000" font-size="35.2778" font-style="normal" transform="matrix(1,0,0,1,1838.55,596.447)" stroke-width="3.5" stroke-linejoin="bevel" stroke-opacity="1" font-family="Noto Sans">
   <path fill-rule="evenodd" vector-effect="none" d="M0,42 L0,-42 M42,0 L-42,0"/>
  </g>
  <g font-weight="400" stroke-linecap="square" stroke="#000000" fill="none" font-size="35.2778" font-style="normal" transform="matrix(1,0,0,1,1838.55,596.447)" stroke-width="1" stroke-linejoin="bevel" stroke-opacity="1" font-family="Noto Sans"/>
  <g font-weight="400" stroke-linecap="square" stroke="#000000" fill="none" font-size="35.2778" font-style="normal" transform="matrix(1,0,0,1,1131.45,596.447)" stroke-width="1" stroke-linejoin="bevel" stroke-opacity="1" font-family="Noto Sans"/>
  <g font-weight="400" fill-opacity="1" stroke-linecap="round" stroke="#000000" fill="#000000" font-size="35.2778" font-style="normal" transform="matrix(1,0,0,1,1131.45,596.447)" stroke-width="3.5" stroke-linejoin="bevel" stroke-opacity="1" font-family="Noto Sans">
   <path fill-rule="evenodd" vector-effect="none" d="M0,42 L0,-42 M42,0 L-42,0"/>
  </g>
  <g font-weight="400" stroke-linecap="square" stroke="#000000" fill="none" font-size="35.2778" font-style="normal" transform="matrix(1,0,0,1,1131.45,596.447)" stroke-width="1" stroke-linejoin="bevel" stroke-opacity="1" font-family="Noto Sans"/>
  <g font-weight="400" stroke-linecap="square" stroke="#000000" fill="none" font-size="35.2778" font-style="normal" transform="matrix(1,0,0,1,2128.3,584.256)" stroke-width="1" stroke-linejoin="bevel" stroke-opacity="1" font-family="Noto Sans"/>
  <g font-weight="400" fill-opacity="1" stroke-linecap="round" stroke="#000000" fill="#000000" font-size="35.2778" font-style="normal" transform="matrix(1,0,0,1,2128.3,584.256)" stroke-width="3.5" stroke-linejoin="bevel" stroke-opacity="1" font-family="Noto Sans">
   <path fill-rule="evenodd" vector-effect="none" d="M0,42 L0,-42 M42,0 L-42,0"/>
  </g>
  <g font-weight="400" stroke-linecap="square" stroke="#000000" fill="none" font-size="35.2778" font-style="normal" transform="matrix(1,0,0,1,2128.3,584.256)" stroke-width="1" stroke-linejoin="bevel" stroke-opacity="1" font-family="Noto Sans"/>
  <g font-weight="400" stroke-linecap="square" stroke="#000000" fill="none" font-size="35.2778" font-style="normal" transform="matrix(1,0,0,1,841.703,584.256)" stroke-width="1" stroke-linejoin="bevel" stroke-opacity="1" font-family="Noto Sans"/>
  <g font-weight="400" fill-opacity="1" stroke-linecap="round" stroke="#000000" fill="#000000" font-size="35.2778" font-style="normal" transform="matrix(1,0,0,1,841.703,584.256)" stroke-width="3.5" stroke-linejoin="bevel" stroke-opacity="1" font-family="Noto Sans">
   <path fill-rule="evenodd" vector-effect="none" d="M0,42 L0,-42 M42,0 L-42,0"/>
  </g>
  <g font-weight="400" stroke-linecap="square" stroke="#000000" fill="none" font-size="35.2778" font-style="normal" transform="matrix(1,0,0,1,841.703,584.256)" stroke-width="1" stroke-linejoin="bevel" stroke-opacity="1" font-family="Noto Sans"/>
  <g font-weight="400" stroke-linecap="square" stroke="#000000" fill="none" font-size="35.2778" font-style="normal" transform="matrix(1,0,0,1,1822.14,1494)" stroke-width="1" stroke-linejoin="bevel" stroke-opacity="1" font-family="Noto Sans"/>
  <g font-weight="400" fill-opacity="1" stroke-linecap="round" stroke="#000000" fill="#000000" font-size="35.2778" font-style="normal" transform="matrix(1,0,0,1,1822.14,1494)" stroke-width="3.5" stroke-linejoin="bevel" stroke-opacity="1" font-family="Noto Sans">
   <path fill-rule="evenodd" vector-effect="none" d="M0,42 L0,-42 M42,0 L-42,0"/>
  </g>
  <g font-weight="400" stroke-linecap="square" stroke="#000000" fill="none" font-size="35.2778" font-style="normal" transform="matrix(1,0,0,1,1822.14,1494)" stroke-width="1" stroke-linejoin="bevel" stroke-opacity="1" font-family="Noto Sans"/>
  <g font-weight="400" stroke-linecap="square" stroke="#000000" fill="none" font-size="35.2778" font-style="normal" transform="matrix(1,0,0,1,1147.86,1494)" stroke-width="1" stroke-linejoin="bevel" stroke-opacity="1" font-family="Noto Sans"/>
  <g font-weight="400" fill-opacity="1" stroke-linecap="round" stroke="#000000" fill="#000000" font-size="35.2778" font-style="normal" transform="matrix(1,0,0,1,1147.86,1494)" stroke-width="3.5" stroke-linejoin="bevel" stroke-opacity="1" font-family="Noto Sans">
   <path fill-rule="evenodd" vector-effect="none" d="M0,42 L0,-42 M42,0 L-42,0"/>
  </g>
  <g font-weight="400" stroke-linecap="square" stroke="#000000" fill="none" font-size="35.2778" font-style="normal" transform="matrix(1,0,0,1,1147.86,1494)" stroke-width="1" stroke-linejoin="bevel" stroke-opacity="1" font-family="Noto Sans"/>
  <g font-weight="400" stroke-linecap="square" stroke="#000000" fill="none" font-size="35.2778" font-style="normal" transform="matrix(1,0,0,1,1485,1450)" stroke-width="1" stroke-linejoin="bevel" stroke-opacity="1" font-family="Noto Sans"/>
  <g font-weight="400" fill-opacity="1" stroke-linecap="round" stroke="#000000" fill="#000000" font-size="35.2778" font-style="normal" transform="matrix(1,0,0,1,1485,1450)" stroke-width="3.5" stroke-linejoin="bevel" stroke-opacity="1" font-family="Noto Sans">
   <path fill-rule="evenodd" vector-effect="none" d="M0,42 L0,-42 M42,0 L-42,0"/>
  </g>
  <g font-weight="400" stroke-linecap="square" stroke="#000000" fill="none" font-size="35.2778" font-style="normal" transform="matrix(1,0,0,1,1485,1450)" stroke-width="1" stroke-linejoin="bevel" stroke-opacity="1" font-family="Noto Sans"/>
  <g font-weight="400" stroke-linecap="square" stroke="#000000" fill="none" font-size="35.2778" font-style="normal" transform="matrix(1,0,0,1,1485,1490)" stroke-width="1" stroke-linejoin="bevel" stroke-opacity="1" font-family="Noto Sans"/>
  <g font-weight="400" fill-opacity="1" stroke-linecap="round" stroke="#000000" fill="#000000" font-size="35.2778" font-style="normal" transform="matrix(1,0,0,1,1485,1490)" stroke-width="3.5" stroke-linejoin="bevel" stroke-opacity="1" font-family="Noto Sans">
   <path fill-rule="evenodd" vector-effect="none" d="M0,42 L0,-42 M42,0 L-42,0"/>
  </g>
  <g font-weight="400" stroke-linecap="square" stroke="#000000" fill="none" font-size="35.2778" font-style="normal" transform="matrix(1,0,0,1,1485,1490)" stroke-width="1" stroke-linejoin="bevel" stroke-opacity="1" font-family="Noto Sans"/>
  <g font-weight="400" stroke-linecap="square" stroke="#000000" fill="none" font-size="35.2778" font-style="normal" transform="matrix(1,0,0,1,1485,1470)" stroke-width="1" stroke-linejoin="bevel" stroke-opacity="1" font-family="Noto Sans"/>
  <g font-weight="400" fill-opacity="1" stroke-linecap="round" stroke="#000000" fill="#000000" font-size="35.2778" font-style="normal" transform="matrix(1,0,0,1,1485,1470)" stroke-width="3.5" stroke-linejoin="bevel" stroke-opacity="1" font-family="Noto Sans">
   <path fill-rule="evenodd" vector-effect="none" d="M0,42 L0,-42 M42,0 L-42,0"/>
  </g>
  <g font-weight="400" stroke-linecap="square" stroke="#000000" fill="none" font-size="35.2778" font-style="normal" transform="matrix(1,0,0,1,1485,1470)" stroke-width="1" stroke-linejoin="bevel" stroke-opacity="1" font-family="Noto Sans"/>
  <g font-weight="400" stroke-linecap="square" stroke="#000000" fill="none" font-size="35.2778" font-style="normal" transform="matrix(1,0,0,1,1485,950)" stroke-width="1" stroke-linejoin="bevel" stroke-opacity="1" font-family="Noto Sans"/>
  <g font-weight="400" stroke-linecap="square" stroke="#000000" fill="none" font-size="35.2778" font-style="normal" transform="matrix(1,0,0,1,1485,950)" stroke-width="1" stroke-linejoin="bevel" stroke-opacity="1" font-family="Noto Sans"/>
  <g font-weight="400" stroke-linecap="square" stroke="#000000" fill="none" font-size="35.2778" font-style="normal" transform="matrix(1,0,0,1,1481,1461.03)" stroke-width="1" stroke-linejoin="bevel" stroke-opacity="1" font-family="Noto Sans"/>
  <g font-weight="400" stroke-linecap="square" stroke="#000000" fill="none" font-size="35.2778" font-style="normal" transform="matrix(0.353,0,0,0.353,1473,1518.39)" stroke-width="1" stroke-linejoin="bevel" stroke-opacity="1" font-family="Noto Sans"/>
  <g font-weight="400" stroke-linecap="square" stroke="#000000" fill="none" font-size="35.2778" font-style="normal" transform="matrix(0.353,0,0,0.353,1473,1518.39)" stroke-width="1" stroke-linejoin="bevel" stroke-opacity="1" font-family="Noto Sans"/>
  <g font-weight="400" stroke-linecap="square" stroke="#000000" fill="none" font-size="35.2778" font-style="normal" transform="matrix(0.353,0,0,0.353,1473,1518.39)" stroke-width="1" stroke-linejoin="bevel" stroke-opacity="1" font-family="Noto Sans"/>
  <g font-weight="400" stroke-linecap="square" stroke="#000000" fill="none" font-size="35.2778" font-style="normal" transform="matrix(0.353,0,0,0.353,1473,1518.39)" stroke-width="1" stroke-linejoin="bevel" stroke-opacity="1" font-family="Noto Sans"/>
  <g font-weight="400" stroke-linecap="square" stroke="#000000" fill="none" font-size="35.2778" font-style="normal" transform="matrix(1,0,0,1,0,0)" stroke-width="1" stroke-linejoin="bevel" stroke-opacity="1" font-family="Noto Sans"/>
  <g font-weight="400" stroke-linecap="square" stroke="#000000" fill="none" font-size="35.2778" font-style="normal" transform="matrix(0.353,0,0,0.353,1473,1518.39)" stroke-width="1" stroke-linejoin="bevel" stroke-opacity="1" font-family="Noto Sans"/>
  <g font-weight="400" stroke-linecap="square" stroke="#000000" fill="none" font-size="35.2778" font-style="normal" transform="matrix(0.353,0,0,0.353,1473,1518.39)" stroke-width="1" stroke-linejoin="bevel" stroke-opacity="1" font-family="Noto Sans"/>
  <g font-weight="400" stroke-linecap="square" stroke="#000000" fill="none" font-size="35.2778" font-style="normal" transform="matrix(1,0,0,1,1481,1461.03)" stroke-width="1" stroke-linejoin="bevel" stroke-opacity="1" font-family="Noto Sans"/>
  <g font-weight="400" stroke-linecap="square" stroke="#000000" fill="none" font-size="35.2778" font-style="normal" transform="matrix(1,0,0,1,1485,950)" stroke-width="1" stroke-linejoin="bevel" stroke-opacity="1" font-family="Noto Sans"/>
  <g font-weight="400" stroke-linecap="square" stroke="#000000" fill="none" font-size="35.2778" font-style="normal" transform="matrix(1,0,0,1,1485,950)" stroke-width="1" stroke-linejoin="bevel" stroke-opacity="1" font-family="Noto Sans"/>
  <g font-weight="400" stroke-linecap="square" stroke="#000000" fill="none" font-size="35.2778" font-style="normal" transform="matrix(2.83069,0,0,2.83069,983.968,448.968)" stroke-width="1" stroke-linejoin="bevel" stroke-opacity="1" font-family="Noto Sans"/>
  <g font-weight="400" opacity="0.957727" stroke="none" fill="none" font-size="35.2778" font-style="normal" transform="matrix(10.0206,0,0,10.0206,983.968,-1525.1)" font-family="Noto Sans">
   <path fill-rule="nonzero" vector-effect="none" d="M97,247 C96.9963,247.765 96.8658,248.446 96.6496,249.048 M94.3557,252.079 C92.5622,253.546 90.6045,254.369 89.83,256.263 C89.0939,258.063 89.2077,260.025 89.2497,262.148 M89.127,265.55 C89.0891,265.841 89.0413,266.13 88.9815,266.415 C88.6199,268.142 88.7175,269.411 88.4658,270.935 C88.2253,272.39 87.5908,274.312 85.5075,276.755 M91,247 C91.0324,249.847 91.4346,251.327 91.9578,253.153 M92.6393,256.201 C92.6683,256.464 92.6881,256.736 92.6959,257.018 C92.7918,260.45 93.7929,264.644 91.6054,267.817 C91.4437,268.051 91.2661,268.261 91.0756,268.45 M88.0321,269.968 C85.5196,270.588 82.9416,270.557 80.9598,272.874 M94,247 C94.0068,249.583 94.6349,251.204 95.2199,252.885 C95.7766,254.484 96.2435,256.022 95.5618,257.773 C95.456,258.044 95.3288,258.301 95.1835,258.544 M92.4236,261.099 C90.2041,262.435 87.681,263.171 86.3577,265.013 C85.2596,266.542 85.4472,268.049 85.2375,269.981 M84.3072,273.235 C84.0358,273.755 83.6856,274.286 83.2336,274.815 M98,247 C97.9885,248.613 97.5799,249.841 97.0121,250.768 M94.6958,253.058 C93.0621,254.159 91.4898,254.776 90.7853,256.515 C90.1332,258.124 90.1245,259.841 90.1492,261.693 M90.1266,264.763 C90.0855,265.478 90.005,266.19 89.8562,266.882 C89.478,268.642 89.5649,269.93 89.2981,271.478 C89.0434,272.955 88.3877,274.912 86.2654,277.402 M92,247 C92.0208,249.505 92.3103,250.988 92.7387,252.6 M93.4576,255.459 C93.5631,256.026 93.6374,256.624 93.6512,257.269 C93.7267,260.779 94.7009,265.043 92.48,268.284 C92.0569,268.901 91.5302,269.354 90.945,269.697 M87.9425,270.715 C85.691,271.19 83.489,271.449 81.7177,273.521 M95,247 C95,249.653 95.6209,251.31 96.1993,253.03 C96.7494,254.665 97.2094,256.234 96.5171,258.024 C96.2329,258.759 95.8001,259.387 95.2781,259.932 M92.4559,261.956 C90.4606,263.046 88.4041,263.837 87.2323,265.481 C86.2661,266.836 86.2633,268.17 86.1307,269.798 M85.6121,272.63 C85.3079,273.536 84.8131,274.499 83.9916,275.462 M99,247 C98.9771,249.47 98.2585,251.072 97.412,252.097 M94.9923,253.953 C93.5922,254.71 92.3635,255.216 91.7406,256.766 C91.1757,258.172 91.0771,259.647 91.0662,261.226 M91.0624,264.188 C91.0376,265.251 90.9575,266.319 90.7308,267.349 C90.3362,269.142 90.4122,270.449 90.1304,272.021 C89.8615,273.521 89.1847,275.512 87.0234,278.049 M93,247 C93.0117,249.168 93.2113,250.59 93.5401,252.018 M94.281,254.965 C94.4567,255.754 94.5923,256.591 94.6065,257.521 C94.6615,261.107 95.6089,265.443 93.3546,268.751 C92.708,269.7 91.8308,270.271 90.866,270.656 M87.7991,271.47 C85.8579,271.887 84.0221,272.358 82.4757,274.168 M84.7495,276.109 C85.8696,274.796 86.3989,273.489 86.6712,272.306 M87.0207,269.623 C87.1344,268.278 87.2743,267.124 88.1069,265.948 C89.1187,264.518 90.7505,263.715 92.4543,262.813 M95.3489,261.025 C96.2617,260.298 97.0356,259.413 97.4724,258.276 C98.1754,256.446 97.7221,254.845 97.1788,253.175 C96.607,251.416 95.9932,249.723 96,247 M85.5075,276.755 C85.0182,277.329 84.488,277.762 83.9403,278.084 M80.239,278.968 C77.9133,278.982 75.819,278.421 74.013,279.469 C72.2943,280.467 71.1775,282.128 69.9274,283.858 M67.7799,286.512 C67.5748,286.722 67.3633,286.924 67.1444,287.116 C65.8196,288.277 65.1365,289.344 64.0175,290.397 C62.9569,291.395 61.2722,292.547 58.1329,293.172 M80.9598,272.874 C79.0933,275.057 78.4072,276.566 77.6721,278.303 M76.2918,281.154 C76.1505,281.382 75.9972,281.611 75.829,281.841 C73.769,284.651 72.0606,288.598 68.3945,289.81 C68.1241,289.899 67.8558,289.96 67.5902,289.995 M64.2568,289.37 C61.876,288.342 59.9091,286.78 56.9805,287.353 M83.2336,274.815 C81.5568,276.779 80.9997,278.473 80.4075,280.145 C79.8382,281.751 79.2613,283.247 77.6449,284.212 C77.394,284.362 77.1353,284.487 76.8708,284.591 M73.1063,284.938 C70.5103,284.657 68.0547,283.737 65.8944,284.421 C64.1088,284.986 63.3652,286.298 62.043,287.697 M59.3547,289.689 C58.8278,289.93 58.2314,290.129 57.5567,290.263 M86.2654,277.402 C85.238,278.608 84.1594,279.283 83.1352,279.636 M79.8876,279.95 C77.9171,279.785 76.2653,279.299 74.6184,280.26 C73.0916,281.15 72.0273,282.534 70.9239,284.035 M69.0513,286.483 C68.5879,287.031 68.0961,287.551 67.5611,288.014 C66.2018,289.19 65.4971,290.265 64.3487,291.328 C63.2607,292.335 61.5343,293.501 58.325,294.142 M81.7177,273.521 C80.0804,275.437 79.3198,276.839 78.6396,278.357 M77.4044,281.071 C77.1342,281.587 76.8219,282.109 76.4343,282.631 C74.3181,285.484 72.5477,289.465 68.8111,290.708 C68.1009,290.944 67.4071,290.988 66.7343,290.907 M63.7356,289.908 C61.6572,288.922 59.7981,287.808 57.1726,288.323 M83.9916,275.462 C82.2796,277.468 81.7004,279.182 81.0847,280.876 C80.4934,282.503 79.8955,284.016 78.2502,285.003 C77.5748,285.408 76.8471,285.639 76.0987,285.752 M72.6113,285.644 C70.3493,285.304 68.231,284.706 66.311,285.319 C64.732,285.823 63.9363,286.884 62.8558,288.091 M60.7427,290.008 C59.9561,290.535 58.98,290.989 57.7488,291.232 M87.0234,278.049 C85.4565,279.888 83.9205,280.659 82.6146,280.918 M79.559,280.84 C77.9858,280.557 76.6844,280.194 75.2237,281.05 C73.8975,281.828 72.9106,282.956 71.9425,284.215 M70.1458,286.587 C69.4848,287.423 68.7789,288.227 67.9778,288.912 C66.5841,290.103 65.8577,291.186 64.6798,292.259 C63.5646,293.275 61.7964,294.456 58.5171,295.112 M82.4757,274.168 C81.065,275.819 80.2842,277.09 79.6395,278.404 M78.3651,281.193 C78.0114,281.927 77.6007,282.674 77.0396,283.422 C74.8673,286.316 73.0348,290.332 69.2278,291.606 C68.1383,291.971 67.0923,291.896 66.0916,291.621 M63.1666,290.418 C61.3738,289.574 59.6654,288.84 57.3647,289.293 M57.9409,292.202 C59.6259,291.868 60.8421,291.161 61.7712,290.396 M63.6637,288.488 C64.5604,287.492 65.3603,286.657 66.7277,286.217 C68.3921,285.682 70.1792,286.017 72.091,286.328 M75.4903,286.665 C76.661,286.645 77.8154,286.419 78.8555,285.793 C80.5297,284.785 81.1487,283.254 81.7619,281.607 C82.4012,279.891 83.0024,278.157 84.7495,276.109 M58.1329,293.172 C57.3936,293.319 56.7087,293.329 56.0804,293.238 M52.6611,291.596 C51.691,290.8 50.8674,289.88 50,289.152 C49.2882,288.565 48.5556,288.118 47.6568,287.944 C45.7565,287.576 43.8539,288.063 41.7861,288.489 M38.4331,288.972 C38.1413,288.985 37.8499,288.988 37.56,288.979 C35.805,288.921 34.576,289.229 33.0377,289.233 C31.5696,289.237 29.5705,288.927 26.8303,287.267 M56.9805,287.353 C54.2053,287.896 52.8144,288.58 51.1298,289.438 M48.2536,290.706 C47.9987,290.787 47.7341,290.859 47.458,290.921 C44.0861,291.678 40.1467,293.411 36.6334,291.794 C36.3748,291.675 36.1375,291.536 35.9193,291.381 M33.9154,288.647 C32.888,286.282 32.5073,283.752 29.9233,282.174 M57.5567,290.263 C53.9467,290.976 52.236,292.812 50,293.643 C49.1684,293.945 48.2748,294.086 47.2592,293.897 C46.9694,293.844 46.6905,293.766 46.4222,293.668 M43.3862,291.418 C41.6627,289.473 40.5096,287.139 38.4867,286.163 C36.808,285.353 35.3727,285.793 33.4426,285.906 M30.1003,285.523 C29.5466,285.34 28.969,285.081 28.3768,284.721 M58.325,294.142 C56.7666,294.453 55.494,294.308 54.4735,293.94 M51.7647,292.124 C51.1308,291.498 50.5822,290.842 50,290.284 C49.3078,289.627 48.583,289.127 47.5905,288.936 C45.8881,288.609 44.2014,288.928 42.392,289.29 M39.3775,289.816 C38.6687,289.901 37.9566,289.945 37.2512,289.917 C35.4587,289.847 34.2081,290.147 32.6418,290.14 C31.1481,290.133 29.1098,289.807 26.3148,288.116 M57.1726,288.323 C54.7337,288.802 53.3229,289.375 51.8284,290.104 M49.1448,291.371 C48.6043,291.587 48.0268,291.776 47.3917,291.913 C43.9339,292.658 39.9147,294.374 36.3245,292.733 C35.6434,292.421 35.107,291.98 34.6707,291.462 M33.1665,288.683 C32.327,286.549 31.7209,284.433 29.4078,283.023 M57.7488,291.233 C54.0504,291.965 52.2913,293.806 50,294.643 C49.1479,294.943 48.2329,295.081 47.1929,294.889 C46.4084,294.745 45.7032,294.433 45.0665,294.017 M42.5484,291.605 C41.1132,289.837 39.9835,287.965 38.1778,287.102 C36.6888,286.389 35.3869,286.613 33.7678,286.753 M30.9053,286.707 C29.9662,286.555 28.9393,286.224 27.8613,285.569 M58.5171,295.112 C56.1312,295.589 54.4297,295.226 53.2488,294.603 M50.9384,292.595 C50.6134,292.204 50.3128,291.818 50,291.464 C49.3354,290.715 48.6363,290.14 47.5242,289.928 C46.0337,289.644 44.5658,289.827 43.0154,290.105 M40.1053,290.634 C39.0569,290.797 37.994,290.903 36.9423,290.856 C35.1124,290.774 33.8403,291.065 32.246,291.047 C30.7267,291.029 28.649,290.687 25.7993,288.965 M57.3647,289.293 C55.258,289.708 53.893,290.182 52.5598,290.781 M49.795,292.091 C49.0465,292.419 48.2432,292.715 47.3254,292.905 C43.7818,293.639 39.6826,295.336 36.0157,293.671 C34.968,293.195 34.2551,292.428 33.7131,291.544 M32.4014,288.666 C31.6712,286.828 30.9151,285.103 28.8923,283.872 M27.3458,286.418 C28.8174,287.311 30.1892,287.62 31.3954,287.695 M34.0863,287.597 C35.4243,287.485 36.5756,287.427 37.8689,288.04 C39.4405,288.786 40.5107,290.242 41.7052,291.757 M43.9981,294.286 C44.8864,295.055 45.9119,295.659 47.1266,295.882 C48.191,296.076 49.1274,295.941 50,295.643 C52.3465,294.8 54.1542,292.954 57.9409,292.202 M26.8303,287.267 C26.1866,286.877 25.6754,286.424 25.2714,285.935 M23.8148,282.428 C23.4357,280.137 23.662,277.977 22.3435,276.354 C21.0868,274.806 19.2654,273.959 17.3474,272.995 M14.3654,271.294 C14.1234,271.125 13.8882,270.948 13.6617,270.763 C12.2907,269.641 11.1188,269.144 9.88685,268.219 C8.71434,267.338 7.29881,265.882 6.12512,262.909 M29.9233,282.174 C27.4829,280.684 25.9015,280.245 24.0677,279.79 M21.0371,278.873 C20.7892,278.769 20.5385,278.653 20.2851,278.523 C17.1813,276.928 12.9998,275.866 11.1994,272.448 C11.0664,272.195 10.9623,271.94 10.8832,271.683 M10.9432,268.28 C11.5538,265.755 12.7544,263.522 11.6419,260.726 M28.3768,284.72 C26.1767,283.383 24.4263,283.101 22.6805,282.779 C21.0056,282.47 19.4364,282.136 18.2267,280.693 C18.0389,280.468 17.8741,280.233 17.73,279.988 M16.7881,276.319 C16.6527,273.706 17.1653,271.115 16.1241,269.079 C15.2642,267.397 13.8297,266.871 12.2168,265.802 M9.77315,263.488 C9.44156,263.011 9.13739,262.458 8.8835,261.817 M26.3148,288.116 C24.9615,287.297 24.1231,286.341 23.6128,285.388 M22.7911,282.235 C22.6435,280.266 22.8655,278.556 21.6574,277.077 C20.5363,275.704 18.9989,274.866 17.3328,274.012 M14.6027,272.55 C13.9842,272.18 13.3882,271.778 12.841,271.325 C11.4505,270.173 10.2679,269.657 9.02229,268.706 C7.83762,267.801 6.40262,266.308 5.20567,263.273 M29.4078,283.023 C27.2648,281.716 25.7734,281.188 24.1665,280.754 M21.2934,279.96 C20.7414,279.774 20.1767,279.547 19.599,279.246 C16.4447,277.604 12.219,276.488 10.3786,273.009 C10.0282,272.347 9.87101,271.669 9.83838,270.99 M10.3222,267.856 C10.9411,265.635 11.7169,263.592 10.7224,261.09 M27.8613,285.569 C25.6122,284.203 23.8377,283.903 22.0653,283.562 C20.3667,283.235 18.7762,282.884 17.5406,281.416 C17.0332,280.813 16.6891,280.131 16.4591,279.409 M16.0102,275.942 C15.985,273.649 16.2324,271.447 15.3033,269.64 C14.5396,268.155 13.3489,267.539 11.9684,266.675 M9.70417,264.915 C9.04577,264.23 8.42617,263.349 7.96404,262.181 M25.7993,288.965 C23.733,287.716 22.7276,286.323 22.2655,285.077 M21.8607,282.051 C21.8921,280.454 22.0476,279.11 20.9712,277.8 C19.9934,276.609 18.7208,275.809 17.3182,275.051 M14.678,273.652 C13.7426,273.133 12.8305,272.565 12.0202,271.886 C10.6103,270.704 9.41696,270.17 8.15771,269.192 C6.96091,268.263 5.50642,266.734 4.2862,263.637 M28.8923,283.872 C27.0441,282.746 25.6753,282.178 24.2766,281.748 M21.3243,280.928 C20.5434,280.694 19.7406,280.406 18.9129,279.969 C15.7082,278.28 11.4382,277.111 9.55781,273.571 C9.01885,272.556 8.92018,271.511 9.02522,270.477 M9.72041,267.381 C10.2471,265.466 10.6717,263.643 9.80295,261.454 M7.04458,262.545 C7.67546,264.141 8.58342,265.214 9.50169,265.999 M11.7146,267.543 C12.8534,268.261 13.8187,268.917 14.4825,270.202 C15.2909,271.766 15.2505,273.594 15.249,275.537 M15.4591,278.953 C15.6645,280.107 16.0704,281.211 16.8545,282.139 C18.116,283.631 19.7278,284 21.4502,284.345 C23.2491,284.706 25.0476,285.024 27.3458,286.418 M6.12512,262.909 C5.84916,262.21 5.71747,261.541 5.69251,260.909 M6.66786,257.261 C7.76721,255.229 9.26426,253.713 9.27363,251.672 C9.28102,250.059 8.71519,248.588 8.05549,247 C7.91288,246.67 7.76941,246.342 7.6261,246.005 M6.49806,242.795 C6.42971,242.51 6.37198,242.224 6.3272,241.937 C6.05608,240.2 5.53193,239.047 5.25638,237.535 C4.9938,236.093 4.95062,234.065 6.12517,231.091 M11.6419,260.726 C10.5941,258.092 9.63098,256.827 8.47544,255.358 M6.68981,252.798 C6.5628,252.565 6.44123,252.321 6.32718,252.063 C5.60971,250.441 4.6311,248.793 3.94456,247 C3.28028,245.241 2.91941,243.373 3.38075,241.546 C3.4509,241.268 3.54464,241.008 3.65804,240.764 M5.9881,238.293 C8.13626,236.857 10.533,236.061 11.6419,233.274 M8.88349,261.817 C7.94084,259.439 6.73705,258.166 5.56523,256.845 C4.44494,255.583 3.41947,254.34 3.38074,252.454 C3.37472,252.161 3.39435,251.873 3.43624,251.591 M5.04041,248.16 C5.3431,247.761 5.66798,247.376 5.99995,247 C7.38553,245.421 8.81059,244.076 9.27364,242.328 C9.74797,240.537 9.05009,239.219 8.59485,237.346 M8.38827,234.007 C8.4732,233.433 8.62963,232.823 8.88354,232.182 M5.20566,263.273 C4.62554,261.802 4.53999,260.533 4.71441,259.469 M5.98327,256.487 C7.07326,254.85 8.29175,253.677 8.29148,251.802 C8.29124,250.146 7.71956,248.632 7.05549,247 C7.04682,246.979 6.96319,246.78 6.95452,246.759 M5.8453,243.884 C5.62605,243.201 5.44883,242.507 5.34505,241.807 C5.08139,240.027 4.56266,238.851 4.29499,237.307 C4.04009,235.836 4.00771,233.764 5.20571,230.727 M10.7224,261.09 C9.80301,258.776 8.95639,257.48 7.9631,256.167 M6.21375,253.796 C5.90054,253.312 5.60352,252.786 5.34503,252.193 C4.62004,250.529 3.63556,248.838 2.94456,247 C2.28464,245.197 1.92963,243.286 2.3986,241.416 C2.58225,240.684 2.92153,240.071 3.35319,239.546 M5.8198,237.564 C7.7714,236.358 9.73031,235.407 10.7225,232.91 M7.96404,262.181 C7.00022,259.746 5.78821,258.44 4.60636,257.083 C3.47754,255.788 2.445,254.513 2.39859,252.584 C2.37951,251.791 2.54002,251.04 2.81778,250.331 M4.68929,247.368 C4.79185,247.244 4.89555,247.122 4.99995,247 C6.39,245.379 7.81958,243.995 8.29149,242.198 C8.70899,240.607 8.24909,239.376 7.82235,237.813 M7.36443,234.998 C7.35144,234.051 7.50193,232.986 7.96408,231.819 M4.2862,263.637 C3.40034,261.389 3.45026,259.666 3.84271,258.4 M5.36876,255.773 C6.37373,254.541 7.31708,253.604 7.30933,251.933 C7.30229,250.415 6.84212,249.015 6.26661,247.535 M5.17644,244.759 C4.81396,243.753 4.51021,242.724 4.3629,241.676 C4.10669,239.855 3.59339,238.654 3.3336,237.079 C3.08637,235.579 3.0648,233.463 4.28625,230.363 M9.80295,261.454 C9.0103,259.456 8.27861,258.194 7.44346,257.009 M5.64025,254.567 C5.17706,253.905 4.73109,253.181 4.36288,252.323 C3.63038,250.617 2.64001,248.883 1.94456,247 C1.289,245.153 0.939858,243.199 1.41646,241.286 C1.69729,240.158 2.32811,239.311 3.10192,238.616 M5.70125,236.809 C7.38148,235.765 8.93559,234.732 9.80299,232.546 M7.04462,231.455 C6.41369,233.051 6.34371,234.453 6.47963,235.65 M7.05031,238.274 C7.40014,239.568 7.66934,240.684 7.30934,242.067 C6.8713,243.75 5.64534,245.077 4.37266,246.561 M2.33465,249.333 C1.76046,250.362 1.38278,251.488 1.41644,252.714 C1.47053,254.686 2.51014,255.992 3.64748,257.321 C4.83939,258.714 6.05958,260.053 7.04458,262.545 M6.12517,231.091 C6.40113,230.392 6.76214,229.813 7.17543,229.335 M10.3842,227.33 C12.5736,226.588 14.7336,226.47 16.1242,224.921 C17.4507,223.444 18.0031,221.52 18.6564,219.473 M19.8709,216.257 C20,215.991 20.1376,215.73 20.2852,215.477 C21.1789,213.942 21.4836,212.701 22.2002,211.331 C22.884,210.024 24.09,208.393 26.8304,206.733 M11.6419,233.274 C12.6918,230.636 12.8635,229.038 13.0171,227.156 M13.4364,224.032 C13.4994,223.772 13.5735,223.507 13.6618,223.237 C14.7413,219.934 15.1395,215.628 18.2268,213.307 C18.4553,213.136 18.691,212.992 18.9322,212.873 M22.3102,212.387 C24.9043,212.584 27.3309,213.409 29.9234,211.826 M8.88354,232.182 C9.82793,229.799 9.82031,228.045 9.85594,226.271 C9.89002,224.575 9.96935,222.974 11.1995,221.552 C11.3906,221.331 11.5968,221.132 11.8154,220.951 M15.2847,219.443 C17.8394,218.899 20.4891,218.999 22.3436,217.646 C23.8768,216.528 24.1736,215.02 24.9738,213.247 M26.8691,210.442 C27.2879,210.034 27.7847,209.64 28.3769,209.279 M5.20571,230.727 C5.78577,229.256 6.58894,228.272 7.44243,227.613 M10.4081,226.293 C12.3208,225.831 14.0374,225.78 15.3034,224.36 C16.4786,223.042 17.065,221.398 17.6486,219.618 M18.6651,216.691 C18.9338,216.021 19.2374,215.367 19.5991,214.754 C20.5182,213.195 20.8392,211.94 21.578,210.553 C22.2825,209.231 23.52,207.575 26.315,205.884 M10.7225,232.91 C11.6435,230.592 11.9176,229.06 12.086,227.406 M12.4071,224.456 C12.5024,223.884 12.636,223.292 12.841,222.675 C13.9588,219.313 14.4015,214.954 17.5407,212.584 C18.1393,212.132 18.7842,211.869 19.4498,211.728 M22.6297,211.704 C24.9262,211.957 27.0894,212.391 29.4079,210.977 M7.96408,231.819 C8.92947,229.379 8.93641,227.597 8.9871,225.793 C9.03554,224.069 9.12878,222.443 10.3787,220.991 C10.8921,220.394 11.5098,219.946 12.185,219.605 M15.5347,218.616 C17.793,218.23 20.0134,218.129 21.6575,216.923 C23.0099,215.931 23.4332,214.651 24.0671,213.143 M25.4428,210.611 C26.0138,209.845 26.7833,209.085 27.8614,208.431 M4.28625,230.363 C5.17173,228.116 6.38067,226.894 7.52981,226.236 M10.4401,225.348 C12.0157,225.123 13.362,225.063 14.4826,223.798 C15.501,222.649 16.0908,221.271 16.6202,219.767 M17.5875,216.939 C17.9533,215.933 18.3701,214.94 18.9129,214.031 C19.8575,212.447 20.1947,211.18 20.9558,209.776 C21.681,208.437 22.9501,206.758 25.7995,205.035 M9.80299,232.546 C10.5968,230.546 10.9298,229.12 11.127,227.674 M11.4594,224.641 C11.565,223.835 11.7212,222.999 12.0202,222.114 C13.1764,218.693 13.6634,214.28 16.8546,211.861 C17.7707,211.167 18.7865,210.902 19.8268,210.841 M23.0022,211.031 C24.9828,211.241 26.8664,211.362 28.8924,210.128 M27.3459,207.582 C25.874,208.475 24.9636,209.549 24.3358,210.588 M23.1652,213.032 C22.6365,214.277 22.1392,215.339 20.9713,216.2 C19.55,217.248 17.7327,217.496 15.8151,217.8 M12.4766,218.546 C11.3709,218.931 10.3472,219.507 9.55789,220.429 C8.28823,221.912 8.18107,223.563 8.11827,225.314 C8.05248,227.149 8.03103,228.959 7.04462,231.455 M26.8304,206.733 C27.4742,206.343 28.1124,206.1 28.7318,205.968 M32.5033,206.3 C34.7011,207.025 36.4705,208.221 38.4868,207.837 C40.4034,207.472 41.9752,206.307 43.7272,205.13 M46.6491,203.414 C46.915,203.292 47.1847,203.18 47.4581,203.079 C48.4721,202.708 49.2073,202.319 50,201.909 C51.6249,201.07 53.7821,199.962 58.1331,200.828 M29.9234,211.826 C32.3589,210.339 33.4636,209.141 34.7029,207.742 M36.9045,205.514 C37.1105,205.346 37.3282,205.181 37.5601,205.021 C40.377,203.081 43.364,199.934 47.2593,200.103 C47.5468,200.115 47.822,200.155 48.0856,200.217 M50.9927,202.031 C52.8431,203.89 54.0512,206.074 56.9806,206.647 M28.3769,209.279 C30.5728,207.944 31.6282,206.523 32.7182,205.139 C33.7648,203.81 34.7955,202.586 36.6335,202.206 C36.9189,202.147 37.2035,202.114 37.4864,202.103 M41.1321,203.029 C43.46,204.167 45.4311,205.893 47.6569,206.056 C48.5434,206.121 49.2711,205.944 50,205.643 C50.7776,205.306 51.542,204.836 52.4287,204.425 M55.6745,203.585 C56.2541,203.562 56.882,203.604 57.5568,203.737 M26.315,205.884 C27.6682,205.065 28.9039,204.766 29.9834,204.756 M33.1454,205.488 C34.9506,206.271 36.3322,207.255 38.1779,206.898 C39.8866,206.568 41.3249,205.639 42.8617,204.618 M45.4524,202.987 C46.0777,202.639 46.7234,202.328 47.3918,202.087 C48.4329,201.712 49.1865,201.321 50,200.909 C51.6645,200.075 53.8773,198.97 58.3251,199.858 M29.4079,210.977 C31.5473,209.673 32.6945,208.594 33.8129,207.383 M35.8362,205.23 C36.2555,204.834 36.7174,204.446 37.2513,204.083 C40.1423,202.118 43.2087,198.955 47.193,199.111 C47.9511,199.14 48.6242,199.348 49.2312,199.668 M51.6828,201.724 C53.2594,203.43 54.5467,205.162 57.1727,205.677 M27.8614,208.431 C30.1066,207.067 31.1917,205.634 32.3136,204.236 C33.3898,202.894 34.4486,201.659 36.3247,201.267 C37.095,201.106 37.8576,201.127 38.5991,201.268 M41.8346,202.536 C43.8327,203.622 45.5994,204.929 47.5906,205.064 C48.5018,205.125 49.2503,204.945 50,204.643 C50.5989,204.392 51.1805,204.072 51.8215,203.753 M54.5094,202.762 C55.4403,202.571 56.517,202.523 57.7489,202.768 M25.7995,205.035 C27.8658,203.786 29.5675,203.543 30.8832,203.712 M33.7388,204.755 C35.1305,205.525 36.227,206.282 37.869,205.96 C39.3585,205.668 40.646,204.946 41.9742,204.1 M44.4662,202.504 C45.3758,201.954 46.3244,201.45 47.3255,201.095 C48.3937,200.716 49.1656,200.323 50,199.909 C51.7041,199.08 53.9726,197.979 58.5172,198.888 M28.8924,210.128 C30.7382,209.004 31.868,208.053 32.8889,207.02 M34.9741,204.806 C35.5422,204.231 36.1706,203.662 36.9424,203.144 C39.9076,201.155 43.0533,197.975 47.1267,198.118 C48.2451,198.158 49.1796,198.568 50,199.152 C50.0359,199.178 50.0717,199.204 50.1072,199.231 M52.4074,201.462 C53.7652,202.929 55.0635,204.254 57.3648,204.707 M57.941,201.798 C56.2544,201.463 54.857,201.652 53.7004,202.012 M51.2174,203.08 C50.8035,203.285 50.4046,203.479 50,203.643 C49.2296,203.948 48.4601,204.13 47.5244,204.072 C45.788,203.964 44.2378,203.019 42.5561,202.074 M39.4791,200.614 C38.3707,200.244 37.2054,200.078 36.0158,200.329 C34.1016,200.733 33.0147,201.978 31.909,203.332 C30.755,204.745 29.6404,206.19 27.3459,207.582 M58.1331,200.828 C58.8723,200.975 59.5074,201.228 60.0517,201.551 M62.582,204.355 C63.6862,206.379 64.1541,208.471 65.8945,209.579 C67.5537,210.635 69.5235,210.867 71.6389,211.185 M74.9947,211.874 C75.2772,211.959 75.5559,212.054 75.8291,212.159 C77.483,212.8 78.7562,212.906 80.2232,213.398 C81.6247,213.868 83.424,214.801 85.5076,217.245 M56.9806,206.647 C59.7559,207.19 61.3174,207.08 63.1982,206.908 M66.3275,206.795 C66.5931,206.813 66.8652,206.842 67.1445,206.885 C70.5551,207.4 74.8683,207.111 77.645,209.788 C77.8506,209.986 78.0296,210.196 78.1852,210.415 M79.1966,213.673 C79.4098,216.262 78.9754,218.805 80.9598,221.126 M57.5568,203.737 C60.0685,204.233 61.7784,203.923 63.5308,203.656 C65.2016,203.402 66.793,203.214 68.3946,204.19 C68.6434,204.342 68.874,204.512 69.0879,204.697 M71.1333,207.863 C72.0768,210.287 72.3938,212.915 74.0131,214.531 C75.3547,215.87 76.8867,215.928 78.7662,216.442 M81.8411,217.876 C82.3122,218.227 82.7818,218.656 83.2337,219.185 M58.3251,199.858 C59.8824,200.169 60.9968,200.79 61.794,201.515 M63.604,204.202 C64.3836,206.003 64.7149,207.673 66.3111,208.681 C67.7921,209.616 69.4954,209.926 71.3372,210.217 M74.3782,210.753 C75.0804,210.912 75.7723,211.109 76.4344,211.369 C78.1167,212.03 79.4061,212.15 80.8938,212.661 C82.3142,213.148 84.1431,214.107 86.2655,216.598 M57.1727,205.677 C59.6124,206.156 61.1404,206.157 62.7964,206.038 M65.7416,205.855 C66.3191,205.853 66.9221,205.886 67.5612,205.986 C71.04,206.531 75.4152,206.278 78.2503,208.997 C78.7912,209.516 79.1534,210.111 79.3974,210.745 M79.9225,213.881 C80.0338,216.188 79.9449,218.405 81.7178,220.479 M57.7489,202.768 C60.3235,203.277 62.0655,202.978 63.8526,202.722 C65.5549,202.478 67.1745,202.301 68.8112,203.292 C69.4837,203.699 70.0261,204.234 70.4722,204.842 M71.9871,207.977 C72.7268,210.136 73.1745,212.308 74.6184,213.74 C75.8078,214.92 77.1352,215.139 78.7262,215.529 M81.4475,216.491 C82.2959,216.935 83.1701,217.576 83.9917,218.538 M58.5172,198.888 C60.8993,199.365 62.3193,200.349 63.1651,201.365 M64.537,204.073 C65.025,205.583 65.3051,206.891 66.7278,207.783 C68.0203,208.593 69.4657,208.949 71.0281,209.229 M73.9636,209.731 C75.0124,209.932 76.0566,210.186 77.0397,210.578 C78.7505,211.261 80.0559,211.394 81.5645,211.923 C83.0037,212.428 84.8621,213.414 87.0235,215.951 M57.3648,204.707 C59.4724,205.122 60.9146,205.199 62.3715,205.143 M65.4029,204.955 C66.2112,204.924 67.0591,204.939 67.9779,205.088 C71.5249,205.662 75.962,205.445 78.8556,208.207 C79.6868,209 80.1083,209.96 80.3334,210.977 M80.6466,214.143 C80.7508,216.132 80.9283,218.021 82.4757,219.832 M84.7496,217.892 C83.6295,216.578 82.4217,215.849 81.2945,215.392 M78.6937,214.62 C77.3805,214.292 76.2559,213.967 75.2238,212.95 C73.9686,211.713 73.4394,209.961 72.8344,208.123 M71.5624,204.958 C71.0032,203.933 70.2674,203.02 69.2279,202.394 C67.556,201.387 65.9082,201.554 64.1745,201.787 C62.3526,202.033 60.5786,202.321 57.941,201.798 M85.5076,217.245 C85.9969,217.819 86.3403,218.411 86.5712,219.002 M86.8592,222.791 C86.5049,225.086 85.6213,227.05 86.3577,228.987 C87.0578,230.828 88.5003,232.187 89.9834,233.7 M92.2151,236.254 C92.3852,236.492 92.5463,236.734 92.696,236.982 C93.6023,238.485 94.5274,239.348 95.3607,240.645 C96.1468,241.868 96.9843,243.759 97,247 M80.9598,221.126 C82.8248,223.306 84.206,224.216 85.7984,225.212 M88.3811,227.02 C88.5828,227.196 88.7833,227.383 88.9816,227.585 C91.4041,230.054 95.0067,232.401 95.5619,236.228 C95.6028,236.51 95.6154,236.785 95.6038,237.052 M94.3936,240.221 C92.9475,242.378 91.034,244.013 91,247 M83.2337,219.185 C84.9092,221.148 86.4941,221.963 88.0448,222.811 C89.5364,223.627 90.9166,224.436 91.6055,226.184 C91.7124,226.455 91.7937,226.73 91.8526,227.007 M91.5779,230.764 C90.8706,233.266 89.5484,235.513 89.8301,237.737 C90.0638,239.583 91.2065,240.531 92.3366,242.091 M93.7853,245.111 C93.9206,245.677 94.0018,246.306 94,247 M86.2655,216.598 C87.2929,217.803 87.7889,218.975 87.975,220.042 M87.7704,223.292 C87.2959,225.208 86.5552,226.75 87.2324,228.52 C87.8595,230.158 89.0399,231.423 90.3264,232.754 M92.4083,235.003 C92.8657,235.551 93.2905,236.124 93.6513,236.731 C94.568,238.272 95.4984,239.16 96.3382,240.49 C97.13,241.743 97.9764,243.682 98,247 M81.7178,220.479 C83.3541,222.393 84.6182,223.361 86.0043,224.269 M88.4788,225.914 C88.9427,226.262 89.4054,226.653 89.8562,227.118 C92.3115,229.652 95.9402,232.069 96.5172,235.976 C96.6268,236.718 96.5481,237.41 96.3506,238.059 M94.8278,240.833 C93.4767,242.699 92.0223,244.316 92,247 M83.9917,218.538 C85.7024,220.543 87.3032,221.385 88.8723,222.26 C90.38,223.101 91.7744,223.935 92.4801,225.716 C92.7697,226.448 92.8795,227.202 92.8682,227.957 M92.1883,231.367 C91.4769,233.531 90.5276,235.504 90.7854,237.486 C90.9979,239.12 91.8887,240.081 92.877,241.365 M94.3681,243.802 C94.7375,244.677 95,245.731 95,247 M87.0235,215.951 C88.5903,217.79 89.1073,219.43 89.1559,220.759 M88.5947,223.757 C88.0662,225.262 87.5017,226.481 88.107,228.052 C88.6561,229.478 89.6008,230.628 90.6742,231.785 M92.6984,233.947 C93.4057,234.738 94.0736,235.571 94.6066,236.479 C95.5338,238.06 96.4695,238.972 97.3157,240.334 C98.1133,241.619 98.9686,243.604 99,247 M82.4757,219.832 C83.8856,221.482 85.0176,222.451 86.209,223.292 M88.752,224.989 C89.4178,225.454 90.0867,225.978 90.7308,226.651 C93.2189,229.25 96.8738,231.738 97.4725,235.724 C97.6437,236.865 97.3877,237.885 96.9394,238.823 M95.2258,241.488 C94.064,243.099 93.0127,244.641 93,247 M96,247 C95.9957,245.261 95.5242,243.919 94.9445,242.86 M93.4173,240.644 C92.6018,239.58 91.9297,238.651 91.7407,237.234 C91.511,235.512 92.1465,233.818 92.7731,231.993 M93.6659,228.707 C93.8382,227.552 93.8035,226.377 93.3547,225.249 C92.6323,223.434 91.2236,222.576 89.6998,221.709 C88.1123,220.806 86.4955,219.938 84.7496,217.892 "/>
  </g>
  <g font-weight="400" opacity="0.953273" stroke-linecap="round" stroke="#f10000" fill="none" font-size="35.2778" font-style="normal" transform="matrix(10.0206,0,0,10.0206,983.968,-1525.1)" stroke-width="0.2" stroke-linejoin="round" stroke-opacity="1" font-family="Noto Sans">
   <path fill-rule="nonzero" vector-effect="none" d="M97,247 C96.9963,247.765 96.8658,248.446 96.6496,249.048 M94.3557,252.079 C92.5622,253.546 90.6045,254.369 89.83,256.263 C89.0939,258.063 89.2077,260.025 89.2497,262.148 M89.127,265.55 C89.0891,265.841 89.0413,266.13 88.9815,266.415 C88.6199,268.142 88.7175,269.411 88.4658,270.935 C88.2253,272.39 87.5908,274.312 85.5075,276.755 M91,247 C91.0324,249.847 91.4346,251.327 91.9578,253.153 M92.6393,256.201 C92.6683,256.464 92.6881,256.736 92.6959,257.018 C92.7918,260.45 93.7929,264.644 91.6054,267.817 C91.4437,268.051 91.2661,268.261 91.0756,268.45 M88.0321,269.968 C85.5196,270.588 82.9416,270.557 80.9598,272.874 M94,247 C94.0068,249.583 94.6349,251.204 95.2199,252.885 C95.7766,254.484 96.2435,256.022 95.5618,257.773 C95.456,258.044 95.3288,258.301 95.1835,258.544 M92.4236,261.099 C90.2041,262.435 87.681,263.171 86.3577,265.013 C85.2596,266.542 85.4472,268.049 85.2375,269.981 M84.3072,273.235 C84.0358,273.755 83.6856,274.286 83.2336,274.815 M98,247 C97.9885,248.613 97.5799,249.841 97.0121,250.768 M94.6958,253.058 C93.0621,254.159 91.4898,254.776 90.7853,256.515 C90.1332,258.124 90.1245,259.841 90.1492,261.693 M90.1266,264.763 C90.0855,265.478 90.005,266.19 89.8562,266.882 C89.478,268.642 89.5649,269.93 89.2981,271.478 C89.0434,272.955 88.3877,274.912 86.2654,277.402 M92,247 C92.0208,249.505 92.3103,250.988 92.7387,252.6 M93.4576,255.459 C93.5631,256.026 93.6374,256.624 93.6512,257.269 C93.7267,260.779 94.7009,265.043 92.48,268.284 C92.0569,268.901 91.5302,269.354 90.945,269.697 M87.9425,270.715 C85.691,271.19 83.489,271.449 81.7177,273.521 M95,247 C95,249.653 95.6209,251.31 96.1993,253.03 C96.7494,254.665 97.2094,256.234 96.5171,258.024 C96.2329,258.759 95.8001,259.387 95.2781,259.932 M92.4559,261.956 C90.4606,263.046 88.4041,263.837 87.2323,265.481 C86.2661,266.836 86.2633,268.17 86.1307,269.798 M85.6121,272.63 C85.3079,273.536 84.8131,274.499 83.9916,275.462 M99,247 C98.9771,249.47 98.2585,251.072 97.412,252.097 M94.9923,253.953 C93.5922,254.71 92.3635,255.216 91.7406,256.766 C91.1757,258.172 91.0771,259.647 91.0662,261.226 M91.0624,264.188 C91.0376,265.251 90.9575,266.319 90.7308,267.349 C90.3362,269.142 90.4122,270.449 90.1304,272.021 C89.8615,273.521 89.1847,275.512 87.0234,278.049 M93,247 C93.0117,249.168 93.2113,250.59 93.5401,252.018 M94.281,254.965 C94.4567,255.754 94.5923,256.591 94.6065,257.521 C94.6615,261.107 95.6089,265.443 93.3546,268.751 C92.708,269.7 91.8308,270.271 90.866,270.656 M87.7991,271.47 C85.8579,271.887 84.0221,272.358 82.4757,274.168 M84.7495,276.109 C85.8696,274.796 86.3989,273.489 86.6712,272.306 M87.0207,269.623 C87.1344,268.278 87.2743,267.124 88.1069,265.948 C89.1187,264.518 90.7505,263.715 92.4543,262.813 M95.3489,261.025 C96.2617,260.298 97.0356,259.413 97.4724,258.276 C98.1754,256.446 97.7221,254.845 97.1788,253.175 C96.607,251.416 95.9932,249.723 96,247 M85.5075,276.755 C85.0182,277.329 84.488,277.762 83.9403,278.084 M80.239,278.968 C77.9133,278.982 75.819,278.421 74.013,279.469 C72.2943,280.467 71.1775,282.128 69.9274,283.858 M67.7799,286.512 C67.5748,286.722 67.3633,286.924 67.1444,287.116 C65.8196,288.277 65.1365,289.344 64.0175,290.397 C62.9569,291.395 61.2722,292.547 58.1329,293.172 M80.9598,272.874 C79.0933,275.057 78.4072,276.566 77.6721,278.303 M76.2918,281.154 C76.1505,281.382 75.9972,281.611 75.829,281.841 C73.769,284.651 72.0606,288.598 68.3945,289.81 C68.1241,289.899 67.8558,289.96 67.5902,289.995 M64.2568,289.37 C61.876,288.342 59.9091,286.78 56.9805,287.353 M83.2336,274.815 C81.5568,276.779 80.9997,278.473 80.4075,280.145 C79.8382,281.751 79.2613,283.247 77.6449,284.212 C77.394,284.362 77.1353,284.487 76.8708,284.591 M73.1063,284.938 C70.5103,284.657 68.0547,283.737 65.8944,284.421 C64.1088,284.986 63.3652,286.298 62.043,287.697 M59.3547,289.689 C58.8278,289.93 58.2314,290.129 57.5567,290.263 M86.2654,277.402 C85.238,278.608 84.1594,279.283 83.1352,279.636 M79.8876,279.95 C77.9171,279.785 76.2653,279.299 74.6184,280.26 C73.0916,281.15 72.0273,282.534 70.9239,284.035 M69.0513,286.483 C68.5879,287.031 68.0961,287.551 67.5611,288.014 C66.2018,289.19 65.4971,290.265 64.3487,291.328 C63.2607,292.335 61.5343,293.501 58.325,294.142 M81.7177,273.521 C80.0804,275.437 79.3198,276.839 78.6396,278.357 M77.4044,281.071 C77.1342,281.587 76.8219,282.109 76.4343,282.631 C74.3181,285.484 72.5477,289.465 68.8111,290.708 C68.1009,290.944 67.4071,290.988 66.7343,290.907 M63.7356,289.908 C61.6572,288.922 59.7981,287.808 57.1726,288.323 M83.9916,275.462 C82.2796,277.468 81.7004,279.182 81.0847,280.876 C80.4934,282.503 79.8955,284.016 78.2502,285.003 C77.5748,285.408 76.8471,285.639 76.0987,285.752 M72.6113,285.644 C70.3493,285.304 68.231,284.706 66.311,285.319 C64.732,285.823 63.9363,286.884 62.8558,288.091 M60.7427,290.008 C59.9561,290.535 58.98,290.989 57.7488,291.232 M87.0234,278.049 C85.4565,279.888 83.9205,280.659 82.6146,280.918 M79.559,280.84 C77.9858,280.557 76.6844,280.194 75.2237,281.05 C73.8975,281.828 72.9106,282.956 71.9425,284.215 M70.1458,286.587 C69.4848,287.423 68.7789,288.227 67.9778,288.912 C66.5841,290.103 65.8577,291.186 64.6798,292.259 C63.5646,293.275 61.7964,294.456 58.5171,295.112 M82.4757,274.168 C81.065,275.819 80.2842,277.09 79.6395,278.404 M78.3651,281.193 C78.0114,281.927 77.6007,282.674 77.0396,283.422 C74.8673,286.316 73.0348,290.332 69.2278,291.606 C68.1383,291.971 67.0923,291.896 66.0916,291.621 M63.1666,290.418 C61.3738,289.574 59.6654,288.84 57.3647,289.293 M57.9409,292.202 C59.6259,291.868 60.8421,291.161 61.7712,290.396 M63.6637,288.488 C64.5604,287.492 65.3603,286.657 66.7277,286.217 C68.3921,285.682 70.1792,286.017 72.091,286.328 M75.4903,286.665 C76.661,286.645 77.8154,286.419 78.8555,285.793 C80.5297,284.785 81.1487,283.254 81.7619,281.607 C82.4012,279.891 83.0024,278.157 84.7495,276.109 M58.1329,293.172 C57.3936,293.319 56.7087,293.329 56.0804,293.238 M52.6611,291.596 C51.691,290.8 50.8674,289.88 50,289.152 C49.2882,288.565 48.5556,288.118 47.6568,287.944 C45.7565,287.576 43.8539,288.063 41.7861,288.489 M38.4331,288.972 C38.1413,288.985 37.8499,288.988 37.56,288.979 C35.805,288.921 34.576,289.229 33.0377,289.233 C31.5696,289.237 29.5705,288.927 26.8303,287.267 M56.9805,287.353 C54.2053,287.896 52.8144,288.58 51.1298,289.438 M48.2536,290.706 C47.9987,290.787 47.7341,290.859 47.458,290.921 C44.0861,291.678 40.1467,293.411 36.6334,291.794 C36.3748,291.675 36.1375,291.536 35.9193,291.381 M33.9154,288.647 C32.888,286.282 32.5073,283.752 29.9233,282.174 M57.5567,290.263 C53.9467,290.976 52.236,292.812 50,293.643 C49.1684,293.945 48.2748,294.086 47.2592,293.897 C46.9694,293.844 46.6905,293.766 46.4222,293.668 M43.3862,291.418 C41.6627,289.473 40.5096,287.139 38.4867,286.163 C36.808,285.353 35.3727,285.793 33.4426,285.906 M30.1003,285.523 C29.5466,285.34 28.969,285.081 28.3768,284.721 M58.325,294.142 C56.7666,294.453 55.494,294.308 54.4735,293.94 M51.7647,292.124 C51.1308,291.498 50.5822,290.842 50,290.284 C49.3078,289.627 48.583,289.127 47.5905,288.936 C45.8881,288.609 44.2014,288.928 42.392,289.29 M39.3775,289.816 C38.6687,289.901 37.9566,289.945 37.2512,289.917 C35.4587,289.847 34.2081,290.147 32.6418,290.14 C31.1481,290.133 29.1098,289.807 26.3148,288.116 M57.1726,288.323 C54.7337,288.802 53.3229,289.375 51.8284,290.104 M49.1448,291.371 C48.6043,291.587 48.0268,291.776 47.3917,291.913 C43.9339,292.658 39.9147,294.374 36.3245,292.733 C35.6434,292.421 35.107,291.98 34.6707,291.462 M33.1665,288.683 C32.327,286.549 31.7209,284.433 29.4078,283.023 M57.7488,291.233 C54.0504,291.965 52.2913,293.806 50,294.643 C49.1479,294.943 48.2329,295.081 47.1929,294.889 C46.4084,294.745 45.7032,294.433 45.0665,294.017 M42.5484,291.605 C41.1132,289.837 39.9835,287.965 38.1778,287.102 C36.6888,286.389 35.3869,286.613 33.7678,286.753 M30.9053,286.707 C29.9662,286.555 28.9393,286.224 27.8613,285.569 M58.5171,295.112 C56.1312,295.589 54.4297,295.226 53.2488,294.603 M50.9384,292.595 C50.6134,292.204 50.3128,291.818 50,291.464 C49.3354,290.715 48.6363,290.14 47.5242,289.928 C46.0337,289.644 44.5658,289.827 43.0154,290.105 M40.1053,290.634 C39.0569,290.797 37.994,290.903 36.9423,290.856 C35.1124,290.774 33.8403,291.065 32.246,291.047 C30.7267,291.029 28.649,290.687 25.7993,288.965 M57.3647,289.293 C55.258,289.708 53.893,290.182 52.5598,290.781 M49.795,292.091 C49.0465,292.419 48.2432,292.715 47.3254,292.905 C43.7818,293.639 39.6826,295.336 36.0157,293.671 C34.968,293.195 34.2551,292.428 33.7131,291.544 M32.4014,288.666 C31.6712,286.828 30.9151,285.103 28.8923,283.872 M27.3458,286.418 C28.8174,287.311 30.1892,287.62 31.3954,287.695 M34.0863,287.597 C35.4243,287.485 36.5756,287.427 37.8689,288.04 C39.4405,288.786 40.5107,290.242 41.7052,291.757 M43.9981,294.286 C44.8864,295.055 45.9119,295.659 47.1266,295.882 C48.191,296.076 49.1274,295.941 50,295.643 C52.3465,294.8 54.1542,292.954 57.9409,292.202 M26.8303,287.267 C26.1866,286.877 25.6754,286.424 25.2714,285.935 M23.8148,282.428 C23.4357,280.137 23.662,277.977 22.3435,276.354 C21.0868,274.806 19.2654,273.959 17.3474,272.995 M14.3654,271.294 C14.1234,271.125 13.8882,270.948 13.6617,270.763 C12.2907,269.641 11.1188,269.144 9.88685,268.219 C8.71434,267.338 7.29881,265.882 6.12512,262.909 M29.9233,282.174 C27.4829,280.684 25.9015,280.245 24.0677,279.79 M21.0371,278.873 C20.7892,278.769 20.5385,278.653 20.2851,278.523 C17.1813,276.928 12.9998,275.866 11.1994,272.448 C11.0664,272.195 10.9623,271.94 10.8832,271.683 M10.9432,268.28 C11.5538,265.755 12.7544,263.522 11.6419,260.726 M28.3768,284.72 C26.1767,283.383 24.4263,283.101 22.6805,282.779 C21.0056,282.47 19.4364,282.136 18.2267,280.693 C18.0389,280.468 17.8741,280.233 17.73,279.988 M16.7881,276.319 C16.6527,273.706 17.1653,271.115 16.1241,269.079 C15.2642,267.397 13.8297,266.871 12.2168,265.802 M9.77315,263.488 C9.44156,263.011 9.13739,262.458 8.8835,261.817 M26.3148,288.116 C24.9615,287.297 24.1231,286.341 23.6128,285.388 M22.7911,282.235 C22.6435,280.266 22.8655,278.556 21.6574,277.077 C20.5363,275.704 18.9989,274.866 17.3328,274.012 M14.6027,272.55 C13.9842,272.18 13.3882,271.778 12.841,271.325 C11.4505,270.173 10.2679,269.657 9.02229,268.706 C7.83762,267.801 6.40262,266.308 5.20567,263.273 M29.4078,283.023 C27.2648,281.716 25.7734,281.188 24.1665,280.754 M21.2934,279.96 C20.7414,279.774 20.1767,279.547 19.599,279.246 C16.4447,277.604 12.219,276.488 10.3786,273.009 C10.0282,272.347 9.87101,271.669 9.83838,270.99 M10.3222,267.856 C10.9411,265.635 11.7169,263.592 10.7224,261.09 M27.8613,285.569 C25.6122,284.203 23.8377,283.903 22.0653,283.562 C20.3667,283.235 18.7762,282.884 17.5406,281.416 C17.0332,280.813 16.6891,280.131 16.4591,279.409 M16.0102,275.942 C15.985,273.649 16.2324,271.447 15.3033,269.64 C14.5396,268.155 13.3489,267.539 11.9684,266.675 M9.70417,264.915 C9.04577,264.23 8.42617,263.349 7.96404,262.181 M25.7993,288.965 C23.733,287.716 22.7276,286.323 22.2655,285.077 M21.8607,282.051 C21.8921,280.454 22.0476,279.11 20.9712,277.8 C19.9934,276.609 18.7208,275.809 17.3182,275.051 M14.678,273.652 C13.7426,273.133 12.8305,272.565 12.0202,271.886 C10.6103,270.704 9.41696,270.17 8.15771,269.192 C6.96091,268.263 5.50642,266.734 4.2862,263.637 M28.8923,283.872 C27.0441,282.746 25.6753,282.178 24.2766,281.748 M21.3243,280.928 C20.5434,280.694 19.7406,280.406 18.9129,279.969 C15.7082,278.28 11.4382,277.111 9.55781,273.571 C9.01885,272.556 8.92018,271.511 9.02522,270.477 M9.72041,267.381 C10.2471,265.466 10.6717,263.643 9.80295,261.454 M7.04458,262.545 C7.67546,264.141 8.58342,265.214 9.50169,265.999 M11.7146,267.543 C12.8534,268.261 13.8187,268.917 14.4825,270.202 C15.2909,271.766 15.2505,273.594 15.249,275.537 M15.4591,278.953 C15.6645,280.107 16.0704,281.211 16.8545,282.139 C18.116,283.631 19.7278,284 21.4502,284.345 C23.2491,284.706 25.0476,285.024 27.3458,286.418 M6.12512,262.909 C5.84916,262.21 5.71747,261.541 5.69251,260.909 M6.66786,257.261 C7.76721,255.229 9.26426,253.713 9.27363,251.672 C9.28102,250.059 8.71519,248.588 8.05549,247 C7.91288,246.67 7.76941,246.342 7.6261,246.005 M6.49806,242.795 C6.42971,242.51 6.37198,242.224 6.3272,241.937 C6.05608,240.2 5.53193,239.047 5.25638,237.535 C4.9938,236.093 4.95062,234.065 6.12517,231.091 M11.6419,260.726 C10.5941,258.092 9.63098,256.827 8.47544,255.358 M6.68981,252.798 C6.5628,252.565 6.44123,252.321 6.32718,252.063 C5.60971,250.441 4.6311,248.793 3.94456,247 C3.28028,245.241 2.91941,243.373 3.38075,241.546 C3.4509,241.268 3.54464,241.008 3.65804,240.764 M5.9881,238.293 C8.13626,236.857 10.533,236.061 11.6419,233.274 M8.88349,261.817 C7.94084,259.439 6.73705,258.166 5.56523,256.845 C4.44494,255.583 3.41947,254.34 3.38074,252.454 C3.37472,252.161 3.39435,251.873 3.43624,251.591 M5.04041,248.16 C5.3431,247.761 5.66798,247.376 5.99995,247 C7.38553,245.421 8.81059,244.076 9.27364,242.328 C9.74797,240.537 9.05009,239.219 8.59485,237.346 M8.38827,234.007 C8.4732,233.433 8.62963,232.823 8.88354,232.182 M5.20566,263.273 C4.62554,261.802 4.53999,260.533 4.71441,259.469 M5.98327,256.487 C7.07326,254.85 8.29175,253.677 8.29148,251.802 C8.29124,250.146 7.71956,248.632 7.05549,247 C7.04682,246.979 6.96319,246.78 6.95452,246.759 M5.8453,243.884 C5.62605,243.201 5.44883,242.507 5.34505,241.807 C5.08139,240.027 4.56266,238.851 4.29499,237.307 C4.04009,235.836 4.00771,233.764 5.20571,230.727 M10.7224,261.09 C9.80301,258.776 8.95639,257.48 7.9631,256.167 M6.21375,253.796 C5.90054,253.312 5.60352,252.786 5.34503,252.193 C4.62004,250.529 3.63556,248.838 2.94456,247 C2.28464,245.197 1.92963,243.286 2.3986,241.416 C2.58225,240.684 2.92153,240.071 3.35319,239.546 M5.8198,237.564 C7.7714,236.358 9.73031,235.407 10.7225,232.91 M7.96404,262.181 C7.00022,259.746 5.78821,258.44 4.60636,257.083 C3.47754,255.788 2.445,254.513 2.39859,252.584 C2.37951,251.791 2.54002,251.04 2.81778,250.331 M4.68929,247.368 C4.79185,247.244 4.89555,247.122 4.99995,247 C6.39,245.379 7.81958,243.995 8.29149,242.198 C8.70899,240.607 8.24909,239.376 7.82235,237.813 M7.36443,234.998 C7.35144,234.051 7.50193,232.986 7.96408,231.819 M4.2862,263.637 C3.40034,261.389 3.45026,259.666 3.84271,258.4 M5.36876,255.773 C6.37373,254.541 7.31708,253.604 7.30933,251.933 C7.30229,250.415 6.84212,249.015 6.26661,247.535 M5.17644,244.759 C4.81396,243.753 4.51021,242.724 4.3629,241.676 C4.10669,239.855 3.59339,238.654 3.3336,237.079 C3.08637,235.579 3.0648,233.463 4.28625,230.363 M9.80295,261.454 C9.0103,259.456 8.27861,258.194 7.44346,257.009 M5.64025,254.567 C5.17706,253.905 4.73109,253.181 4.36288,252.323 C3.63038,250.617 2.64001,248.883 1.94456,247 C1.289,245.153 0.939858,243.199 1.41646,241.286 C1.69729,240.158 2.32811,239.311 3.10192,238.616 M5.70125,236.809 C7.38148,235.765 8.93559,234.732 9.80299,232.546 M7.04462,231.455 C6.41369,233.051 6.34371,234.453 6.47963,235.65 M7.05031,238.274 C7.40014,239.568 7.66934,240.684 7.30934,242.067 C6.8713,243.75 5.64534,245.077 4.37266,246.561 M2.33465,249.333 C1.76046,250.362 1.38278,251.488 1.41644,252.714 C1.47053,254.686 2.51014,255.992 3.64748,257.321 C4.83939,258.714 6.05958,260.053 7.04458,262.545 M6.12517,231.091 C6.40113,230.392 6.76214,229.813 7.17543,229.335 M10.3842,227.33 C12.5736,226.588 14.7336,226.47 16.1242,224.921 C17.4507,223.444 18.0031,221.52 18.6564,219.473 M19.8709,216.257 C20,215.991 20.1376,215.73 20.2852,215.477 C21.1789,213.942 21.4836,212.701 22.2002,211.331 C22.884,210.024 24.09,208.393 26.8304,206.733 M11.6419,233.274 C12.6918,230.636 12.8635,229.038 13.0171,227.156 M13.4364,224.032 C13.4994,223.772 13.5735,223.507 13.6618,223.237 C14.7413,219.934 15.1395,215.628 18.2268,213.307 C18.4553,213.136 18.691,212.992 18.9322,212.873 M22.3102,212.387 C24.9043,212.584 27.3309,213.409 29.9234,211.826 M8.88354,232.182 C9.82793,229.799 9.82031,228.045 9.85594,226.271 C9.89002,224.575 9.96935,222.974 11.1995,221.552 C11.3906,221.331 11.5968,221.132 11.8154,220.951 M15.2847,219.443 C17.8394,218.899 20.4891,218.999 22.3436,217.646 C23.8768,216.528 24.1736,215.02 24.9738,213.247 M26.8691,210.442 C27.2879,210.034 27.7847,209.64 28.3769,209.279 M5.20571,230.727 C5.78577,229.256 6.58894,228.272 7.44243,227.613 M10.4081,226.293 C12.3208,225.831 14.0374,225.78 15.3034,224.36 C16.4786,223.042 17.065,221.398 17.6486,219.618 M18.6651,216.691 C18.9338,216.021 19.2374,215.367 19.5991,214.754 C20.5182,213.195 20.8392,211.94 21.578,210.553 C22.2825,209.231 23.52,207.575 26.315,205.884 M10.7225,232.91 C11.6435,230.592 11.9176,229.06 12.086,227.406 M12.4071,224.456 C12.5024,223.884 12.636,223.292 12.841,222.675 C13.9588,219.313 14.4015,214.954 17.5407,212.584 C18.1393,212.132 18.7842,211.869 19.4498,211.728 M22.6297,211.704 C24.9262,211.957 27.0894,212.391 29.4079,210.977 M7.96408,231.819 C8.92947,229.379 8.93641,227.597 8.9871,225.793 C9.03554,224.069 9.12878,222.443 10.3787,220.991 C10.8921,220.394 11.5098,219.946 12.185,219.605 M15.5347,218.616 C17.793,218.23 20.0134,218.129 21.6575,216.923 C23.0099,215.931 23.4332,214.651 24.0671,213.143 M25.4428,210.611 C26.0138,209.845 26.7833,209.085 27.8614,208.431 M4.28625,230.363 C5.17173,228.116 6.38067,226.894 7.52981,226.236 M10.4401,225.348 C12.0157,225.123 13.362,225.063 14.4826,223.798 C15.501,222.649 16.0908,221.271 16.6202,219.767 M17.5875,216.939 C17.9533,215.933 18.3701,214.94 18.9129,214.031 C19.8575,212.447 20.1947,211.18 20.9558,209.776 C21.681,208.437 22.9501,206.758 25.7995,205.035 M9.80299,232.546 C10.5968,230.546 10.9298,229.12 11.127,227.674 M11.4594,224.641 C11.565,223.835 11.7212,222.999 12.0202,222.114 C13.1764,218.693 13.6634,214.28 16.8546,211.861 C17.7707,211.167 18.7865,210.902 19.8268,210.841 M23.0022,211.031 C24.9828,211.241 26.8664,211.362 28.8924,210.128 M27.3459,207.582 C25.874,208.475 24.9636,209.549 24.3358,210.588 M23.1652,213.032 C22.6365,214.277 22.1392,215.339 20.9713,216.2 C19.55,217.248 17.7327,217.496 15.8151,217.8 M12.4766,218.546 C11.3709,218.931 10.3472,219.507 9.55789,220.429 C8.28823,221.912 8.18107,223.563 8.11827,225.314 C8.05248,227.149 8.03103,228.959 7.04462,231.455 M26.8304,206.733 C27.4742,206.343 28.1124,206.1 28.7318,205.968 M32.5033,206.3 C34.7011,207.025 36.4705,208.221 38.4868,207.837 C40.4034,207.472 41.9752,206.307 43.7272,205.13 M46.6491,203.414 C46.915,203.292 47.1847,203.18 47.4581,203.079 C48.4721,202.708 49.2073,202.319 50,201.909 C51.6249,201.07 53.7821,199.962 58.1331,200.828 M29.9234,211.826 C32.3589,210.339 33.4636,209.141 34.7029,207.742 M36.9045,205.514 C37.1105,205.346 37.3282,205.181 37.5601,205.021 C40.377,203.081 43.364,199.934 47.2593,200.103 C47.5468,200.115 47.822,200.155 48.0856,200.217 M50.9927,202.031 C52.8431,203.89 54.0512,206.074 56.9806,206.647 M28.3769,209.279 C30.5728,207.944 31.6282,206.523 32.7182,205.139 C33.7648,203.81 34.7955,202.586 36.6335,202.206 C36.9189,202.147 37.2035,202.114 37.4864,202.103 M41.1321,203.029 C43.46,204.167 45.4311,205.893 47.6569,206.056 C48.5434,206.121 49.2711,205.944 50,205.643 C50.7776,205.306 51.542,204.836 52.4287,204.425 M55.6745,203.585 C56.2541,203.562 56.882,203.604 57.5568,203.737 M26.315,205.884 C27.6682,205.065 28.9039,204.766 29.9834,204.756 M33.1454,205.488 C34.9506,206.271 36.3322,207.255 38.1779,206.898 C39.8866,206.568 41.3249,205.639 42.8617,204.618 M45.4524,202.987 C46.0777,202.639 46.7234,202.328 47.3918,202.087 C48.4329,201.712 49.1865,201.321 50,200.909 C51.6645,200.075 53.8773,198.97 58.3251,199.858 M29.4079,210.977 C31.5473,209.673 32.6945,208.594 33.8129,207.383 M35.8362,205.23 C36.2555,204.834 36.7174,204.446 37.2513,204.083 C40.1423,202.118 43.2087,198.955 47.193,199.111 C47.9511,199.14 48.6242,199.348 49.2312,199.668 M51.6828,201.724 C53.2594,203.43 54.5467,205.162 57.1727,205.677 M27.8614,208.431 C30.1066,207.067 31.1917,205.634 32.3136,204.236 C33.3898,202.894 34.4486,201.659 36.3247,201.267 C37.095,201.106 37.8576,201.127 38.5991,201.268 M41.8346,202.536 C43.8327,203.622 45.5994,204.929 47.5906,205.064 C48.5018,205.125 49.2503,204.945 50,204.643 C50.5989,204.392 51.1805,204.072 51.8215,203.753 M54.5094,202.762 C55.4403,202.571 56.517,202.523 57.7489,202.768 M25.7995,205.035 C27.8658,203.786 29.5675,203.543 30.8832,203.712 M33.7388,204.755 C35.1305,205.525 36.227,206.282 37.869,205.96 C39.3585,205.668 40.646,204.946 41.9742,204.1 M44.4662,202.504 C45.3758,201.954 46.3244,201.45 47.3255,201.095 C48.3937,200.716 49.1656,200.323 50,199.909 C51.7041,199.08 53.9726,197.979 58.5172,198.888 M28.8924,210.128 C30.7382,209.004 31.868,208.053 32.8889,207.02 M34.9741,204.806 C35.5422,204.231 36.1706,203.662 36.9424,203.144 C39.9076,201.155 43.0533,197.975 47.1267,198.118 C48.2451,198.158 49.1796,198.568 50,199.152 C50.0359,199.178 50.0717,199.204 50.1072,199.231 M52.4074,201.462 C53.7652,202.929 55.0635,204.254 57.3648,204.707 M57.941,201.798 C56.2544,201.463 54.857,201.652 53.7004,202.012 M51.2174,203.08 C50.8035,203.285 50.4046,203.479 50,203.643 C49.2296,203.948 48.4601,204.13 47.5244,204.072 C45.788,203.964 44.2378,203.019 42.5561,202.074 M39.4791,200.614 C38.3707,200.244 37.2054,200.078 36.0158,200.329 C34.1016,200.733 33.0147,201.978 31.909,203.332 C30.755,204.745 29.6404,206.19 27.3459,207.582 M58.1331,200.828 C58.8723,200.975 59.5074,201.228 60.0517,201.551 M62.582,204.355 C63.6862,206.379 64.1541,208.471 65.8945,209.579 C67.5537,210.635 69.5235,210.867 71.6389,211.185 M74.9947,211.874 C75.2772,211.959 75.5559,212.054 75.8291,212.159 C77.483,212.8 78.7562,212.906 80.2232,213.398 C81.6247,213.868 83.424,214.801 85.5076,217.245 M56.9806,206.647 C59.7559,207.19 61.3174,207.08 63.1982,206.908 M66.3275,206.795 C66.5931,206.813 66.8652,206.842 67.1445,206.885 C70.5551,207.4 74.8683,207.111 77.645,209.788 C77.8506,209.986 78.0296,210.196 78.1852,210.415 M79.1966,213.673 C79.4098,216.262 78.9754,218.805 80.9598,221.126 M57.5568,203.737 C60.0685,204.233 61.7784,203.923 63.5308,203.656 C65.2016,203.402 66.793,203.214 68.3946,204.19 C68.6434,204.342 68.874,204.512 69.0879,204.697 M71.1333,207.863 C72.0768,210.287 72.3938,212.915 74.0131,214.531 C75.3547,215.87 76.8867,215.928 78.7662,216.442 M81.8411,217.876 C82.3122,218.227 82.7818,218.656 83.2337,219.185 M58.3251,199.858 C59.8824,200.169 60.9968,200.79 61.794,201.515 M63.604,204.202 C64.3836,206.003 64.7149,207.673 66.3111,208.681 C67.7921,209.616 69.4954,209.926 71.3372,210.217 M74.3782,210.753 C75.0804,210.912 75.7723,211.109 76.4344,211.369 C78.1167,212.03 79.4061,212.15 80.8938,212.661 C82.3142,213.148 84.1431,214.107 86.2655,216.598 M57.1727,205.677 C59.6124,206.156 61.1404,206.157 62.7964,206.038 M65.7416,205.855 C66.3191,205.853 66.9221,205.886 67.5612,205.986 C71.04,206.531 75.4152,206.278 78.2503,208.997 C78.7912,209.516 79.1534,210.111 79.3974,210.745 M79.9225,213.881 C80.0338,216.188 79.9449,218.405 81.7178,220.479 M57.7489,202.768 C60.3235,203.277 62.0655,202.978 63.8526,202.722 C65.5549,202.478 67.1745,202.301 68.8112,203.292 C69.4837,203.699 70.0261,204.234 70.4722,204.842 M71.9871,207.977 C72.7268,210.136 73.1745,212.308 74.6184,213.74 C75.8078,214.92 77.1352,215.139 78.7262,215.529 M81.4475,216.491 C82.2959,216.935 83.1701,217.576 83.9917,218.538 M58.5172,198.888 C60.8993,199.365 62.3193,200.349 63.1651,201.365 M64.537,204.073 C65.025,205.583 65.3051,206.891 66.7278,207.783 C68.0203,208.593 69.4657,208.949 71.0281,209.229 M73.9636,209.731 C75.0124,209.932 76.0566,210.186 77.0397,210.578 C78.7505,211.261 80.0559,211.394 81.5645,211.923 C83.0037,212.428 84.8621,213.414 87.0235,215.951 M57.3648,204.707 C59.4724,205.122 60.9146,205.199 62.3715,205.143 M65.4029,204.955 C66.2112,204.924 67.0591,204.939 67.9779,205.088 C71.5249,205.662 75.962,205.445 78.8556,208.207 C79.6868,209 80.1083,209.96 80.3334,210.977 M80.6466,214.143 C80.7508,216.132 80.9283,218.021 82.4757,219.832 M84.7496,217.892 C83.6295,216.578 82.4217,215.849 81.2945,215.392 M78.6937,214.62 C77.3805,214.292 76.2559,213.967 75.2238,212.95 C73.9686,211.713 73.4394,209.961 72.8344,208.123 M71.5624,204.958 C71.0032,203.933 70.2674,203.02 69.2279,202.394 C67.556,201.387 65.9082,201.554 64.1745,201.787 C62.3526,202.033 60.5786,202.321 57.941,201.798 M85.5076,217.245 C85.9969,217.819 86.3403,218.411 86.5712,219.002 M86.8592,222.791 C86.5049,225.086 85.6213,227.05 86.3577,228.987 C87.0578,230.828 88.5003,232.187 89.9834,233.7 M92.2151,236.254 C92.3852,236.492 92.5463,236.734 92.696,236.982 C93.6023,238.485 94.5274,239.348 95.3607,240.645 C96.1468,241.868 96.9843,243.759 97,247 M80.9598,221.126 C82.8248,223.306 84.206,224.216 85.7984,225.212 M88.3811,227.02 C88.5828,227.196 88.7833,227.383 88.9816,227.585 C91.4041,230.054 95.0067,232.401 95.5619,236.228 C95.6028,236.51 95.6154,236.785 95.6038,237.052 M94.3936,240.221 C92.9475,242.378 91.034,244.013 91,247 M83.2337,219.185 C84.9092,221.148 86.4941,221.963 88.0448,222.811 C89.5364,223.627 90.9166,224.436 91.6055,226.184 C91.7124,226.455 91.7937,226.73 91.8526,227.007 M91.5779,230.764 C90.8706,233.266 89.5484,235.513 89.8301,237.737 C90.0638,239.583 91.2065,240.531 92.3366,242.091 M93.7853,245.111 C93.9206,245.677 94.0018,246.306 94,247 M86.2655,216.598 C87.2929,217.803 87.7889,218.975 87.975,220.042 M87.7704,223.292 C87.2959,225.208 86.5552,226.75 87.2324,228.52 C87.8595,230.158 89.0399,231.423 90.3264,232.754 M92.4083,235.003 C92.8657,235.551 93.2905,236.124 93.6513,236.731 C94.568,238.272 95.4984,239.16 96.3382,240.49 C97.13,241.743 97.9764,243.682 98,247 M81.7178,220.479 C83.3541,222.393 84.6182,223.361 86.0043,224.269 M88.4788,225.914 C88.9427,226.262 89.4054,226.653 89.8562,227.118 C92.3115,229.652 95.9402,232.069 96.5172,235.976 C96.6268,236.718 96.5481,237.41 96.3506,238.059 M94.8278,240.833 C93.4767,242.699 92.0223,244.316 92,247 M83.9917,218.538 C85.7024,220.543 87.3032,221.385 88.8723,222.26 C90.38,223.101 91.7744,223.935 92.4801,225.716 C92.7697,226.448 92.8795,227.202 92.8682,227.957 M92.1883,231.367 C91.4769,233.531 90.5276,235.504 90.7854,237.486 C90.9979,239.12 91.8887,240.081 92.877,241.365 M94.3681,243.802 C94.7375,244.677 95,245.731 95,247 M87.0235,215.951 C88.5903,217.79 89.1073,219.43 89.1559,220.759 M88.5947,223.757 C88.0662,225.262 87.5017,226.481 88.107,228.052 C88.6561,229.478 89.6008,230.628 90.6742,231.785 M92.6984,233.947 C93.4057,234.738 94.0736,235.571 94.6066,236.479 C95.5338,238.06 96.4695,238.972 97.3157,240.334 C98.1133,241.619 98.9686,243.604 99,247 M82.4757,219.832 C83.8856,221.482 85.0176,222.451 86.209,223.292 M88.752,224.989 C89.4178,225.454 90.0867,225.978 90.7308,226.651 C93.2189,229.25 96.8738,231.738 97.4725,235.724 C97.6437,236.865 97.3877,237.885 96.9394,238.823 M95.2258,241.488 C94.064,243.099 93.0127,244.641 93,247 M96,247 C95.9957,245.261 95.5242,243.919 94.9445,242.86 M93.4173,240.644 C92.6018,239.58 91.9297,238.651 91.7407,237.234 C91.511,235.512 92.1465,233.818 92.7731,231.993 M93.6659,228.707 C93.8382,227.552 93.8035,226.377 93.3547,225.249 C92.6323,223.434 91.2236,222.576 89.6998,221.709 C88.1123,220.806 86.4955,219.938 84.7496,217.892 "/>
  </g>
  <g font-weight="400" stroke-linecap="square" stroke="#000000" fill="none" font-size="35.2778" font-style="normal" transform="matrix(2.83069,0,0,2.83069,983.968,448.968)" stroke-width="1" stroke-linejoin="bevel" stroke-opacity="1" font-family="Noto Sans"/>
  <g font-weight="400" stroke-linecap="square" stroke="#000000" fill="none" font-size="35.2778" font-style="normal" transform="matrix(2.83069,0,0,2.83069,983.968,448.968)" stroke-width="1" stroke-linejoin="bevel" stroke-opacity="1" font-family="Noto Sans"/>
  <g font-weight="400" stroke-linecap="square" stroke="#000000" fill="none" font-size="35.2778" font-style="normal" transform="matrix(1,0,0,1,0,0)" stroke-width="1" stroke-linejoin="bevel" stroke-opacity="1" font-family="Noto Sans"/>
 </g>
</svg>
