<?xml version="1.0" encoding="UTF-8" standalone="no"?>
<!-- Created with Inkscape (http://www.inkscape.org/) -->

<svg
   xmlns:dc="http://purl.org/dc/elements/1.1/"
   xmlns:cc="http://creativecommons.org/ns#"
   xmlns:rdf="http://www.w3.org/1999/02/22-rdf-syntax-ns#"
   xmlns:svg="http://www.w3.org/2000/svg"
   xmlns="http://www.w3.org/2000/svg"
   xmlns:sodipodi="http://sodipodi.sourceforge.net/DTD/sodipodi-0.dtd"
   xmlns:inkscape="http://www.inkscape.org/namespaces/inkscape"
   width="120mm"
   height="150mm"
   viewBox="0 0 120 150"
   version="1.1"
   id="svg1599"
   inkscape:version="0.92.3 (2405546, 2018-03-11)"
   sodipodi:docname="front_layer_0_wEngrave.svg">
  <defs
     id="defs1593">
    <marker
       style="overflow:visible"
       refY="0.0"
       refX="0.0"
       orient="auto"
       id="DistanceX">
      <path
         id="path3434"
         style="stroke:#000000; stroke-width:0.5"
         d="M 3,-3 L -3,3 M 0,-5 L  0,5" />
    </marker>
    <pattern
       y="0"
       x="0"
       width="8"
       patternUnits="userSpaceOnUse"
       id="Hatch"
       height="8">
      <path
         id="path3437"
         stroke-width="0.25"
         stroke="#000000"
         linecap="square"
         d="M8 4 l-4,4" />
      <path
         id="path3439"
         stroke-width="0.25"
         stroke="#000000"
         linecap="square"
         d="M6 2 l-4,4" />
      <path
         id="path3441"
         stroke-width="0.25"
         stroke="#000000"
         linecap="square"
         d="M4 0 l-4,4" />
    </pattern>
    <symbol
       id="*MODEL_SPACE" />
    <symbol
       id="*PAPER_SPACE" />
    <marker
       style="overflow:visible"
       refY="0.0"
       refX="0.0"
       orient="auto"
       id="DistanceX-3">
      <path
         id="path2177"
         style="stroke:#000000; stroke-width:0.5"
         d="M 3,-3 L -3,3 M 0,-5 L  0,5" />
    </marker>
    <pattern
       y="0"
       x="0"
       width="8"
       patternUnits="userSpaceOnUse"
       id="Hatch-6"
       height="8">
      <path
         id="path2180"
         stroke-width="0.25"
         stroke="#000000"
         linecap="square"
         d="M8 4 l-4,4" />
      <path
         id="path2182"
         stroke-width="0.25"
         stroke="#000000"
         linecap="square"
         d="M6 2 l-4,4" />
      <path
         id="path2184"
         stroke-width="0.25"
         stroke="#000000"
         linecap="square"
         d="M4 0 l-4,4" />
    </pattern>
    <symbol
       id="*MODEL_SPACE-7" />
    <symbol
       id="*PAPER_SPACE-5" />
  </defs>
  <sodipodi:namedview
     id="base"
     pagecolor="#ffffff"
     bordercolor="#666666"
     borderopacity="1.0"
     inkscape:pageopacity="0.0"
     inkscape:pageshadow="2"
     inkscape:zoom="1.4463889"
     inkscape:cx="124.79354"
     inkscape:cy="283.46457"
     inkscape:document-units="mm"
     inkscape:current-layer="layer1"
     showgrid="false"
     inkscape:showpageshadow="false"
     inkscape:pagecheckerboard="true"
     inkscape:window-width="1920"
     inkscape:window-height="1023"
     inkscape:window-x="0"
     inkscape:window-y="0"
     inkscape:window-maximized="1" />
  <metadata
     id="metadata1596">
    <rdf:RDF>
      <cc:Work
         rdf:about="">
        <dc:format>image/svg+xml</dc:format>
        <dc:type
           rdf:resource="http://purl.org/dc/dcmitype/StillImage" />
        <dc:title />
        <cc:license
           rdf:resource="http://creativecommons.org/licenses/by/4.0/" />
        <dc:date>04.01.2019</dc:date>
        <dc:creator>
          <cc:Agent>
            <dc:title>Stefan Krüger</dc:title>
          </cc:Agent>
        </dc:creator>
        <dc:rights>
          <cc:Agent>
            <dc:title>Stefan Krüger</dc:title>
          </cc:Agent>
        </dc:rights>
        <dc:publisher>
          <cc:Agent>
            <dc:title>Stefan Krüger</dc:title>
          </cc:Agent>
        </dc:publisher>
        <dc:language>EN / DE</dc:language>
      </cc:Work>
      <cc:License
         rdf:about="http://creativecommons.org/licenses/by/4.0/">
        <cc:permits
           rdf:resource="http://creativecommons.org/ns#Reproduction" />
        <cc:permits
           rdf:resource="http://creativecommons.org/ns#Distribution" />
        <cc:requires
           rdf:resource="http://creativecommons.org/ns#Notice" />
        <cc:requires
           rdf:resource="http://creativecommons.org/ns#Attribution" />
        <cc:permits
           rdf:resource="http://creativecommons.org/ns#DerivativeWorks" />
      </cc:License>
    </rdf:RDF>
  </metadata>
  <g
     inkscape:label="Layer 1"
     inkscape:groupmode="layer"
     id="layer1"
     transform="translate(0,-147)">
    <g
       id="Page011"
       transform="matrix(0.1,0,0,0.1,-71.121951,133.91553)"
       style="fill:none;fill-rule:evenodd;stroke:#000000;stroke-width:1;stroke-linecap:square;stroke-linejoin:bevel">
      <g
         id="Page011-3"
         transform="translate(-173.78049,-169.15521)"
         style="fill:none;fill-rule:evenodd;stroke:#000000;stroke-width:1;stroke-linecap:square;stroke-linejoin:bevel">
        <path
           style="font-style:normal;font-weight:400;font-size:medium;font-family:'Noto Sans';vector-effect:non-scaling-stroke;fill:none;fill-opacity:1;fill-rule:evenodd;stroke:#000000;stroke-opacity:1"
           inkscape:connector-curvature="0"
           d="m 1928.474,592.663 c 1.337,31.783 10.236,62.789 25.959,90.442 143.473,252.351 61.772,572.978 -184.97,725.895 -25.529,15.821 -42.595,42.278 -46.481,72.059 C 1707.382,1600.587 1605.542,1690 1485,1690 c -120.542,0 -222.382,-89.413 -237.982,-208.941 -3.886,-29.781 -20.952,-56.238 -46.481,-72.059 -246.742,-152.917 -328.443,-473.544 -184.97,-725.895 15.723,-27.653 24.622,-58.659 25.959,-90.442 1.052,-25.001 12.465,-48.436 31.5,-64.679 19.035,-16.243 43.973,-23.827 68.829,-20.934 18.313,2.133 36.8,-2.126 52.334,-12.055 177.313,-113.327 404.309,-113.327 581.622,0 15.534,9.929 34.021,14.188 52.334,12.055 24.856,-2.893 49.794,4.691 68.829,20.934 19.035,16.243 30.448,39.678 31.5,64.679"
           id="path1329" />
        <path
           style="font-style:normal;font-weight:400;font-size:medium;font-family:'Noto Sans';vector-effect:non-scaling-stroke;fill:none;fill-opacity:1;fill-rule:evenodd;stroke:#000000;stroke-opacity:1"
           inkscape:connector-curvature="0"
           d="m 1865,950 c 0,209.868 -170.132,380 -380,380 -209.868,0 -380,-170.132 -380,-380 0,-209.868 170.132,-380 380,-380 209.868,0 380,170.132 380,380"
           id="path1345" />
        <path
           style="font-style:normal;font-weight:400;font-size:medium;font-family:'Noto Sans';vector-effect:non-scaling-stroke;fill:none;fill-opacity:1;fill-rule:evenodd;stroke:#000000;stroke-opacity:1"
           inkscape:connector-curvature="0"
           d="m 1500,1490 v -20 c 0,-8.284 -6.7157,-15 -15,-15 -8.2843,0 -15,6.716 -15,15 v 0 20 0 c 0,8.284 6.7157,15 15,15 8.2843,0 15,-6.716 15,-15"
           id="path1361" />
        <path
           style="font-style:normal;font-weight:400;font-size:medium;font-family:'Noto Sans';vector-effect:none;fill:none;fill-rule:nonzero;stroke:none;stroke-width:10.02060032"
           inkscape:connector-curvature="0"
           d="m 1955.9662,949.9882 c -0.037,7.66576 -1.3448,14.48979 -3.5112,20.52219 m -22.9863,30.37241 c -17.9719,14.7002 -37.5892,22.9472 -45.3502,41.9262 -7.3762,18.0371 -6.2358,37.6975 -5.815,58.9712 m -1.2295,34.0901 c -0.3798,2.916 -0.8587,5.812 -1.458,8.6678 -3.6234,17.3056 -2.6454,30.0218 -5.1676,45.2932 -2.41,14.5799 -8.768,33.8395 -29.6439,58.3199 m 55.0381,-298.163 c 0.3247,28.52865 4.355,43.35914 9.5977,61.6568 m 6.8291,30.5427 c 0.2906,2.6355 0.489,5.3611 0.5671,8.1869 0.961,34.3907 10.9926,76.4171 -10.9274,108.2124 -1.6204,2.3449 -3.4,4.4492 -5.3089,6.3431 m -30.4977,15.2112 c -25.1768,6.2128 -51.0099,5.9022 -70.8687,29.1199 m 130.6706,-259.273 c 0.068,25.88321 6.3621,42.1266 12.2241,58.9712 5.5785,16.023 10.2571,31.4347 3.4261,48.9807 -1.0602,2.7156 -2.3348,5.2909 -3.7908,7.7259 m -27.6559,25.6026 c -22.2407,13.3876 -47.5237,20.7627 -60.7839,39.2207 -11.0037,15.3215 -9.1238,30.4225 -11.2251,49.7823 m -9.3222,32.607 c -2.7196,5.2108 -6.2288,10.5317 -10.7581,15.8326 m 147.9682,-278.723 c -0.1152,16.16323 -4.2097,28.46852 -9.8994,37.75762 m -23.2107,22.94718 c -16.3706,11.0327 -32.126,17.2154 -39.1855,34.6412 -6.5345,16.1232 -6.6216,33.3285 -6.3741,51.8867 m -0.2265,30.7632 c -0.4118,7.1647 -1.2185,14.2994 -2.7096,21.2337 -3.7898,17.6362 -2.919,30.5428 -5.5925,46.0546 -2.5522,14.8005 -9.1227,34.4108 -30.3894,59.3621 m 57.4641,-304.6463 c 0.2084,25.1016 3.1094,39.96215 7.4022,56.1154 m 7.2038,28.6489 c 1.0572,5.6816 1.8017,11.674 1.94,18.1372 0.7566,35.1723 10.5186,77.9002 -11.7361,110.377 -4.2397,6.1827 -9.5176,10.722 -15.3816,14.1591 m -30.0869,10.2009 c -22.5614,4.7598 -44.6267,7.3551 -62.3762,28.1178 M 1935.925,949.9882 c 0,26.58465 6.2218,43.18879 12.0177,60.4242 5.5123,16.3837 10.1218,32.106 3.1846,50.0429 -2.8479,7.3651 -7.1848,13.6581 -12.4156,19.1193 m -28.2801,20.2817 c -19.9941,10.9224 -40.6015,18.8487 -52.3436,35.3226 -9.6819,13.5779 -9.71,26.9454 -11.0387,43.2589 m -5.1967,28.3784 c -3.0483,9.0786 -8.0065,18.7285 -16.2384,28.3783 m 150.3932,-285.2063 c -0.2295,24.75088 -7.4303,40.80388 -15.9127,51.075 m -24.2469,18.5982 c -14.0298,7.5856 -26.3421,12.656 -32.5839,28.188 -5.6607,14.0889 -6.6487,28.8693 -6.7579,44.6919 m -0.038,29.681 c -0.2485,10.6519 -1.0512,21.3539 -3.3228,31.6751 -3.9542,17.9669 -3.1926,31.0638 -6.0164,46.8162 -2.6946,15.0309 -9.4765,34.9819 -31.134,60.4042 m 59.8891,-311.1296 c 0.1172,21.72466 2.1174,35.97395 5.4121,50.2834 m 7.4243,29.5307 c 1.7606,7.9062 3.1194,16.2935 3.2617,25.6126 0.5511,35.9339 10.0446,79.3832 -12.5448,112.5314 -6.4793,9.5095 -15.2694,15.2313 -24.9373,19.0892 m -30.7321,8.1568 c -19.452,4.1786 -37.8478,8.8983 -53.3437,27.0356 m 22.7848,19.4499 c 11.2241,-13.157 16.528,-26.2539 19.2566,-38.1083 m 3.5022,-26.8853 c 1.1394,-13.4777 2.5413,-25.0414 10.8844,-36.8257 10.1388,-14.3294 26.4905,-22.376 43.5636,-31.4146 m 29.0056,-17.9168 c 9.1468,-7.285 16.9017,-16.1532 21.2787,-27.5466 7.0445,-18.3377 2.5022,-34.3807 -2.942,-51.1151 -5.7298,-17.62623 -11.8804,-34.59111 -11.8123,-61.8772 m -105.1411,298.163 c -4.9031,5.7518 -10.216,10.0907 -15.7043,13.3173 m -37.0893,8.8582 c -23.3049,0.1403 -44.291,-5.4812 -62.3882,5.0204 -17.2224,10.0005 -28.4134,26.6447 -40.9402,43.9804 m -21.5192,26.5946 c -2.0553,2.1044 -4.1746,4.1285 -6.3681,6.0525 -13.2753,11.6339 -20.1204,22.3259 -31.3334,32.8776 -10.6279,10.0005 -27.5096,21.5443 -58.9673,27.8071 m 228.7393,-203.3981 c -18.7035,21.875 -25.5786,36.9961 -32.9448,54.4018 m -13.8314,28.5688 c -1.4159,2.2847 -2.9521,4.5794 -4.6375,6.8841 -20.6425,28.1579 -37.7617,67.7092 -74.4982,79.8542 -2.7095,0.8918 -5.3981,1.5031 -8.0595,1.8538 m -33.4027,-6.2629 c -23.8571,-10.3012 -43.5666,-25.9533 -72.9129,-20.2115 m 263.0718,-125.6383 c -16.8025,19.6804 -22.385,36.6553 -28.3192,53.4098 -5.7047,16.0931 -11.4856,31.0839 -27.6829,40.7538 -2.5142,1.5031 -5.1065,2.7556 -7.757,3.7978 m -37.7225,3.4771 c -26.0135,-2.8158 -50.6201,-12.0347 -72.2676,-5.1806 -17.8928,5.6616 -25.3441,18.8086 -38.5933,32.8275 m -26.9384,19.961 c -5.2798,2.415 -11.2561,4.4091 -18.017,5.7518 m 287.6784,-128.8749 c -10.2952,12.0848 -21.1034,18.8487 -31.3665,22.386 m -32.5429,3.1465 c -19.7456,-1.6534 -36.2976,-6.5234 -52.8006,3.1064 -15.2994,8.9183 -25.9643,22.7868 -37.0211,37.8277 m -18.7645,24.5304 c -4.6436,5.4913 -9.5717,10.7021 -14.9327,15.3416 -13.621,11.7842 -20.6826,22.5564 -32.1902,33.2083 -10.9024,10.0907 -28.202,21.7747 -60.3611,28.1979 m 234.4089,-206.6348 c -16.4067,19.1995 -24.0284,33.2484 -30.8444,48.4597 m -12.3775,27.1959 c -2.7075,5.1706 -5.837,10.4013 -9.721,15.6321 -21.2055,28.5888 -38.946,68.4808 -76.389,80.9364 -7.1166,2.3648 -14.0689,2.8058 -20.8108,1.9941 m -30.0487,-10.0106 c -20.8269,-9.8803 -39.4562,-21.0433 -65.7652,-15.8826 m 268.7424,-128.875 c -17.1552,20.1013 -22.9592,37.2766 -29.1289,54.2515 -5.9251,16.3036 -11.9165,31.4647 -28.4033,41.3551 -6.768,4.0583 -14.0599,6.3731 -21.5594,7.5054 m -34.9458,-1.0822 c -22.6666,-3.407 -43.8932,-9.3994 -63.1328,-3.2567 -15.8225,5.0504 -23.7959,15.6822 -34.6232,27.7771 m -21.1745,19.2095 c -7.8822,5.2808 -17.6633,9.8302 -30.0007,12.2652 m 293.3491,-132.1016 c -15.7013,18.4279 -31.0929,26.1538 -44.1788,28.7491 m -30.619,-0.7816 c -15.7644,-2.8358 -28.8052,-6.4733 -43.4423,2.1043 -13.2893,7.7961 -23.1786,19.0993 -32.8796,31.7152 m -18.004,23.7689 c -6.6236,8.3772 -13.6972,16.4338 -21.7247,23.2979 -13.9657,11.9345 -21.2446,22.7868 -33.0479,33.5389 -11.175,10.181 -28.8934,22.0153 -61.7539,28.5888 m 240.0795,-209.8714 c -14.1361,16.544 -21.9601,29.2802 -28.4204,42.4472 m -12.7703,27.9475 c -3.5443,7.3551 -7.6597,14.8405 -13.2823,22.3359 -21.7677,28.9996 -40.1305,69.2423 -78.2789,82.0086 -10.9175,3.6575 -21.399,2.906 -31.4266,0.1503 m -29.3103,-12.0548 c -17.9649,-8.4574 -35.0841,-15.8125 -58.1385,-11.2732 m 5.7739,29.15 c 16.8847,-3.3469 29.0717,-10.4315 38.3819,-18.0972 m 18.964,-19.1193 c 8.9854,-9.9806 17.0009,-18.3478 30.7031,-22.7568 16.6783,-5.3611 34.5861,-2.0041 53.7435,1.1123 m 34.063,3.3769 c 11.7311,-0.2004 23.2989,-2.4651 33.7213,-8.738 16.7765,-10.1007 22.9793,-25.4423 29.1239,-41.9462 6.4062,-17.1953 12.4305,-34.5711 29.9375,-55.0933 m -266.7143,170.9815 c -7.4082,1.4731 -14.2713,1.5733 -20.5672,0.6614 m -34.2635,-16.4538 c -9.721,-7.9764 -17.9739,-17.1954 -26.6658,-24.4904 -7.1327,-5.8821 -14.4738,-10.3613 -23.4803,-12.1049 -19.0421,-3.6875 -38.1073,1.1925 -58.8279,5.4613 m -33.5991,4.8399 c -2.924,0.1303 -5.844,0.1604 -8.749,0.07 -17.5861,-0.5812 -29.9014,2.5051 -45.3161,2.5452 -14.7113,0.04 -34.7434,-3.0663 -62.2019,-19.7005 m 302.1231,0.8618 c -27.8092,5.4412 -41.7468,12.2952 -58.6275,20.8929 m -28.8213,12.7061 c -2.5542,0.8117 -5.2057,1.5332 -7.9724,2.1545 -33.7884,7.5856 -73.2636,24.9513 -108.469,8.748 -2.5913,-1.1925 -4.9692,-2.5854 -7.1557,-4.1386 m -20.0802,-27.3963 c -10.2952,-23.6987 -14.11,-49.0508 -40.0033,-64.8633 m 276.9033,81.0566 c -36.1744,7.1447 -53.3166,25.5425 -75.7227,33.8696 -8.3331,3.0263 -17.2875,4.4392 -27.4645,2.5453 -2.9039,-0.5311 -5.6987,-1.3127 -8.3872,-2.2947 m -30.4225,-22.5464 c -17.2705,-19.4901 -28.8253,-42.8781 -49.096,-52.6582 -16.8216,-8.1167 -31.2041,-3.7077 -50.5449,-2.5753 m -33.4918,-3.8379 c -5.5484,-1.8338 -11.3363,-4.4291 -17.2705,-8.0365 m 300.0989,94.404 c -15.6161,3.1164 -28.3683,1.6634 -38.5943,-2.0241 m -27.1438,-18.1974 c -6.3521,-6.2729 -11.8494,-12.8465 -17.6834,-18.4379 -6.9363,-6.5836 -14.1992,-11.5939 -24.1446,-13.5078 -17.0591,-3.2768 -33.9609,-0.08 -52.0921,3.5473 m -30.2071,5.2708 c -7.1026,0.8518 -14.2383,1.2927 -21.3068,1.0121 -17.962,-0.7015 -30.4937,2.3047 -46.189,2.2346 -14.9677,-0.07 -35.3927,-3.3369 -63.4003,-20.2817 m 309.2137,2.0743 c -24.4393,4.7998 -38.5763,10.5416 -53.5521,17.8466 m -26.8913,12.6961 c -5.4162,2.1645 -11.203,4.0584 -17.5671,5.4312 -34.6493,7.4654 -74.9241,24.6607 -110.9,8.2169 -6.825,-3.1264 -12.2001,-7.5455 -16.5721,-12.7362 m -15.073,-27.8472 c -8.4123,-21.384 -14.4857,-42.5876 -37.6644,-56.7166 m 283.9938,82.2691 c -37.0602,7.3351 -54.6874,25.783 -77.6476,34.1702 -8.5386,3.0062 -17.7074,4.3891 -28.1288,2.4651 -7.8612,-1.443 -14.9277,-4.5694 -21.3078,-8.7379 m -25.2329,-24.1697 c -14.3816,-17.7165 -25.7018,-36.475 -43.796,-45.1228 -14.9207,-7.1447 -27.9665,-4.9001 -44.1909,-3.4972 m -28.684,-0.4609 c -9.4103,-1.5232 -19.7005,-4.84 -30.5027,-11.4035 m 307.1896,95.6266 c -23.9082,4.7798 -40.9582,1.1424 -52.7916,-5.1005 m -23.1516,-20.1213 c -3.2567,-3.9181 -6.2689,-7.786 -9.4033,-11.3333 -6.6597,-7.5055 -13.6651,-13.2673 -24.809,-15.3917 -14.9357,-2.8458 -29.6449,-1.0121 -45.1809,1.7737 m -29.1609,5.3009 c -10.5056,1.6333 -21.1565,2.6955 -31.6952,2.2245 -18.3367,-0.8217 -31.0839,2.0943 -47.0597,1.914 -15.2243,-0.1804 -36.0441,-3.6074 -64.5998,-20.8629 m 316.3042,3.2867 c -21.1104,4.1586 -34.7885,8.9083 -48.148,14.9107 m -27.7049,13.127 c -7.5004,3.2867 -15.55,6.2528 -24.7469,8.1567 -35.509,7.3552 -76.5854,24.3601 -113.33,7.6758 -10.4986,-4.7698 -17.6422,-12.4556 -23.0734,-21.3138 m -13.144,-28.8393 c -7.3171,-18.4178 -14.8936,-35.7034 -35.1633,-48.0387 m -15.4969,25.5124 c 14.7463,8.9484 28.4926,12.0448 40.5794,12.7963 m 26.9645,-0.982 c 13.4075,-1.1223 24.9443,-1.7035 37.9039,4.4391 15.7484,7.4754 26.4724,22.0654 38.442,37.2466 m 22.9763,25.3421 c 8.9013,7.7058 19.1774,13.7583 31.3494,15.9929 10.6659,1.944 20.0492,0.5912 28.7932,-2.395 23.5133,-8.4473 41.6276,-26.9453 79.5726,-34.4808 m -311.7469,-49.4517 c -6.4503,-3.908 -11.5728,-8.4474 -15.6211,-13.3474 m -14.596,-35.1423 c -3.7988,-22.9572 -1.5312,-44.6017 -14.7433,-60.8651 -12.5929,-15.5119 -30.8444,-23.9993 -50.0639,-33.6592 m -29.8815,-17.045 c -2.425,-1.6935 -4.7818,-3.4672 -7.0515,-5.321 -13.7382,-11.2431 -25.4814,-16.2233 -37.8262,-25.4924 -11.7493,-8.8281 -25.9337,-23.4181 -37.6948,-53.2094 m 238.472,193.0469 c -24.4543,-14.9307 -40.3008,-19.3298 -58.6766,-23.8891 m -30.3684,-9.1889 c -2.4841,-1.0422 -4.9963,-2.2045 -7.5355,-3.5072 -31.102,-15.9829 -73.0031,-26.6248 -91.0442,-60.8752 -1.3327,-2.5352 -2.3759,-5.0904 -3.1685,-7.6657 m 0.6012,-34.1001 c 6.1186,-25.302 18.1493,-47.678 7.0014,-75.6956 m 167.6938,240.4342 c -22.0464,-13.3975 -39.5864,-16.2233 -57.0804,-19.45 -16.7835,-3.0963 -32.5078,-6.4432 -44.6297,-20.9029 -1.8819,-2.2547 -3.5333,-4.6095 -4.9773,-7.0645 m -9.4384,-36.7656 c -1.3568,-26.1839 3.7798,-52.1472 -6.6536,-72.5492 -8.6168,-16.8546 -22.9913,-22.1255 -39.1535,-32.8375 m -24.4869,-23.1876 c -3.3227,-4.7799 -6.3707,-10.3213 -8.9148,-16.7445 m 174.6721,263.5318 c -13.5609,-8.2069 -21.9622,-17.7866 -27.0757,-27.3362 m -8.2339,-31.595 c -1.479,-19.7305 0.7455,-36.8657 -11.3604,-51.6862 -11.2341,-13.7583 -26.6397,-22.1556 -43.335,-30.7132 m -27.3573,-14.6501 c -6.1977,-3.7076 -12.17,-7.7359 -17.6533,-12.2752 -13.9336,-11.5437 -25.784,-16.7144 -38.2657,-26.244 -11.8711,-9.0686 -26.2507,-24.0294 -38.2449,-54.4419 m 242.5199,197.9069 c -21.4741,-13.097 -36.4189,-18.3878 -52.521,-22.7368 m -28.7902,-7.9563 c -5.5313,-1.8639 -11.19,-4.1385 -16.9789,-7.1547 -31.6079,-16.4539 -73.952,-27.6368 -92.3939,-62.4985 -3.5112,-6.6337 -5.0864,-13.4276 -5.4133,-20.2316 m 4.8481,-31.4046 c 6.2018,-22.2557 13.9758,-42.7278 4.0103,-67.7993 m 171.742,245.2942 c -22.5373,-13.6881 -40.3188,-16.6943 -58.0794,-20.1113 -17.0209,-3.2768 -32.9587,-6.794 -45.3402,-21.5042 -5.0844,-6.0425 -8.5325,-12.8765 -10.8372,-20.1114 m -4.4983,-34.7414 c -0.2525,-22.9772 2.2266,-45.0426 -7.0836,-63.1498 -7.6527,-14.8806 -19.5842,-21.0533 -33.4177,-29.7111 m -22.6889,-17.6363 c -6.5976,-6.8641 -12.8063,-15.6922 -17.4371,-27.3963 m 178.72,268.3918 c -20.7056,-12.5158 -30.7803,-26.4744 -35.4108,-38.9601 m -4.0564,-30.3223 c 0.3147,-16.0029 1.8729,-29.4706 -8.9133,-42.5976 -9.7981,-11.9346 -22.5504,-19.951 -36.6052,-27.5466 m -26.4564,-14.0189 c -9.3733,-5.2007 -18.5131,-10.8924 -26.6328,-17.6963 -14.128,-11.8444 -26.086,-17.1954 -38.7045,-26.9955 -11.9926,-9.3092 -26.5675,-24.6307 -38.7948,-55.6645 m 246.5679,202.7669 c -18.5201,-11.2832 -32.2363,-16.9749 -46.2521,-21.2838 m -29.5838,-8.2169 c -7.8251,-2.3448 -15.8696,-5.2307 -24.1637,-9.6097 -32.113,-16.9248 -74.901,-28.6389 -93.7436,-64.1118 -5.4007,-10.1709 -6.3894,-20.6425 -5.3369,-31.0038 m 6.9662,-31.0238 c 5.2778,-19.1894 9.5325,-37.457 0.8271,-59.392 m -27.6405,10.9324 c 6.3218,15.9929 15.4201,26.745 24.6217,34.6112 m 22.1747,15.4718 c 11.4115,7.1948 21.0844,13.7683 27.736,26.6448 8.1007,15.6722 7.6959,33.9898 7.6808,53.4599 m 2.1054,34.2303 c 2.0582,11.5638 6.1256,22.6265 13.9827,31.9257 12.641,14.9507 28.7922,18.6483 46.0517,22.1054 18.026,3.6174 36.0481,6.804 59.0774,20.7727 m -212.6439,-235.5743 c -2.7653,-7.0044 -4.0849,-13.7082 -4.335,-20.0412 m 9.7736,-36.5551 c 11.0161,-20.3619 26.0174,-35.5531 26.1113,-56.00516 0.074,-16.16322 -5.5959,-30.90353 -12.2065,-46.81624 -1.429,-3.3068 -2.8667,-6.59355 -4.3027,-9.9705 m -11.3036,-32.16612 c -0.6849,-2.85587 -1.2634,-5.72177 -1.7122,-8.59768 -2.7167,-17.40578 -7.969,-28.95953 -10.7302,-44.11068 -2.6312,-14.4497 -3.0639,-34.77148 8.7058,-64.57275 m 55.2809,296.96053 c -10.4996,-26.3943 -20.1506,-39.0704 -31.7298,-53.7906 m -17.8931,-25.6528 c -1.2727,-2.3348 -2.4909,-4.7798 -3.6338,-7.3651 -7.1894,-16.25342 -16.9957,-32.76736 -23.8752,-50.7343 -6.6565,-17.62624 -10.2727,-36.34472 -5.6498,-54.65235 0.703,-2.78573 1.6423,-5.39109 2.7787,-7.83611 m 23.3486,-24.7609 c 21.5258,-14.38959 45.5426,-22.36598 56.6544,-50.2934 m -27.6409,286.01796 c -9.4459,-23.829 -21.5086,-36.5852 -33.251,-49.8224 -11.2259,-12.646 -21.5018,-25.1016 -21.8899,-44.0004 -0.06,-2.9361 0.1364,-5.82202 0.5562,-8.64783 m 16.0747,-34.38067 c 3.0332,-3.99822 6.2887,-7.85615 9.6152,-11.6239 13.8843,-15.82253 28.1643,-29.30023 32.8043,-46.81624 4.7531,-17.9469 -2.2401,-31.15405 -6.8018,-49.92263 m -2.0701,-33.45879 c 0.851,-5.75182 2.4186,-11.86439 4.9629,-18.28759 m -36.8546,311.55045 c -5.8131,-14.7403 -6.6704,-27.4564 -4.9226,-38.1183 m 12.7148,-29.8815 c 10.9223,-16.4037 23.1323,-28.1579 23.1296,-46.94648 0,-16.59411 -5.731,-31.7653 -12.3854,-48.11892 -0.087,-0.21043 -0.9249,-2.20453 -1.0117,-2.41496 m -11.1151,-28.80923 c -2.197,-6.84407 -3.9729,-13.79837 -5.0128,-20.81279 -2.642,-17.83666 -7.84,-29.62089 -10.5222,-45.0927 -2.5543,-14.7403 -2.8787,-35.50298 9.1259,-65.93554 m 55.2806,304.25552 c -9.2129,-23.1877 -17.6965,-36.1744 -27.6499,-49.3315 m -17.5295,-23.7588 c -3.1385,-4.85 -6.1149,-10.1208 -8.7051,-16.063 -7.2648,-16.6743 -17.1299,-33.61914 -24.0541,-52.037 -6.6128,-18.06714 -10.1702,-37.21651 -5.4709,-55.95503 1.8403,-7.33508 5.2401,-13.47771 9.5656,-18.73852 m 24.7169,-19.86083 c 19.5562,-12.08485 39.1856,-21.61444 49.128,-46.63587 m -27.6414,293.31295 c -9.6581,-24.4001 -21.8032,-37.487 -33.646,-51.085 -11.3115,-12.9767 -21.6581,-25.7529 -22.1232,-45.0827 -0.1912,-7.94631 1.4172,-15.47178 4.2005,-22.57638 m 18.7537,-29.69104 c 1.0277,-1.24255 2.0668,-2.46507 3.113,-3.68758 13.9291,-16.24339 28.2544,-30.1119 32.9832,-48.11892 4.1836,-15.94278 -0.4249,-28.27813 -4.7011,-43.94033 m -4.5886,-28.20799 c -0.1302,-9.48951 1.3778,-20.16145 6.0089,-31.85549 m -36.8546,318.83543 c -8.8769,-22.5263 -8.3766,-39.7918 -4.444,-52.4779 m 15.2919,-26.3241 c 10.0704,-12.3454 19.5233,-21.7347 19.4457,-38.47908 -0.071,-15.21127 -4.6818,-29.24011 -10.4487,-44.0706 m -10.9242,-27.81718 c -3.6322,-10.08073 -6.676,-20.39193 -8.1521,-30.89351 -2.5674,-18.24752 -7.711,-30.28226 -10.3142,-46.0647 -2.4774,-15.0309 -2.6936,-36.23449 9.5461,-67.29835 m 55.2806,311.55052 c -7.9428,-20.0212 -15.2748,-32.6672 -23.6435,-44.5416 m -18.0692,-24.4703 c -4.6415,-6.6337 -9.1103,-13.8886 -12.8,-22.4862 -7.3401,-17.09519 -17.2642,-34.47091 -24.233,-53.3397 -6.56915,-18.50805 -10.06776,-38.0883 -5.29192,-57.25771 2.81412,-11.30324 9.13532,-19.79068 16.88932,-26.755 m 26.0468,-18.10722 c 16.837,-10.46151 32.4101,-20.81279 41.1019,-42.71782 m -27.6405,-10.93248 c -6.3223,15.99288 -7.0235,30.04176 -5.6615,42.03642 m 5.7185,26.29405 c 3.5055,12.96666 6.2031,24.14965 2.5957,38.00814 -4.3895,16.86467 -16.6743,30.16201 -29.4273,45.03258 m -20.4221,27.7771 c -5.7537,10.3112 -9.53831,21.59439 -9.20102,33.87964 0.54201,19.7606 10.95952,32.8475 22.35632,46.1649 11.9437,13.9587 24.1707,27.3763 34.041,52.3476 m -9.213,-315.18793 c 2.7653,-7.00439 6.3828,-12.80632 10.5242,-17.59617 m 32.1538,-20.0913 c 21.9391,-7.43529 43.5836,-8.61772 57.5183,-24.13963 13.2923,-14.80042 18.8277,-34.08006 25.3741,-54.59223 m 12.17,-32.22625 c 1.2937,-2.66548 2.6725,-5.28085 4.1516,-7.81606 8.9554,-15.38162 12.0087,-27.81719 19.1894,-41.54541 6.8521,-13.09693 18.937,-29.44052 46.3974,-46.07472 m -152.1979,265.95674 c 10.5207,-26.43434 12.2412,-42.44726 13.7804,-61.30603 m 4.2016,-31.30435 c 0.6313,-2.60536 1.3738,-5.26082 2.2586,-7.96638 10.8173,-33.09804 14.8075,-76.24674 45.7441,-99.50456 2.2897,-1.71352 4.6515,-3.15648 7.0685,-4.34894 m 33.8496,-4.87001 c 25.9944,1.97406 50.3104,10.24106 76.2888,-5.62155 m -210.832,203.97933 c 9.4634,-23.87909 9.387,-41.45522 9.744,-59.23177 0.3415,-16.99493 1.1365,-33.03792 13.4633,-47.28721 1.9149,-2.21455 3.9812,-4.20865 6.1717,-6.02238 m 34.7645,-15.11106 c 25.5996,-5.45121 52.1512,-4.44915 70.7344,-18.00702 15.3636,-11.20303 18.3377,-26.3141 26.3562,-44.08062 m 18.992,-28.10778 c 4.1966,-4.08841 9.1749,-8.03653 15.1091,-11.65396 m -232.1893,214.92183 c 5.8126,-14.74031 13.8608,-24.60058 22.4133,-31.20415 m 29.7178,-13.22719 c 19.1664,-4.62952 36.3678,-5.14057 49.0539,-19.36982 11.7762,-13.20715 17.6522,-29.68102 23.5003,-47.51769 m 10.1859,-29.3303 c 2.6925,-6.7138 5.7348,-13.26727 9.3592,-19.4099 9.21,-15.62211 12.4266,-28.19797 19.8298,-42.09654 7.0595,-13.24723 19.46,-29.84134 47.4676,-46.78618 M 1091.414,808.79775 c 9.229,-23.22775 11.9756,-38.57931 13.6631,-55.15339 m 3.2176,-29.56077 c 0.9549,-5.73178 2.2937,-11.66397 4.3479,-17.84668 11.2011,-33.68926 15.6372,-77.36906 47.0938,-101.11788 5.9984,-4.52931 12.4607,-7.16473 19.1304,-8.57763 m 31.8645,-0.2405 c 23.0123,2.53521 44.6888,6.88415 67.9216,-7.28497 M 1063.773,797.86527 c 9.6737,-24.45026 9.7433,-42.30697 10.2512,-60.38413 0.4854,-17.27552 1.4198,-33.56901 13.9447,-48.11893 5.1446,-5.98229 11.3343,-10.47152 18.1002,-13.88855 m 33.566,-9.91037 c 22.6295,-3.86795 44.8793,-4.88003 61.3541,-16.96488 13.5519,-9.94043 17.7936,-22.7668 24.1457,-37.87786 m 13.7853,-25.37216 c 5.7218,-7.67578 13.4326,-15.29144 24.2358,-21.84491 m -236.2371,219.7718 c 8.873,-22.51629 20.9873,-34.76146 32.5024,-41.35502 m 29.1629,-8.89829 c 15.7884,-2.25464 29.2792,-2.85587 40.5082,-15.53193 10.205,-11.51367 16.1152,-25.32206 21.4201,-40.39304 m 9.6929,-28.33826 c 3.6655,-10.08072 7.8421,-20.03118 13.2813,-29.1399 9.4655,-15.87263 12.8444,-28.56873 20.4711,-42.63765 7.2669,-13.41759 19.9841,-30.24218 48.5368,-47.50767 m -160.2947,275.67673 c 7.9545,-20.0412 11.2914,-34.33058 13.2674,-48.82037 m 3.3309,-30.39248 c 1.0581,-8.0766 2.6234,-16.45382 5.6195,-25.32205 11.5858,-34.28047 16.4659,-78.50138 48.4436,-102.74121 9.1799,-6.9543 19.3588,-9.60976 29.7832,-10.22102 m 31.8194,1.90392 c 19.8468,2.10432 38.7216,3.31682 59.0234,-9.0486 m -15.4969,-25.51245 c -14.7493,8.9484 -23.872,19.71052 -30.163,30.12192 m -11.7301,24.49035 c -5.2979,12.47565 -10.2811,23.11752 -21.9842,31.74526 -14.2423,10.50159 -32.4527,12.9867 -51.6682,16.03296 m -33.4538,7.47537 c -11.0798,3.85793 -21.3378,9.62979 -29.2472,18.86879 -12.7228,14.86055 -13.7966,31.40456 -14.4259,48.95063 -0.6592,18.3878 -0.8742,36.52509 -10.7586,61.5365 M 1252.8247,546.4887 c 6.4513,-3.90803 12.8464,-6.34304 19.0532,-7.66576 m 37.7927,3.32684 c 22.0232,7.26494 39.7537,19.24957 59.9582,15.40166 19.2055,-3.65752 34.9559,-15.33152 52.512,-27.12576 m 29.2792,-17.19535 c 2.6644,-1.22251 5.367,-2.34482 8.1066,-3.3569 10.1609,-3.71765 17.5281,-7.61566 25.4714,-11.7241 16.2825,-8.40729 37.8989,-19.51011 81.4985,-10.83227 m -282.6781,110.20656 c 24.4052,-14.90064 35.475,-26.90532 47.8935,-40.92413 m 22.0613,-22.3259 c 2.0643,-1.68346 4.2458,-3.33686 6.5695,-4.94016 28.2271,-19.43996 58.1586,-50.97479 97.1918,-49.28131 2.881,0.12025 5.6386,0.52107 8.2801,1.14235 m 29.1308,18.17737 c 18.5422,18.62829 30.6481,40.51328 60.0024,46.25509 m -286.6262,26.37422 c 22.0042,-13.3775 32.5799,-27.61678 43.5024,-41.48529 10.4876,-13.31737 20.8158,-25.58259 39.2337,-29.39042 2.8598,-0.59121 5.7117,-0.92189 8.5465,-1.03212 m 36.5321,9.27908 c 23.327,11.40344 43.0786,28.699 65.3824,30.33235 8.8833,0.65134 16.1753,-1.1223 23.4793,-4.1385 7.792,-3.37695 15.4518,-8.08663 24.337,-12.20509 m 32.5249,-8.41731 c 5.8079,-0.23047 12.0999,0.19039 18.8618,1.52313 m -313.0616,21.51423 c 13.5599,-8.20687 25.9423,-11.20303 36.7596,-11.30324 m 31.6851,7.33508 c 18.0892,7.84613 31.9336,17.7064 50.4287,14.12905 17.1222,-3.3068 31.5348,-12.61594 46.9345,-22.84697 m 25.9603,-16.3436 c 6.2659,-3.48717 12.7362,-6.60357 19.434,-9.01854 10.4324,-3.75772 17.9839,-7.67578 26.1357,-11.80426 16.6793,-8.35719 38.8529,-19.42995 83.4225,-10.53166 m -289.7677,111.41906 c 21.4381,-13.06687 32.9337,-23.87909 44.1407,-36.01404 m 20.2747,-21.57435 c 4.2017,-3.96816 8.8302,-7.85615 14.1802,-11.49363 28.9695,-19.69048 59.6967,-51.38564 99.6218,-49.82242 7.5966,0.29059 14.3415,2.37488 20.424,5.58147 m 24.5665,20.60235 c 15.7984,17.09515 28.698,34.45083 55.0121,39.61144 m -293.7169,27.59673 c 22.4983,-13.6681 33.3716,-28.02762 44.6138,-42.03642 10.7841,-13.44764 21.3939,-25.82308 40.1936,-29.75116 7.7189,-1.61332 15.3606,-1.40288 22.7908,0.01 m 32.4217,12.70612 c 20.0222,10.88237 37.7255,23.9793 57.6786,25.33208 9.1307,0.61126 16.6312,-1.19245 24.1436,-4.21867 6.0013,-2.51517 11.8293,-5.72177 18.2525,-8.91834 m 26.9344,-9.93041 c 9.3282,-1.91394 20.1174,-2.39493 32.4617,0.0601 m -320.1521,22.7167 c 20.7055,-12.51573 37.7576,-14.95073 50.9417,-13.25725 m 28.6148,10.45148 c 13.9457,7.71587 24.9333,15.30146 41.3871,12.07483 14.9257,-2.92602 27.8272,-10.16089 41.1366,-18.63832 m 24.9713,-15.99288 c 9.1147,-5.51133 18.6203,-10.56171 28.6519,-14.11902 10.704,-3.79781 18.4389,-7.73591 26.8001,-11.88443 17.0761,-8.30708 39.8078,-19.33976 85.3475,-10.23104 M 1273.4872,580.5086 c 18.496,-11.26316 29.8173,-20.79275 40.0473,-31.14403 m 20.895,-22.18561 c 5.6927,-5.76184 11.9896,-11.46356 19.7235,-16.65423 29.7131,-19.93098 61.2349,-51.79649 102.0528,-50.36354 11.207,0.40082 20.5713,4.50927 28.7922,10.3613 0.3597,0.26054 0.7185,0.52107 1.0742,0.79163 m 23.0494,22.35596 c 13.606,14.70022 26.6157,27.97751 49.6761,32.51684 m 5.7739,-29.14992 c -16.9008,-3.3569 -30.9035,-1.46301 -42.4934,2.14441 m -24.8811,10.702 c -4.1475,2.05422 -8.1448,3.99822 -12.1991,5.6416 -7.7199,3.05628 -15.4307,4.88003 -24.807,4.29883 -17.3998,-1.08222 -32.9337,-10.55169 -49.7853,-20.02116 m -30.8334,-14.63007 c -11.1069,-3.70762 -22.7839,-5.37104 -34.7044,-2.85587 -19.1814,4.04832 -30.0728,16.52397 -41.1526,30.09186 -11.5637,14.15911 -22.7327,28.63887 -45.725,42.58755 m 308.5062,-67.67913 c 7.4073,1.47303 13.7714,4.00824 19.2256,7.24489 m 25.3551,28.09776 c 11.0647,20.2817 15.7534,41.24479 33.1932,52.34762 16.6262,10.58175 36.3648,12.90653 57.5624,16.09308 m 33.6271,6.90419 c 2.8308,0.85176 5.6236,1.80371 8.3612,2.85588 16.573,6.4232 29.3313,7.48538 44.0315,12.41552 14.0439,4.70968 32.0739,14.0589 52.9529,38.54925 M 1554.9478,545.62693 c 27.8102,5.44118 43.4573,4.33892 62.3041,2.61537 m 31.3574,-1.13232 c 2.6615,0.18037 5.3881,0.47097 8.1869,0.90185 34.1762,5.16061 77.3971,2.26466 105.2213,29.0898 2.0602,1.98408 3.8539,4.08841 5.4131,6.28292 m 10.1348,32.64711 c 2.1364,25.94334 -2.2165,51.42572 17.6684,74.68354 M 1560.7217,516.46698 c 25.1687,4.97022 42.3029,1.86383 59.863,-0.81167 16.7425,-2.54523 32.6892,-4.4291 48.7382,5.351 2.4932,1.52314 4.8039,3.22664 6.9473,5.08045 m 20.4961,31.72522 c 9.4545,24.28993 12.631,50.62407 28.8574,66.81736 13.4436,13.41758 28.7952,13.99878 47.6289,19.14937 m 30.8123,14.36954 c 4.7207,3.51723 9.4264,7.81606 13.9547,13.11696 M 1568.4205,477.59707 c 15.6051,3.11641 26.772,9.3392 34.7605,16.60414 m 18.1372,26.92535 c 7.8121,18.0471 11.1319,34.7815 27.1268,44.88227 14.8405,9.36926 31.9086,12.47565 50.3645,15.39164 m 30.4727,5.37104 c 7.0365,1.59328 13.9697,3.56734 20.6043,6.17269 16.8577,6.62362 29.7783,7.82609 44.6859,12.94662 14.2333,4.88003 32.5599,14.48978 53.8277,39.4511 M 1556.8728,535.90695 c 24.4472,4.79986 39.7587,4.80988 56.3528,3.61743 m 29.5127,-1.83377 c 5.7869,-0.02 11.8293,0.31064 18.2335,1.3127 34.8596,5.46123 78.7018,2.92602 107.1112,30.17203 5.4201,5.20069 9.0496,11.16295 11.4946,17.51601 m 5.2618,31.4246 c 1.1153,23.11752 0.2245,45.33319 17.99,66.11592 M 1562.6466,506.75702 c 25.7991,5.10049 43.2549,2.10433 61.1628,-0.46095 17.058,-2.44502 33.2874,-4.21867 49.6881,5.71175 6.7389,4.07838 12.174,9.4394 16.6442,15.53193 m 15.1802,31.41458 c 7.4123,21.63447 11.8985,43.39921 26.3672,57.74871 11.9185,11.82431 25.2199,14.01882 41.1627,17.92686 m 27.269,9.63981 c 8.5015,4.44915 17.2615,10.87236 25.4944,20.51217 M 1570.3455,467.87709 c 23.87,4.77983 38.0993,14.6401 46.5747,24.82103 m 13.7473,27.13578 c 4.89,15.13111 7.6968,28.23805 21.9531,37.17643 12.9516,8.11669 27.4354,11.68402 43.0916,14.48979 m 29.4155,5.03034 c 10.5096,2.01414 20.9731,4.55937 30.8243,8.48745 17.1433,6.84407 30.2242,8.17681 45.3412,13.4777 14.4217,5.06041 33.044,14.94072 54.7025,40.36298 m -297.198,-112.67163 c 21.1194,4.15855 35.5711,4.93014 50.1702,4.36899 m 30.3764,-1.88388 c 8.0997,-0.31064 16.5961,-0.16033 25.803,1.33274 35.5431,5.75183 80.0055,3.57736 109.0011,31.25425 8.3291,7.94634 12.5528,17.56612 14.8085,27.75707 m 3.1384,31.72522 c 1.0442,19.93097 2.8228,38.85988 18.3287,57.00719 m 22.7858,-19.43996 c -11.224,-13.16707 -23.3269,-20.47209 -34.6221,-25.0515 m -26.0616,-7.73591 c -13.1591,-3.28675 -24.4282,-6.54345 -34.7705,-16.7344 -12.5778,-12.39548 -17.8807,-29.95157 -23.9432,-48.36944 m -12.7462,-31.7152 c -5.6035,-10.27111 -12.9767,-19.41992 -23.3931,-25.69281 -16.7534,-10.09075 -33.2654,-8.41731 -50.6381,-6.08251 -18.2565,2.46507 -36.0331,5.351 -62.4634,0.11023 m 276.2339,154.78821 c 4.903,5.75182 8.3441,11.68402 10.6579,17.60619 m 2.8859,37.96805 c -3.5503,22.99728 -12.4045,42.67774 -5.0253,62.08764 7.0154,18.44793 21.4701,32.06592 36.3317,47.22709 m 22.3629,25.59261 c 1.7045,2.38491 3.3189,4.80989 4.8189,7.295 9.0817,15.06096 18.3518,23.70874 26.7019,36.70546 7.8772,12.25519 16.2695,31.20415 16.4268,63.68091 m -160.7324,-259.273 c 18.6884,21.8449 32.5288,30.96365 48.4856,40.94417 m 25.8803,18.11724 c 2.0211,1.76363 4.0302,3.63748 6.0173,5.66164 24.2749,24.74086 60.3751,48.25921 65.9386,86.60805 0.4098,2.82581 0.5361,5.58147 0.4198,8.25697 m -12.1269,31.75528 c -14.4908,21.61444 -33.6652,37.99812 -34.0059,67.92965 m -77.823,-278.72299 c 16.7895,19.67044 32.6712,27.83723 48.2101,36.3347 14.9467,8.17681 28.7772,16.28347 35.6804,33.79948 1.0712,2.71558 1.8859,5.47125 2.4761,8.24695 m -2.7527,37.6474 c -7.0876,25.07154 -20.3368,47.58783 -17.514,69.87364 2.3418,18.49803 13.7924,27.99756 25.1166,43.62969 m 14.5169,30.26222 c 1.3558,5.67166 2.1694,11.97461 2.1514,18.92891 m -77.5043,-304.64628 c 10.2951,12.07482 15.2654,23.81897 17.1302,34.51095 m -2.0502,32.56695 c -4.7548,19.19946 -12.1771,34.65123 -5.3911,52.38769 6.2839,16.41374 18.1122,29.0898 31.0037,42.42722 m 20.8619,22.53633 c 4.5834,5.49129 8.8402,11.23309 12.4556,17.3156 9.1859,15.44174 18.5091,24.34004 26.9244,37.66743 7.9343,12.55582 16.4157,31.98576 16.6522,65.23411 M 1802.8294,684.23187 c 16.3967,19.17943 29.0637,28.87937 42.9533,37.97807 m 24.796,16.48389 c 4.6485,3.48717 9.2851,7.40522 13.8023,12.0648 24.6036,25.3922 60.9654,49.61199 66.7473,88.76248 1.0982,7.43528 0.3096,14.36954 -1.6695,20.87291 m -15.2593,27.79714 c -13.5389,18.69844 -28.1128,34.90175 -28.3363,61.79704 m -80.248,-285.20632 c 17.1423,20.09131 33.1832,28.52865 48.9066,37.29668 15.108,8.42732 29.0808,16.7845 36.1523,34.63119 2.902,7.33508 4.0022,14.89061 3.889,22.45616 m -6.813,34.17025 c -7.1287,21.68458 -16.6412,41.45522 -14.0579,61.31605 2.1294,16.37366 11.0557,26.00346 20.9591,38.86991 m 14.9417,24.4202 c 3.7016,8.76803 6.332,19.32974 6.332,32.04588 m -79.9293,-311.12961 c 15.7003,18.42788 20.8809,34.86167 21.3679,48.17905 m -5.6235,30.04175 c -5.2959,15.08101 -10.9526,27.29612 -4.8871,43.03848 5.5023,14.28938 14.9688,25.81307 25.7249,37.4069 m 20.2837,21.66454 c 7.0876,7.92629 13.7803,16.27345 19.1213,25.37216 9.2911,15.84257 18.6674,24.98135 27.1468,38.62941 7.9924,12.87647 16.5631,32.76736 16.8777,66.79732 M 1810.424,677.74854 c 14.128,16.53399 25.4714,26.24395 37.4099,34.67128 m 25.4824,17.00495 c 6.6717,4.65958 13.3745,9.91038 19.8288,16.65424 24.9322,26.04354 61.5565,50.97479 67.5558,90.9169 1.7156,11.43351 -0.8497,21.65452 -5.3419,31.05384 m -17.1713,26.7049 c -11.642,16.14319 -22.1766,31.59495 -22.3039,55.23355 m 30.0618,0 c -0.043,-17.42582 -4.7678,-30.87347 -10.5767,-41.48528 m -15.3035,-22.20565 c -8.1718,-10.66192 -14.9066,-19.97106 -16.8005,-34.17025 -2.3018,-17.25547 4.0663,-34.23037 10.3452,-52.51796 m 8.9464,-32.9277 c 1.7266,-11.57379 1.3789,-23.34799 -3.1184,-34.65123 -7.2389,-18.18739 -21.3549,-26.78506 -36.6243,-35.47292 -15.9077,-9.04861 -32.109,-17.74649 -49.604,-38.24863"
           id="path1635" />
        <path
           style="font-style:normal;font-weight:400;font-size:medium;font-family:'Noto Sans';vector-effect:none;fill:none;fill-rule:nonzero;stroke:#f10000;stroke-width:2.00412011;stroke-linecap:round;stroke-linejoin:round;stroke-opacity:1"
           inkscape:connector-curvature="0"
           d="m 1955.9662,949.9882 c -0.037,7.66576 -1.3448,14.48979 -3.5112,20.52219 m -22.9863,30.37241 c -17.9719,14.7002 -37.5892,22.9472 -45.3502,41.9262 -7.3762,18.0371 -6.2358,37.6975 -5.815,58.9712 m -1.2295,34.0901 c -0.3798,2.916 -0.8587,5.812 -1.458,8.6678 -3.6234,17.3056 -2.6454,30.0218 -5.1676,45.2932 -2.41,14.5799 -8.768,33.8395 -29.6439,58.3199 m 55.0381,-298.163 c 0.3247,28.52865 4.355,43.35914 9.5977,61.6568 m 6.8291,30.5427 c 0.2906,2.6355 0.489,5.3611 0.5671,8.1869 0.961,34.3907 10.9926,76.4171 -10.9274,108.2124 -1.6204,2.3449 -3.4,4.4492 -5.3089,6.3431 m -30.4977,15.2112 c -25.1768,6.2128 -51.0099,5.9022 -70.8687,29.1199 m 130.6706,-259.273 c 0.068,25.88321 6.3621,42.1266 12.2241,58.9712 5.5785,16.023 10.2571,31.4347 3.4261,48.9807 -1.0602,2.7156 -2.3348,5.2909 -3.7908,7.7259 m -27.6559,25.6026 c -22.2407,13.3876 -47.5237,20.7627 -60.7839,39.2207 -11.0037,15.3215 -9.1238,30.4225 -11.2251,49.7823 m -9.3222,32.607 c -2.7196,5.2108 -6.2288,10.5317 -10.7581,15.8326 m 147.9682,-278.723 c -0.1152,16.16323 -4.2097,28.46852 -9.8994,37.75762 m -23.2107,22.94718 c -16.3706,11.0327 -32.126,17.2154 -39.1855,34.6412 -6.5345,16.1232 -6.6216,33.3285 -6.3741,51.8867 m -0.2265,30.7632 c -0.4118,7.1647 -1.2185,14.2994 -2.7096,21.2337 -3.7898,17.6362 -2.919,30.5428 -5.5925,46.0546 -2.5522,14.8005 -9.1227,34.4108 -30.3894,59.3621 m 57.4641,-304.6463 c 0.2084,25.1016 3.1094,39.96215 7.4022,56.1154 m 7.2038,28.6489 c 1.0572,5.6816 1.8017,11.674 1.94,18.1372 0.7566,35.1723 10.5186,77.9002 -11.7361,110.377 -4.2397,6.1827 -9.5176,10.722 -15.3816,14.1591 m -30.0869,10.2009 c -22.5614,4.7598 -44.6267,7.3551 -62.3762,28.1178 M 1935.925,949.9882 c 0,26.58465 6.2218,43.18879 12.0177,60.4242 5.5123,16.3837 10.1218,32.106 3.1846,50.0429 -2.8479,7.3651 -7.1848,13.6581 -12.4156,19.1193 m -28.2801,20.2817 c -19.9941,10.9224 -40.6015,18.8487 -52.3436,35.3226 -9.6819,13.5779 -9.71,26.9454 -11.0387,43.2589 m -5.1967,28.3784 c -3.0483,9.0786 -8.0065,18.7285 -16.2384,28.3783 m 150.3932,-285.2063 c -0.2295,24.75088 -7.4303,40.80388 -15.9127,51.075 m -24.2469,18.5982 c -14.0298,7.5856 -26.3421,12.656 -32.5839,28.188 -5.6607,14.0889 -6.6487,28.8693 -6.7579,44.6919 m -0.038,29.681 c -0.2485,10.6519 -1.0512,21.3539 -3.3228,31.6751 -3.9542,17.9669 -3.1926,31.0638 -6.0164,46.8162 -2.6946,15.0309 -9.4765,34.9819 -31.134,60.4042 m 59.8891,-311.1296 c 0.1172,21.72466 2.1174,35.97395 5.4121,50.2834 m 7.4243,29.5307 c 1.7606,7.9062 3.1194,16.2935 3.2617,25.6126 0.5511,35.9339 10.0446,79.3832 -12.5448,112.5314 -6.4793,9.5095 -15.2694,15.2313 -24.9373,19.0892 m -30.7321,8.1568 c -19.452,4.1786 -37.8478,8.8983 -53.3437,27.0356 m 22.7848,19.4499 c 11.2241,-13.157 16.528,-26.2539 19.2566,-38.1083 m 3.5022,-26.8853 c 1.1394,-13.4777 2.5413,-25.0414 10.8844,-36.8257 10.1388,-14.3294 26.4905,-22.376 43.5636,-31.4146 m 29.0056,-17.9168 c 9.1468,-7.285 16.9017,-16.1532 21.2787,-27.5466 7.0445,-18.3377 2.5022,-34.3807 -2.942,-51.1151 -5.7298,-17.62623 -11.8804,-34.59111 -11.8123,-61.8772 m -105.1411,298.163 c -4.9031,5.7518 -10.216,10.0907 -15.7043,13.3173 m -37.0893,8.8582 c -23.3049,0.1403 -44.291,-5.4812 -62.3882,5.0204 -17.2224,10.0005 -28.4134,26.6447 -40.9402,43.9804 m -21.5192,26.5946 c -2.0553,2.1044 -4.1746,4.1285 -6.3681,6.0525 -13.2753,11.6339 -20.1204,22.3259 -31.3334,32.8776 -10.6279,10.0005 -27.5096,21.5443 -58.9673,27.8071 m 228.7393,-203.3981 c -18.7035,21.875 -25.5786,36.9961 -32.9448,54.4018 m -13.8314,28.5688 c -1.4159,2.2847 -2.9521,4.5794 -4.6375,6.8841 -20.6425,28.1579 -37.7617,67.7092 -74.4982,79.8542 -2.7095,0.8918 -5.3981,1.5031 -8.0595,1.8538 m -33.4027,-6.2629 c -23.8571,-10.3012 -43.5666,-25.9533 -72.9129,-20.2115 m 263.0718,-125.6383 c -16.8025,19.6804 -22.385,36.6553 -28.3192,53.4098 -5.7047,16.0931 -11.4856,31.0839 -27.6829,40.7538 -2.5142,1.5031 -5.1065,2.7556 -7.757,3.7978 m -37.7225,3.4771 c -26.0135,-2.8158 -50.6201,-12.0347 -72.2676,-5.1806 -17.8928,5.6616 -25.3441,18.8086 -38.5933,32.8275 m -26.9384,19.961 c -5.2798,2.415 -11.2561,4.4091 -18.017,5.7518 m 287.6784,-128.8749 c -10.2952,12.0848 -21.1034,18.8487 -31.3665,22.386 m -32.5429,3.1465 c -19.7456,-1.6534 -36.2976,-6.5234 -52.8006,3.1064 -15.2994,8.9183 -25.9643,22.7868 -37.0211,37.8277 m -18.7645,24.5304 c -4.6436,5.4913 -9.5717,10.7021 -14.9327,15.3416 -13.621,11.7842 -20.6826,22.5564 -32.1902,33.2083 -10.9024,10.0907 -28.202,21.7747 -60.3611,28.1979 m 234.4089,-206.6348 c -16.4067,19.1995 -24.0284,33.2484 -30.8444,48.4597 m -12.3775,27.1959 c -2.7075,5.1706 -5.837,10.4013 -9.721,15.6321 -21.2055,28.5888 -38.946,68.4808 -76.389,80.9364 -7.1166,2.3648 -14.0689,2.8058 -20.8108,1.9941 m -30.0487,-10.0106 c -20.8269,-9.8803 -39.4562,-21.0433 -65.7652,-15.8826 m 268.7424,-128.875 c -17.1552,20.1013 -22.9592,37.2766 -29.1289,54.2515 -5.9251,16.3036 -11.9165,31.4647 -28.4033,41.3551 -6.768,4.0583 -14.0599,6.3731 -21.5594,7.5054 m -34.9458,-1.0822 c -22.6666,-3.407 -43.8932,-9.3994 -63.1328,-3.2567 -15.8225,5.0504 -23.7959,15.6822 -34.6232,27.7771 m -21.1745,19.2095 c -7.8822,5.2808 -17.6633,9.8302 -30.0007,12.2652 m 293.3491,-132.1016 c -15.7013,18.4279 -31.0929,26.1538 -44.1788,28.7491 m -30.619,-0.7816 c -15.7644,-2.8358 -28.8052,-6.4733 -43.4423,2.1043 -13.2893,7.7961 -23.1786,19.0993 -32.8796,31.7152 m -18.004,23.7689 c -6.6236,8.3772 -13.6972,16.4338 -21.7247,23.2979 -13.9657,11.9345 -21.2446,22.7868 -33.0479,33.5389 -11.175,10.181 -28.8934,22.0153 -61.7539,28.5888 m 240.0795,-209.8714 c -14.1361,16.544 -21.9601,29.2802 -28.4204,42.4472 m -12.7703,27.9475 c -3.5443,7.3551 -7.6597,14.8405 -13.2823,22.3359 -21.7677,28.9996 -40.1305,69.2423 -78.2789,82.0086 -10.9175,3.6575 -21.399,2.906 -31.4266,0.1503 m -29.3103,-12.0548 c -17.9649,-8.4574 -35.0841,-15.8125 -58.1385,-11.2732 m 5.7739,29.15 c 16.8847,-3.3469 29.0717,-10.4315 38.3819,-18.0972 m 18.964,-19.1193 c 8.9854,-9.9806 17.0009,-18.3478 30.7031,-22.7568 16.6783,-5.3611 34.5861,-2.0041 53.7435,1.1123 m 34.063,3.3769 c 11.7311,-0.2004 23.2989,-2.4651 33.7213,-8.738 16.7765,-10.1007 22.9793,-25.4423 29.1239,-41.9462 6.4062,-17.1953 12.4305,-34.5711 29.9375,-55.0933 m -266.7143,170.9815 c -7.4082,1.4731 -14.2713,1.5733 -20.5672,0.6614 m -34.2635,-16.4538 c -9.721,-7.9764 -17.9739,-17.1954 -26.6658,-24.4904 -7.1327,-5.8821 -14.4738,-10.3613 -23.4803,-12.1049 -19.0421,-3.6875 -38.1073,1.1925 -58.8279,5.4613 m -33.5991,4.8399 c -2.924,0.1303 -5.844,0.1604 -8.749,0.07 -17.5861,-0.5812 -29.9014,2.5051 -45.3161,2.5452 -14.7113,0.04 -34.7434,-3.0663 -62.2019,-19.7005 m 302.1231,0.8618 c -27.8092,5.4412 -41.7468,12.2952 -58.6275,20.8929 m -28.8213,12.7061 c -2.5542,0.8117 -5.2057,1.5332 -7.9724,2.1545 -33.7884,7.5856 -73.2636,24.9513 -108.469,8.748 -2.5913,-1.1925 -4.9692,-2.5854 -7.1557,-4.1386 m -20.0802,-27.3963 c -10.2952,-23.6987 -14.11,-49.0508 -40.0033,-64.8633 m 276.9033,81.0566 c -36.1744,7.1447 -53.3166,25.5425 -75.7227,33.8696 -8.3331,3.0263 -17.2875,4.4392 -27.4645,2.5453 -2.9039,-0.5311 -5.6987,-1.3127 -8.3872,-2.2947 m -30.4225,-22.5464 c -17.2705,-19.4901 -28.8253,-42.8781 -49.096,-52.6582 -16.8216,-8.1167 -31.2041,-3.7077 -50.5449,-2.5753 m -33.4918,-3.8379 c -5.5484,-1.8338 -11.3363,-4.4291 -17.2705,-8.0365 m 300.0989,94.404 c -15.6161,3.1164 -28.3683,1.6634 -38.5943,-2.0241 m -27.1438,-18.1974 c -6.3521,-6.2729 -11.8494,-12.8465 -17.6834,-18.4379 -6.9363,-6.5836 -14.1992,-11.5939 -24.1446,-13.5078 -17.0591,-3.2768 -33.9609,-0.08 -52.0921,3.5473 m -30.2071,5.2708 c -7.1026,0.8518 -14.2383,1.2927 -21.3068,1.0121 -17.962,-0.7015 -30.4937,2.3047 -46.189,2.2346 -14.9677,-0.07 -35.3927,-3.3369 -63.4003,-20.2817 m 309.2137,2.0743 c -24.4393,4.7998 -38.5763,10.5416 -53.5521,17.8466 m -26.8913,12.6961 c -5.4162,2.1645 -11.203,4.0584 -17.5671,5.4312 -34.6493,7.4654 -74.9241,24.6607 -110.9,8.2169 -6.825,-3.1264 -12.2001,-7.5455 -16.5721,-12.7362 m -15.073,-27.8472 c -8.4123,-21.384 -14.4857,-42.5876 -37.6644,-56.7166 m 283.9938,82.2691 c -37.0602,7.3351 -54.6874,25.783 -77.6476,34.1702 -8.5386,3.0062 -17.7074,4.3891 -28.1288,2.4651 -7.8612,-1.443 -14.9277,-4.5694 -21.3078,-8.7379 m -25.2329,-24.1697 c -14.3816,-17.7165 -25.7018,-36.475 -43.796,-45.1228 -14.9207,-7.1447 -27.9665,-4.9001 -44.1909,-3.4972 m -28.684,-0.4609 c -9.4103,-1.5232 -19.7005,-4.84 -30.5027,-11.4035 m 307.1896,95.6266 c -23.9082,4.7798 -40.9582,1.1424 -52.7916,-5.1005 m -23.1516,-20.1213 c -3.2567,-3.9181 -6.2689,-7.786 -9.4033,-11.3333 -6.6597,-7.5055 -13.6651,-13.2673 -24.809,-15.3917 -14.9357,-2.8458 -29.6449,-1.0121 -45.1809,1.7737 m -29.1609,5.3009 c -10.5056,1.6333 -21.1565,2.6955 -31.6952,2.2245 -18.3367,-0.8217 -31.0839,2.0943 -47.0597,1.914 -15.2243,-0.1804 -36.0441,-3.6074 -64.5998,-20.8629 m 316.3042,3.2867 c -21.1104,4.1586 -34.7885,8.9083 -48.148,14.9107 m -27.7049,13.127 c -7.5004,3.2867 -15.55,6.2528 -24.7469,8.1567 -35.509,7.3552 -76.5854,24.3601 -113.33,7.6758 -10.4986,-4.7698 -17.6422,-12.4556 -23.0734,-21.3138 m -13.144,-28.8393 c -7.3171,-18.4178 -14.8936,-35.7034 -35.1633,-48.0387 m -15.4969,25.5124 c 14.7463,8.9484 28.4926,12.0448 40.5794,12.7963 m 26.9645,-0.982 c 13.4075,-1.1223 24.9443,-1.7035 37.9039,4.4391 15.7484,7.4754 26.4724,22.0654 38.442,37.2466 m 22.9763,25.3421 c 8.9013,7.7058 19.1774,13.7583 31.3494,15.9929 10.6659,1.944 20.0492,0.5912 28.7932,-2.395 23.5133,-8.4473 41.6276,-26.9453 79.5726,-34.4808 m -311.7469,-49.4517 c -6.4503,-3.908 -11.5728,-8.4474 -15.6211,-13.3474 m -14.596,-35.1423 c -3.7988,-22.9572 -1.5312,-44.6017 -14.7433,-60.8651 -12.5929,-15.5119 -30.8444,-23.9993 -50.0639,-33.6592 m -29.8815,-17.045 c -2.425,-1.6935 -4.7818,-3.4672 -7.0515,-5.321 -13.7382,-11.2431 -25.4814,-16.2233 -37.8262,-25.4924 -11.7493,-8.8281 -25.9337,-23.4181 -37.6948,-53.2094 m 238.472,193.0469 c -24.4543,-14.9307 -40.3008,-19.3298 -58.6766,-23.8891 m -30.3684,-9.1889 c -2.4841,-1.0422 -4.9963,-2.2045 -7.5355,-3.5072 -31.102,-15.9829 -73.0031,-26.6248 -91.0442,-60.8752 -1.3327,-2.5352 -2.3759,-5.0904 -3.1685,-7.6657 m 0.6012,-34.1001 c 6.1186,-25.302 18.1493,-47.678 7.0014,-75.6956 m 167.6938,240.4342 c -22.0464,-13.3975 -39.5864,-16.2233 -57.0804,-19.45 -16.7835,-3.0963 -32.5078,-6.4432 -44.6297,-20.9029 -1.8819,-2.2547 -3.5333,-4.6095 -4.9773,-7.0645 m -9.4384,-36.7656 c -1.3568,-26.1839 3.7798,-52.1472 -6.6536,-72.5492 -8.6168,-16.8546 -22.9913,-22.1255 -39.1535,-32.8375 m -24.4869,-23.1876 c -3.3227,-4.7799 -6.3707,-10.3213 -8.9148,-16.7445 m 174.6721,263.5318 c -13.5609,-8.2069 -21.9622,-17.7866 -27.0757,-27.3362 m -8.2339,-31.595 c -1.479,-19.7305 0.7455,-36.8657 -11.3604,-51.6862 -11.2341,-13.7583 -26.6397,-22.1556 -43.335,-30.7132 m -27.3573,-14.6501 c -6.1977,-3.7076 -12.17,-7.7359 -17.6533,-12.2752 -13.9336,-11.5437 -25.784,-16.7144 -38.2657,-26.244 -11.8711,-9.0686 -26.2507,-24.0294 -38.2449,-54.4419 m 242.5199,197.9069 c -21.4741,-13.097 -36.4189,-18.3878 -52.521,-22.7368 m -28.7902,-7.9563 c -5.5313,-1.8639 -11.19,-4.1385 -16.9789,-7.1547 -31.6079,-16.4539 -73.952,-27.6368 -92.3939,-62.4985 -3.5112,-6.6337 -5.0864,-13.4276 -5.4133,-20.2316 m 4.8481,-31.4046 c 6.2018,-22.2557 13.9758,-42.7278 4.0103,-67.7993 m 171.742,245.2942 c -22.5373,-13.6881 -40.3188,-16.6943 -58.0794,-20.1113 -17.0209,-3.2768 -32.9587,-6.794 -45.3402,-21.5042 -5.0844,-6.0425 -8.5325,-12.8765 -10.8372,-20.1114 m -4.4983,-34.7414 c -0.2525,-22.9772 2.2266,-45.0426 -7.0836,-63.1498 -7.6527,-14.8806 -19.5842,-21.0533 -33.4177,-29.7111 m -22.6889,-17.6363 c -6.5976,-6.8641 -12.8063,-15.6922 -17.4371,-27.3963 m 178.72,268.3918 c -20.7056,-12.5158 -30.7803,-26.4744 -35.4108,-38.9601 m -4.0564,-30.3223 c 0.3147,-16.0029 1.8729,-29.4706 -8.9133,-42.5976 -9.7981,-11.9346 -22.5504,-19.951 -36.6052,-27.5466 m -26.4564,-14.0189 c -9.3733,-5.2007 -18.5131,-10.8924 -26.6328,-17.6963 -14.128,-11.8444 -26.086,-17.1954 -38.7045,-26.9955 -11.9926,-9.3092 -26.5675,-24.6307 -38.7948,-55.6645 m 246.5679,202.7669 c -18.5201,-11.2832 -32.2363,-16.9749 -46.2521,-21.2838 m -29.5838,-8.2169 c -7.8251,-2.3448 -15.8696,-5.2307 -24.1637,-9.6097 -32.113,-16.9248 -74.901,-28.6389 -93.7436,-64.1118 -5.4007,-10.1709 -6.3894,-20.6425 -5.3369,-31.0038 m 6.9662,-31.0238 c 5.2778,-19.1894 9.5325,-37.457 0.8271,-59.392 m -27.6405,10.9324 c 6.3218,15.9929 15.4201,26.745 24.6217,34.6112 m 22.1747,15.4718 c 11.4115,7.1948 21.0844,13.7683 27.736,26.6448 8.1007,15.6722 7.6959,33.9898 7.6808,53.4599 m 2.1054,34.2303 c 2.0582,11.5638 6.1256,22.6265 13.9827,31.9257 12.641,14.9507 28.7922,18.6483 46.0517,22.1054 18.026,3.6174 36.0481,6.804 59.0774,20.7727 m -212.6439,-235.5743 c -2.7653,-7.0044 -4.0849,-13.7082 -4.335,-20.0412 m 9.7736,-36.5551 c 11.0161,-20.3619 26.0174,-35.5531 26.1113,-56.00516 0.074,-16.16322 -5.5959,-30.90353 -12.2065,-46.81624 -1.429,-3.3068 -2.8667,-6.59355 -4.3027,-9.9705 m -11.3036,-32.16612 c -0.6849,-2.85587 -1.2634,-5.72177 -1.7122,-8.59768 -2.7167,-17.40578 -7.969,-28.95953 -10.7302,-44.11068 -2.6312,-14.4497 -3.0639,-34.77148 8.7058,-64.57275 m 55.2809,296.96053 c -10.4996,-26.3943 -20.1506,-39.0704 -31.7298,-53.7906 m -17.8931,-25.6528 c -1.2727,-2.3348 -2.4909,-4.7798 -3.6338,-7.3651 -7.1894,-16.25342 -16.9957,-32.76736 -23.8752,-50.7343 -6.6565,-17.62624 -10.2727,-36.34472 -5.6498,-54.65235 0.703,-2.78573 1.6423,-5.39109 2.7787,-7.83611 m 23.3486,-24.7609 c 21.5258,-14.38959 45.5426,-22.36598 56.6544,-50.2934 m -27.6409,286.01796 c -9.4459,-23.829 -21.5086,-36.5852 -33.251,-49.8224 -11.2259,-12.646 -21.5018,-25.1016 -21.8899,-44.0004 -0.06,-2.9361 0.1364,-5.82202 0.5562,-8.64783 m 16.0747,-34.38067 c 3.0332,-3.99822 6.2887,-7.85615 9.6152,-11.6239 13.8843,-15.82253 28.1643,-29.30023 32.8043,-46.81624 4.7531,-17.9469 -2.2401,-31.15405 -6.8018,-49.92263 m -2.0701,-33.45879 c 0.851,-5.75182 2.4186,-11.86439 4.9629,-18.28759 m -36.8546,311.55045 c -5.8131,-14.7403 -6.6704,-27.4564 -4.9226,-38.1183 m 12.7148,-29.8815 c 10.9223,-16.4037 23.1323,-28.1579 23.1296,-46.94648 0,-16.59411 -5.731,-31.7653 -12.3854,-48.11892 -0.087,-0.21043 -0.9249,-2.20453 -1.0117,-2.41496 m -11.1151,-28.80923 c -2.197,-6.84407 -3.9729,-13.79837 -5.0128,-20.81279 -2.642,-17.83666 -7.84,-29.62089 -10.5222,-45.0927 -2.5543,-14.7403 -2.8787,-35.50298 9.1259,-65.93554 m 55.2806,304.25552 c -9.2129,-23.1877 -17.6965,-36.1744 -27.6499,-49.3315 m -17.5295,-23.7588 c -3.1385,-4.85 -6.1149,-10.1208 -8.7051,-16.063 -7.2648,-16.6743 -17.1299,-33.61914 -24.0541,-52.037 -6.6128,-18.06714 -10.1702,-37.21651 -5.4709,-55.95503 1.8403,-7.33508 5.2401,-13.47771 9.5656,-18.73852 m 24.7169,-19.86083 c 19.5562,-12.08485 39.1856,-21.61444 49.128,-46.63587 m -27.6414,293.31295 c -9.6581,-24.4001 -21.8032,-37.487 -33.646,-51.085 -11.3115,-12.9767 -21.6581,-25.7529 -22.1232,-45.0827 -0.1912,-7.94631 1.4172,-15.47178 4.2005,-22.57638 m 18.7537,-29.69104 c 1.0277,-1.24255 2.0668,-2.46507 3.113,-3.68758 13.9291,-16.24339 28.2544,-30.1119 32.9832,-48.11892 4.1836,-15.94278 -0.4249,-28.27813 -4.7011,-43.94033 m -4.5886,-28.20799 c -0.1302,-9.48951 1.3778,-20.16145 6.0089,-31.85549 m -36.8546,318.83543 c -8.8769,-22.5263 -8.3766,-39.7918 -4.444,-52.4779 m 15.2919,-26.3241 c 10.0704,-12.3454 19.5233,-21.7347 19.4457,-38.47908 -0.071,-15.21127 -4.6818,-29.24011 -10.4487,-44.0706 m -10.9242,-27.81718 c -3.6322,-10.08073 -6.676,-20.39193 -8.1521,-30.89351 -2.5674,-18.24752 -7.711,-30.28226 -10.3142,-46.0647 -2.4774,-15.0309 -2.6936,-36.23449 9.5461,-67.29835 m 55.2806,311.55052 c -7.9428,-20.0212 -15.2748,-32.6672 -23.6435,-44.5416 m -18.0692,-24.4703 c -4.6415,-6.6337 -9.1103,-13.8886 -12.8,-22.4862 -7.3401,-17.09519 -17.2642,-34.47091 -24.233,-53.3397 -6.56915,-18.50805 -10.06776,-38.0883 -5.29192,-57.25771 2.81412,-11.30324 9.13532,-19.79068 16.88932,-26.755 m 26.0468,-18.10722 c 16.837,-10.46151 32.4101,-20.81279 41.1019,-42.71782 m -27.6405,-10.93248 c -6.3223,15.99288 -7.0235,30.04176 -5.6615,42.03642 m 5.7185,26.29405 c 3.5055,12.96666 6.2031,24.14965 2.5957,38.00814 -4.3895,16.86467 -16.6743,30.16201 -29.4273,45.03258 m -20.4221,27.7771 c -5.7537,10.3112 -9.53831,21.59439 -9.20102,33.87964 0.54201,19.7606 10.95952,32.8475 22.35632,46.1649 11.9437,13.9587 24.1707,27.3763 34.041,52.3476 m -9.213,-315.18793 c 2.7653,-7.00439 6.3828,-12.80632 10.5242,-17.59617 m 32.1538,-20.0913 c 21.9391,-7.43529 43.5836,-8.61772 57.5183,-24.13963 13.2923,-14.80042 18.8277,-34.08006 25.3741,-54.59223 m 12.17,-32.22625 c 1.2937,-2.66548 2.6725,-5.28085 4.1516,-7.81606 8.9554,-15.38162 12.0087,-27.81719 19.1894,-41.54541 6.8521,-13.09693 18.937,-29.44052 46.3974,-46.07472 m -152.1979,265.95674 c 10.5207,-26.43434 12.2412,-42.44726 13.7804,-61.30603 m 4.2016,-31.30435 c 0.6313,-2.60536 1.3738,-5.26082 2.2586,-7.96638 10.8173,-33.09804 14.8075,-76.24674 45.7441,-99.50456 2.2897,-1.71352 4.6515,-3.15648 7.0685,-4.34894 m 33.8496,-4.87001 c 25.9944,1.97406 50.3104,10.24106 76.2888,-5.62155 m -210.832,203.97933 c 9.4634,-23.87909 9.387,-41.45522 9.744,-59.23177 0.3415,-16.99493 1.1365,-33.03792 13.4633,-47.28721 1.9149,-2.21455 3.9812,-4.20865 6.1717,-6.02238 m 34.7645,-15.11106 c 25.5996,-5.45121 52.1512,-4.44915 70.7344,-18.00702 15.3636,-11.20303 18.3377,-26.3141 26.3562,-44.08062 m 18.992,-28.10778 c 4.1966,-4.08841 9.1749,-8.03653 15.1091,-11.65396 m -232.1893,214.92183 c 5.8126,-14.74031 13.8608,-24.60058 22.4133,-31.20415 m 29.7178,-13.22719 c 19.1664,-4.62952 36.3678,-5.14057 49.0539,-19.36982 11.7762,-13.20715 17.6522,-29.68102 23.5003,-47.51769 m 10.1859,-29.3303 c 2.6925,-6.7138 5.7348,-13.26727 9.3592,-19.4099 9.21,-15.62211 12.4266,-28.19797 19.8298,-42.09654 7.0595,-13.24723 19.46,-29.84134 47.4676,-46.78618 M 1091.414,808.79775 c 9.229,-23.22775 11.9756,-38.57931 13.6631,-55.15339 m 3.2176,-29.56077 c 0.9549,-5.73178 2.2937,-11.66397 4.3479,-17.84668 11.2011,-33.68926 15.6372,-77.36906 47.0938,-101.11788 5.9984,-4.52931 12.4607,-7.16473 19.1304,-8.57763 m 31.8645,-0.2405 c 23.0123,2.53521 44.6888,6.88415 67.9216,-7.28497 M 1063.773,797.86527 c 9.6737,-24.45026 9.7433,-42.30697 10.2512,-60.38413 0.4854,-17.27552 1.4198,-33.56901 13.9447,-48.11893 5.1446,-5.98229 11.3343,-10.47152 18.1002,-13.88855 m 33.566,-9.91037 c 22.6295,-3.86795 44.8793,-4.88003 61.3541,-16.96488 13.5519,-9.94043 17.7936,-22.7668 24.1457,-37.87786 m 13.7853,-25.37216 c 5.7218,-7.67578 13.4326,-15.29144 24.2358,-21.84491 m -236.2371,219.7718 c 8.873,-22.51629 20.9873,-34.76146 32.5024,-41.35502 m 29.1629,-8.89829 c 15.7884,-2.25464 29.2792,-2.85587 40.5082,-15.53193 10.205,-11.51367 16.1152,-25.32206 21.4201,-40.39304 m 9.6929,-28.33826 c 3.6655,-10.08072 7.8421,-20.03118 13.2813,-29.1399 9.4655,-15.87263 12.8444,-28.56873 20.4711,-42.63765 7.2669,-13.41759 19.9841,-30.24218 48.5368,-47.50767 m -160.2947,275.67673 c 7.9545,-20.0412 11.2914,-34.33058 13.2674,-48.82037 m 3.3309,-30.39248 c 1.0581,-8.0766 2.6234,-16.45382 5.6195,-25.32205 11.5858,-34.28047 16.4659,-78.50138 48.4436,-102.74121 9.1799,-6.9543 19.3588,-9.60976 29.7832,-10.22102 m 31.8194,1.90392 c 19.8468,2.10432 38.7216,3.31682 59.0234,-9.0486 m -15.4969,-25.51245 c -14.7493,8.9484 -23.872,19.71052 -30.163,30.12192 m -11.7301,24.49035 c -5.2979,12.47565 -10.2811,23.11752 -21.9842,31.74526 -14.2423,10.50159 -32.4527,12.9867 -51.6682,16.03296 m -33.4538,7.47537 c -11.0798,3.85793 -21.3378,9.62979 -29.2472,18.86879 -12.7228,14.86055 -13.7966,31.40456 -14.4259,48.95063 -0.6592,18.3878 -0.8742,36.52509 -10.7586,61.5365 M 1252.8247,546.4887 c 6.4513,-3.90803 12.8464,-6.34304 19.0532,-7.66576 m 37.7927,3.32684 c 22.0232,7.26494 39.7537,19.24957 59.9582,15.40166 19.2055,-3.65752 34.9559,-15.33152 52.512,-27.12576 m 29.2792,-17.19535 c 2.6644,-1.22251 5.367,-2.34482 8.1066,-3.3569 10.1609,-3.71765 17.5281,-7.61566 25.4714,-11.7241 16.2825,-8.40729 37.8989,-19.51011 81.4985,-10.83227 m -282.6781,110.20656 c 24.4052,-14.90064 35.475,-26.90532 47.8935,-40.92413 m 22.0613,-22.3259 c 2.0643,-1.68346 4.2458,-3.33686 6.5695,-4.94016 28.2271,-19.43996 58.1586,-50.97479 97.1918,-49.28131 2.881,0.12025 5.6386,0.52107 8.2801,1.14235 m 29.1308,18.17737 c 18.5422,18.62829 30.6481,40.51328 60.0024,46.25509 m -286.6262,26.37422 c 22.0042,-13.3775 32.5799,-27.61678 43.5024,-41.48529 10.4876,-13.31737 20.8158,-25.58259 39.2337,-29.39042 2.8598,-0.59121 5.7117,-0.92189 8.5465,-1.03212 m 36.5321,9.27908 c 23.327,11.40344 43.0786,28.699 65.3824,30.33235 8.8833,0.65134 16.1753,-1.1223 23.4793,-4.1385 7.792,-3.37695 15.4518,-8.08663 24.337,-12.20509 m 32.5249,-8.41731 c 5.8079,-0.23047 12.0999,0.19039 18.8618,1.52313 m -313.0616,21.51423 c 13.5599,-8.20687 25.9423,-11.20303 36.7596,-11.30324 m 31.6851,7.33508 c 18.0892,7.84613 31.9336,17.7064 50.4287,14.12905 17.1222,-3.3068 31.5348,-12.61594 46.9345,-22.84697 m 25.9603,-16.3436 c 6.2659,-3.48717 12.7362,-6.60357 19.434,-9.01854 10.4324,-3.75772 17.9839,-7.67578 26.1357,-11.80426 16.6793,-8.35719 38.8529,-19.42995 83.4225,-10.53166 m -289.7677,111.41906 c 21.4381,-13.06687 32.9337,-23.87909 44.1407,-36.01404 m 20.2747,-21.57435 c 4.2017,-3.96816 8.8302,-7.85615 14.1802,-11.49363 28.9695,-19.69048 59.6967,-51.38564 99.6218,-49.82242 7.5966,0.29059 14.3415,2.37488 20.424,5.58147 m 24.5665,20.60235 c 15.7984,17.09515 28.698,34.45083 55.0121,39.61144 m -293.7169,27.59673 c 22.4983,-13.6681 33.3716,-28.02762 44.6138,-42.03642 10.7841,-13.44764 21.3939,-25.82308 40.1936,-29.75116 7.7189,-1.61332 15.3606,-1.40288 22.7908,0.01 m 32.4217,12.70612 c 20.0222,10.88237 37.7255,23.9793 57.6786,25.33208 9.1307,0.61126 16.6312,-1.19245 24.1436,-4.21867 6.0013,-2.51517 11.8293,-5.72177 18.2525,-8.91834 m 26.9344,-9.93041 c 9.3282,-1.91394 20.1174,-2.39493 32.4617,0.0601 m -320.1521,22.7167 c 20.7055,-12.51573 37.7576,-14.95073 50.9417,-13.25725 m 28.6148,10.45148 c 13.9457,7.71587 24.9333,15.30146 41.3871,12.07483 14.9257,-2.92602 27.8272,-10.16089 41.1366,-18.63832 m 24.9713,-15.99288 c 9.1147,-5.51133 18.6203,-10.56171 28.6519,-14.11902 10.704,-3.79781 18.4389,-7.73591 26.8001,-11.88443 17.0761,-8.30708 39.8078,-19.33976 85.3475,-10.23104 M 1273.4872,580.5086 c 18.496,-11.26316 29.8173,-20.79275 40.0473,-31.14403 m 20.895,-22.18561 c 5.6927,-5.76184 11.9896,-11.46356 19.7235,-16.65423 29.7131,-19.93098 61.2349,-51.79649 102.0528,-50.36354 11.207,0.40082 20.5713,4.50927 28.7922,10.3613 0.3597,0.26054 0.7185,0.52107 1.0742,0.79163 m 23.0494,22.35596 c 13.606,14.70022 26.6157,27.97751 49.6761,32.51684 m 5.7739,-29.14992 c -16.9008,-3.3569 -30.9035,-1.46301 -42.4934,2.14441 m -24.8811,10.702 c -4.1475,2.05422 -8.1448,3.99822 -12.1991,5.6416 -7.7199,3.05628 -15.4307,4.88003 -24.807,4.29883 -17.3998,-1.08222 -32.9337,-10.55169 -49.7853,-20.02116 m -30.8334,-14.63007 c -11.1069,-3.70762 -22.7839,-5.37104 -34.7044,-2.85587 -19.1814,4.04832 -30.0728,16.52397 -41.1526,30.09186 -11.5637,14.15911 -22.7327,28.63887 -45.725,42.58755 m 308.5062,-67.67913 c 7.4073,1.47303 13.7714,4.00824 19.2256,7.24489 m 25.3551,28.09776 c 11.0647,20.2817 15.7534,41.24479 33.1932,52.34762 16.6262,10.58175 36.3648,12.90653 57.5624,16.09308 m 33.6271,6.90419 c 2.8308,0.85176 5.6236,1.80371 8.3612,2.85588 16.573,6.4232 29.3313,7.48538 44.0315,12.41552 14.0439,4.70968 32.0739,14.0589 52.9529,38.54925 M 1554.9478,545.62693 c 27.8102,5.44118 43.4573,4.33892 62.3041,2.61537 m 31.3574,-1.13232 c 2.6615,0.18037 5.3881,0.47097 8.1869,0.90185 34.1762,5.16061 77.3971,2.26466 105.2213,29.0898 2.0602,1.98408 3.8539,4.08841 5.4131,6.28292 m 10.1348,32.64711 c 2.1364,25.94334 -2.2165,51.42572 17.6684,74.68354 M 1560.7217,516.46698 c 25.1687,4.97022 42.3029,1.86383 59.863,-0.81167 16.7425,-2.54523 32.6892,-4.4291 48.7382,5.351 2.4932,1.52314 4.8039,3.22664 6.9473,5.08045 m 20.4961,31.72522 c 9.4545,24.28993 12.631,50.62407 28.8574,66.81736 13.4436,13.41758 28.7952,13.99878 47.6289,19.14937 m 30.8123,14.36954 c 4.7207,3.51723 9.4264,7.81606 13.9547,13.11696 M 1568.4205,477.59707 c 15.6051,3.11641 26.772,9.3392 34.7605,16.60414 m 18.1372,26.92535 c 7.8121,18.0471 11.1319,34.7815 27.1268,44.88227 14.8405,9.36926 31.9086,12.47565 50.3645,15.39164 m 30.4727,5.37104 c 7.0365,1.59328 13.9697,3.56734 20.6043,6.17269 16.8577,6.62362 29.7783,7.82609 44.6859,12.94662 14.2333,4.88003 32.5599,14.48978 53.8277,39.4511 M 1556.8728,535.90695 c 24.4472,4.79986 39.7587,4.80988 56.3528,3.61743 m 29.5127,-1.83377 c 5.7869,-0.02 11.8293,0.31064 18.2335,1.3127 34.8596,5.46123 78.7018,2.92602 107.1112,30.17203 5.4201,5.20069 9.0496,11.16295 11.4946,17.51601 m 5.2618,31.4246 c 1.1153,23.11752 0.2245,45.33319 17.99,66.11592 M 1562.6466,506.75702 c 25.7991,5.10049 43.2549,2.10433 61.1628,-0.46095 17.058,-2.44502 33.2874,-4.21867 49.6881,5.71175 6.7389,4.07838 12.174,9.4394 16.6442,15.53193 m 15.1802,31.41458 c 7.4123,21.63447 11.8985,43.39921 26.3672,57.74871 11.9185,11.82431 25.2199,14.01882 41.1627,17.92686 m 27.269,9.63981 c 8.5015,4.44915 17.2615,10.87236 25.4944,20.51217 M 1570.3455,467.87709 c 23.87,4.77983 38.0993,14.6401 46.5747,24.82103 m 13.7473,27.13578 c 4.89,15.13111 7.6968,28.23805 21.9531,37.17643 12.9516,8.11669 27.4354,11.68402 43.0916,14.48979 m 29.4155,5.03034 c 10.5096,2.01414 20.9731,4.55937 30.8243,8.48745 17.1433,6.84407 30.2242,8.17681 45.3412,13.4777 14.4217,5.06041 33.044,14.94072 54.7025,40.36298 m -297.198,-112.67163 c 21.1194,4.15855 35.5711,4.93014 50.1702,4.36899 m 30.3764,-1.88388 c 8.0997,-0.31064 16.5961,-0.16033 25.803,1.33274 35.5431,5.75183 80.0055,3.57736 109.0011,31.25425 8.3291,7.94634 12.5528,17.56612 14.8085,27.75707 m 3.1384,31.72522 c 1.0442,19.93097 2.8228,38.85988 18.3287,57.00719 m 22.7858,-19.43996 c -11.224,-13.16707 -23.3269,-20.47209 -34.6221,-25.0515 m -26.0616,-7.73591 c -13.1591,-3.28675 -24.4282,-6.54345 -34.7705,-16.7344 -12.5778,-12.39548 -17.8807,-29.95157 -23.9432,-48.36944 m -12.7462,-31.7152 c -5.6035,-10.27111 -12.9767,-19.41992 -23.3931,-25.69281 -16.7534,-10.09075 -33.2654,-8.41731 -50.6381,-6.08251 -18.2565,2.46507 -36.0331,5.351 -62.4634,0.11023 m 276.2339,154.78821 c 4.903,5.75182 8.3441,11.68402 10.6579,17.60619 m 2.8859,37.96805 c -3.5503,22.99728 -12.4045,42.67774 -5.0253,62.08764 7.0154,18.44793 21.4701,32.06592 36.3317,47.22709 m 22.3629,25.59261 c 1.7045,2.38491 3.3189,4.80989 4.8189,7.295 9.0817,15.06096 18.3518,23.70874 26.7019,36.70546 7.8772,12.25519 16.2695,31.20415 16.4268,63.68091 m -160.7324,-259.273 c 18.6884,21.8449 32.5288,30.96365 48.4856,40.94417 m 25.8803,18.11724 c 2.0211,1.76363 4.0302,3.63748 6.0173,5.66164 24.2749,24.74086 60.3751,48.25921 65.9386,86.60805 0.4098,2.82581 0.5361,5.58147 0.4198,8.25697 m -12.1269,31.75528 c -14.4908,21.61444 -33.6652,37.99812 -34.0059,67.92965 m -77.823,-278.72299 c 16.7895,19.67044 32.6712,27.83723 48.2101,36.3347 14.9467,8.17681 28.7772,16.28347 35.6804,33.79948 1.0712,2.71558 1.8859,5.47125 2.4761,8.24695 m -2.7527,37.6474 c -7.0876,25.07154 -20.3368,47.58783 -17.514,69.87364 2.3418,18.49803 13.7924,27.99756 25.1166,43.62969 m 14.5169,30.26222 c 1.3558,5.67166 2.1694,11.97461 2.1514,18.92891 m -77.5043,-304.64628 c 10.2951,12.07482 15.2654,23.81897 17.1302,34.51095 m -2.0502,32.56695 c -4.7548,19.19946 -12.1771,34.65123 -5.3911,52.38769 6.2839,16.41374 18.1122,29.0898 31.0037,42.42722 m 20.8619,22.53633 c 4.5834,5.49129 8.8402,11.23309 12.4556,17.3156 9.1859,15.44174 18.5091,24.34004 26.9244,37.66743 7.9343,12.55582 16.4157,31.98576 16.6522,65.23411 M 1802.8294,684.23187 c 16.3967,19.17943 29.0637,28.87937 42.9533,37.97807 m 24.796,16.48389 c 4.6485,3.48717 9.2851,7.40522 13.8023,12.0648 24.6036,25.3922 60.9654,49.61199 66.7473,88.76248 1.0982,7.43528 0.3096,14.36954 -1.6695,20.87291 m -15.2593,27.79714 c -13.5389,18.69844 -28.1128,34.90175 -28.3363,61.79704 m -80.248,-285.20632 c 17.1423,20.09131 33.1832,28.52865 48.9066,37.29668 15.108,8.42732 29.0808,16.7845 36.1523,34.63119 2.902,7.33508 4.0022,14.89061 3.889,22.45616 m -6.813,34.17025 c -7.1287,21.68458 -16.6412,41.45522 -14.0579,61.31605 2.1294,16.37366 11.0557,26.00346 20.9591,38.86991 m 14.9417,24.4202 c 3.7016,8.76803 6.332,19.32974 6.332,32.04588 m -79.9293,-311.12961 c 15.7003,18.42788 20.8809,34.86167 21.3679,48.17905 m -5.6235,30.04175 c -5.2959,15.08101 -10.9526,27.29612 -4.8871,43.03848 5.5023,14.28938 14.9688,25.81307 25.7249,37.4069 m 20.2837,21.66454 c 7.0876,7.92629 13.7803,16.27345 19.1213,25.37216 9.2911,15.84257 18.6674,24.98135 27.1468,38.62941 7.9924,12.87647 16.5631,32.76736 16.8777,66.79732 M 1810.424,677.74854 c 14.128,16.53399 25.4714,26.24395 37.4099,34.67128 m 25.4824,17.00495 c 6.6717,4.65958 13.3745,9.91038 19.8288,16.65424 24.9322,26.04354 61.5565,50.97479 67.5558,90.9169 1.7156,11.43351 -0.8497,21.65452 -5.3419,31.05384 m -17.1713,26.7049 c -11.642,16.14319 -22.1766,31.59495 -22.3039,55.23355 m 30.0618,0 c -0.043,-17.42582 -4.7678,-30.87347 -10.5767,-41.48528 m -15.3035,-22.20565 c -8.1718,-10.66192 -14.9066,-19.97106 -16.8005,-34.17025 -2.3018,-17.25547 4.0663,-34.23037 10.3452,-52.51796 m 8.9464,-32.9277 c 1.7266,-11.57379 1.3789,-23.34799 -3.1184,-34.65123 -7.2389,-18.18739 -21.3549,-26.78506 -36.6243,-35.47292 -15.9077,-9.04861 -32.109,-17.74649 -49.604,-38.24863"
           id="path1639" />
      </g>
    </g>
  </g>
</svg>
