<?xml version="1.0" encoding="UTF-8" standalone="no"?>
<!-- Created with Inkscape (http://www.inkscape.org/) -->

<svg
   xmlns:dc="http://purl.org/dc/elements/1.1/"
   xmlns:cc="http://creativecommons.org/ns#"
   xmlns:rdf="http://www.w3.org/1999/02/22-rdf-syntax-ns#"
   xmlns:svg="http://www.w3.org/2000/svg"
   xmlns="http://www.w3.org/2000/svg"
   xmlns:sodipodi="http://sodipodi.sourceforge.net/DTD/sodipodi-0.dtd"
   xmlns:inkscape="http://www.inkscape.org/namespaces/inkscape"
   width="120mm"
   height="150mm"
   viewBox="0 0 120 150"
   version="1.1"
   id="svg1599"
   inkscape:version="0.92.3 (2405546, 2018-03-11)"
   sodipodi:docname="front_layer_0_wEngrave.svg">
  <defs
     id="defs1593">
    <marker
       style="overflow:visible"
       refY="0.0"
       refX="0.0"
       orient="auto"
       id="DistanceX">
      <path
         id="path3434"
         style="stroke:#000000; stroke-width:0.5"
         d="M 3,-3 L -3,3 M 0,-5 L  0,5" />
    </marker>
    <pattern
       y="0"
       x="0"
       width="8"
       patternUnits="userSpaceOnUse"
       id="Hatch"
       height="8">
      <path
         id="path3437"
         stroke-width="0.25"
         stroke="#000000"
         linecap="square"
         d="M8 4 l-4,4" />
      <path
         id="path3439"
         stroke-width="0.25"
         stroke="#000000"
         linecap="square"
         d="M6 2 l-4,4" />
      <path
         id="path3441"
         stroke-width="0.25"
         stroke="#000000"
         linecap="square"
         d="M4 0 l-4,4" />
    </pattern>
    <symbol
       id="*MODEL_SPACE" />
    <symbol
       id="*PAPER_SPACE" />
    <inkscape:path-effect
       effect="skeletal"
       id="path-effect1725"
       is_visible="true"
       pattern="m -12.301793,196.58737 c 0,0.69487 0.10656,1.31524 0.291356,1.87875 m 2.0230693,3.04979 c 1.5730163,1.60751 3.4157944,2.91545 3.6855732,5.07146 0.2585948,2.06663 -0.5086737,4.04741 -1.3808787,6.01942 m -1.3444854,3.15698 c -0.099699,0.27385 -0.1920512,0.54832 -0.2746359,0.8236 -0.9999995,3.33333 -2.9999985,4 -2.9999985,10 m 5.9999985,-30 c 0,2.9191 -0.6816895,4.70204 -1.4480937,6.3438 m -1.2934531,2.8835 c -0.091555,0.24856 -0.1782226,0.50527 -0.2584532,0.7727 -0.9999995,3.33333 -3.4320895,6.54683 -2.9999985,10 0.03272,0.26151 0.08859,0.51054 0.164301,0.74914 m 1.854555,2.70041 c 1.7489541,1.75036 3.9811425,3.37013 3.9811425,6.55045 m -3,-30 c 0,5 -3.4320895,6.54683 -2.9999985,10 0.03349,0.26762 0.08888,0.52767 0.163156,0.7812 m 1.860004,3.10832 c 1.6290082,1.93208 3.6776305,3.71927 3.9768385,6.11048 0.2432631,1.9441 -0.7382581,3.28397 -1.6425842,4.97599 m -1.1848301,3.15954 c -0.1089112,0.56645 -0.1725857,1.18343 -0.1725857,1.86447 m -3.9999995,-30 c 0,1.43259 0.314537,2.53127 0.79998,3.42632 m 2.03527,2.39151 c 1.4346885,1.26109 2.924332,2.26081 3.1647485,4.18217 0.2246617,1.79544 -0.3249746,3.5261 -1.0450253,5.24249 m -1.2317027,2.80253 c -0.2746814,0.64885 -0.5266565,1.2996 -0.7232705,1.95498 -1.000001,3.33333 -3,4 -3,10 m 5.9999985,-30 c 0,2.52132 -0.5085639,4.19503 -1.141016,5.66227 m -1.2384021,2.66856 c -0.2276344,0.52177 -0.4403494,1.0684 -0.6205804,1.66917 -1.000001,3.33333 -3.432091,6.54683 -3,10 0.08425,0.67331 0.321911,1.26391 0.656857,1.80675 m 2.02959,2.29101 c 1.6005289,1.52776 3.3135515,3.11621 3.3135515,5.90224 m -2.9999985,-30 c 0,5 -3.432091,6.54683 -3,10 0.08849,0.70716 0.329974,1.3615 0.668363,1.98238 m 2.018911,2.66873 c 1.4767304,1.65435 3.053134,3.2743 3.3127245,5.34889 0.2112308,1.68811 -0.5010053,2.92063 -1.2843017,4.32372 m -1.2131584,2.56831 c -0.3002154,0.88356 -0.5025384,1.89398 -0.5025384,3.10797 m -4,-30 c 0,2.14738 0.51922,3.55534 1.253033,4.58681 m 2.139378,2.02974 c 1.2423041,0.92472 2.3982978,1.71084 2.6075895,3.38345 0.191067,1.52697 -0.177916,3.00708 -0.7354724,4.47141 m -1.1521711,2.68186 c -0.421012,0.94471 -0.825575,1.89079 -1.112358,2.84673 -0.999998,3.33333 -2.999999,4 -2.999999,10 m 6.0000005,-30 c 0,2.13622 -0.3650737,3.66398 -0.8612583,4.97322 m -1.2298502,2.72207 c -0.334783,0.71521 -0.654258,1.45593 -0.908893,2.30471 -0.999998,3.33333 -3.43209,6.54683 -2.999999,10 0.126705,1.0126 0.600386,1.83813 1.230135,2.59548 m 2.15545,2.1755 c 1.3629953,1.34138 2.6144155,2.84776 2.6144155,5.22902 m -3.0000015,0 c 0,-1.62346 0.361826,-2.88286 0.835723,-3.96168 m 1.2273809,-2.34137 c 0.6301193,-1.15936 1.1161963,-2.26403 0.9368976,-3.69695 -0.2197256,-1.75599 -1.382869,-3.18626 -2.6304515,-4.58737 m -2.113348,-2.50114 c -0.639139,-0.8944 -1.122452,-1.8426 -1.256201,-2.91149 -0.432091,-3.45317 2.999999,-5 2.999999,-10"
       copytype="repeated_stretched"
       prop_scale="1"
       scale_y_rel="false"
       spacing="0"
       normal_offset="0"
       tang_offset="0"
       prop_units="false"
       vertical_pattern="true"
       fuse_tolerance="0" />
    <inkscape:path-effect
       effect="skeletal"
       id="path-effect1725-6"
       is_visible="true"
       pattern="m -12.301793,196.58737 c 0,0.69487 0.10656,1.31524 0.291356,1.87875 m 2.0230693,3.04979 c 1.5730163,1.60751 3.4157944,2.91545 3.6855732,5.07146 0.2585948,2.06663 -0.5086737,4.04741 -1.3808787,6.01942 m -1.3444854,3.15698 c -0.099699,0.27385 -0.1920512,0.54832 -0.2746359,0.8236 -0.9999995,3.33333 -2.9999985,4 -2.9999985,10 m 5.9999985,-30 c 0,2.9191 -0.6816895,4.70204 -1.4480937,6.3438 m -1.2934531,2.8835 c -0.091555,0.24856 -0.1782226,0.50527 -0.2584532,0.7727 -0.9999995,3.33333 -3.4320895,6.54683 -2.9999985,10 0.03272,0.26151 0.08859,0.51054 0.164301,0.74914 m 1.854555,2.70041 c 1.7489541,1.75036 3.9811425,3.37013 3.9811425,6.55045 m -3,-30 c 0,5 -3.4320895,6.54683 -2.9999985,10 0.03349,0.26762 0.08888,0.52767 0.163156,0.7812 m 1.860004,3.10832 c 1.6290082,1.93208 3.6776305,3.71927 3.9768385,6.11048 0.2432631,1.9441 -0.7382581,3.28397 -1.6425842,4.97599 m -1.1848301,3.15954 c -0.1089112,0.56645 -0.1725857,1.18343 -0.1725857,1.86447 m -3.9999995,-30 c 0,1.43259 0.314537,2.53127 0.79998,3.42632 m 2.03527,2.39151 c 1.4346885,1.26109 2.924332,2.26081 3.1647485,4.18217 0.2246617,1.79544 -0.3249746,3.5261 -1.0450253,5.24249 m -1.2317027,2.80253 c -0.2746814,0.64885 -0.5266565,1.2996 -0.7232705,1.95498 -1.000001,3.33333 -3,4 -3,10 m 5.9999985,-30 c 0,2.52132 -0.5085639,4.19503 -1.141016,5.66227 m -1.2384021,2.66856 c -0.2276344,0.52177 -0.4403494,1.0684 -0.6205804,1.66917 -1.000001,3.33333 -3.432091,6.54683 -3,10 0.08425,0.67331 0.321911,1.26391 0.656857,1.80675 m 2.02959,2.29101 c 1.6005289,1.52776 3.3135515,3.11621 3.3135515,5.90224 m -2.9999985,-30 c 0,5 -3.432091,6.54683 -3,10 0.08849,0.70716 0.329974,1.3615 0.668363,1.98238 m 2.018911,2.66873 c 1.4767304,1.65435 3.053134,3.2743 3.3127245,5.34889 0.2112308,1.68811 -0.5010053,2.92063 -1.2843017,4.32372 m -1.2131584,2.56831 c -0.3002154,0.88356 -0.5025384,1.89398 -0.5025384,3.10797 m -4,-30 c 0,2.14738 0.51922,3.55534 1.253033,4.58681 m 2.139378,2.02974 c 1.2423041,0.92472 2.3982978,1.71084 2.6075895,3.38345 0.191067,1.52697 -0.177916,3.00708 -0.7354724,4.47141 m -1.1521711,2.68186 c -0.421012,0.94471 -0.825575,1.89079 -1.112358,2.84673 -0.999998,3.33333 -2.999999,4 -2.999999,10 m 6.0000005,-30 c 0,2.13622 -0.3650737,3.66398 -0.8612583,4.97322 m -1.2298502,2.72207 c -0.334783,0.71521 -0.654258,1.45593 -0.908893,2.30471 -0.999998,3.33333 -3.43209,6.54683 -2.999999,10 0.126705,1.0126 0.600386,1.83813 1.230135,2.59548 m 2.15545,2.1755 c 1.3629953,1.34138 2.6144155,2.84776 2.6144155,5.22902 m -3.0000015,0 c 0,-1.62346 0.361826,-2.88286 0.835723,-3.96168 m 1.2273809,-2.34137 c 0.6301193,-1.15936 1.1161963,-2.26403 0.9368976,-3.69695 -0.2197256,-1.75599 -1.382869,-3.18626 -2.6304515,-4.58737 m -2.113348,-2.50114 c -0.639139,-0.8944 -1.122452,-1.8426 -1.256201,-2.91149 -0.432091,-3.45317 2.999999,-5 2.999999,-10"
       copytype="repeated_stretched"
       prop_scale="1"
       scale_y_rel="false"
       spacing="0"
       normal_offset="0"
       tang_offset="0"
       prop_units="false"
       vertical_pattern="true"
       fuse_tolerance="0" />
    <inkscape:path-effect
       effect="knot"
       id="path-effect1835-7-6-7-5-8-6"
       is_visible="true"
       interruption_width="0.7"
       prop_to_stroke_width="false"
       add_stroke_width="true"
       add_other_stroke_width="true"
       switcher_size="1"
       crossing_points_vector="46.29912 | 233.87676 | 0 | 1 | 5 | 0 | 0.67535871 | 0.64743695 | 1 | 43.911703 | 231.50197 | 0 | 2 | 2 | 0 | 0.39247632 | 0.38040199 | -1 | 45.620293 | 233.19638 | 0 | 4 | 4 | 0 | 0.59302081 | 0.56639284 | 1 | 43.266802 | 230.72093 | 0 | 5 | 1 | 0 | 0.30868335 | 0.30083911 | -1 | 44.917949 | 232.52398 | 0 | 7 | 3 | 0 | 0.51144506 | 0.48849286 | 1 | 42.628203 | 229.69257 | 0 | 8 | 0 | 11 | 0.20927551 | 2.7944087 | 1 | 46.366043 | 243.58673 | 0 | 2 | 6 | 8 | 1.6558804 | 1.6705139 | 1 | 45.984966 | 244.44055 | 0 | 5 | 7 | 8 | 1.742282 | 1.7589455 | 1 | 45.551962 | 245.45793 | 0 | 8 | 8 | 3 | 1.8450639 | 1.1405581 | -1 | 43.617859 | 250.03479 | 0 | 1 | 9 | 8 | 2.3733611 | 2.3140873 | -1 | 43.271039 | 250.69825 | 0 | 4 | 10 | 8 | 2.4616008 | 2.3941473 | -1 | 42.962689 | 251.36152 | 0 | 7 | 11 | 8 | 2.5441306 | 2.4747613 | -1 | 45.904358 | 234.70498 | 1 | 3 | 1 | 5 | 0.74651447 | 0.75652056 | 1 | 45.509906 | 235.58958 | 1 | 6 | 2 | 5 | 0.8493157 | 0.85601954 | 1 | 43.633957 | 240.41327 | 1 | 2 | 3 | 5 | 1.3441196 | 1.3294861 | -1 | 43.28596 | 241.19627 | 1 | 5 | 4 | 5 | 1.423343 | 1.4129974 | -1 | 42.961921 | 241.9576 | 1 | 8 | 5 | 6 | 1.5002566 | 1.5046013 | 1 | 46.088297 | 252.49803 | 1 | 2 | 11 | 9 | 2.6075237 | 2.619598 | 1 | 43.007899 | 249.31626 | 1 | 3 | 7 | 9 | 2.230632 | 2.2756592 | -1 | 45.439317 | 251.82401 | 1 | 5 | 10 | 9 | 2.530014 | 2.5460307 | 1 | 42.449913 | 248.43999 | 1 | 6 | 6 | 9 | 2.1360342 | 2.1614939 | -1 | 44.787858 | 251.19452 | 1 | 8 | 9 | 2 | 2.4545463 | 0.52620216 | -1 | 43.416515 | 232.43867 | 2 | 3 | 1 | 2 | 0.48374629 | 0.45309431 | -1 | 42.949073 | 233.28067 | 2 | 6 | 2 | 2 | 0.58237222 | 0.51504257 | -1 | 45.71404 | 242.80373 | 2 | 3 | 7 | 6 | 1.5870026 | 1.576657 | 1 | 43.015034 | 239.55945 | 2 | 4 | 4 | 3 | 1.2410545 | 1.257718 | -1 | 45.038079 | 242.0424 | 2 | 6 | 6 | 6 | 1.5046012 | 1.4997434 | 1 | 42.448038 | 238.54207 | 2 | 7 | 3 | 3 | 1.1405581 | 1.1549361 | -1 | 45.733198 | 253.27907 | 2 | 4 | 10 | 11 | 2.6991609 | 2.6913167 | 1 | 45.371797 | 254.30743 | 2 | 7 | 11 | 11 | 2.7944087 | 2.7907245 | 1 | 45.228119 | 234.02476 | 3 | 4 | 4 | 1 | 0.66643984 | 0.66519277 | 1 | 42.769837 | 231.78225 | 3 | 5 | 1 | 1 | 0.37483177 | 0.41046719 | -1 | 44.522148 | 233.40739 | 3 | 7 | 3 | 1 | 0.58150538 | 0.59136516 | 1 | 42.148897 | 230.99654 | 3 | 8 | 0 | 10 | 0.29204559 | 2.6718053 | 1 | 45.366043 | 243.58673 | 3 | 5 | 7 | 7 | 1.6558804 | 1.6705139 | 1 | 44.984966 | 244.44055 | 3 | 8 | 8 | 4 | 1.742282 | 1.2410545 | -1 | 42.617859 | 250.03479 | 3 | 4 | 10 | 7 | 2.3733611 | 2.3140873 | -1 | 42.271039 | 250.69825 | 3 | 7 | 11 | 7 | 2.4616008 | 2.3941473 | -1 | 44.86143 | 234.7971 | 4 | 6 | 2 | 4 | 0.75742542 | 0.75036289 | 1 | 42.633957 | 240.41327 | 4 | 5 | 4 | 4 | 1.3441196 | 1.3294861 | -1 | 42.28596 | 241.19627 | 4 | 8 | 5 | 7 | 1.423343 | 1.5870026 | 1 | 45.088297 | 252.49803 | 4 | 5 | 10 | 10 | 2.6075237 | 2.619598 | 1 | 42.007899 | 249.31626 | 4 | 6 | 6 | 10 | 2.230632 | 2.2756592 | -1 | 44.439317 | 251.82401 | 4 | 8 | 9 | 1 | 2.530014 | 0.45396932 | -1 | 42.265007 | 232.71084 | 5 | 6 | 2 | 1 | 0.51516019 | 0.43518004 | -1 | 44.71404 | 242.80373 | 5 | 6 | 6 | 7 | 1.5870026 | 1.576657 | 1 | 42.015034 | 239.55945 | 5 | 7 | 3 | 4 | 1.2410545 | 1.257718 | -1 | 44.733198 | 253.27907 | 5 | 7 | 11 | 10 | 2.6991609 | 2.6913167 | 1 | 44.1506 | 234.18632 | 6 | 7 | 3 | 2 | 0.65680393 | 0.68457688 | 1 | 41.624056 | 232.05861 | 6 | 8 | 0 | 9 | 0.356309 | 2.5591476 | 1 | 44.366043 | 243.58673 | 6 | 8 | 8 | 5 | 1.6558804 | 1.3294861 | -1 | 41.617859 | 250.03479 | 6 | 7 | 11 | 6 | 2.3733611 | 2.3140873 | -1 | 41.633957 | 240.41327 | 7 | 8 | 5 | 8 | 1.3441196 | 1.6705139 | 1 | 44.088297 | 252.49803 | 7 | 8 | 9 | 0 | 2.6075237 | 0.38040199 | -1" />
  </defs>
  <sodipodi:namedview
     id="base"
     pagecolor="#ffffff"
     bordercolor="#666666"
     borderopacity="1.0"
     inkscape:pageopacity="0.0"
     inkscape:pageshadow="2"
     inkscape:zoom="2.8284271"
     inkscape:cx="190.53703"
     inkscape:cy="142.48599"
     inkscape:document-units="mm"
     inkscape:current-layer="layer1"
     showgrid="false"
     inkscape:showpageshadow="false"
     inkscape:pagecheckerboard="true"
     inkscape:window-width="1920"
     inkscape:window-height="1023"
     inkscape:window-x="0"
     inkscape:window-y="0"
     inkscape:window-maximized="1"
     showguides="true"
     inkscape:guide-bbox="true"
     inkscape:snap-bbox="true"
     inkscape:snap-bbox-midpoints="true"
     inkscape:snap-page="true"
     inkscape:snap-center="true"
     inkscape:snap-object-midpoints="true"
     inkscape:snap-text-baseline="true"
     inkscape:snap-smooth-nodes="true"
     inkscape:snap-midpoints="true"
     inkscape:snap-intersection-paths="true"
     inkscape:object-paths="true"
     inkscape:snap-bbox-edge-midpoints="true"
     inkscape:bbox-nodes="true"
     inkscape:bbox-paths="true">
    <sodipodi:guide
       position="-5,85"
       orientation="0,1"
       id="guide44292"
       inkscape:locked="false"
       inkscape:label=""
       inkscape:color="rgb(0,0,255)" />
    <sodipodi:guide
       position="60,155"
       orientation="1,0"
       id="guide44294"
       inkscape:locked="false"
       inkscape:label=""
       inkscape:color="rgb(0,0,255)" />
  </sodipodi:namedview>
  <metadata
     id="metadata1596">
    <rdf:RDF>
      <cc:Work
         rdf:about="">
        <dc:format>image/svg+xml</dc:format>
        <dc:type
           rdf:resource="http://purl.org/dc/dcmitype/StillImage" />
        <dc:title />
        <cc:license
           rdf:resource="http://creativecommons.org/licenses/by/4.0/" />
        <dc:date>04.01.2019</dc:date>
        <dc:creator>
          <cc:Agent>
            <dc:title>Stefan Krüger</dc:title>
          </cc:Agent>
        </dc:creator>
        <dc:rights>
          <cc:Agent>
            <dc:title>Stefan Krüger</dc:title>
          </cc:Agent>
        </dc:rights>
        <dc:publisher>
          <cc:Agent>
            <dc:title>Stefan Krüger</dc:title>
          </cc:Agent>
        </dc:publisher>
        <dc:language>EN / DE</dc:language>
      </cc:Work>
      <cc:License
         rdf:about="http://creativecommons.org/licenses/by/4.0/">
        <cc:permits
           rdf:resource="http://creativecommons.org/ns#Reproduction" />
        <cc:permits
           rdf:resource="http://creativecommons.org/ns#Distribution" />
        <cc:requires
           rdf:resource="http://creativecommons.org/ns#Notice" />
        <cc:requires
           rdf:resource="http://creativecommons.org/ns#Attribution" />
        <cc:permits
           rdf:resource="http://creativecommons.org/ns#DerivativeWorks" />
      </cc:License>
    </rdf:RDF>
  </metadata>
  <g
     inkscape:label="Layer 1"
     inkscape:groupmode="layer"
     id="layer1"
     transform="translate(0,-147)">
    <g
       id="g3519"
       transform="matrix(0.26458333,0,0,0.26458333,-88.499998,30.000005)">
      <g
         id="g3448"
         inkscape:label="0" />
      <g
         id="g3484"
         inkscape:label="View014">
        <path
           id="path3450"
           style="fill:none;stroke:#000000"
           d="m 671.17257,515.90381 a 204.09449,204.09449 0 0 0 -219.82486,-3.9e-4"
           inkscape:connector-curvature="0" />
        <path
           id="path3452"
           style="fill:none;stroke:#000000"
           d="m 671.17121,515.90484 a 30.23622,30.23622 0 0 0 19.77998,4.55623"
           inkscape:connector-curvature="0" />
        <path
           id="path3454"
           style="fill:none;stroke:#000000"
           d="m 431.56849,520.46107 a 30.23622,30.23622 0 0 0 19.78007,-4.55629"
           inkscape:connector-curvature="0" />
        <path
           id="path3456"
           style="fill:none;stroke:#000000"
           d="M 728.87072,552.81887 A 34.015748,34.015748 0 0 0 690.95125,520.4613"
           inkscape:connector-curvature="0" />
        <path
           id="path3458"
           style="fill:none;stroke:#000000"
           d="m 431.56844,520.4613 a 34.015748,34.015748 0 0 0 -37.91948,32.35775"
           inkscape:connector-curvature="0" />
        <path
           id="path3460"
           style="fill:none;stroke:#000000"
           d="m 728.8731,552.81884 a 75.590551,75.590551 0 0 0 9.81119,34.18301"
           inkscape:connector-curvature="0" />
        <path
           id="path3462"
           style="fill:none;stroke:#000000"
           d="m 383.8364,587.00208 a 75.590551,75.590551 0 0 0 9.8113,-34.18284"
           inkscape:connector-curvature="0" />
        <path
           id="path3464"
           style="fill:none;stroke:#000000"
           d="M 668.77319,861.35439 A 204.09449,204.09449 0 0 0 738.68341,587.00064"
           inkscape:connector-curvature="0" />
        <path
           id="path3466"
           style="fill:none;stroke:#000000"
           d="M 383.83592,587.00126 A 204.09449,204.09449 0 0 0 453.7474,861.35495"
           inkscape:connector-curvature="0" />
        <path
           id="path3468"
           style="fill:none;stroke:#000000"
           d="m 668.77312,861.35422 a 37.795276,37.795276 0 0 0 -17.5677,27.23468"
           inkscape:connector-curvature="0" />
        <path
           id="path3470"
           style="fill:none;stroke:#000000"
           d="M 471.3143,888.58916 A 37.795276,37.795276 0 0 0 453.74673,861.35432"
           inkscape:connector-curvature="0" />
        <path
           id="path3472"
           style="fill:none;stroke:#000000"
           d="m 471.31404,888.58979 a 90.708661,90.708661 0 0 0 179.89169,-6.3e-4"
           inkscape:connector-curvature="0" />
        <path
           id="path3474"
           style="fill:none;stroke:#000000"
           d="m 704.88189,687.87402 a 143.62205,143.62205 0 1 0 -287.2441,0 143.62205,143.62205 0 1 0 287.2441,0 z"
           inkscape:connector-curvature="0"
           inkscape:transform-center-x="5.6829728"
           inkscape:transform-center-y="0.01030983" />
        <path
           id="path3476"
           style="fill:none;stroke:#000000"
           d="m 555.59055,891.9685 v -7.55905"
           inkscape:connector-curvature="0" />
        <path
           id="path3478"
           style="fill:none;stroke:#000000"
           d="m 555.59055,891.9685 a 5.6692915,5.6692915 0 0 0 11.33858,0"
           inkscape:connector-curvature="0" />
        <path
           id="path3480"
           style="fill:none;stroke:#000000"
           d="m 566.92913,891.9685 v -7.55905"
           inkscape:connector-curvature="0" />
        <path
           id="path3482"
           style="fill:none;stroke:#000000"
           d="m 566.92913,884.40945 a 5.6692915,5.6692915 0 0 0 -11.33858,0"
           inkscape:connector-curvature="0" />
      </g>
    </g>
    <text
       xml:space="preserve"
       style="font-style:normal;font-variant:normal;font-weight:normal;font-stretch:normal;font-size:6px;line-height:100%;font-family:Overlock;-inkscape-font-specification:Overlock;letter-spacing:0px;word-spacing:0px;fill:#00ff00;fill-opacity:1;stroke:none;stroke-width:0.26458332"
       x="-75.784225"
       y="163.5744"
       id="text855"><tspan
         sodipodi:role="line"
         id="tspan853"
         x="-75.784225"
         y="163.5744"
         style="font-size:6px;fill:#00ff00;fill-opacity:1;stroke-width:0.26458332">material:</tspan><tspan
         sodipodi:role="line"
         x="-75.784225"
         y="169.5744"
         style="font-size:6px;fill:#00ff00;fill-opacity:1;stroke-width:0.26458332"
         id="tspan921">1mm Buchen Sperrholz</tspan><tspan
         sodipodi:role="line"
         x="-75.784225"
         y="175.5744"
         style="font-size:6px;fill:#00ff00;fill-opacity:1;stroke-width:0.26458332"
         id="tspan923">Vowinkel</tspan><tspan
         sodipodi:role="line"
         x="-75.784225"
         y="181.5744"
         style="font-size:6px;fill:#00ff00;fill-opacity:1;stroke-width:0.26458332"
         id="tspan925" /><tspan
         sodipodi:role="line"
         x="-75.784225"
         y="187.5744"
         style="font-size:6px;fill:#00ff00;fill-opacity:1;stroke-width:0.26458332"
         id="tspan919">Cut:</tspan><tspan
         sodipodi:role="line"
         x="-75.784225"
         y="193.5744"
         style="font-size:6px;fill:#00ff00;fill-opacity:1;stroke-width:0.26458332"
         id="tspan863">power 80</tspan><tspan
         sodipodi:role="line"
         x="-75.784225"
         y="199.5744"
         style="font-size:6px;fill:#00ff00;fill-opacity:1;stroke-width:0.26458332"
         id="tspan865">speed 30</tspan><tspan
         sodipodi:role="line"
         x="-75.784225"
         y="205.5744"
         style="font-size:6px;fill:#00ff00;fill-opacity:1;stroke-width:0.26458332"
         id="tspan867" /><tspan
         sodipodi:role="line"
         x="-75.784225"
         y="211.5744"
         style="font-size:6px;fill:#00ff00;fill-opacity:1;stroke-width:0.26458332"
         id="tspan869">mark:</tspan><tspan
         sodipodi:role="line"
         x="-75.784225"
         y="217.5744"
         style="font-size:6px;fill:#00ff00;fill-opacity:1;stroke-width:0.26458332"
         id="tspan871">power 12</tspan><tspan
         sodipodi:role="line"
         x="-75.784225"
         y="223.5744"
         style="font-size:6px;fill:#00ff00;fill-opacity:1;stroke-width:0.26458332"
         id="tspan873">speed 100</tspan><tspan
         sodipodi:role="line"
         x="-75.784225"
         y="229.5744"
         style="font-size:6px;fill:#00ff00;fill-opacity:1;stroke-width:0.26458332"
         id="tspan875" /><tspan
         sodipodi:role="line"
         x="-75.784225"
         y="235.5744"
         style="font-size:6px;fill:#00ff00;fill-opacity:1;stroke-width:0.26458332"
         id="tspan877">but speed 100 is</tspan><tspan
         sodipodi:role="line"
         x="-75.784225"
         y="241.5744"
         style="font-size:6px;fill:#00ff00;fill-opacity:1;stroke-width:0.26458332"
         id="tspan879">not smooth...</tspan></text>
    <path
       inkscape:connector-curvature="0"
       style="opacity:0.98000004;vector-effect:none;fill:none;fill-opacity:0.97727272;stroke:#ff0000;stroke-width:0.2;stroke-linecap:round;stroke-linejoin:round;stroke-miterlimit:4;stroke-dasharray:none;stroke-dashoffset:0;stroke-opacity:0.9727273;paint-order:fill markers stroke"
       d="m 106.90244,211.95731 c -0.004,0.76475 -0.13424,1.44553 -0.35043,2.04753 m -2.29384,3.03174 c -1.79349,1.4668 -3.75122,2.28937 -4.525709,4.18368 -0.73614,1.80054 -0.62235,3.76252 -0.58037,5.88533 m -0.12262,3.40147 c -0.0379,0.29108 -0.0857,0.57991 -0.1455,0.86521 -0.361681,1.72717 -0.26401,2.99653 -0.515735,4.51959 -0.240485,1.45504 -0.874993,3.37739 -2.958319,5.82085 m 5.492513,-29.7554 c 0.0324,2.84684 0.43462,4.3271 0.95778,6.15295 m 0.68156,3.04768 c 0.029,0.26377 0.0487,0.53572 0.0566,0.81711 0.0958,3.43216 1.09698,7.62614 -1.09054,10.79886 -0.16172,0.23455 -0.33928,0.44474 -0.52976,0.63344 m -3.043583,1.51746 c -2.512444,0.62066 -5.090459,0.58946 -7.07231,2.90684 m 13.040243,-25.87434 c 0.007,2.58309 0.6349,4.20429 1.21986,5.88486 0.55677,1.59958 1.02365,3.13738 0.34199,4.88767 -0.10586,0.2718 -0.23308,0.52874 -0.37832,0.77175 m -2.75991,2.55487 c -2.21954,1.33588 -4.742607,2.07226 -6.065932,3.91418 -1.098124,1.52846 -0.91046,3.03578 -1.120158,4.96795 m -0.930312,3.25404 c -0.271468,0.51954 -0.621665,1.05025 -1.073597,1.57955 m 14.766389,-27.81487 c -0.0115,1.61303 -0.42009,2.84125 -0.98795,3.76766 m -2.31627,2.2899 c -1.63368,1.10111 -3.20598,1.71839 -3.91045,3.45698 -0.65209,1.60932 -0.6608,3.32649 -0.63613,5.17844 m -0.0226,3.06988 c -0.0411,0.71516 -0.121649,1.42666 -0.270449,2.11931 -0.37813,1.76011 -0.29128,3.04827 -0.55808,4.59576 -0.2547,1.47725 -0.910334,3.43403 -3.032642,5.92432 m 5.734571,-30.40225 c 0.0208,2.50535 0.31027,3.98812 0.73868,5.60023 m 0.71894,2.85881 c 0.10545,0.56673 0.17975,1.165 0.19361,1.81029 0.0754,3.50926 1.04969,7.77408 -1.17121,11.01448 -0.42311,0.61733 -0.94981,1.07047 -1.53504,1.41296 m -3.002524,1.0184 c -2.251427,0.47513 -4.453511,0.73373 -6.224754,2.80601 m 13.282298,-26.52118 c 0,2.6529 0.62092,4.3104 1.19934,6.02969 0.55003,1.63489 1.0101,3.20433 0.3178,4.99444 -0.28428,0.73506 -0.71705,1.36335 -1.23899,1.90793 m -2.82222,2.0243 c -1.99538,1.08926 -4.051824,1.88075 -5.223634,3.52418 -0.966245,1.35514 -0.969042,2.6896 -1.101561,4.31764 m -0.51861,2.83149 c -0.304247,0.90609 -0.799047,1.86942 -1.620559,2.83205 m 15.008434,-28.46172 c -0.0229,2.47014 -0.74155,4.0715 -1.588,5.0971 m -2.41971,1.85592 c -1.40007,0.75728 -2.62881,1.2627 -3.25166,2.81312 -0.56494,1.40628 -0.66351,2.88134 -0.67443,4.45941 m -0.004,2.96287 c -0.0248,1.06279 -0.10488,2.1306 -0.33162,3.16097 -0.39457,1.79304 -0.31856,3.1 -0.60043,4.67192 -0.268889,1.49944 -0.945689,3.49071 -3.106959,6.02778 m 5.976609,-31.04909 c 0.0117,2.16764 0.21128,3.59043 0.54005,5.01803 m 0.74094,2.94697 c 0.17575,0.78927 0.3113,1.62619 0.32555,2.55593 0.055,3.58635 1.0024,7.92201 -1.2519,11.23009 -0.64664,0.94892 -1.52389,1.51997 -2.48868,1.90528 m -3.066842,0.81367 c -1.94119,0.41748 -3.777041,0.88784 -5.323457,2.69806 m 2.273866,1.94053 c 1.120037,-1.31306 1.649363,-2.61987 1.921659,-3.80282 m 0.349519,-2.68306 c 0.113726,-1.34439 0.253625,-2.49872 1.086216,-3.67493 1.0118,-1.42938 2.643599,-2.23325 4.347409,-3.13479 m 2.89457,-1.78761 c 0.91278,-0.72686 1.68671,-1.61244 2.12354,-2.74963 0.70293,-1.8299 0.24969,-3.43102 -0.2936,-5.1012 -0.57187,-1.75808 -1.18561,-3.45175 -1.17884,-6.17452 m -10.492518,29.7554 c -0.489326,0.57392 -1.019535,1.00668 -1.56722,1.32826 m -3.701301,0.88414 c -2.325669,0.0139 -4.419994,-0.54657 -6.225918,0.50137 -1.718744,0.99735 -2.835588,2.65868 -4.085651,4.3887 m -2.147544,2.65387 c -0.205102,0.20993 -0.416599,0.41193 -0.635444,0.60378 -1.324814,1.16138 -2.007934,2.22806 -3.126886,3.2812 -1.060669,0.99828 -2.745348,2.15044 -5.884584,2.77547 m 22.826818,-20.29785 c -1.866474,2.18246 -2.552583,3.69186 -3.287641,5.42897 m -1.380355,2.85029 c -0.14129,0.22834 -0.294582,0.45754 -0.462788,0.68706 -2.059988,2.81082 -3.768381,6.75714 -7.434522,7.96935 -0.270391,0.0894 -0.538699,0.14984 -0.804275,0.18536 m -3.333345,-0.62528 c -2.380861,-1.02772 -4.347705,-2.58977 -7.276317,-2.01699 m 26.253107,-12.53823 c -1.676834,1.9639 -2.233925,3.65838 -2.826113,5.3297 -0.569325,1.60679 -1.146254,3.10208 -2.762607,4.06757 -0.250941,0.1499 -0.509635,0.27514 -0.774118,0.37857 m -3.764526,0.34769 c -2.595983,-0.28181 -5.051515,-1.20127 -7.211893,-0.51737 -1.785528,0.56524 -2.529152,1.8774 -3.851402,3.27626 m -2.68827,1.99169 c -0.526854,0.24053 -1.123268,0.44043 -1.797966,0.57367 m 28.708715,-12.8604 c -1.027443,1.20559 -2.106054,1.88116 -3.130232,2.23401 m -3.24762,0.31329 c -1.970448,-0.16436 -3.622268,-0.65073 -5.269233,0.31012 -1.526712,0.89069 -2.59107,2.27385 -3.694419,3.77546 m -1.872594,2.44819 c -0.463434,0.54758 -0.955276,1.06738 -1.490255,1.53036 -1.359247,1.17633 -2.063991,2.25102 -3.21241,3.31419 -1.087961,1.0072 -2.814378,2.1736 -6.02367,2.81417 m 23.392704,-20.62086 c -1.63735,1.91563 -2.397893,3.31771 -3.078123,4.8355 m -1.235192,2.71458 c -0.270166,0.51581 -0.58248,1.0374 -0.970113,1.55989 -2.116166,2.85238 -3.886578,6.83396 -7.623154,8.07702 -0.710184,0.23626 -1.404038,0.27941 -2.076852,0.19931 m -2.998719,-0.99954 c -2.0784,-0.98544 -3.937494,-2.10022 -6.562973,-1.58499 m 26.819194,-12.86123 c -1.711952,2.00602 -2.291178,3.72053 -2.906852,5.41429 -0.591305,1.62671 -1.189234,3.13977 -2.834513,4.12663 -0.675423,0.40512 -1.403139,0.63653 -2.151476,0.74908 m -3.487412,-0.10766 c -2.262036,-0.34047 -4.380333,-0.93766 -6.300277,-0.32487 -1.579089,0.50401 -2.374775,1.56477 -3.455209,2.77208 m -2.113095,1.91716 c -0.786683,0.52623 -1.762699,0.98023 -2.993943,1.22407 M 96.925826,243.0064 c -1.566939,1.83941 -3.102938,2.61022 -4.408794,2.86904 m -3.055634,-0.0783 c -1.573122,-0.28257 -2.874539,-0.64626 -4.335303,0.21034 -1.326158,0.77767 -2.313091,1.90589 -3.28117,3.16497 m -1.796661,2.37228 c -0.66099,0.8357 -1.366938,1.63966 -2.168064,2.32443 -1.393685,1.19128 -2.120048,2.27398 -3.297936,3.34719 -1.115227,1.01611 -2.883435,2.19676 -6.162755,2.85286 m 23.958587,-20.94386 c -1.410623,1.65125 -2.191467,2.92244 -2.836214,4.23591 m -1.274395,2.78892 c -0.353639,0.73433 -0.764339,1.48127 -1.325464,2.22879 -2.172343,2.89392 -4.004776,6.91078 -7.811781,8.18468 -1.089501,0.36457 -2.135476,0.28986 -3.136196,0.0148 m -2.925024,-1.20311 c -1.792812,-0.84418 -3.501226,-1.57818 -5.801937,-1.12523 m 0.576212,2.90955 c 1.685047,-0.33463 2.901212,-1.0417 3.830352,-1.80678 m 1.892525,-1.90724 c 0.896625,-0.99592 1.696569,-1.83112 3.063983,-2.27097 1.664375,-0.53538 3.451474,-0.20084 5.363223,0.11096 m 3.399309,0.33624 c 1.170696,-0.0196 2.325185,-0.24508 3.365259,-0.87143 1.674196,-1.00822 2.293146,-2.53906 2.906421,-4.18569 0.63921,-1.71626 1.240473,-3.45068 2.987593,-5.49888 M 68.035369,258.1295 c -0.739344,0.14721 -1.424245,0.15652 -2.052537,0.0662 m -3.419346,-1.64256 c -0.970092,-0.79609 -1.793687,-1.71535 -2.661057,-2.44392 -0.711756,-0.5867 -1.444424,-1.03404 -2.343211,-1.20795 -1.90032,-0.3677 -3.802885,0.11947 -5.870662,0.54502 m -3.35306,0.48287 c -0.291817,0.0133 -0.583128,0.0163 -0.873032,0.007 -1.754997,-0.0579 -2.984085,0.25003 -4.522354,0.25413 -1.468048,0.004 -3.467147,-0.3057 -6.207346,-1.96575 m 30.15018,0.0861 c -2.775244,0.54279 -4.1661,1.22664 -5.85067,2.08471 m -2.876278,1.26842 c -0.254833,0.0801 -0.519464,0.15235 -0.795599,0.21433 -3.371848,0.75683 -7.311255,2.49053 -10.824557,0.87353 -0.258635,-0.11904 -0.495903,-0.25788 -0.714073,-0.41313 m -2.003901,-2.7342 c -1.02746,-2.36545 -1.408174,-4.89478 -3.99214,-6.47276 m 27.63343,8.08864 c -3.61003,0.71289 -5.320683,2.54879 -7.556727,3.3801 -0.831556,0.30248 -1.725192,0.44264 -2.740851,0.2544 -0.289787,-0.0537 -0.568685,-0.13148 -0.836906,-0.22972 m -3.036075,-2.24992 c -1.723488,-1.94453 -2.876529,-4.27832 -4.899509,-5.25443 -1.678612,-0.80995 -3.113958,-0.37013 -5.044096,-0.25679 m -3.342257,-0.38337 c -0.553751,-0.18309 -1.131265,-0.44231 -1.72349,-0.80244 m 29.948193,9.42156 c -1.558372,0.31105 -2.830984,0.16581 -3.851503,-0.20252 m -2.708846,-1.81524 c -0.633865,-0.62666 -1.182447,-1.28295 -1.76466,-1.84051 -0.692177,-0.65651 -1.416955,-1.1573 -2.409487,-1.34783 -1.702429,-0.32677 -3.38914,-0.008 -5.198506,0.35334 m -3.014478,0.52609 c -0.70881,0.085 -1.420952,0.12899 -2.126369,0.10151 -1.792433,-0.0698 -3.04302,0.22994 -4.609319,0.22257 -1.493705,-0.007 -3.532039,-0.33261 -6.327,-2.02388 m 30.857746,0.20717 c -2.438884,0.47862 -3.849667,1.05221 -5.344229,1.78104 m -2.683608,1.26717 c -0.540411,0.21544 -1.117904,0.40467 -1.753055,0.5416 -3.45776,0.74535 -7.47703,2.46095 -11.067158,0.81983 -0.681152,-0.31137 -1.217586,-0.75302 -1.653876,-1.2706 m -1.504183,-2.77939 c -0.839473,-2.13315 -1.445593,-4.2493 -3.758674,-5.65979 m 28.340995,8.20968 c -3.698372,0.73243 -5.457526,2.57348 -7.748799,3.41026 -0.852064,0.30041 -1.767094,0.43817 -2.807124,0.2466 -0.784441,-0.14449 -1.489725,-0.45673 -2.126421,-0.87202 m -2.51804,-2.41234 c -1.435179,-1.76834 -2.564908,-3.6397 -4.370631,-4.50341 -1.489001,-0.71223 -2.790851,-0.48889 -4.40994,-0.34905 m -2.862591,-0.0453 c -0.939032,-0.15192 -1.965954,-0.4833 -3.04393,-1.13796 m 30.655757,9.54259 c -2.385928,0.47736 -4.087357,0.11447 -5.268309,-0.50873 m -2.310408,-2.00806 c -0.324974,-0.39067 -0.625567,-0.77732 -0.938363,-1.13085 0,0 0,0 0,0 -0.66457,-0.74928 -1.363724,-1.32404 -2.475759,-1.53587 -1.490591,-0.28394 -2.958455,-0.10091 -4.508876,0.17696 m -2.910112,0.52822 c -1.048306,0.16305 -2.111264,0.26905 -3.162967,0.22205 -1.829869,-0.0818 -3.101959,0.20987 -4.696286,0.19102 -1.519335,-0.018 -3.596954,-0.35952 -6.446653,-2.08201 m 31.565309,0.3282 c -2.106663,0.41474 -3.471691,0.88937 -4.804852,1.48834 m -2.764772,1.30938 c -0.748519,0.32893 -1.551823,0.62437 -2.46961,0.81444 -3.543668,0.73386 -7.642812,2.43139 -11.30976,0.76614 -1.047665,-0.47577 -1.760574,-1.24331 -2.30261,-2.12702 m -1.311651,-2.87796 c -0.730195,-1.83827 -1.486331,-3.56277 -3.509092,-4.79447 m -1.546481,2.54648 c 1.471612,0.89259 2.84337,1.20212 4.049616,1.27685 m 2.690855,-0.0982 c 1.338019,-0.11197 2.48934,-0.17017 3.782611,0.44329 1.571611,0.74549 2.641838,2.20182 3.836254,3.71728 m 2.292972,2.52891 c 0.888272,0.76838 1.913795,1.37285 3.128465,1.59528 1.064403,0.19491 2.000829,0.0596 2.873399,-0.2388 2.346499,-0.84225 4.154154,-2.68842 7.940868,-3.4404 m -31.110533,-4.9354 c -0.643778,-0.39001 -1.154903,-0.84326 -1.558958,-1.3316 m -1.456581,-3.50782 c -0.379068,-2.29011 -0.152776,-4.45056 -1.471289,-6.07399 -1.256694,-1.54732 -3.078064,-2.39485 -4.99615,-3.35879 m -2.981961,-1.70086 c -0.241949,-0.16899 -0.477183,-0.34549 -0.703657,-0.53081 -1.370993,-1.12184 -2.542906,-1.61878 -3.774888,-2.54434 -1.17251,-0.88089 -2.588042,-2.33715 -3.761733,-5.30963 m 23.798179,19.2649 c -2.44042,-1.49034 -4.021801,-1.92882 -5.85562,-2.38402 m -3.03058,-0.91728 c -0.247878,-0.10384 -0.498562,-0.2194 -0.751981,-0.34966 -3.103855,-1.59536 -7.285367,-2.65728 -9.085733,-6.07538 -0.133011,-0.25253 -0.237112,-0.50777 -0.316211,-0.76446 m 0.06005,-3.40305 c 0.610548,-2.52557 1.811217,-4.75835 0.698648,-7.55444 m 16.734948,23.99476 c -2.200071,-1.33785 -3.950529,-1.61976 -5.696347,-1.94157 -1.674912,-0.30874 -3.244094,-0.64277 -4.453744,-2.08636 -0.187864,-0.2242 -0.352611,-0.45997 -0.496742,-0.70496 m -0.941839,-3.66866 c -0.13545,-2.61296 0.37717,-5.20399 -0.664045,-7.24041 -0.859875,-1.68175 -2.294412,-2.2076 -3.907255,-3.27693 m -2.443693,-2.31326 c -0.331593,-0.47776 -0.635761,-1.0302 -0.889657,-1.67091 m 17.431349,26.29837 c -1.353393,-0.81896 -2.191713,-1.77462 -2.702065,-2.72788 m -0.821685,-3.15261 c -0.147633,-1.96918 0.07445,-3.67958 -1.133713,-5.15858 -1.121063,-1.37238 -2.658527,-2.21033 -4.324607,-3.0648 m -2.730102,-1.4618 c -0.618472,-0.37015 -1.214481,-0.7722 -1.761715,-1.2255 -1.390438,-1.15178 -2.573058,-1.66765 -3.818675,-2.61908 -1.184661,-0.90487 -2.619661,-2.39778 -3.816619,-5.43252 m 24.202143,19.74981 c -2.14297,-1.30675 -3.634363,-1.83501 -5.241338,-2.2693 m -2.873081,-0.7939 c -0.552011,-0.18592 -1.11666,-0.41255 -1.694398,-0.71341 -3.154263,-1.64262 -7.379994,-2.75774 -9.220388,-6.23703 -0.350365,-0.66237 -0.507597,-1.34044 -0.540221,-2.01878 m 0.483837,-3.13412 c 0.618925,-2.22119 1.394661,-4.26381 0.400194,-6.76667 m 17.138913,24.47969 c -2.249143,-1.36591 -4.023641,-1.66616 -5.796001,-2.00725 -1.698666,-0.32691 -3.289113,-0.6784 -4.524727,-2.14634 -0.507424,-0.60284 -0.851493,-1.2849 -1.081528,-2.00668 m -0.448881,-3.46725 c -0.02523,-2.29307 0.222169,-4.49473 -0.706874,-6.30175 -0.763701,-1.48542 -1.954381,-2.10152 -3.334923,-2.96527 m -2.264225,-1.75929 c -0.658401,-0.6853 -1.277996,-1.5665 -1.740128,-2.73416 m 17.83531,26.78329 c -2.066373,-1.24901 -3.071794,-2.64157 -3.533839,-3.88746 m -0.404826,-3.02614 c 0.03145,-1.59655 0.18692,-2.94073 -0.889436,-4.25113 -0.977841,-1.19046 -2.25048,-1.99064 -3.653067,-2.74932 m -2.640169,-1.39873 c -0.935378,-0.51919 -1.84748,-1.08647 -2.657842,-1.76569 -1.409882,-1.18171 -2.603209,-1.7165 -3.862462,-2.69381 -1.196803,-0.92883 -2.651291,-2.45844 -3.871505,-5.55541 m 24.606107,20.23474 c -1.848231,-1.12543 -3.217046,-1.69373 -4.615699,-2.12412 m -2.952311,-0.81976 c -0.780895,-0.2338 -1.583735,-0.52193 -2.411445,-0.9584 -3.204659,-1.68987 -7.47463,-2.85818 -9.355042,-6.39866 -0.538966,-1.01478 -0.637635,-2.0593 -0.532591,-3.09418 m 0.69519,-3.09509 c 0.526703,-1.91556 0.951302,-3.73845 0.08254,-5.92793 m -2.758374,1.0917 c 0.630879,1.59593 1.538845,2.6684 2.457112,3.45376 m 2.212895,1.54395 c 1.138841,0.71838 2.104073,1.37418 2.767943,2.65864 0.808324,1.56395 0.767965,3.39257 0.766459,5.33498 m 0.210076,3.4168 c 0.205473,1.15414 0.611385,2.25813 1.395401,3.18553 1.261571,1.49229 2.873298,1.86125 4.595709,2.20632 1.798967,0.36041 3.597378,0.67893 5.895657,2.07294 M 16.027547,227.86642 c -0.275957,-0.69888 -0.407646,-1.36816 -0.432605,-1.99978 m 0.97535,-3.64822 c 1.09934,-2.03185 2.596398,-3.54772 2.60576,-5.58917 0.0074,-1.61309 -0.55844,-3.08419 -1.218139,-4.67194 -0.142605,-0.32979 -0.286079,-0.65826 -0.429382,-0.99458 m -1.128046,-3.21052 c -0.06835,-0.28473 -0.126077,-0.57084 -0.170862,-0.85784 -0.271112,-1.73739 -0.795271,-2.88983 -1.070816,-4.40239 -0.262584,-1.44142 -0.305757,-3.46928 0.868786,-6.4439 m 5.516703,29.63494 c -1.047759,-2.63321 -2.010891,-3.89917 -3.166429,-5.36764 m -1.785635,-2.55995 c -0.127001,-0.23314 -0.248575,-0.47752 -0.362625,-0.7353 -0.717471,-1.62164 -1.696075,-3.26979 -2.382619,-5.06282 -0.664284,-1.75897 -1.025154,-3.6267 -0.563808,-5.45383 0.07015,-0.27784 0.163883,-0.53804 0.277286,-0.78216 m 2.330059,-2.47064 c 2.148158,-1.43637 4.544868,-2.23222 5.65381,-5.01918 m -2.758414,28.54322 c -0.942657,-2.37881 -2.146443,-3.65161 -3.31826,-4.97196 -1.120289,-1.26229 -2.145768,-2.50579 -2.184498,-4.39174 -0.006,-0.29309 0.01361,-0.58073 0.05551,-0.86244 m 1.604161,-3.43094 c 0.302698,-0.39952 0.627571,-0.78436 0.959542,-1.16033 1.385582,-1.57856 2.810642,-2.92396 3.273691,-4.67205 0.474335,-1.79069 -0.223544,-3.10937 -0.678789,-4.98152 m -0.20658,-3.33953 c 0.08493,-0.57378 0.241362,-1.18369 0.495267,-1.82442 m -3.677875,31.09053 c -0.580124,-1.47083 -0.665668,-2.74013 -0.491249,-3.8044 m 1.268862,-2.98136 c 1.08998,-1.63705 2.308472,-2.81029 2.308202,-4.68502 -2.39e-4,-1.65633 -0.571917,-3.17016 -1.235991,-4.80223 -0.0087,-0.0207 -0.0923,-0.2204 -0.10097,-0.24115 m -1.10922,-2.87474 c -0.219245,-0.68319 -0.396469,-1.37699 -0.500248,-2.07735 -0.263662,-1.77932 -0.782391,-2.95596 -1.050057,-4.50015 -0.254903,-1.47056 -0.287285,-3.54238 0.910718,-6.57974 m 5.516701,30.36274 c -0.919402,-2.31394 -1.766023,-3.60938 -2.75931,-4.92308 m -1.749347,-2.37009 c -0.313217,-0.48405 -0.61023,-1.01004 -0.868721,-1.60332 -0.724989,-1.66396 -1.709475,-3.35515 -2.400471,-5.19312 -0.65992,-1.80307 -1.014928,-3.71397 -0.545956,-5.58413 0.183645,-0.73234 0.522926,-1.34449 0.954589,-1.86979 m 2.466602,-1.98249 c 1.951601,-1.20598 3.910514,-2.15632 4.902655,-4.6533 m -2.758415,29.27102 c -0.963812,-2.43524 -2.175831,-3.74128 -3.357678,-5.09787 -1.128818,-1.29573 -2.161359,-2.57082 -2.207771,-4.49944 -0.01908,-0.79267 0.141429,-1.5445 0.419195,-2.25262 m 1.871506,-2.96332 c 0.102558,-0.12373 0.206264,-0.24634 0.31066,-0.36806 1.390055,-1.62067 2.81963,-3.0049 3.291543,-4.80235 0.417495,-1.59017 -0.0424,-2.82124 -0.469146,-4.3846 m -0.457919,-2.81471 c -0.01298,-0.94727 0.137499,-2.01206 0.599654,-3.17976 m -3.677875,31.81833 c -0.885868,-2.24837 -0.835943,-3.97112 -0.443493,-5.23729 m 1.526046,-2.6262 c 1.004971,-1.23256 1.948321,-2.16895 1.940571,-3.84089 -0.007,-1.5177 -0.467207,-2.9178 -1.042715,-4.39741 m -1.090173,-2.77654 c -0.362481,-1.00542 -0.666233,-2.03499 -0.813541,-3.08212 -0.256211,-1.82125 -0.769511,-3.02209 -1.029299,-4.59791 -0.247233,-1.49967 -0.2688,-3.61551 0.952651,-6.71559 m 5.5167,31.09055 c -0.792656,-1.99767 -1.524342,-3.25994 -2.359493,-4.44466 m -1.803214,-2.44146 c -0.463188,-0.66247 -0.909153,-1.38629 -1.277361,-2.24398 -0.732506,-1.70627 -1.722875,-3.4405 -2.418323,-5.32341 -0.655556,-1.84716 -1.004703,-3.80124 -0.528104,-5.71443 0.280829,-1.12732 0.911655,-1.97457 1.68546,-2.66983 m 2.599332,-1.80715 c 1.680233,-1.04327 3.234339,-2.07616 4.101745,-4.26221 m -2.758371,-1.09171 c -0.630931,1.59605 -0.700911,2.99816 -0.564995,4.19554 m 0.570679,2.62417 c 0.349828,1.2936 0.619031,2.41012 0.259036,3.79298 -0.438043,1.68267 -1.664001,3.00927 -2.93668,4.49372 m -2.038009,2.7716 c -0.574194,1.02958 -0.951869,2.15508 -0.918215,3.38162 0.05409,1.97127 1.093701,3.27798 2.231042,4.60712 1.191907,1.39291 2.412103,2.73206 3.397097,5.22379 m -0.919412,-31.45444 c 0.275959,-0.69889 0.636969,-1.27744 1.05026,-1.75574 m 3.208752,-2.00532 c 2.189445,-0.74211 4.349416,-0.8594 5.739982,-2.40831 1.326535,-1.47759 1.878946,-3.40126 2.532291,-5.44808 m 1.214484,-3.21592 c 0.129099,-0.26615 0.266646,-0.52693 0.414269,-0.78052 0.893659,-1.53516 1.198415,-2.77593 1.914978,-4.14585 0.683787,-1.30726 1.889821,-2.93785 4.630262,-4.59805 M 21.544335,198.2315 c 1.049885,-2.63853 1.221624,-4.23626 1.37524,-6.1185 m 0.419277,-3.12357 c 0.06297,-0.2603 0.137123,-0.52527 0.225384,-0.7953 1.079484,-3.30266 1.477718,-7.60871 4.565007,-9.92945 0.228467,-0.17173 0.464216,-0.31535 0.705429,-0.4345 m 3.378002,-0.48549 c 2.594069,0.19685 5.020679,1.02175 7.613148,-0.56143 m -21.039858,20.35653 c 0.944394,-2.38317 0.936771,-4.13772 0.972402,-5.91109 0.03408,-1.69612 0.113407,-3.29762 1.343517,-4.71915 0.191101,-0.22084 0.397324,-0.4207 0.615941,-0.60167 m 3.469274,-1.50775 c 2.554764,-0.54374 5.204431,-0.44353 7.058919,-1.79644 1.533258,-1.11856 1.829964,-2.62653 2.630229,-4.39953 m 1.895267,-2.80475 c 0.418823,-0.40846 0.915592,-0.8025 1.507832,-1.16264 m -23.171209,21.44741 c 0.580059,-1.47066 1.383229,-2.45516 2.23672,-3.11369 m 2.965715,-1.32059 c 1.912644,-0.46201 3.629285,-0.51302 4.895232,-1.93272 1.175239,-1.31796 1.76163,-2.96185 2.345213,-4.74148 m 1.01654,-2.92769 c 0.268652,-0.67002 0.572235,-1.32341 0.933945,-1.93699 0.919103,-1.5591 1.240082,-2.81328 1.978915,-4.20043 0.704508,-1.3227 1.942033,-2.97787 4.736964,-4.66912 M 20.624878,197.8676 c 0.921036,-2.31803 1.19519,-3.85066 1.363562,-5.50408 m 0.321124,-2.94995 c 0.09522,-0.57255 0.22887,-1.16436 0.433887,-1.78097 1.117824,-3.36197 1.560429,-7.72109 4.699665,-10.09108 0.598597,-0.45192 1.243529,-0.7155 1.909122,-0.85614 m 3.179895,-0.0244 c 2.296533,0.25324 4.459661,0.68723 6.778196,-0.72657 m -21.443822,20.84148 c 0.965385,-2.43919 0.972329,-4.2218 1.023025,-6.02581 0.04844,-1.72372 0.141679,-3.34995 1.391567,-4.80206 0.513453,-0.59652 1.131121,-1.04426 1.806326,-1.38548 m 3.349669,-0.98972 c 2.258344,-0.38525 4.478736,-0.48625 6.122795,-1.6923 1.352442,-0.99212 1.775774,-2.27172 2.409685,-3.78013 m 1.375619,-2.5323 c 0.571032,-0.7658 1.340557,-1.52541 2.418659,-2.18014 m -23.575173,21.93232 c 0.885482,-2.24738 2.094422,-3.46896 3.243562,-4.12678 m 2.910316,-0.88824 c 1.57553,-0.22524 2.921832,-0.28467 4.042462,-1.54959 1.018399,-1.14953 1.608197,-2.52773 2.137583,-4.03151 m 0.967281,-2.8279 c 0.365858,-1.0064 0.782663,-1.99862 1.32549,-2.9084 0.944542,-1.58304 1.281745,-2.85062 2.042851,-4.25501 0.725201,-1.33813 1.994271,-3.01791 4.843663,-4.7402 m -15.996466,27.51105 c 0.793835,-2.00062 1.126843,-3.4259 1.32404,-4.87264 m 0.332339,-3.03312 c 0.1056,-0.80554 0.261871,-1.64208 0.560867,-2.52685 1.156166,-3.42127 1.643136,-7.8335 4.834319,-10.25273 0.916109,-0.6945 1.931923,-0.95857 2.972256,-1.02027 m 3.175406,0.18976 c 1.980542,0.21051 3.864175,0.33144 5.89019,-0.90224 m -1.546475,-2.54648 c -1.471902,0.89277 -2.382309,1.96752 -3.010117,3.00656 m -1.170594,2.44409 c -0.528686,1.24457 -1.026018,2.3063 -2.193893,3.16759 -1.421365,1.04822 -3.238637,1.29582 -5.156259,1.59989 m -3.33851,0.74615 c -1.105675,0.38536 -2.129344,0.96134 -2.918675,1.88309 -1.269661,1.48268 -1.376823,3.13367 -1.439618,4.88497 -0.06579,1.83472 -0.08724,3.64525 -1.073647,6.14052 m 19.785821,-24.72169 c 0.643747,-0.38999 1.281999,-0.63305 1.901312,-0.76507 m 3.771501,0.33182 c 2.197838,0.72554 3.967268,1.92098 5.983507,1.53716 1.91661,-0.36485 3.488473,-1.52974 5.240486,-2.70717 m 2.921801,-1.71532 c 0.265951,-0.1224 0.535631,-0.23489 0.809038,-0.33497 1.013986,-0.37113 1.749195,-0.76087 2.541913,-1.17055 1.624867,-0.83899 3.782076,-1.94736 8.133061,-1.08105 m -28.209668,10.99812 c 2.435497,-1.48733 3.540175,-2.68521 4.779457,-4.08438 m 2.20169,-2.22781 c 0.205939,-0.1679 0.423638,-0.33255 0.655606,-0.49238 2.816857,-1.94083 5.803871,-5.08723 9.699128,-4.91854 0.287507,0.0125 0.562716,0.0518 0.826309,0.11399 m 2.907078,1.81465 c 1.850416,1.85883 3.058578,4.0425 5.987963,4.61544 m -28.603708,2.63254 c 2.195841,-1.33526 3.25133,-2.75625 4.341313,-4.14064 1.046567,-1.32925 2.077304,-2.55315 3.915301,-2.93295 0.285383,-0.059 0.570013,-0.092 0.852858,-0.10244 m 3.645665,0.92531 c 2.327995,1.13862 4.299048,2.86436 6.524844,3.02729 0.886535,0.0649 1.614173,-0.1124 2.343103,-0.41323 0.777605,-0.33687 1.542013,-0.80652 2.428653,-1.21799 m 3.245847,-0.8395 c 0.579636,-0.023 1.2075,0.0188 1.882341,0.15206 m -31.24189,2.14679 c 1.353268,-0.81889 2.588925,-1.11821 3.668494,-1.1286 m 3.161999,0.73198 c 1.805199,0.78314 3.186803,1.76779 5.032446,1.41085 1.708695,-0.33045 3.146965,-1.25952 4.683776,-2.28037 m 2.590768,-1.63135 c 0.625295,-0.34774 1.270931,-0.65868 1.939383,-0.89943 1.041061,-0.37496 1.794658,-0.76644 2.608183,-1.17836 1.664512,-0.83381 3.877302,-1.93869 8.325136,-1.0509 m -28.917236,11.11914 c 2.13941,-1.30457 3.286612,-2.3828 4.405016,-3.59448 m 2.023284,-2.15271 c 0.419251,-0.39639 0.881216,-0.78421 1.415074,-1.14705 2.891031,-1.96496 5.957396,-5.12816 9.941729,-4.97224 0.758048,0.0297 1.431153,0.23777 2.038229,0.55752 m 2.45156,2.05555 c 1.576618,1.70585 2.863956,3.43803 5.489903,3.95336 m -29.311272,2.75357 c 2.24513,-1.36347 3.330234,-2.79651 4.452171,-4.19513 1.076168,-1.34155 2.134994,-2.57612 4.011064,-2.96815 0.770327,-0.16096 1.532967,-0.14005 2.274449,0.001 m 3.235446,1.26786 c 1.998165,1.08607 3.764894,2.39282 5.756074,2.52732 0.911127,0.0616 1.659713,-0.11814 2.409373,-0.42103 0.598876,-0.25063 1.180483,-0.57044 1.821524,-0.88992 m 2.687833,-0.991 c 0.930944,-0.19048 2.007629,-0.23833 3.239558,0.006 m -31.949457,2.26779 c 2.066312,-1.24897 3.76803,-1.49247 5.083713,-1.32386 m 2.855664,1.04375 c 1.391645,0.76932 2.488131,1.52698 4.130183,1.20467 1.48944,-0.29236 2.777008,-1.01416 4.105219,-1.85979 m 2.491957,-1.59601 c 0.909617,-0.55028 1.858249,-1.05406 2.85935,-1.40905 1.068162,-0.37877 1.840098,-0.77199 2.674456,-1.18616 1.70407,-0.82865 3.972613,-1.93001 8.517207,-1.02075 m -29.624798,11.2401 c 1.845779,-1.12392 2.975542,-2.07563 3.996489,-3.1078 m 2.085248,-2.21437 c 0.568023,-0.57543 1.196467,-1.14403 1.968256,-1.66175 2.965202,-1.98905 6.110928,-5.16909 10.184331,-5.02593 1.118336,0.0393 2.052863,0.44953 2.873267,1.03337 0.03595,0.0261 0.07167,0.0525 0.107193,0.0792 m 2.300163,2.23097 c 1.35789,1.46659 2.656168,2.79221 4.957414,3.24527 m 0.57622,-2.90954 c -1.686629,-0.33495 -3.08397,-0.14584 -4.240567,0.21392 m -2.483028,1.06795 c -0.413919,0.20496 -0.812789,0.39955 -1.217395,0.56325 -0.77039,0.30495 -1.539923,0.48703 -2.475643,0.42883 -1.736407,-0.10799 -3.286538,-1.0529 -4.968306,-1.99779 m -3.076961,-1.45959 c -1.108351,-0.37019 -2.273724,-0.53661 -3.463304,-0.28539 -1.914138,0.40424 -3.001065,1.64949 -4.106825,3.00335 -1.153959,1.41287 -2.268545,2.8579 -4.563027,4.2496 m 30.787127,-6.75398 c 0.739217,0.14718 1.374315,0.40064 1.918592,0.7232 m 2.530377,2.8041 c 1.104175,2.02402 1.572104,4.11618 3.312435,5.22389 1.659226,1.05608 3.629054,1.28818 5.74447,1.60616 m 3.35576,0.6884 c 0.282525,0.0854 0.561174,0.18007 0.834374,0.28583 1.653887,0.64028 2.927136,0.74683 4.394081,1.23878 1.401551,0.47002 3.200855,1.40274 5.28442,3.8465 m -28.526946,-10.5978 c 2.775246,0.54279 4.336785,0.43334 6.217607,0.26131 m 3.129275,-0.11366 c 0.265594,0.0187 0.537655,0.0477 0.81701,0.09 3.410569,0.5155 7.723827,0.22656 10.500487,2.9034 0.205586,0.1982 0.384561,0.40806 0.540247,0.6272 m 1.011322,3.25818 c 0.213204,2.58904 -0.221173,5.13203 1.763258,7.45244 M 67.45927,168.69468 c 2.511624,0.49599 4.221533,0.18544 5.973932,-0.0814 1.670825,-0.25441 3.262228,-0.44207 4.86379,0.53407 0.24882,0.15166 0.479412,0.3217 0.693336,0.50707 m 2.045422,3.16635 c 0.943435,2.42317 1.260459,5.0511 2.879815,6.66743 1.34152,1.33902 2.87356,1.39729 4.753099,1.91131 m 3.074871,1.43429 c 0.471102,0.35005 0.940655,0.77942 1.392592,1.30873 M 68.227565,164.81529 c 1.557231,0.31083 2.671635,0.93179 3.468888,1.65675 m 1.809986,2.68693 c 0.779549,1.80094 1.110922,3.47129 2.70714,4.47919 1.480928,0.93511 3.184289,1.24517 5.026088,1.53567 m 3.040949,0.53681 c 0.702244,0.15897 1.394148,0.35538 2.056193,0.61559 1.682324,0.66122 2.971681,0.7813 4.459457,1.29192 1.42035,0.48748 3.249216,1.44652 5.371688,3.93701 m -29.09283,-10.92078 c 2.439673,0.47878 3.967729,0.47985 5.623706,0.3609 m 2.945193,-0.18315 c 0.577456,-0.002 1.180484,0.0314 1.819603,0.13155 3.478792,0.54489 7.853969,0.29156 10.689117,3.01107 0.540911,0.51885 0.90311,1.11331 1.147045,1.74787 m 0.525127,3.13603 c 0.111265,2.30618 0.02241,4.52334 1.795301,6.59756 M 67.651344,167.72484 c 2.574558,0.50987 4.316601,0.21017 6.103702,-0.0458 1.702274,-0.24386 3.321876,-0.42116 4.958631,0.57019 0.672414,0.40727 1.214876,0.94184 1.660951,1.55044 m 1.514858,3.13466 c 0.739696,2.15884 1.187437,4.33136 2.63139,5.76342 1.189345,1.17955 2.516717,1.39812 4.107704,1.78845 m 2.721385,0.96206 c 0.848373,0.44398 1.722557,1.08478 2.54412,2.04747 M 68.419636,163.84544 c 2.382049,0.47659 3.802121,1.46126 4.647864,2.47708 m 1.371939,2.70818 c 0.487976,1.51011 0.768054,2.81777 2.190821,3.7093 1.292455,0.80987 2.737895,1.16585 4.300289,1.44596 m 2.935465,0.50231 c 1.048845,0.20105 2.093029,0.45547 3.076107,0.84747 1.710764,0.68216 3.016223,0.81576 4.524832,1.34506 1.43913,0.50492 3.297595,1.49031 5.45896,4.02752 M 67.267199,169.66453 c 2.107662,0.41495 3.549798,0.49171 5.006758,0.43599 m 3.031336,-0.18789 c 0.808305,-0.0309 1.656255,-0.0159 2.575018,0.13289 3.547001,0.57429 7.984117,0.35654 10.877743,3.11874 0.831167,0.79341 1.252659,1.75343 1.477825,2.77042 m 0.313195,3.16599 c 0.104129,1.9888 0.281694,3.87732 1.829096,5.6887 m 2.273872,-1.94053 c -1.120153,-1.31319 -2.327868,-2.0427 -3.45513,-2.49942 m -2.60081,-0.77245 c -1.31314,-0.32722 -2.437804,-0.65241 -3.469915,-1.66975 -1.255133,-1.23718 -1.784366,-2.98913 -2.38933,-4.82708 m -1.271998,-3.16443 c -0.559186,-1.02522 -1.294987,-1.93886 -2.334498,-2.56468 -1.671934,-1.00655 -3.319759,-0.83963 -5.05347,-0.60631 -1.821876,0.24517 -3.595907,0.53406 -6.233472,0.0103 m 27.56658,15.44701 c 0.48931,0.5739 0.832723,1.16579 1.063625,1.75713 m 0.287999,3.78919 c -0.354274,2.2953 -1.237896,4.25851 -0.501454,6.19576 0.700042,1.84149 2.142588,3.20048 3.625692,4.71289 m 2.231669,2.55452 c 0.17007,0.23743 0.33116,0.47998 0.48087,0.7282 0.90632,1.50258 1.8314,2.36586 2.66477,3.66259 0.78607,1.22313 1.62355,3.11447 1.63927,6.35516 M 90.862259,186.08306 c 1.864963,2.18071 3.246122,3.09052 4.838554,4.08613 m 2.582696,1.80849 c 0.201681,0.17532 0.402202,0.36266 0.600522,0.56477 2.422449,2.46881 6.025119,4.81561 6.580279,8.64245 0.0409,0.28205 0.0536,0.55702 0.042,0.8249 m -1.21022,3.16885 c -1.44616,2.15686 -3.35964,3.79185 -3.39362,6.77877 m -7.766303,-27.81489 c 1.675533,1.96238 3.260379,2.77824 4.811123,3.62603 1.491541,0.81543 2.8718,1.62428 3.56065,3.37226 0.10692,0.27134 0.18827,0.54632 0.24712,0.82342 m -0.27469,3.75686 c -0.70731,2.50173 -2.029549,4.74913 -1.747839,6.97337 0.23375,1.84555 1.376419,2.79368 2.506559,4.35367 m 1.44871,3.02029 c 0.13531,0.56609 0.21649,1.1948 0.21467,1.889 m -7.734476,-30.40227 c 1.027382,1.20552 1.523362,2.37752 1.709512,3.44377 m -0.2046,3.25075 c -0.47453,1.91602 -1.21527,3.45778 -0.538077,5.22719 0.627136,1.63862 1.807522,2.90348 3.094051,4.23408 m 2.08193,2.24892 c 0.45733,0.5485 0.88212,1.12152 1.24293,1.72822 0.91677,1.54152 1.84715,2.42912 2.68697,3.75892 0.7918,1.25378 1.63821,3.19184 1.66177,6.51043 M 91.620216,185.43621 c 1.636278,1.91439 2.900391,2.88229 4.286533,3.79004 m 2.474465,1.64499 c 0.463927,0.34795 0.926577,0.7387 1.377437,1.204 2.455259,2.53394 6.084029,4.95151 6.660959,8.85807 0.10959,0.74207 0.0309,1.43428 -0.16661,2.08333 m -1.52272,2.77367 c -1.35118,1.86637 -2.80558,3.48253 -2.82785,6.16711 m -8.008345,-28.46173 c 1.710703,2.00456 3.31157,2.84633 4.880656,3.72183 1.507659,0.84122 2.902139,1.67461 3.607779,3.45609 0.28964,0.73125 0.39938,1.48584 0.38814,2.24074 m -0.67992,3.41014 c -0.71137,2.16409 -1.66075,4.1367 -1.40294,6.11838 0.21258,1.63401 1.10332,2.59496 2.09159,3.87951 m 1.4911,2.43701 c 0.36943,0.87514 0.63195,1.92922 0.63195,3.19804 m -7.976529,-31.04911 c 1.566841,1.83929 2.08386,3.4785 2.13237,4.80754 m -0.561169,2.99881 c -0.528478,1.50497 -1.093009,2.72352 -0.487703,4.29499 0.549166,1.42571 1.493782,2.57532 2.567211,3.73314 m 2.02422,2.16107 c 0.70732,0.79118 1.3752,1.62417 1.90817,2.53263 0.92721,1.58045 1.8629,2.49237 2.70916,3.85524 0.79752,1.28439 1.65286,3.26923 1.68427,6.6657 M 92.37817,184.78937 c 1.409893,1.65041 2.541892,2.61907 3.733276,3.46035 m 2.542935,1.69622 c 0.66583,0.46507 1.33472,0.98917 1.978889,1.66209 2.48804,2.59907 6.14295,5.08742 6.74164,9.07368 0.17127,1.14036 -0.0847,2.16039 -0.5331,3.0983 m -1.71352,2.66523 c -1.16185,1.61122 -2.21316,3.15353 -2.22586,5.51218 m 3.00001,10e-6 c -0.004,-1.7391 -0.47576,-3.08089 -1.05555,-4.13989 m -1.52711,-2.21632 c -0.81558,-1.06376 -1.48767,-1.99286 -1.67668,-3.40994 -0.22968,-1.72204 0.40587,-3.41595 1.03239,-5.241 m 0.8928,-3.28603 c 0.1723,-1.1554 0.1376,-2.3304 -0.31115,-3.45785 -0.72242,-1.81497 -2.13115,-2.67293 -3.654909,-3.53992 -1.587475,-0.90327 -3.204265,-1.77082 -4.950189,-3.81764"
       id="path1691-3" />
  </g>
</svg>
