<?xml version="1.0" encoding="UTF-8" standalone="no"?>
<!-- Created with Inkscape (http://www.inkscape.org/) -->

<svg
   xmlns:dc="http://purl.org/dc/elements/1.1/"
   xmlns:cc="http://creativecommons.org/ns#"
   xmlns:rdf="http://www.w3.org/1999/02/22-rdf-syntax-ns#"
   xmlns:svg="http://www.w3.org/2000/svg"
   xmlns="http://www.w3.org/2000/svg"
   xmlns:sodipodi="http://sodipodi.sourceforge.net/DTD/sodipodi-0.dtd"
   xmlns:inkscape="http://www.inkscape.org/namespaces/inkscape"
   width="120mm"
   height="150mm"
   viewBox="0 0 120 150"
   version="1.1"
   id="svg1599"
   inkscape:version="0.92.3 (2405546, 2018-03-11)"
   sodipodi:docname="front_layer_1_out.svg">
  <defs
     id="defs1593">
    <marker
       style="overflow:visible"
       refY="0.0"
       refX="0.0"
       orient="auto"
       id="DistanceX">
      <path
         id="path3434"
         style="stroke:#000000; stroke-width:0.5"
         d="M 3,-3 L -3,3 M 0,-5 L  0,5" />
    </marker>
    <pattern
       y="0"
       x="0"
       width="8"
       patternUnits="userSpaceOnUse"
       id="Hatch"
       height="8">
      <path
         id="path3437"
         stroke-width="0.25"
         stroke="#000000"
         linecap="square"
         d="M8 4 l-4,4" />
      <path
         id="path3439"
         stroke-width="0.25"
         stroke="#000000"
         linecap="square"
         d="M6 2 l-4,4" />
      <path
         id="path3441"
         stroke-width="0.25"
         stroke="#000000"
         linecap="square"
         d="M4 0 l-4,4" />
    </pattern>
    <symbol
       id="*MODEL_SPACE" />
    <symbol
       id="*PAPER_SPACE" />
    <marker
       style="overflow:visible"
       refY="0.0"
       refX="0.0"
       orient="auto"
       id="DistanceX-3">
      <path
         id="path3599"
         style="stroke:#000000; stroke-width:0.5"
         d="M 3,-3 L -3,3 M 0,-5 L  0,5" />
    </marker>
    <pattern
       y="0"
       x="0"
       width="8"
       patternUnits="userSpaceOnUse"
       id="Hatch-6"
       height="8">
      <path
         id="path3602"
         stroke-width="0.25"
         stroke="#000000"
         linecap="square"
         d="M8 4 l-4,4" />
      <path
         id="path3604"
         stroke-width="0.25"
         stroke="#000000"
         linecap="square"
         d="M6 2 l-4,4" />
      <path
         id="path3606"
         stroke-width="0.25"
         stroke="#000000"
         linecap="square"
         d="M4 0 l-4,4" />
    </pattern>
    <symbol
       id="*MODEL_SPACE-7" />
    <symbol
       id="*PAPER_SPACE-5" />
    <marker
       style="overflow:visible"
       refY="0.0"
       refX="0.0"
       orient="auto"
       id="DistanceX-35">
      <path
         id="path3830"
         style="stroke:#000000; stroke-width:0.5"
         d="M 3,-3 L -3,3 M 0,-5 L  0,5" />
    </marker>
    <pattern
       y="0"
       x="0"
       width="8"
       patternUnits="userSpaceOnUse"
       id="Hatch-62"
       height="8">
      <path
         id="path3833"
         stroke-width="0.25"
         stroke="#000000"
         linecap="square"
         d="M8 4 l-4,4" />
      <path
         id="path3835"
         stroke-width="0.25"
         stroke="#000000"
         linecap="square"
         d="M6 2 l-4,4" />
      <path
         id="path3837"
         stroke-width="0.25"
         stroke="#000000"
         linecap="square"
         d="M4 0 l-4,4" />
    </pattern>
    <symbol
       id="*MODEL_SPACE-9" />
    <symbol
       id="*PAPER_SPACE-1" />
  </defs>
  <sodipodi:namedview
     id="base"
     pagecolor="#ffffff"
     bordercolor="#666666"
     borderopacity="1.0"
     inkscape:pageopacity="0.0"
     inkscape:pageshadow="2"
     inkscape:zoom="1.4"
     inkscape:cx="-88.776902"
     inkscape:cy="294.44249"
     inkscape:document-units="mm"
     inkscape:current-layer="layer1"
     showgrid="false"
     inkscape:showpageshadow="false"
     inkscape:pagecheckerboard="true"
     inkscape:window-width="1920"
     inkscape:window-height="1023"
     inkscape:window-x="0"
     inkscape:window-y="0"
     inkscape:window-maximized="1" />
  <metadata
     id="metadata1596">
    <rdf:RDF>
      <cc:Work
         rdf:about="">
        <dc:format>image/svg+xml</dc:format>
        <dc:type
           rdf:resource="http://purl.org/dc/dcmitype/StillImage" />
        <dc:title />
        <cc:license
           rdf:resource="http://creativecommons.org/licenses/by/4.0/" />
        <dc:date>04.01.2019</dc:date>
        <dc:creator>
          <cc:Agent>
            <dc:title>Stefan Krüger</dc:title>
          </cc:Agent>
        </dc:creator>
        <dc:rights>
          <cc:Agent>
            <dc:title>Stefan Krüger</dc:title>
          </cc:Agent>
        </dc:rights>
        <dc:publisher>
          <cc:Agent>
            <dc:title>Stefan Krüger</dc:title>
          </cc:Agent>
        </dc:publisher>
        <dc:language>EN / DE</dc:language>
      </cc:Work>
      <cc:License
         rdf:about="http://creativecommons.org/licenses/by/4.0/">
        <cc:permits
           rdf:resource="http://creativecommons.org/ns#Reproduction" />
        <cc:permits
           rdf:resource="http://creativecommons.org/ns#Distribution" />
        <cc:requires
           rdf:resource="http://creativecommons.org/ns#Notice" />
        <cc:requires
           rdf:resource="http://creativecommons.org/ns#Attribution" />
        <cc:permits
           rdf:resource="http://creativecommons.org/ns#DerivativeWorks" />
      </cc:License>
    </rdf:RDF>
  </metadata>
  <g
     inkscape:label="Layer 1"
     inkscape:groupmode="layer"
     id="layer1"
     transform="translate(0,-147)">
    <g
       id="g3957"
       transform="matrix(0.26458333,0,0,0.26458333,-88.499998,30.000005)">
      <g
         id="g3844"
         inkscape:label="0" />
      <g
         id="g3908"
         inkscape:label="View016">
        <path
           id="path3846"
           style="fill:none;stroke:#000000"
           d="m 671.17257,515.90381 a 204.09449,204.09449 0 0 0 -219.82486,-3.9e-4"
           inkscape:connector-curvature="0" />
        <path
           id="path3848"
           style="fill:none;stroke:#000000"
           d="m 671.17121,515.90484 a 30.23622,30.23622 0 0 0 19.77998,4.55623"
           inkscape:connector-curvature="0" />
        <path
           id="path3850"
           style="fill:none;stroke:#000000"
           d="m 431.56849,520.46107 a 30.23622,30.23622 0 0 0 19.78007,-4.55629"
           inkscape:connector-curvature="0" />
        <path
           id="path3852"
           style="fill:none;stroke:#000000"
           d="M 728.87072,552.81887 A 34.015748,34.015748 0 0 0 690.95125,520.4613"
           inkscape:connector-curvature="0" />
        <path
           id="path3854"
           style="fill:none;stroke:#000000"
           d="m 431.56844,520.4613 a 34.015748,34.015748 0 0 0 -37.91948,32.35775"
           inkscape:connector-curvature="0" />
        <path
           id="path3856"
           style="fill:none;stroke:#000000"
           d="m 728.8731,552.81884 a 75.590551,75.590551 0 0 0 9.81119,34.18301"
           inkscape:connector-curvature="0" />
        <path
           id="path3858"
           style="fill:none;stroke:#000000"
           d="m 383.8364,587.00208 a 75.590551,75.590551 0 0 0 9.8113,-34.18284"
           inkscape:connector-curvature="0" />
        <path
           id="path3860"
           style="fill:none;stroke:#000000"
           d="M 668.77319,861.35439 A 204.09449,204.09449 0 0 0 738.68341,587.00064"
           inkscape:connector-curvature="0" />
        <path
           id="path3862"
           style="fill:none;stroke:#000000"
           d="M 383.83592,587.00126 A 204.09449,204.09449 0 0 0 453.7474,861.35495"
           inkscape:connector-curvature="0" />
        <path
           id="path3864"
           style="fill:none;stroke:#000000"
           d="m 668.77312,861.35422 a 37.795276,37.795276 0 0 0 -17.5677,27.23468"
           inkscape:connector-curvature="0" />
        <path
           id="path3866"
           style="fill:none;stroke:#000000"
           d="M 471.3143,888.58916 A 37.795276,37.795276 0 0 0 453.74673,861.35432"
           inkscape:connector-curvature="0" />
        <path
           id="path3868"
           style="fill:none;stroke:#000000"
           d="m 471.31404,888.58979 a 90.708661,90.708661 0 0 0 179.89169,-6.3e-4"
           inkscape:connector-curvature="0" />
        <path
           id="path3870"
           style="fill:none;stroke:#000000"
           d="M 481.88852,876.85039 A 21.417335,21.417335 0 0 0 470.54993,857.95275"
           inkscape:connector-curvature="0" />
        <path
           id="path3872"
           style="fill:none;stroke:#000000"
           d="m 481.88976,876.85039 a 79.37008,79.37008 0 0 0 158.74016,0"
           inkscape:connector-curvature="0" />
        <path
           id="path3874"
           style="fill:none;stroke:#000000"
           d="m 651.96992,857.95266 a 21.417335,21.417335 0 0 0 -11.33875,18.89773"
           inkscape:connector-curvature="0" />
        <path
           id="path3876"
           style="fill:none;stroke:#000000"
           d="m 651.96854,857.95273 a 192.75591,192.75591 0 0 0 19.85155,-12.18232"
           inkscape:connector-curvature="0" />
        <path
           id="path3878"
           style="fill:none;stroke:#000000"
           d="M 671.82009,845.77041 A 192.75591,192.75591 0 0 0 754.01575,687.87402"
           inkscape:connector-curvature="0" />
        <path
           id="path3880"
           style="fill:none;stroke:#000000"
           d="m 754.01575,687.87402 a 192.75591,192.75591 0 0 0 -25.8244,-96.37796"
           inkscape:connector-curvature="0" />
        <path
           id="path3882"
           style="fill:none;stroke:#000000"
           d="M 728.19135,591.49606 A 192.75591,192.75591 0 0 0 718.86606,576.9005"
           inkscape:connector-curvature="0" />
        <path
           id="path3884"
           style="fill:none;stroke:#000000"
           d="m 717.9446,569.95812 a 7.559055,7.559055 0 0 0 0.92043,6.94306"
           inkscape:connector-curvature="0" />
        <path
           id="path3886"
           style="fill:none;stroke:#000000"
           d="M 717.94505,569.95777 A 30.23622,30.23622 0 0 0 679.17609,531.18881"
           inkscape:connector-curvature="0" />
        <path
           id="path3888"
           style="fill:none;stroke:#000000"
           d="m 672.23267,530.26883 a 7.559055,7.559055 0 0 0 6.94307,0.92042"
           inkscape:connector-curvature="0" />
        <path
           id="path3890"
           style="fill:none;stroke:#000000"
           d="m 672.23335,530.2678 a 192.75591,192.75591 0 0 0 -14.59556,-9.3253"
           inkscape:connector-curvature="0" />
        <path
           id="path3892"
           style="fill:none;stroke:#000000"
           d="m 657.63779,520.9425 a 192.75591,192.75591 0 0 0 -192.7559,0"
           inkscape:connector-curvature="0" />
        <path
           id="path3894"
           style="fill:none;stroke:#000000"
           d="m 464.88189,520.9425 a 192.75591,192.75591 0 0 0 -14.59529,9.32511"
           inkscape:connector-curvature="0" />
        <path
           id="path3896"
           style="fill:none;stroke:#000000"
           d="m 443.34394,531.18925 a 7.559055,7.559055 0 0 0 6.94308,-0.92043"
           inkscape:connector-curvature="0" />
        <path
           id="path3898"
           style="fill:none;stroke:#000000"
           d="m 443.3436,531.18881 a 30.23622,30.23622 0 0 0 -38.76896,38.76896"
           inkscape:connector-curvature="0" />
        <path
           id="path3900"
           style="fill:none;stroke:#000000"
           d="m 403.65465,576.90119 a 7.559055,7.559055 0 0 0 0.92043,-6.94307"
           inkscape:connector-curvature="0" />
        <path
           id="path3902"
           style="fill:none;stroke:#000000"
           d="m 403.65343,576.90078 a 192.75591,192.75591 0 0 0 -9.3251,14.59528"
           inkscape:connector-curvature="0" />
        <path
           id="path3904"
           style="fill:none;stroke:#000000"
           d="M 394.32833,591.49606 A 192.75591,192.75591 0 0 0 450.6996,845.77041"
           inkscape:connector-curvature="0" />
        <path
           id="path3906"
           style="fill:none;stroke:#000000"
           d="m 450.6996,845.77041 a 192.75591,192.75591 0 0 0 19.85303,12.18312"
           inkscape:connector-curvature="0" />
      </g>
    </g>
    <text
       xml:space="preserve"
       style="font-style:normal;font-variant:normal;font-weight:normal;font-stretch:normal;font-size:6px;line-height:100%;font-family:Overlock;-inkscape-font-specification:Overlock;letter-spacing:0px;word-spacing:0px;fill:#00ff00;fill-opacity:1;stroke:none;stroke-width:0.26458332"
       x="-62.656174"
       y="178.64102"
       id="text855"><tspan
         sodipodi:role="line"
         id="tspan853"
         x="-62.656174"
         y="178.64102"
         style="font-size:6px;fill:#00ff00;fill-opacity:1;stroke-width:0.26458332">material:</tspan><tspan
         sodipodi:role="line"
         x="-62.656174"
         y="184.64102"
         style="font-size:6px;fill:#00ff00;fill-opacity:1;stroke-width:0.26458332"
         id="tspan921">4mm Pappel Sperrholz</tspan><tspan
         sodipodi:role="line"
         x="-62.656174"
         y="190.64102"
         style="font-size:6px;fill:#00ff00;fill-opacity:1;stroke-width:0.26458332"
         id="tspan923">Globus</tspan><tspan
         sodipodi:role="line"
         x="-62.656174"
         y="196.64102"
         style="font-size:6px;fill:#00ff00;fill-opacity:1;stroke-width:0.26458332"
         id="tspan925" /><tspan
         sodipodi:role="line"
         x="-62.656174"
         y="202.64102"
         style="font-size:6px;fill:#00ff00;fill-opacity:1;stroke-width:0.26458332"
         id="tspan919">Cut:</tspan><tspan
         sodipodi:role="line"
         x="-62.656174"
         y="208.64102"
         style="font-size:6px;fill:#00ff00;fill-opacity:1;stroke-width:0.26458332"
         id="tspan863">power 60</tspan><tspan
         sodipodi:role="line"
         x="-62.656174"
         y="214.64102"
         style="font-size:6px;fill:#00ff00;fill-opacity:1;stroke-width:0.26458332"
         id="tspan879">speed 10</tspan></text>
  </g>
</svg>
