<?xml version="1.0" encoding="UTF-8" standalone="no"?>
<!-- Created with Inkscape (http://www.inkscape.org/) -->

<svg
   xmlns:dc="http://purl.org/dc/elements/1.1/"
   xmlns:cc="http://creativecommons.org/ns#"
   xmlns:rdf="http://www.w3.org/1999/02/22-rdf-syntax-ns#"
   xmlns:svg="http://www.w3.org/2000/svg"
   xmlns="http://www.w3.org/2000/svg"
   xmlns:sodipodi="http://sodipodi.sourceforge.net/DTD/sodipodi-0.dtd"
   xmlns:inkscape="http://www.inkscape.org/namespaces/inkscape"
   width="120mm"
   height="150mm"
   viewBox="0 0 120 150"
   version="1.1"
   id="svg1599"
   inkscape:version="0.92.3 (2405546, 2018-03-11)"
   sodipodi:docname="front_layer_0_wEngrave.svg">
  <defs
     id="defs1593">
    <marker
       style="overflow:visible"
       refY="0.0"
       refX="0.0"
       orient="auto"
       id="DistanceX">
      <path
         id="path3434"
         style="stroke:#000000; stroke-width:0.5"
         d="M 3,-3 L -3,3 M 0,-5 L  0,5" />
    </marker>
    <pattern
       y="0"
       x="0"
       width="8"
       patternUnits="userSpaceOnUse"
       id="Hatch"
       height="8">
      <path
         id="path3437"
         stroke-width="0.25"
         stroke="#000000"
         linecap="square"
         d="M8 4 l-4,4" />
      <path
         id="path3439"
         stroke-width="0.25"
         stroke="#000000"
         linecap="square"
         d="M6 2 l-4,4" />
      <path
         id="path3441"
         stroke-width="0.25"
         stroke="#000000"
         linecap="square"
         d="M4 0 l-4,4" />
    </pattern>
    <symbol
       id="*MODEL_SPACE" />
    <symbol
       id="*PAPER_SPACE" />
    <inkscape:path-effect
       effect="skeletal"
       id="path-effect1725"
       is_visible="true"
       pattern="#path31565-9-5-2-5-9-9-1"
       copytype="repeated_stretched"
       prop_scale="1"
       scale_y_rel="false"
       spacing="0"
       normal_offset="0"
       tang_offset="0"
       prop_units="false"
       vertical_pattern="true"
       fuse_tolerance="0" />
    <inkscape:path-effect
       effect="skeletal"
       id="path-effect1725-6"
       is_visible="true"
       pattern="#path31565-9-5-2-5-9-9-1"
       copytype="repeated_stretched"
       prop_scale="1"
       scale_y_rel="false"
       spacing="0"
       normal_offset="0"
       tang_offset="0"
       prop_units="false"
       vertical_pattern="true"
       fuse_tolerance="0" />
    <inkscape:path-effect
       effect="knot"
       id="path-effect1835-7-6-7-5-8-6"
       is_visible="true"
       interruption_width="0.7"
       prop_to_stroke_width="false"
       add_stroke_width="true"
       add_other_stroke_width="true"
       switcher_size="1"
       crossing_points_vector="46.29912 | 233.87676 | 0 | 1 | 5 | 0 | 0.67535871 | 0.64743695 | 1 | 43.911703 | 231.50197 | 0 | 2 | 2 | 0 | 0.39247632 | 0.38040199 | -1 | 45.620293 | 233.19638 | 0 | 4 | 4 | 0 | 0.59302081 | 0.56639284 | 1 | 43.266802 | 230.72093 | 0 | 5 | 1 | 0 | 0.30868335 | 0.30083911 | -1 | 44.917949 | 232.52398 | 0 | 7 | 3 | 0 | 0.51144506 | 0.48849286 | 1 | 42.628203 | 229.69257 | 0 | 8 | 0 | 11 | 0.20927551 | 2.7944087 | 1 | 46.366043 | 243.58673 | 0 | 2 | 6 | 8 | 1.6558804 | 1.6705139 | 1 | 45.984966 | 244.44055 | 0 | 5 | 7 | 8 | 1.742282 | 1.7589455 | 1 | 45.551962 | 245.45793 | 0 | 8 | 8 | 3 | 1.8450639 | 1.1405581 | -1 | 43.617859 | 250.03479 | 0 | 1 | 9 | 8 | 2.3733611 | 2.3140873 | -1 | 43.271039 | 250.69825 | 0 | 4 | 10 | 8 | 2.4616008 | 2.3941473 | -1 | 42.962689 | 251.36152 | 0 | 7 | 11 | 8 | 2.5441306 | 2.4747613 | -1 | 45.904358 | 234.70498 | 1 | 3 | 1 | 5 | 0.74651447 | 0.75652056 | 1 | 45.509906 | 235.58958 | 1 | 6 | 2 | 5 | 0.8493157 | 0.85601954 | 1 | 43.633957 | 240.41327 | 1 | 2 | 3 | 5 | 1.3441196 | 1.3294861 | -1 | 43.28596 | 241.19627 | 1 | 5 | 4 | 5 | 1.423343 | 1.4129974 | -1 | 42.961921 | 241.9576 | 1 | 8 | 5 | 6 | 1.5002566 | 1.5046013 | 1 | 46.088297 | 252.49803 | 1 | 2 | 11 | 9 | 2.6075237 | 2.619598 | 1 | 43.007899 | 249.31626 | 1 | 3 | 7 | 9 | 2.230632 | 2.2756592 | -1 | 45.439317 | 251.82401 | 1 | 5 | 10 | 9 | 2.530014 | 2.5460307 | 1 | 42.449913 | 248.43999 | 1 | 6 | 6 | 9 | 2.1360342 | 2.1614939 | -1 | 44.787858 | 251.19452 | 1 | 8 | 9 | 2 | 2.4545463 | 0.52620216 | -1 | 43.416515 | 232.43867 | 2 | 3 | 1 | 2 | 0.48374629 | 0.45309431 | -1 | 42.949073 | 233.28067 | 2 | 6 | 2 | 2 | 0.58237222 | 0.51504257 | -1 | 45.71404 | 242.80373 | 2 | 3 | 7 | 6 | 1.5870026 | 1.576657 | 1 | 43.015034 | 239.55945 | 2 | 4 | 4 | 3 | 1.2410545 | 1.257718 | -1 | 45.038079 | 242.0424 | 2 | 6 | 6 | 6 | 1.5046012 | 1.4997434 | 1 | 42.448038 | 238.54207 | 2 | 7 | 3 | 3 | 1.1405581 | 1.1549361 | -1 | 45.733198 | 253.27907 | 2 | 4 | 10 | 11 | 2.6991609 | 2.6913167 | 1 | 45.371797 | 254.30743 | 2 | 7 | 11 | 11 | 2.7944087 | 2.7907245 | 1 | 45.228119 | 234.02476 | 3 | 4 | 4 | 1 | 0.66643984 | 0.66519277 | 1 | 42.769837 | 231.78225 | 3 | 5 | 1 | 1 | 0.37483177 | 0.41046719 | -1 | 44.522148 | 233.40739 | 3 | 7 | 3 | 1 | 0.58150538 | 0.59136516 | 1 | 42.148897 | 230.99654 | 3 | 8 | 0 | 10 | 0.29204559 | 2.6718053 | 1 | 45.366043 | 243.58673 | 3 | 5 | 7 | 7 | 1.6558804 | 1.6705139 | 1 | 44.984966 | 244.44055 | 3 | 8 | 8 | 4 | 1.742282 | 1.2410545 | -1 | 42.617859 | 250.03479 | 3 | 4 | 10 | 7 | 2.3733611 | 2.3140873 | -1 | 42.271039 | 250.69825 | 3 | 7 | 11 | 7 | 2.4616008 | 2.3941473 | -1 | 44.86143 | 234.7971 | 4 | 6 | 2 | 4 | 0.75742542 | 0.75036289 | 1 | 42.633957 | 240.41327 | 4 | 5 | 4 | 4 | 1.3441196 | 1.3294861 | -1 | 42.28596 | 241.19627 | 4 | 8 | 5 | 7 | 1.423343 | 1.5870026 | 1 | 45.088297 | 252.49803 | 4 | 5 | 10 | 10 | 2.6075237 | 2.619598 | 1 | 42.007899 | 249.31626 | 4 | 6 | 6 | 10 | 2.230632 | 2.2756592 | -1 | 44.439317 | 251.82401 | 4 | 8 | 9 | 1 | 2.530014 | 0.45396932 | -1 | 42.265007 | 232.71084 | 5 | 6 | 2 | 1 | 0.51516019 | 0.43518004 | -1 | 44.71404 | 242.80373 | 5 | 6 | 6 | 7 | 1.5870026 | 1.576657 | 1 | 42.015034 | 239.55945 | 5 | 7 | 3 | 4 | 1.2410545 | 1.257718 | -1 | 44.733198 | 253.27907 | 5 | 7 | 11 | 10 | 2.6991609 | 2.6913167 | 1 | 44.1506 | 234.18632 | 6 | 7 | 3 | 2 | 0.65680393 | 0.68457688 | 1 | 41.624056 | 232.05861 | 6 | 8 | 0 | 9 | 0.356309 | 2.5591476 | 1 | 44.366043 | 243.58673 | 6 | 8 | 8 | 5 | 1.6558804 | 1.3294861 | -1 | 41.617859 | 250.03479 | 6 | 7 | 11 | 6 | 2.3733611 | 2.3140873 | -1 | 41.633957 | 240.41327 | 7 | 8 | 5 | 8 | 1.3441196 | 1.6705139 | 1 | 44.088297 | 252.49803 | 7 | 8 | 9 | 0 | 2.6075237 | 0.38040199 | -1" />
  </defs>
  <sodipodi:namedview
     id="base"
     pagecolor="#ffffff"
     bordercolor="#666666"
     borderopacity="1.0"
     inkscape:pageopacity="0.0"
     inkscape:pageshadow="2"
     inkscape:zoom="1.4"
     inkscape:cx="57.946569"
     inkscape:cy="284.84777"
     inkscape:document-units="mm"
     inkscape:current-layer="layer1"
     showgrid="false"
     inkscape:showpageshadow="false"
     inkscape:pagecheckerboard="true"
     inkscape:window-width="1920"
     inkscape:window-height="1023"
     inkscape:window-x="0"
     inkscape:window-y="0"
     inkscape:window-maximized="1"
     showguides="true"
     inkscape:guide-bbox="true">
    <sodipodi:guide
       position="-5,85"
       orientation="0,1"
       id="guide44292"
       inkscape:locked="false"
       inkscape:label=""
       inkscape:color="rgb(0,0,255)" />
    <sodipodi:guide
       position="60,155"
       orientation="1,0"
       id="guide44294"
       inkscape:locked="false"
       inkscape:label=""
       inkscape:color="rgb(0,0,255)" />
  </sodipodi:namedview>
  <metadata
     id="metadata1596">
    <rdf:RDF>
      <cc:Work
         rdf:about="">
        <dc:format>image/svg+xml</dc:format>
        <dc:type
           rdf:resource="http://purl.org/dc/dcmitype/StillImage" />
        <dc:title />
        <cc:license
           rdf:resource="http://creativecommons.org/licenses/by/4.0/" />
        <dc:date>04.01.2019</dc:date>
        <dc:creator>
          <cc:Agent>
            <dc:title>Stefan Krüger</dc:title>
          </cc:Agent>
        </dc:creator>
        <dc:rights>
          <cc:Agent>
            <dc:title>Stefan Krüger</dc:title>
          </cc:Agent>
        </dc:rights>
        <dc:publisher>
          <cc:Agent>
            <dc:title>Stefan Krüger</dc:title>
          </cc:Agent>
        </dc:publisher>
        <dc:language>EN / DE</dc:language>
      </cc:Work>
      <cc:License
         rdf:about="http://creativecommons.org/licenses/by/4.0/">
        <cc:permits
           rdf:resource="http://creativecommons.org/ns#Reproduction" />
        <cc:permits
           rdf:resource="http://creativecommons.org/ns#Distribution" />
        <cc:requires
           rdf:resource="http://creativecommons.org/ns#Notice" />
        <cc:requires
           rdf:resource="http://creativecommons.org/ns#Attribution" />
        <cc:permits
           rdf:resource="http://creativecommons.org/ns#DerivativeWorks" />
      </cc:License>
    </rdf:RDF>
  </metadata>
  <g
     inkscape:label="Layer 1"
     inkscape:groupmode="layer"
     id="layer1"
     transform="translate(0,-147)">
    <g
       id="g3519"
       transform="matrix(0.26458333,0,0,0.26458333,-88.499998,30.000005)">
      <g
         id="g3448"
         inkscape:label="0" />
      <g
         id="g3484"
         inkscape:label="View014">
        <path
           id="path3450"
           style="fill:none;stroke:#000000"
           d="m 671.17257,515.90381 a 204.09449,204.09449 0 0 0 -219.82486,-3.9e-4"
           inkscape:connector-curvature="0" />
        <path
           id="path3452"
           style="fill:none;stroke:#000000"
           d="m 671.17121,515.90484 a 30.23622,30.23622 0 0 0 19.77998,4.55623"
           inkscape:connector-curvature="0" />
        <path
           id="path3454"
           style="fill:none;stroke:#000000"
           d="m 431.56849,520.46107 a 30.23622,30.23622 0 0 0 19.78007,-4.55629"
           inkscape:connector-curvature="0" />
        <path
           id="path3456"
           style="fill:none;stroke:#000000"
           d="M 728.87072,552.81887 A 34.015748,34.015748 0 0 0 690.95125,520.4613"
           inkscape:connector-curvature="0" />
        <path
           id="path3458"
           style="fill:none;stroke:#000000"
           d="m 431.56844,520.4613 a 34.015748,34.015748 0 0 0 -37.91948,32.35775"
           inkscape:connector-curvature="0" />
        <path
           id="path3460"
           style="fill:none;stroke:#000000"
           d="m 728.8731,552.81884 a 75.590551,75.590551 0 0 0 9.81119,34.18301"
           inkscape:connector-curvature="0" />
        <path
           id="path3462"
           style="fill:none;stroke:#000000"
           d="m 383.8364,587.00208 a 75.590551,75.590551 0 0 0 9.8113,-34.18284"
           inkscape:connector-curvature="0" />
        <path
           id="path3464"
           style="fill:none;stroke:#000000"
           d="M 668.77319,861.35439 A 204.09449,204.09449 0 0 0 738.68341,587.00064"
           inkscape:connector-curvature="0" />
        <path
           id="path3466"
           style="fill:none;stroke:#000000"
           d="M 383.83592,587.00126 A 204.09449,204.09449 0 0 0 453.7474,861.35495"
           inkscape:connector-curvature="0" />
        <path
           id="path3468"
           style="fill:none;stroke:#000000"
           d="m 668.77312,861.35422 a 37.795276,37.795276 0 0 0 -17.5677,27.23468"
           inkscape:connector-curvature="0" />
        <path
           id="path3470"
           style="fill:none;stroke:#000000"
           d="M 471.3143,888.58916 A 37.795276,37.795276 0 0 0 453.74673,861.35432"
           inkscape:connector-curvature="0" />
        <path
           id="path3472"
           style="fill:none;stroke:#000000"
           d="m 471.31404,888.58979 a 90.708661,90.708661 0 0 0 179.89169,-6.3e-4"
           inkscape:connector-curvature="0" />
        <path
           id="path3474"
           style="fill:none;stroke:#000000"
           d="m 704.88189,687.87402 a 143.62205,143.62205 0 1 0 -287.2441,0 143.62205,143.62205 0 1 0 287.2441,0 z"
           inkscape:connector-curvature="0"
           inkscape:transform-center-x="5.6829728"
           inkscape:transform-center-y="0.01030983" />
        <path
           id="path3476"
           style="fill:none;stroke:#000000"
           d="m 555.59055,891.9685 v -7.55905"
           inkscape:connector-curvature="0" />
        <path
           id="path3478"
           style="fill:none;stroke:#000000"
           d="m 555.59055,891.9685 a 5.6692915,5.6692915 0 0 0 11.33858,0"
           inkscape:connector-curvature="0" />
        <path
           id="path3480"
           style="fill:none;stroke:#000000"
           d="m 566.92913,891.9685 v -7.55905"
           inkscape:connector-curvature="0" />
        <path
           id="path3482"
           style="fill:none;stroke:#000000"
           d="m 566.92913,884.40945 a 5.6692915,5.6692915 0 0 0 -11.33858,0"
           inkscape:connector-curvature="0" />
      </g>
    </g>
    <path
       transform="translate(9.9022138,-34.775712)"
       style="opacity:0.98000004;vector-effect:none;fill:none;fill-opacity:0.97727272;stroke:#de0000;stroke-width:0.2;stroke-linecap:round;stroke-linejoin:round;stroke-miterlimit:4;stroke-dasharray:none;stroke-dashoffset:0;stroke-opacity:0.97272728;paint-order:fill markers stroke"
       id="path1691"
       inkscape:path-effect="#path-effect1725-6"
       sodipodi:type="arc"
       sodipodi:cx="50"
       sodipodi:cy="247"
       sodipodi:rx="45"
       sodipodi:ry="45"
       d="m 96.999999,247 c -0.0037,0.76475 -0.134237,1.44553 -0.350423,2.04752 m -2.293846,3.03175 c -1.793487,1.4668 -3.75121,2.28937 -4.525692,4.18368 -0.736149,1.80054 -0.622358,3.76252 -0.580379,5.88533 m -0.122616,3.40147 c -0.03795,0.29108 -0.08575,0.57991 -0.145497,0.86521 -0.361683,1.72717 -0.264011,2.99652 -0.515738,4.51959 -0.240486,1.45504 -0.874994,3.37739 -2.958321,5.82085 M 91,247 c 0.03238,2.84684 0.434617,4.3271 0.957775,6.15295 m 0.681557,3.04768 c 0.029,0.26377 0.04875,0.53572 0.05661,0.81711 0.09583,3.43216 1.096984,7.62614 -1.090538,10.79886 -0.16172,0.23455 -0.339274,0.44474 -0.529762,0.63343 m -3.043574,1.51747 c -2.512442,0.62066 -5.090457,0.58946 -7.072308,2.90684 M 94,247 c 0.0068,2.58309 0.63489,4.20429 1.219851,5.88486 0.556772,1.59958 1.023657,3.13738 0.341989,4.88767 -0.105856,0.2718 -0.233082,0.52873 -0.37832,0.77174 m -2.759906,2.55488 c -2.219538,1.33588 -4.742599,2.07226 -6.065924,3.91418 -1.098125,1.52846 -0.910461,3.03578 -1.120157,4.96795 m -0.930312,3.25404 c -0.27147,0.51954 -0.621666,1.05025 -1.073598,1.57955 M 98,247 c -0.01146,1.61303 -0.420085,2.84125 -0.987946,3.76766 m -2.316275,2.2899 c -1.633672,1.10111 -3.205968,1.71839 -3.910439,3.45698 -0.65209,1.60932 -0.660807,3.32649 -0.636137,5.17844 m -0.0226,3.06988 c -0.04111,0.71516 -0.121636,1.42666 -0.27044,2.11931 -0.378128,1.76011 -0.291282,3.04827 -0.558085,4.59576 -0.254693,1.47725 -0.910329,3.43403 -3.032637,5.92432 M 92.000001,247 c 0.02077,2.50535 0.31028,3.98811 0.73869,5.60023 m 0.718934,2.85881 c 0.105447,0.56673 0.179749,1.165 0.193615,1.81029 0.07541,3.50926 1.049687,7.77408 -1.171219,11.01448 -0.423106,0.61733 -0.949802,1.07047 -1.535033,1.41296 m -3.002522,1.0184 c -2.251425,0.47513 -4.453509,0.73374 -6.224752,2.80601 M 95,247 c 0,2.6529 0.620923,4.3104 1.199346,6.02969 0.550029,1.63489 1.010094,3.20433 0.317796,4.99444 -0.284276,0.73506 -0.717044,1.36335 -1.238993,1.90793 m -2.822217,2.0243 c -1.995377,1.08926 -4.051814,1.88075 -5.223623,3.52418 -0.966246,1.35514 -0.969042,2.6896 -1.101562,4.31764 m -0.518609,2.83149 c -0.304249,0.90609 -0.799047,1.86942 -1.62056,2.83205 M 99,247 c -0.02285,2.47014 -0.741549,4.0715 -1.587999,5.0971 m -2.419708,1.85592 c -1.400066,0.75728 -2.628804,1.2627 -3.251654,2.81312 -0.564942,1.40628 -0.663517,2.88134 -0.674437,4.45941 m -0.0038,2.96287 c -0.02476,1.06279 -0.104876,2.1306 -0.331617,3.16097 -0.394574,1.79304 -0.318555,3.1 -0.600433,4.67192 -0.26888,1.49944 -0.945685,3.49071 -3.106953,6.02778 M 92.999999,247 c 0.01166,2.16764 0.211281,3.59043 0.540056,5.01803 m 0.740937,2.94697 c 0.175743,0.78927 0.311298,1.62619 0.32555,2.55593 0.05497,3.58635 1.002399,7.92201 -1.251902,11.23009 -0.646643,0.94892 -1.523888,1.51997 -2.488675,1.90528 m -3.066842,0.81367 c -1.941187,0.41748 -3.777041,0.88784 -5.323456,2.69806 m 2.273867,1.94053 c 1.120037,-1.31305 1.649363,-2.61987 1.921659,-3.80282 m 0.349521,-2.68306 c 0.113723,-1.34439 0.253622,-2.49872 1.086212,-3.67493 1.011805,-1.42938 2.643593,-2.23325 4.347408,-3.13479 m 2.894563,-1.78761 c 0.91278,-0.72686 1.686714,-1.61244 2.123545,-2.74963 0.702929,-1.8299 0.249686,-3.43102 -0.293601,-5.1012 -0.571876,-1.75808 -1.18561,-3.45175 -1.17884,-6.17452 m -10.492514,29.7554 c -0.489323,0.57392 -1.019533,1.00667 -1.567217,1.32826 m -3.701303,0.88414 c -2.325669,0.0139 -4.419992,-0.54656 -6.225918,0.50137 -1.718744,0.99735 -2.835587,2.65868 -4.085652,4.3887 m -2.147541,2.65387 c -0.205102,0.20993 -0.4166,0.41193 -0.635446,0.60378 -1.324813,1.16138 -2.007932,2.22806 -3.126885,3.28119 -1.06067,0.99829 -2.74535,2.15045 -5.884586,2.77548 m 22.826819,-20.29785 c -1.866472,2.18246 -2.552582,3.69186 -3.287641,5.42897 m -1.380354,2.85029 c -0.141289,0.22834 -0.294581,0.45754 -0.462787,0.68706 -2.059988,2.81082 -3.768381,6.75714 -7.434525,7.96935 -0.270388,0.0894 -0.538696,0.14984 -0.804273,0.18536 m -3.333344,-0.62528 c -2.380863,-1.02772 -4.347707,-2.58977 -7.276316,-2.01699 m 26.253105,-12.53823 c -1.676835,1.9639 -2.233926,3.65838 -2.826113,5.3297 -0.569326,1.60679 -1.146253,3.10208 -2.762608,4.06757 -0.250941,0.1499 -0.509634,0.27513 -0.774117,0.37856 m -3.764526,0.3477 c -2.595982,-0.28181 -5.051515,-1.20127 -7.211892,-0.51737 -1.78553,0.56524 -2.529154,1.8774 -3.851404,3.27626 m -2.688268,1.99169 c -0.526853,0.24053 -1.123268,0.44043 -1.797966,0.57367 m 28.708714,-12.8604 c -1.027444,1.20559 -2.106055,1.88116 -3.13023,2.23401 m -3.247622,0.31329 c -1.970448,-0.16436 -3.622266,-0.65073 -5.269232,0.31012 -1.526711,0.89069 -2.591071,2.27385 -3.69442,3.77546 m -1.872593,2.44819 c -0.463434,0.54758 -0.955277,1.06738 -1.490256,1.53036 -1.359248,1.17633 -2.063989,2.25102 -3.21241,3.31419 -1.087961,1.0072 -2.814378,2.1736 -6.02367,2.81417 m 23.392704,-20.62086 c -1.63735,1.91563 -2.397891,3.31771 -3.078122,4.8355 m -1.235193,2.71458 c -0.270165,0.51581 -0.582481,1.0374 -0.970114,1.55989 -2.116165,2.85238 -3.886577,6.83396 -7.623152,8.07702 -0.710185,0.23626 -1.404039,0.27941 -2.076853,0.19931 m -2.99872,-0.99954 c -2.078398,-0.98544 -3.937493,-2.10022 -6.562972,-1.58499 m 26.81899,-12.86123 c -1.711954,2.00602 -2.291178,3.72053 -2.906853,5.41429 -0.591304,1.62671 -1.189235,3.13977 -2.834513,4.12663 -0.675424,0.40512 -1.403139,0.63653 -2.151476,0.74908 m -3.487412,-0.10766 c -2.262037,-0.34047 -4.380332,-0.93766 -6.300275,-0.32487 -1.57909,0.50401 -2.374775,1.56477 -3.45521,2.77208 m -2.113094,1.91716 c -0.786685,0.52623 -1.7627,0.98023 -2.993946,1.22407 m 29.274599,-13.18341 c -1.566939,1.83941 -3.102938,2.61022 -4.408793,2.86904 m -3.055635,-0.0783 c -1.573123,-0.28257 -2.87454,-0.64626 -4.335303,0.21034 -1.326159,0.77767 -2.313092,1.90589 -3.28117,3.16497 m -1.796662,2.37228 c -0.66099,0.8357 -1.366937,1.63966 -2.168064,2.32444 -1.393685,1.19127 -2.120048,2.27396 -3.297936,3.34717 -1.115225,1.01612 -2.883435,2.19677 -6.162755,2.85287 m 23.958587,-20.94386 c -1.410621,1.65125 -2.191466,2.92244 -2.836213,4.23591 m -1.274395,2.78892 c -0.353639,0.73433 -0.764338,1.48127 -1.325465,2.22879 -2.172343,2.89392 -4.004775,6.91078 -7.811781,8.18468 -1.0895,0.36457 -2.135475,0.28986 -3.136195,0.0148 m -2.925025,-1.20311 c -1.792812,-0.84418 -3.501226,-1.57818 -5.801935,-1.12523 m 0.576211,2.90955 c 1.685047,-0.33463 2.901213,-1.0417 3.830353,-1.80678 m 1.892525,-1.90724 c 0.896624,-0.99592 1.69657,-1.83112 3.063981,-2.27097 1.664376,-0.53538 3.451475,-0.20084 5.363224,0.11096 m 3.399309,0.33624 c 1.170696,-0.0196 2.325184,-0.24508 3.36526,-0.87143 1.674195,-1.00822 2.293145,-2.53906 2.906419,-4.18568 0.63921,-1.71627 1.240476,-3.45069 2.987594,-5.49889 m -26.616595,17.06363 c -0.739341,0.14721 -1.424241,0.15651 -2.05253,0.0662 m -3.419349,-1.64256 c -0.970094,-0.7961 -1.793687,-1.71536 -2.66106,-2.44393 -0.711755,-0.5867 -1.444422,-1.03404 -2.34321,-1.20795 -1.900319,-0.3677 -3.802885,0.11947 -5.870662,0.54502 m -3.353058,0.48287 c -0.291817,0.0133 -0.583129,0.0163 -0.873034,0.007 -1.754998,-0.0579 -2.984085,0.25002 -4.522353,0.25413 -1.468049,0.004 -3.467149,-0.3057 -6.207346,-1.96576 m 30.150181,0.0861 c -2.775246,0.54279 -4.166101,1.22665 -5.850671,2.08472 m -2.876278,1.26842 c -0.254835,0.0801 -0.519465,0.15234 -0.795599,0.21432 -3.371848,0.75683 -7.311256,2.49054 -10.824557,0.87353 -0.258636,-0.11904 -0.495903,-0.25788 -0.714072,-0.41312 m -2.003904,-2.73421 c -1.027457,-2.36544 -1.408172,-4.89477 -3.992139,-6.47276 m 27.633431,8.08865 c -3.61003,0.71288 -5.320685,2.54879 -7.556729,3.3801 -0.831554,0.30247 -1.725192,0.44264 -2.74085,0.2544 -0.289786,-0.0537 -0.568681,-0.13149 -0.836902,-0.22972 M 43.38617,291.4175 c -1.723489,-1.94452 -2.87653,-4.27832 -4.89951,-5.25443 -1.678611,-0.80995 -3.113957,-0.37013 -5.044096,-0.25679 m -3.342254,-0.38336 c -0.553755,-0.18309 -1.131268,-0.44232 -1.723493,-0.80245 m 29.948193,9.42157 c -1.558373,0.31105 -2.830984,0.1658 -3.851502,-0.20252 m -2.708846,-1.81524 C 51.130795,291.49783 50.582215,290.84154 50,290.28399 c -0.692176,-0.65652 -1.416955,-1.15731 -2.409484,-1.34783 -1.70243,-0.32678 -3.389141,-0.008 -5.198507,0.35334 m -3.014479,0.52608 c -0.708809,0.085 -1.420952,0.12899 -2.126368,0.10151 -1.792434,-0.0698 -3.043023,0.22994 -4.609319,0.22257 -1.493707,-0.007 -3.532039,-0.3326 -6.327001,-2.02388 m 30.857746,0.20717 c -2.438884,0.47862 -3.849666,1.05222 -5.344227,1.78104 m -2.683612,1.26718 c -0.54041,0.21543 -1.117902,0.40467 -1.753052,0.54159 -3.457761,0.74535 -7.477031,2.46096 -11.067159,0.81983 -0.68115,-0.31136 -1.217585,-0.75301 -1.653876,-1.2706 m -1.504182,-2.77938 c -0.839473,-2.13316 -1.445596,-4.24931 -3.758676,-5.65979 m 28.340995,8.20968 c -3.698372,0.73243 -5.457526,2.57347 -7.748799,3.41025 -0.852062,0.30042 -1.767093,0.43818 -2.807123,0.2466 -0.784442,-0.14449 -1.489725,-0.45672 -2.12642,-0.87201 m -2.518042,-2.41235 c -1.435178,-1.76834 -2.564907,-3.63969 -4.37063,-4.50341 -1.489,-0.71223 -2.79085,-0.48888 -4.40994,-0.34904 m -2.86259,-0.0453 c -0.939034,-0.15192 -1.965956,-0.4833 -3.043931,-1.13796 m 30.655756,9.54259 c -2.385927,0.47736 -4.087355,0.11447 -5.268306,-0.50873 M 50.938363,292.5951 C 50.613388,292.20441 50.312797,291.81776 50,291.46423 c 0,0 0,0 0,0 -0.664568,-0.74928 -1.363723,-1.32404 -2.475757,-1.53587 -1.490592,-0.28394 -2.958456,-0.10091 -4.508877,0.17696 m -2.910113,0.52822 c -1.048305,0.16305 -2.111263,0.26905 -3.162966,0.22205 -1.829868,-0.0818 -3.101958,0.20987 -4.696284,0.19102 -1.519336,-0.018 -3.596957,-0.35952 -6.446654,-2.08201 m 31.565309,0.3282 c -2.106663,0.41474 -3.471692,0.88937 -4.804852,1.48834 m -2.764772,1.30938 c -0.74852,0.32893 -1.551825,0.62437 -2.469611,0.81444 -3.543667,0.73386 -7.642811,2.43139 -11.30976,0.76614 -1.047666,-0.47577 -1.760574,-1.24331 -2.302611,-2.12702 m -1.31165,-2.87796 c -0.730195,-1.83827 -1.48633,-3.56277 -3.509091,-4.79447 m -1.546482,2.54648 c 1.471611,0.89259 2.843373,1.20212 4.049618,1.27685 m 2.690855,-0.0982 c 1.338019,-0.11197 2.489339,-0.17017 3.782609,0.44329 1.571612,0.74549 2.641837,2.20182 3.836253,3.71728 m 2.292973,2.52891 c 0.888273,0.76838 1.913794,1.37285 3.128466,1.59528 1.064402,0.19491 2.000828,0.0596 2.873397,-0.2388 2.346501,-0.84225 4.154154,-2.68842 7.940869,-3.4404 m -31.110532,-4.9354 c -0.643777,-0.39001 -1.154901,-0.84326 -1.558956,-1.33159 m -1.456584,-3.50783 c -0.379068,-2.29011 -0.152776,-4.45056 -1.471288,-6.07399 -1.256695,-1.54732 -3.078064,-2.39485 -4.99615,-3.35879 m -2.981961,-1.70086 c -0.241949,-0.16899 -0.477183,-0.34549 -0.703657,-0.53081 -1.370994,-1.12184 -2.542906,-1.61878 -3.7748869,-2.54434 -1.1725099,-0.88089 -2.588042,-2.33715 -3.7617327,-5.30963 M 29.923298,282.174 c -2.44042,-1.49034 -4.021801,-1.92882 -5.855619,-2.38402 m -3.03058,-0.91728 c -0.247879,-0.10384 -0.498563,-0.2194 -0.751982,-0.34966 -3.103854,-1.59536 -7.285365,-2.65728 -9.085731,-6.07538 -0.133011,-0.25253 -0.237112,-0.50776 -0.31621,-0.76445 m 0.06004,-3.40306 c 0.610548,-2.52557 1.811217,-4.75835 0.698648,-7.55444 m 16.734949,23.99476 c -2.200073,-1.33785 -3.95053,-1.61976 -5.696349,-1.94157 -1.674912,-0.30874 -3.244092,-0.64277 -4.453742,-2.08636 -0.187864,-0.2242 -0.35261,-0.45997 -0.496741,-0.70496 m -0.94184,-3.66866 c -0.135451,-2.61296 0.377169,-5.20399 -0.664048,-7.24041 -0.859872,-1.68175 -2.29441,-2.2076 -3.907254,-3.27693 m -2.4436921,-2.31326 c -0.331593,-0.47776 -0.6357611,-1.0302 -0.8896571,-1.67091 m 17.4313482,26.29837 c -1.353392,-0.81896 -2.191712,-1.77462 -2.702063,-2.72788 m -0.821687,-3.15261 c -0.147632,-1.96918 0.07445,-3.67958 -1.133714,-5.15858 -1.121062,-1.37238 -2.658526,-2.21032 -4.324604,-3.0648 m -2.730103,-1.4618 c -0.618473,-0.37015 -1.214481,-0.7722 -1.761715,-1.2255 -1.390438,-1.15178 -2.573058,-1.66765 -3.8186749,-2.61908 -1.1846611,-0.90487 -2.6196612,-2.39778 -3.8166186,-5.43252 m 24.2021415,19.74981 c -2.14297,-1.30675 -3.634363,-1.83501 -5.241336,-2.2693 m -2.873082,-0.7939 c -0.552012,-0.18592 -1.11666,-0.41255 -1.694399,-0.71341 -3.154263,-1.64262 -7.379994,-2.75774 -9.220387,-6.23703 -0.350365,-0.66237 -0.5075964,-1.34044 -0.5402213,-2.01878 m 0.4838373,-3.13413 c 0.618925,-2.22118 1.39466,-4.2638 0.400193,-6.76666 m 17.138915,24.47969 c -2.249145,-1.36591 -4.023642,-1.66616 -5.796004,-2.00725 -1.698666,-0.32691 -3.289111,-0.6784 -4.524725,-2.14634 -0.507424,-0.60284 -0.851493,-1.2849 -1.081528,-2.00668 m -0.448881,-3.46725 c -0.02524,-2.29307 0.222167,-4.49473 -0.706875,-6.30175 -0.763701,-1.48542 -1.954381,-2.10152 -3.334921,-2.96527 m -2.2642255,-1.75929 c -0.6584012,-0.6853 -1.2779963,-1.5665 -1.7401282,-2.73416 M 25.799349,288.9646 c -2.066372,-1.24901 -3.071792,-2.64157 -3.533839,-3.88746 M 21.860684,282.051 c 0.03145,-1.59655 0.18692,-2.94073 -0.889435,-4.25113 -0.977842,-1.19046 -2.25048,-1.99064 -3.653067,-2.74932 m -2.64017,-1.39873 c -0.935377,-0.51919 -1.847479,-1.08647 -2.657842,-1.76569 -1.409881,-1.18171 -2.6032073,-1.7165 -3.8624606,-2.69381 -1.1968026,-0.92883 -2.6512905,-2.45844 -3.8715049,-5.55541 m 24.6061065,20.23474 c -1.848231,-1.12543 -3.217047,-1.69373 -4.615699,-2.12412 m -2.952311,-0.81976 c -0.780895,-0.2338 -1.583735,-0.52193 -2.411446,-0.9584 -3.204657,-1.68987 -7.474629,-2.85818 -9.3550406,-6.39866 -0.5389669,-1.01478 -0.6376355,-2.0593 -0.5325917,-3.09418 m 0.6951908,-3.09509 c 0.5267025,-1.91556 0.9513015,-3.73845 0.082539,-5.92793 m -2.7583752,1.0917 c 0.6308786,1.59593 1.5388458,2.6684 2.457113,3.45376 m 2.2128945,1.54395 c 1.138841,0.71838 2.104073,1.37418 2.767942,2.65864 0.808325,1.56395 0.767965,3.39257 0.766459,5.33497 m 0.210077,3.41681 c 0.205472,1.15414 0.611384,2.25813 1.395401,3.18553 1.261571,1.49229 2.873297,1.86125 4.595709,2.20632 1.798966,0.36041 3.597377,0.67893 5.895656,2.07294 M 6.1251214,262.90911 c -0.2759566,-0.69888 -0.4076459,-1.36816 -0.4326053,-1.99978 m 0.975349,-3.64822 c 1.0993402,-2.03185 2.5963979,-3.54771 2.60576,-5.58917 C 9.2810232,250.05885 8.715186,248.58775 8.0554867,247 7.9128815,246.67021 7.7694073,246.34174 7.6261041,246.00542 M 6.4980586,242.7949 c -0.06835,-0.28473 -0.1260779,-0.57084 -0.1708632,-0.85784 -0.2711113,-1.73739 -0.7952699,-2.88983 -1.0708148,-4.40239 -0.2625838,-1.44142 -0.3057568,-3.46928 0.8687867,-6.4439 m 5.5167007,29.63494 C 10.594109,258.0925 9.6309784,256.82654 8.4754401,255.35807 M 6.6898052,252.79812 C 6.5628037,252.56498 6.4412296,252.3206 6.3271801,252.06282 5.609709,250.44118 4.6311048,248.79303 3.9445614,247 c -0.6642843,-1.75897 -1.0251543,-3.6267 -0.5638079,-5.45383 0.070152,-0.27784 0.1638831,-0.53804 0.2772853,-0.78216 m 2.33006,-2.47064 c 2.148157,-1.43637 4.5448662,-2.23222 5.6538092,-5.01918 m -2.7584142,28.54322 c -0.942657,-2.37881 -2.1464428,-3.65161 -3.3182593,-4.97196 -1.1202891,-1.26229 -2.1457684,-2.50579 -2.1844978,-4.39174 -0.00602,-0.29308 0.013611,-0.58072 0.055509,-0.86243 m 1.6041608,-3.43095 C 5.3431043,247.76081 5.6679774,247.37597 5.9999485,247 c 1.3855817,-1.57856 2.810641,-2.92396 3.2736903,-4.67205 0.474336,-1.79069 -0.2235438,-3.10937 -0.6787889,-4.98152 M 8.3882697,234.0069 c 0.084934,-0.57378 0.2413613,-1.18369 0.4952673,-1.82442 m -3.6778745,31.09053 c -0.5801237,-1.47083 -0.6656678,-2.74013 -0.4912495,-3.8044 m 1.2688615,-2.98136 c 1.0899799,-1.63705 2.308472,-2.81029 2.3082013,-4.68502 C 8.2912371,250.1459 7.7195597,248.63207 7.0554859,247 c -0.00867,-0.0207 -0.092297,-0.2204 -0.1009701,-0.24115 m -1.10922,-2.87474 C 5.6260514,243.20092 5.4488274,242.50712 5.3450481,241.80676 5.081386,240.02744 4.5626566,238.8508 4.2949905,237.30661 4.0400876,235.83605 4.0077064,233.76423 5.2057094,230.72687 m 5.5166996,30.36274 C 9.8030065,258.77567 8.9563868,257.48023 7.9630993,256.16653 M 6.2137531,253.79644 C 5.9005357,253.31239 5.6035235,252.7864 5.3450323,252.19312 4.6200431,250.52916 3.6355562,248.83797 2.9445606,247 c -0.6599207,-1.80307 -1.0149283,-3.71397 -0.5459558,-5.58413 0.1836449,-0.73234 0.5229263,-1.34449 0.9545894,-1.86979 m 2.4666022,-1.98249 c 1.9516005,-1.20598 3.910513,-2.15632 4.9026536,-4.6533 m -2.7584137,29.27102 c -0.9638119,-2.43524 -2.1758307,-3.74128 -3.3576788,-5.09787 -1.1288178,-1.29573 -2.1613588,-2.57082 -2.2077701,-4.49944 -0.019076,-0.79267 0.1414287,-1.5445 0.4191943,-2.25262 m 1.8715061,-2.96332 C 4.7918462,247.24433 4.8955515,247.12172 4.9999475,247 c 1.3900544,-1.62067 2.8196295,-3.0049 3.2915425,-4.80235 0.4174954,-1.59017 -0.042398,-2.82124 -0.4691446,-4.3846 m -0.4579197,-2.8147 c -0.012982,-0.94728 0.1374997,-2.01207 0.5996547,-3.17977 m -3.6778759,31.81833 c -0.8858673,-2.24837 -0.8359431,-3.97112 -0.4434932,-5.23729 m 1.526047,-2.6262 c 1.0049713,-1.23256 1.9483204,-2.16895 1.9405711,-3.84089 -0.00704,-1.5177 -0.4672073,-2.9178 -1.0427158,-4.39741 m -1.0901724,-2.77654 c -0.3624818,-1.00542 -0.6662332,-2.03499 -0.8135418,-3.08212 -0.2562107,-1.82125 -0.7695105,-3.02209 -1.0292977,-4.59791 -0.2472336,-1.49967 -0.2688001,-3.61551 0.9526507,-6.71559 m 5.5167003,31.09055 C 9.0102972,259.45584 8.2786105,258.19357 7.4434591,257.00885 M 5.6402455,254.56739 C 5.1770571,253.90492 4.7310913,253.1811 4.362883,252.32341 3.630378,250.61714 2.6400091,248.88291 1.9445612,247 1.2890048,245.15284 0.93985787,243.19876 1.416457,241.28557 1.6972859,240.15825 2.3281118,239.311 3.1019167,238.61574 m 2.5993334,-1.80715 c 1.6802327,-1.04327 3.2343387,-2.07616 4.1017448,-4.26221 m -2.7583724,-1.09171 c -0.6309309,1.59605 -0.7009112,2.99816 -0.5649946,4.19554 m 0.5706789,2.62417 c 0.3498282,1.2936 0.6190312,2.41012 0.2590374,3.79298 -0.4380438,1.68267 -1.6640019,3.00927 -2.9366807,4.49372 m -2.0380103,2.7716 c -0.5741933,1.02958 -0.9518689,2.15508 -0.9182141,3.38162 0.054088,1.97127 1.0937,3.27798 2.2310411,4.60712 1.1919068,1.39291 2.4121027,2.73206 3.3970973,5.22379 M 6.1251673,231.09077 c 0.2759586,-0.69888 0.636968,-1.27744 1.0502573,-1.75573 m 3.2087534,-2.00533 c 2.189444,-0.74211 4.349415,-0.8594 5.739982,-2.40831 1.326534,-1.47759 1.878946,-3.40126 2.532291,-5.44808 m 1.214484,-3.21592 c 0.129098,-0.26615 0.266646,-0.52693 0.414268,-0.78052 0.89366,-1.53516 1.198416,-2.77593 1.914979,-4.14585 0.683787,-1.30726 1.88982,-2.93785 4.630262,-4.59805 m -15.188536,26.54121 c 1.049885,-2.63853 1.221625,-4.23626 1.37524,-6.1185 m 0.419276,-3.12357 c 0.06297,-0.2603 0.137123,-0.52527 0.225384,-0.7953 1.079485,-3.30266 1.477719,-7.60871 4.565009,-9.92944 0.228465,-0.17174 0.464213,-0.31536 0.705425,-0.43451 m 3.378004,-0.48549 c 2.594069,0.19685 5.020679,1.02175 7.613147,-0.56143 M 8.883537,232.18248 c 0.9443935,-2.38318 0.9367708,-4.13772 0.9724017,-5.91109 0.034079,-1.69612 0.1134079,-3.29762 1.3435183,-4.71915 0.191101,-0.22084 0.397323,-0.4207 0.61594,-0.60167 m 3.469274,-1.50775 c 2.554764,-0.54374 5.20443,-0.44353 7.058919,-1.79644 1.533259,-1.11856 1.829964,-2.62653 2.630229,-4.39953 m 1.895265,-2.80475 c 0.418823,-0.40846 0.915591,-0.8025 1.507834,-1.16264 M 5.2057094,230.72687 c 0.580059,-1.47066 1.3832289,-2.45516 2.236719,-3.11369 m 2.9657156,-1.32059 c 1.912643,-0.46201 3.629283,-0.51302 4.895231,-1.93272 1.175238,-1.31796 1.761629,-2.96185 2.345214,-4.74148 m 1.01654,-2.92769 c 0.268652,-0.67002 0.572236,-1.32341 0.933945,-1.93699 0.919101,-1.5591 1.240081,-2.81328 1.978915,-4.20043 0.704507,-1.3227 1.942032,-2.97787 4.736963,-4.66912 M 10.72245,232.91029 c 0.921036,-2.31803 1.19519,-3.85066 1.363562,-5.50408 m 0.321124,-2.94995 c 0.09523,-0.57255 0.228871,-1.16436 0.433888,-1.78097 1.117823,-3.36197 1.560428,-7.72109 4.699664,-10.09108 0.598598,-0.45192 1.243529,-0.7155 1.909122,-0.85614 m 3.179896,-0.0244 c 2.296534,0.25324 4.45966,0.68722 6.778194,-0.72657 M 7.9640804,231.81858 c 0.9653851,-2.43919 0.9723285,-4.2218 1.023024,-6.02581 0.048439,-1.72372 0.1416798,-3.34995 1.3915676,-4.80206 0.513453,-0.59652 1.131121,-1.04426 1.806326,-1.38548 m 3.34967,-0.98972 c 2.258343,-0.38525 4.478735,-0.48625 6.122792,-1.6923 1.352443,-0.99212 1.775775,-2.27172 2.409687,-3.78013 m 1.375618,-2.5323 c 0.571032,-0.7658 1.340557,-1.52541 2.418662,-2.18014 M 4.2862524,230.36296 c 0.8854818,-2.24738 2.0944211,-3.46896 3.2435613,-4.12677 m 2.9103173,-0.88825 c 1.575529,-0.22524 2.921831,-0.28467 4.042462,-1.54959 1.018396,-1.14953 1.608195,-2.52773 2.137582,-4.03151 m 0.96728,-2.8279 c 0.365859,-1.0064 0.782664,-1.99862 1.32549,-2.9084 0.944543,-1.58304 1.281747,-2.85062 2.042853,-4.25501 0.7252,-1.33813 1.994269,-3.01791 4.843662,-4.7402 M 9.8029949,232.54638 c 0.7938351,-2.00062 1.1268431,-3.4259 1.3240391,-4.87264 m 0.332339,-3.03312 c 0.1056,-0.80554 0.26187,-1.64208 0.560866,-2.52686 1.156167,-3.42126 1.643136,-7.83349 4.83432,-10.25272 0.916109,-0.6945 1.931923,-0.95857 2.972256,-1.02027 m 3.175406,0.18976 c 1.980543,0.21051 3.864175,0.33144 5.890189,-0.90224 m -1.546476,-2.54648 c -1.471902,0.89277 -2.382309,1.96752 -3.010117,3.00656 m -1.170593,2.44409 c -0.528685,1.24457 -1.026018,2.3063 -2.193891,3.16759 -1.421366,1.04822 -3.238639,1.29582 -5.156259,1.59989 m -3.33851,0.74615 c -1.105676,0.38536 -2.129345,0.96134 -2.9186761,1.8831 -1.2696605,1.48267 -1.3768229,3.13366 -1.4396181,4.88496 -0.065786,1.83472 -0.087245,3.64525 -1.0736473,6.14052 M 26.830444,206.73298 c 0.643745,-0.38999 1.281998,-0.63305 1.90131,-0.76507 m 3.771501,0.33182 c 2.19784,0.72554 3.96727,1.92098 5.983509,1.53716 1.91661,-0.36485 3.488471,-1.52974 5.240486,-2.70717 m 2.921801,-1.71532 c 0.265951,-0.1224 0.535629,-0.23489 0.809036,-0.33497 1.013987,-0.37113 1.749196,-0.76087 2.541913,-1.17055 1.624869,-0.83899 3.782078,-1.94736 8.133062,-1.08105 m -28.209669,10.99812 c 2.435499,-1.48733 3.540175,-2.68521 4.779459,-4.08438 m 2.20169,-2.22781 c 0.205939,-0.1679 0.423637,-0.33255 0.655605,-0.49238 2.816857,-1.94082 5.803871,-5.08723 9.699129,-4.91854 0.287504,0.0125 0.562714,0.0518 0.826307,0.11399 m 2.907078,1.81465 c 1.850418,1.85883 3.058579,4.0425 5.987963,4.61544 m -28.603706,2.63254 c 2.19584,-1.33526 3.25133,-2.75625 4.341312,-4.14064 1.046568,-1.32925 2.077305,-2.55315 3.915302,-2.93295 0.285383,-0.059 0.570012,-0.092 0.852855,-0.10244 m 3.645666,0.92531 c 2.327995,1.13862 4.299048,2.86436 6.524845,3.02729 0.886536,0.0649 1.614172,-0.1124 2.343102,-0.41323 0.777607,-0.33687 1.542014,-0.80652 2.428653,-1.21799 m 3.245847,-0.8395 c 0.579635,-0.023 1.2075,0.0188 1.882343,0.15206 m -31.241891,2.14679 c 1.353267,-0.81888 2.588925,-1.11821 3.668494,-1.1286 m 3.161999,0.73198 c 1.805198,0.78314 3.186804,1.76779 5.032446,1.41085 1.708695,-0.33045 3.146964,-1.25952 4.683777,-2.28037 m 2.590767,-1.63135 c 0.625295,-0.34774 1.270932,-0.65868 1.939382,-0.89943 1.041061,-0.37496 1.79466,-0.76644 2.608183,-1.17836 1.664513,-0.83381 3.877303,-1.93869 8.325136,-1.0509 M 29.4079,210.97712 c 2.13941,-1.30457 3.286614,-2.3828 4.405018,-3.59448 m 2.023284,-2.15271 c 0.41925,-0.39639 0.881216,-0.78421 1.415074,-1.14705 2.891031,-1.96496 5.957396,-5.12816 9.94173,-4.97224 0.758045,0.0297 1.43115,0.23777 2.038226,0.55752 m 2.451562,2.05555 c 1.576616,1.70585 2.863955,3.43803 5.489903,3.95336 m -29.31127,2.75357 c 2.245128,-1.36347 3.330232,-2.79651 4.452169,-4.19513 1.076169,-1.34155 2.134992,-2.57612 4.011063,-2.96814 0.770326,-0.16097 1.532967,-0.14006 2.27445,0.001 m 3.235445,1.26786 c 1.998166,1.08606 3.764895,2.39282 5.756074,2.52732 0.911127,0.0616 1.659714,-0.11814 2.409372,-0.42103 0.598877,-0.25063 1.180485,-0.57044 1.821525,-0.88992 m 2.687833,-0.991 c 0.930943,-0.19048 2.00763,-0.23833 3.239558,0.006 m -31.949456,2.2678 c 2.066313,-1.24897 3.76803,-1.49247 5.083712,-1.32386 m 2.855665,1.04375 c 1.391644,0.76932 2.488131,1.52698 4.130183,1.20467 1.489438,-0.29236 2.777008,-1.01416 4.105217,-1.85979 m 2.491958,-1.59601 c 0.909617,-0.55028 1.85825,-1.05407 2.859351,-1.40905 1.068163,-0.37877 1.840098,-0.77199 2.674454,-1.18616 1.70407,-0.82865 3.972614,-1.93001 8.517209,-1.02075 M 28.89241,210.12829 c 1.845779,-1.12392 2.975542,-2.07563 3.99649,-3.1078 m 2.085247,-2.21437 c 0.568023,-0.57543 1.196467,-1.14403 1.968256,-1.66175 2.965202,-1.98905 6.110928,-5.16909 10.184333,-5.02593 1.118333,0.0393 2.05286,0.44953 2.873264,1.03337 0.03595,0.0261 0.07167,0.0525 0.107196,0.0792 m 2.300162,2.23097 c 1.357891,1.4666 2.656168,2.79221 4.957412,3.24527 m 0.57622,-2.90954 c -1.686628,-0.33495 -3.083969,-0.14584 -4.240568,0.21391 m -2.483027,1.06796 c -0.41392,0.20496 -0.812788,0.39955 -1.217395,0.56325 -0.770388,0.30495 -1.539921,0.48703 -2.475643,0.42883 -1.736405,-0.10799 -3.286536,-1.0529 -4.968304,-1.99779 m -3.076962,-1.45959 c -1.108349,-0.37019 -2.273724,-0.53661 -3.463304,-0.28539 -1.914137,0.40424 -3.001065,1.64949 -4.106825,3.00335 -1.153959,1.41287 -2.268544,2.8579 -4.563028,4.2496 m 30.787128,-6.75398 c 0.739215,0.14718 1.374312,0.40064 1.91859,0.7232 m 2.53038,2.8041 c 1.104174,2.02402 1.572101,4.11618 3.312435,5.22389 1.659226,1.05608 3.629053,1.28818 5.744468,1.60616 m 3.35576,0.6884 c 0.282526,0.0854 0.561175,0.18007 0.834375,0.28583 1.653886,0.64028 2.927136,0.74683 4.394081,1.23878 1.401549,0.47002 3.200855,1.40274 5.284418,3.8465 M 56.980624,206.64692 c 2.775246,0.54279 4.336785,0.43334 6.217608,0.26132 m 3.129276,-0.11367 c 0.265593,0.0187 0.537654,0.0477 0.817008,0.09 3.410569,0.5155 7.723829,0.22657 10.500486,2.9034 0.205586,0.1982 0.384561,0.40805 0.540246,0.6272 m 1.011325,3.25818 c 0.213204,2.58904 -0.221174,5.13203 1.763257,7.45244 M 57.556843,203.73737 c 2.511622,0.49599 4.221533,0.18544 5.973932,-0.0814 1.670823,-0.25441 3.262226,-0.44207 4.86379,0.53408 0.248819,0.15165 0.47941,0.32169 0.693332,0.50706 m 2.045426,3.16635 c 0.943434,2.42317 1.260457,5.0511 2.879814,6.66743 1.34152,1.33902 2.873561,1.39729 4.7531,1.91131 m 3.074868,1.43429 c 0.471104,0.35005 0.940656,0.77942 1.392595,1.30873 M 58.325136,199.85798 c 1.557232,0.31083 2.671635,0.93179 3.468887,1.65675 m 1.809987,2.68693 c 0.77955,1.80094 1.110923,3.47129 2.70714,4.47919 1.480929,0.93511 3.184291,1.24517 5.026089,1.53567 m 3.04095,0.53681 c 0.702245,0.15897 1.394147,0.35538 2.056192,0.61559 1.682326,0.66122 2.97168,0.7813 4.459457,1.29192 1.420349,0.48748 3.249215,1.44652 5.371688,3.93701 M 57.172697,205.67707 c 2.439671,0.47878 3.967728,0.47985 5.623706,0.3609 m 2.945192,-0.18315 c 0.577456,-0.002 1.180484,0.0314 1.819604,0.13155 3.478791,0.54489 7.853968,0.29155 10.689115,3.01107 0.540911,0.51885 0.903112,1.11331 1.147046,1.74787 m 0.525128,3.13603 c 0.111266,2.30618 0.02241,4.52334 1.7953,6.59756 M 57.748916,202.76753 c 2.574559,0.50987 4.3166,0.21017 6.103703,-0.0458 1.702273,-0.24386 3.321876,-0.42116 4.95863,0.57019 0.672414,0.40727 1.214877,0.94184 1.66095,1.55044 m 1.514861,3.13466 c 0.739694,2.15884 1.187434,4.33136 2.631389,5.76342 1.189345,1.17955 2.516715,1.39812 4.107702,1.78845 m 2.721387,0.96206 c 0.848373,0.44398 1.722555,1.08478 2.544118,2.04747 M 58.517209,198.88813 c 2.382049,0.47659 3.802119,1.46126 4.647863,2.47708 m 1.37194,2.70818 c 0.487974,1.51011 0.768052,2.81777 2.190821,3.7093 1.292455,0.80987 2.737895,1.16585 4.300287,1.44596 m 2.935466,0.50231 c 1.048844,0.20105 2.093028,0.45547 3.076106,0.84747 1.710765,0.68216 3.016223,0.81576 4.524833,1.34506 1.439129,0.50492 3.297594,1.49032 5.458958,4.02752 M 57.36477,204.70722 c 2.107664,0.41495 3.5498,0.49171 5.006758,0.43599 m 3.031337,-0.18789 c 0.808305,-0.0309 1.656254,-0.0159 2.575018,0.13289 3.547001,0.57429 7.984116,0.35654 10.877742,3.11874 0.831169,0.79342 1.25266,1.75343 1.477825,2.77042 m 0.313195,3.16599 c 0.104131,1.9888 0.281696,3.87732 1.829098,5.6887 m 2.273871,-1.94053 c -1.120153,-1.31319 -2.327869,-2.0427 -3.455131,-2.49942 m -2.600809,-0.77245 c -1.313141,-0.32722 -2.437805,-0.65241 -3.469916,-1.66975 -1.255131,-1.23718 -1.784364,-2.98913 -2.38933,-4.82708 m -1.271997,-3.16443 c -0.559186,-1.02522 -1.294987,-1.93886 -2.334499,-2.56468 -1.671933,-1.00655 -3.319756,-0.83963 -5.053469,-0.60631 -1.821877,0.24517 -3.595908,0.53406 -6.233473,0.0103 m 27.566579,15.44701 c 0.489309,0.5739 0.832724,1.16579 1.063625,1.75713 m 0.288001,3.78919 c -0.354275,2.2953 -1.237896,4.25851 -0.501453,6.19576 0.700041,1.84149 2.142587,3.20048 3.625695,4.71289 m 2.231656,2.55452 c 0.170073,0.23743 0.331163,0.47998 0.480877,0.7282 0.906317,1.50258 1.831389,2.36586 2.664763,3.66259 0.78607,1.22313 1.623555,3.11447 1.639266,6.35516 M 80.95983,221.12575 c 1.864966,2.18071 3.246122,3.09052 4.838555,4.08613 m 2.582697,1.80849 c 0.20168,0.17532 0.402203,0.36266 0.60052,0.56477 2.422449,2.46881 6.02511,4.81561 6.58027,8.64245 0.04092,0.28205 0.05355,0.55702 0.04196,0.8249 m -1.210222,3.16885 c -1.446156,2.15686 -3.359633,3.79185 -3.393613,6.77877 M 83.2337,219.18522 c 1.675532,1.96238 3.260379,2.77824 4.811121,3.62603 1.491548,0.81543 2.871789,1.62428 3.560639,3.37226 0.106929,0.27134 0.18827,0.54632 0.247127,0.82342 m -0.274695,3.75686 c -0.707311,2.50173 -2.029539,4.74913 -1.747826,6.97337 0.233749,1.84555 1.376409,2.79368 2.506547,4.35367 m 1.448717,3.02029 c 0.135308,0.56609 0.216489,1.1948 0.21467,1.889 m -7.734474,-30.40227 c 1.027381,1.20552 1.523361,2.37752 1.709513,3.44377 m -0.204602,3.25075 c -0.474528,1.91602 -1.215268,3.45778 -0.538075,5.22719 0.627136,1.63862 1.807523,2.90348 3.094044,4.23408 m 2.08193,2.24892 c 0.457331,0.5485 0.882117,1.12152 1.242935,1.72822 0.916765,1.54152 1.847148,2.42912 2.686961,3.75892 0.791801,1.25378 1.638207,3.19184 1.661769,6.51043 M 81.717788,220.4789 c 1.636278,1.91439 2.900391,2.88229 4.286533,3.79004 m 2.474464,1.64499 c 0.463924,0.34795 0.926581,0.7387 1.377436,1.204 2.455251,2.53394 6.084019,4.95151 6.660953,8.85807 0.109592,0.74207 0.03094,1.43428 -0.166607,2.08333 M 94.827838,240.833 C 93.476671,242.69938 92.022269,244.31553 92,247.00011 m -8.008344,-28.46173 c 1.710705,2.00456 3.311571,2.84633 4.880658,3.72183 1.50765,0.84122 2.902133,1.67461 3.607767,3.45609 0.289643,0.73125 0.399388,1.48584 0.388143,2.24074 m -0.679914,3.41014 c -0.711375,2.16409 -1.660755,4.1367 -1.402942,6.11838 0.21258,1.63401 1.103321,2.59496 2.091587,3.87951 m 1.491097,2.43701 c 0.369434,0.87514 0.631952,1.92922 0.631948,3.19804 m -7.976517,-31.04911 c 1.566841,1.83929 2.083863,3.4785 2.132374,4.80754 m -0.561174,2.99881 c -0.528478,1.50497 -1.093009,2.72353 -0.487702,4.29499 0.549166,1.42571 1.493779,2.57532 2.567203,3.73314 m 2.024221,2.16107 c 0.707319,0.79118 1.375196,1.62417 1.908168,2.53263 0.927213,1.58045 1.862904,2.49237 2.709157,3.85524 0.797525,1.28439 1.652866,3.26923 1.684271,6.6657 M 82.475743,219.83206 c 1.409893,1.65041 2.541891,2.61907 3.733273,3.46035 m 2.542935,1.69622 c 0.665837,0.46507 1.334718,0.98917 1.978891,1.66209 2.488032,2.59907 6.142942,5.08742 6.741634,9.07368 0.171269,1.14036 -0.08473,2.16039 -0.533106,3.0983 m -1.71352,2.66523 c -1.161841,1.61122 -2.213159,3.15353 -2.225851,5.51218 m 3.000002,1e-5 c -0.0043,-1.7391 -0.475753,-3.08089 -1.055551,-4.13989 m -1.527103,-2.21632 c -0.815581,-1.06376 -1.487674,-1.99286 -1.676679,-3.40994 -0.229678,-1.72204 0.405871,-3.41595 1.032387,-5.241 m 0.892804,-3.28603 c 0.172294,-1.1554 0.1376,-2.3304 -0.311158,-3.45785 -0.722413,-1.81497 -2.131148,-2.67293 -3.654894,-3.53992 -1.58748,-0.90327 -3.204269,-1.77082 -4.950193,-3.81764" />
    <path
       id="path31565-9-5-2-5-9-9-1"
       style="fill:none;stroke:#00ff00;stroke-width:0.2;stroke-linecap:round;stroke-linejoin:round;stroke-miterlimit:4;stroke-dasharray:none;stroke-opacity:1"
       inkscape:path-effect="#path-effect1835-7-6-7-5-8-6"
       inkscape:original-d="m -12.301793,196.58737 c 0,5 5.5173505,6.14278 5.9999985,10 0.432091,3.45317 -1.999999,6.66667 -3,10 -0.9999995,3.33333 -2.9999985,4 -2.9999985,10 m 5.9999985,-30 c 0,5 -1.999999,6.66667 -3,10 -0.9999995,3.33333 -3.4320895,6.54683 -2.9999985,10 0.482648,3.85722 5.9999985,5 5.9999985,10 m -3,-30 c 0,5 -3.4320895,6.54683 -2.9999985,10 0.482648,3.85722 5.5173505,6.14278 5.9999985,10 0.432091,3.45317 -3,5 -3,10 m -3.9999995,-30 c 0,6 5.5173505,6.14278 5.9999985,10 0.432091,3.45317 -1.999999,6.66667 -2.9999985,10 -1.000001,3.33333 -3,4 -3,10 m 5.9999985,-30 c 0,5 -1.999999,6.66667 -2.9999985,10 -1.000001,3.33333 -3.432091,6.54683 -3,10 0.482648,3.85722 5.9999985,5 5.9999985,10 m -2.9999985,-30 c 0,5 -3.432091,6.54683 -3,10 0.482648,3.85722 5.5173505,6.14278 5.9999985,10 0.432091,3.45317 -2.9999985,5 -2.9999985,10 m -4,-30 c 0,7 5.5173505,6.14278 6.0000005,10 0.432088,3.45317 -2.0000005,6.66667 -3.0000015,10 -0.999998,3.33333 -2.999999,4 -2.999999,10 m 6.0000005,-30 c 0,5 -2.0000005,6.66667 -3.0000015,10 -0.999998,3.33333 -3.43209,6.54683 -2.999999,10 0.482647,3.85722 6.0000005,5 6.0000005,10 m -3.0000015,0 c 0,-5 3.4320895,-6.54683 3.0000015,-10 -0.48265,-3.85722 -5.5173535,-6.14278 -6.0000005,-10 -0.432091,-3.45317 2.999999,-5 2.999999,-10"
       d="m -12.301793,196.58737 c 0,0.69487 0.10656,1.31524 0.291356,1.87875 m 2.0230693,3.04979 c 1.5730163,1.60751 3.4157944,2.91545 3.6855732,5.07146 0.2585948,2.06663 -0.5086737,4.04741 -1.3808787,6.01942 m -1.3444854,3.15698 c -0.099699,0.27385 -0.1920512,0.54832 -0.2746359,0.8236 -0.9999995,3.33333 -2.9999985,4 -2.9999985,10 m 5.9999985,-30 c 0,2.9191 -0.6816895,4.70204 -1.4480937,6.3438 m -1.2934531,2.8835 c -0.091555,0.24856 -0.1782226,0.50527 -0.2584532,0.7727 -0.9999995,3.33333 -3.4320895,6.54683 -2.9999985,10 0.03272,0.26151 0.08859,0.51054 0.164301,0.74914 m 1.854555,2.70041 c 1.7489541,1.75036 3.9811425,3.37013 3.9811425,6.55045 m -3,-30 c 0,5 -3.4320895,6.54683 -2.9999985,10 0.03349,0.26762 0.08888,0.52767 0.163156,0.7812 m 1.860004,3.10832 c 1.6290082,1.93208 3.6776305,3.71927 3.9768385,6.11048 0.2432631,1.9441 -0.7382581,3.28397 -1.6425842,4.97599 m -1.1848301,3.15954 c -0.1089112,0.56645 -0.1725857,1.18343 -0.1725857,1.86447 m -3.9999995,-30 c 0,1.43259 0.314537,2.53127 0.79998,3.42632 m 2.03527,2.39151 c 1.4346885,1.26109 2.924332,2.26081 3.1647485,4.18217 0.2246617,1.79544 -0.3249746,3.5261 -1.0450253,5.24249 m -1.2317027,2.80253 c -0.2746814,0.64885 -0.5266565,1.2996 -0.7232705,1.95498 -1.000001,3.33333 -3,4 -3,10 m 5.9999985,-30 c 0,2.52132 -0.5085639,4.19503 -1.141016,5.66227 m -1.2384021,2.66856 c -0.2276344,0.52177 -0.4403494,1.0684 -0.6205804,1.66917 -1.000001,3.33333 -3.432091,6.54683 -3,10 0.08425,0.67331 0.321911,1.26391 0.656857,1.80675 m 2.02959,2.29101 c 1.6005289,1.52776 3.3135515,3.11621 3.3135515,5.90224 m -2.9999985,-30 c 0,5 -3.432091,6.54683 -3,10 0.08849,0.70716 0.329974,1.3615 0.668363,1.98238 m 2.018911,2.66873 c 1.4767304,1.65435 3.053134,3.2743 3.3127245,5.34889 0.2112308,1.68811 -0.5010053,2.92063 -1.2843017,4.32372 m -1.2131584,2.56831 c -0.3002154,0.88356 -0.5025384,1.89398 -0.5025384,3.10797 m -4,-30 c 0,2.14738 0.51922,3.55534 1.253033,4.58681 m 2.139378,2.02974 c 1.2423041,0.92472 2.3982978,1.71084 2.6075895,3.38345 0.191067,1.52697 -0.177916,3.00708 -0.7354724,4.47141 m -1.1521711,2.68186 c -0.421012,0.94471 -0.825575,1.89079 -1.112358,2.84673 -0.999998,3.33333 -2.999999,4 -2.999999,10 m 6.0000005,-30 c 0,2.13622 -0.3650737,3.66398 -0.8612583,4.97322 m -1.2298502,2.72207 c -0.334783,0.71521 -0.654258,1.45593 -0.908893,2.30471 -0.999998,3.33333 -3.43209,6.54683 -2.999999,10 0.126705,1.0126 0.600386,1.83813 1.230135,2.59548 m 2.15545,2.1755 c 1.3629953,1.34138 2.6144155,2.84776 2.6144155,5.22902 m -3.0000015,0 c 0,-1.62346 0.361826,-2.88286 0.835723,-3.96168 m 1.2273809,-2.34137 c 0.6301193,-1.15936 1.1161963,-2.26403 0.9368976,-3.69695 -0.2197256,-1.75599 -1.382869,-3.18626 -2.6304515,-4.58737 m -2.113348,-2.50114 c -0.639139,-0.8944 -1.122452,-1.8426 -1.256201,-2.91149 -0.432091,-3.45317 2.999999,-5 2.999999,-10"
       inkscape:connector-curvature="0"
       sodipodi:nodetypes="caaccaaccaaccaaccaaccaaccaaccaaccaac" />
    <text
       xml:space="preserve"
       style="font-style:normal;font-variant:normal;font-weight:normal;font-stretch:normal;font-size:6px;line-height:100%;font-family:Overlock;-inkscape-font-specification:Overlock;letter-spacing:0px;word-spacing:0px;fill:#00ff00;fill-opacity:1;stroke:none;stroke-width:0.26458332"
       x="-75.784225"
       y="163.5744"
       id="text855"><tspan
         sodipodi:role="line"
         id="tspan853"
         x="-75.784225"
         y="163.5744"
         style="font-size:6px;fill:#00ff00;fill-opacity:1;stroke-width:0.26458332">material:</tspan><tspan
         sodipodi:role="line"
         x="-75.784225"
         y="169.5744"
         style="font-size:6px;fill:#00ff00;fill-opacity:1;stroke-width:0.26458332"
         id="tspan921">1mm Buchen Sperrholz</tspan><tspan
         sodipodi:role="line"
         x="-75.784225"
         y="175.5744"
         style="font-size:6px;fill:#00ff00;fill-opacity:1;stroke-width:0.26458332"
         id="tspan923">Vowinkel</tspan><tspan
         sodipodi:role="line"
         x="-75.784225"
         y="181.5744"
         style="font-size:6px;fill:#00ff00;fill-opacity:1;stroke-width:0.26458332"
         id="tspan925" /><tspan
         sodipodi:role="line"
         x="-75.784225"
         y="187.5744"
         style="font-size:6px;fill:#00ff00;fill-opacity:1;stroke-width:0.26458332"
         id="tspan919">Cut:</tspan><tspan
         sodipodi:role="line"
         x="-75.784225"
         y="193.5744"
         style="font-size:6px;fill:#00ff00;fill-opacity:1;stroke-width:0.26458332"
         id="tspan863">power 80</tspan><tspan
         sodipodi:role="line"
         x="-75.784225"
         y="199.5744"
         style="font-size:6px;fill:#00ff00;fill-opacity:1;stroke-width:0.26458332"
         id="tspan865">speed 30</tspan><tspan
         sodipodi:role="line"
         x="-75.784225"
         y="205.5744"
         style="font-size:6px;fill:#00ff00;fill-opacity:1;stroke-width:0.26458332"
         id="tspan867" /><tspan
         sodipodi:role="line"
         x="-75.784225"
         y="211.5744"
         style="font-size:6px;fill:#00ff00;fill-opacity:1;stroke-width:0.26458332"
         id="tspan869">mark:</tspan><tspan
         sodipodi:role="line"
         x="-75.784225"
         y="217.5744"
         style="font-size:6px;fill:#00ff00;fill-opacity:1;stroke-width:0.26458332"
         id="tspan871">power 12</tspan><tspan
         sodipodi:role="line"
         x="-75.784225"
         y="223.5744"
         style="font-size:6px;fill:#00ff00;fill-opacity:1;stroke-width:0.26458332"
         id="tspan873">speed 100</tspan><tspan
         sodipodi:role="line"
         x="-75.784225"
         y="229.5744"
         style="font-size:6px;fill:#00ff00;fill-opacity:1;stroke-width:0.26458332"
         id="tspan875" /><tspan
         sodipodi:role="line"
         x="-75.784225"
         y="235.5744"
         style="font-size:6px;fill:#00ff00;fill-opacity:1;stroke-width:0.26458332"
         id="tspan877">but speed 100 is</tspan><tspan
         sodipodi:role="line"
         x="-75.784225"
         y="241.5744"
         style="font-size:6px;fill:#00ff00;fill-opacity:1;stroke-width:0.26458332"
         id="tspan879">not smooth...</tspan></text>
  </g>
</svg>
