999
FreeCAD v0.18 15684 (Git)
  0
SECTION
  2
HEADER
  9
$ACADVER
  1
AC1014
  9
$ACADMAINTVER
 70
     9
  9
$DWGCODEPAGE
  3
ANSI_1252
  9
$TEXTSTYLE
  7
STANDARD
  9
$DIMSTYLE
  2
STANDARD
  9
$DIMTXSTY
  7
STANDARD
  9
$CMLSTYLE
  2
STANDARD
  9
$HANDSEED
  5
FFF
  0
ENDSEC
  0
SECTION
  2
CLASSES
  0
CLASS
  1
ACDBDICTIONARYWDFLT
  2
AcDbDictionaryWithDefault
  3
ObjectDBX Classes
 90
        0
280
     0
281
     0
  0
CLASS
  1
XRECORD
  2
AcDbXrecord
  3
ObjectDBX Classes
 90
        0
280
     0
281
     0
  0
CLASS
  1
LWPOLYLINE
  2
AcDbPolyline
  3
ObjectDBX Classes
 90
        0
280
     0
281
     1
  0
ENDSEC
  0
SECTION
  2
TABLES
  0
TABLE
  2
VPORT
  5
20
330
0
100
AcDbSymbolTable
 70
     1
  0
VPORT
  5
21
330
20
100
AcDbSymbolTableRecord
100
AcDbViewportTableRecord
  2
*ACTIVE
 70
     0
  0
ENDTAB
  0
TABLE
  2
LTYPE
  5
22
330
0
100
AcDbSymbolTable
 70
     1
  0
LTYPE
  5
23
330
21
100
AcDbSymbolTableRecord
100
AcDbLinetypeTableRecord
  2
BYBLOCK
 70
     0
  3

 72
    65
 73
     0
 40
0.0
  0
LTYPE
  5
24
330
21
100
AcDbSymbolTableRecord
100
AcDbLinetypeTableRecord
  2
BYLAYER
 70
     0
  3

 72
    65
 73
     0
 40
0.0
  0
LTYPE
  5
25
330
21
100
AcDbSymbolTableRecord
100
AcDbLinetypeTableRecord
  2
CONTINUOUS
 70
     0
  3
Solid line
 72
    65
 73
     0
 40
0.0
  0
ENDTAB
  0
TABLE
  2
LAYER
  5
31
330
0
100
AcDbSymbolTable
 70
2
  0
LAYER
  5
32
330
31
100
AcDbSymbolTableRecord
100
AcDbLayerTableRecord
  2
0
 70
   0
 62
   7
  6
CONTINUOUS
  0
LAYER
  5
33
330
31
100
AcDbSymbolTableRecord
100
AcDbLayerTableRecord
  2
View013
 70
    0
 62
    7
  6
CONTINUOUS
  0
ENDTAB
  0
TABLE
  2
STYLE
  5
60
330
0
100
AcDbSymbolTable
 70
     2
  0
STYLE
  5
61
330
60
100
AcDbSymbolTableRecord
100
AcDbTextStyleTableRecord
  2
STANDARD
 70
     0
 40
0.0
 41
1.0
 50
0.0
 71
     0
 42
2.5
  3
arial.ttf
  4

  0
STYLE
  5
62
330
60
100
AcDbSymbolTableRecord
100
AcDbTextStyleTableRecord
  2
ANNOTATIVE
 70
     0
 40
0.0
 41
1.0
 50
0.0
 71
     0
 42
2.5
  3
arial.ttf
  4

  0
ENDTAB
  0
TABLE
  2
VIEW
  5
63
330
0
100
AcDbSymbolTable
 70
     0
  0
ENDTAB
  0
TABLE
  2
UCS
  5
64
330
0
100
AcDbSymbolTable
 70
     0
  0
ENDTAB
  0
TABLE
  2
APPID
  5
65
330
0
100
AcDbSymbolTable
 70
     2
  0
APPID
  5
66
330
65
100
AcDbSymbolTableRecord
100
AcDbRegAppTableRecord
  2
ACAD
 70
     0
  0
APPID
  5
67
330
65
100
AcDbSymbolTableRecord
100
AcDbRegAppTableRecord
  2
ACADANNOTATIVE
 70
     0
  0
ENDTAB
  0
TABLE
  2
DIMSTYLE
  5
68
330
0
100
AcDbSymbolTable
 70
     2
  0
DIMSTYLE
105
69
330
68
100
AcDbSymbolTableRecord
100
AcDbDimStyleTableRecord
  2
STANDARD
 70
     0
  3

  4

  5

  6

  7

 40
0.0
 41
2.5
 42
0.625
 43
3.75
 44
1.25
 45
0.0
 46
0.0
 47
0.0
 48
0.0
140
2.5
141
2.5
142
0.0
143
0.03937007874016
144
1.0
145
0.0
146
1.0
147
0.625
 71
     0
 72
     0
 73
     0
 74
     0
 75
     0
 76
     0
 77
     1
 78
     8
170
     0
171
     3
172
     1
173
     0
174
     0
175
     0
176
     0
177
     0
178
     0
270
     2
271
     2
272
     2
273
     2
274
     3
340
61
275
     0
280
     0
281
     0
282
     0
283
     0
284
     8
285
     0
286
     0
287
     3
288
     0
  0
ENDTAB
  0
TABLE
  2
BLOCK_RECORD
  5
111
330
0
100
AcDbSymbolTable
  70
5
  0
BLOCK_RECORD
  5
112
330
111
100
AcDbSymbolTableRecord
100
AcDbBlockTableRecord
  2
*MODEL_SPACE
  0
BLOCK_RECORD
  5
113
330
111
100
AcDbSymbolTableRecord
100
AcDbBlockTableRecord
  2
*PAPER_SPACE
  0
ENDTAB
  0
ENDSEC
  0
SECTION
  2
BLOCKS
  0
BLOCK
  5
211
330
112
100
AcDbEntity
  8
0
100
AcDbBlockBegin
  2
*MODEL_SPACE
 70
   0
 10
0
 20
0
 30
0
  3
*MODEL_SPACE
  1
 
  0
ENDBLK
  5
212
330
112
100
AcDbEntity
  8
0
100
AcDbBlockEnd
  0
BLOCK
  5
213
330
113
100
AcDbEntity
 67
1
  8
0
100
AcDbBlockBegin
  2
*PAPER_SPACE
 70
   0
 10
0
 20
0
 30
0
  3
*PAPER_SPACE
  1
 
  0
ENDBLK
  5
214
330
113
100
AcDbEntity
 67
    1
  8
0
100
AcDbBlockEnd
  0
ENDSEC
  0
SECTION
  2
ENTITIES
  0
ARC
  5
301
330
112
100
AcDbEntity
  8
View013
100
AcDbCircle
 10
148.5
 20
115
 30
0
 40
54
100
AcDbArc
 50
57.4158
 51
122.584
  0
ARC
  5
302
330
112
100
AcDbEntity
  8
View013
100
AcDbCircle
 10
181.889
 20
167.241
 30
0
 40
8
100
AcDbArc
 50
-122.584
 51
-83.3591
  0
ARC
  5
303
330
112
100
AcDbEntity
  8
View013
100
AcDbCircle
 10
115.111
 20
167.241
 30
0
 40
8
100
AcDbArc
 50
-96.6409
 51
-57.4158
  0
ARC
  5
304
330
112
100
AcDbEntity
  8
View013
100
AcDbCircle
 10
183.855
 20
150.355
 30
0
 40
9
100
AcDbArc
 50
2.4093
 51
96.6409
  0
ARC
  5
305
330
112
100
AcDbEntity
  8
View013
100
AcDbCircle
 10
113.145
 20
150.355
 30
0
 40
9
100
AcDbArc
 50
83.3591
 51
177.591
  0
ARC
  5
306
330
112
100
AcDbEntity
  8
View013
100
AcDbCircle
 10
212.83
 20
151.574
 30
0
 40
20
100
AcDbArc
 50
-177.591
 51
-150.38
  0
ARC
  5
307
330
112
100
AcDbEntity
  8
View013
100
AcDbCircle
 10
84.1703
 20
151.574
 30
0
 40
20
100
AcDbArc
 50
-29.6202
 51
-2.4093
  0
ARC
  5
308
330
112
100
AcDbEntity
  8
View013
100
AcDbCircle
 10
148.5
 20
115
 30
0
 40
54
100
AcDbArc
 50
-58.2117
 51
29.6202
  0
ARC
  5
309
330
112
100
AcDbEntity
  8
View013
100
AcDbCircle
 10
148.5
 20
115
 30
0
 40
54
100
AcDbArc
 50
150.38
 51
-121.788
  0
ARC
  5
30A
330
112
100
AcDbEntity
  8
View013
100
AcDbCircle
 10
182.214
 20
60.6
 30
0
 40
10
100
AcDbArc
 50
121.788
 51
172.564
  0
ARC
  5
30B
330
112
100
AcDbEntity
  8
View013
100
AcDbCircle
 10
114.786
 20
60.6
 30
0
 40
10
100
AcDbArc
 50
7.4356
 51
58.2117
  0
ARC
  5
30C
330
112
100
AcDbEntity
  8
View013
100
AcDbCircle
 10
148.5
 20
65
 30
0
 40
24
100
AcDbArc
 50
-172.564
 51
-7.4356
  0
CIRCLE
  5
30D
330
112
100
AcDbEntity
  8
View013
100
AcDbCircle
 10
104.667
 20
111.165
 40
1.55
  0
LINE
  5
30E
330
112
100
AcDbEntity
  8
View013
100
AcDbLine
 10
159.75
 20
156.465
 30
0
 11
159.75
 21
159
 31
0
  0
LINE
  5
30F
330
112
100
AcDbEntity
  8
View013
100
AcDbLine
 10
159.75
 20
156.465
 30
0
 11
169.937
 21
150.584
 31
0
  0
LINE
  5
310
330
112
100
AcDbEntity
  8
View013
100
AcDbLine
 10
159.75
 20
159
 30
0
 11
125.75
 21
159
 31
0
  0
LINE
  5
311
330
112
100
AcDbEntity
  8
View013
100
AcDbLine
 10
169.937
 20
150.584
 30
0
 11
172.589
 21
155.177
 31
0
  0
LINE
  5
312
330
112
100
AcDbEntity
  8
View013
100
AcDbLine
 10
125.75
 20
159
 30
0
 11
125.75
 21
155.95
 31
0
  0
LINE
  5
313
330
112
100
AcDbEntity
  8
View013
100
AcDbLine
 10
175.23
 20
156.702
 30
0
 11
172.589
 21
155.177
 31
0
  0
LINE
  5
314
330
112
100
AcDbEntity
  8
View013
100
AcDbLine
 10
128.402
 20
151.357
 30
0
 11
125.75
 21
155.95
 31
0
  0
LINE
  5
315
330
112
100
AcDbEntity
  8
View013
100
AcDbLine
 10
192.23
 20
127.257
 30
0
 11
175.23
 21
156.702
 31
0
  0
LINE
  5
316
330
112
100
AcDbEntity
  8
View013
100
AcDbLine
 10
118.215
 20
145.475
 30
0
 11
128.402
 21
151.357
 31
0
  0
LINE
  5
317
330
112
100
AcDbEntity
  8
View013
100
AcDbLine
 10
190.035
 20
125.99
 30
0
 11
192.23
 21
127.257
 31
0
  0
LINE
  5
318
330
112
100
AcDbEntity
  8
View013
100
AcDbLine
 10
118.215
 20
145.475
 30
0
 11
116.02
 21
146.743
 31
0
  0
LINE
  5
319
330
112
100
AcDbEntity
  8
View013
100
AcDbLine
 10
190.035
 20
125.99
 30
0
 11
190.035
 21
114.227
 31
0
  0
LINE
  5
31A
330
112
100
AcDbEntity
  8
View013
100
AcDbLine
 10
116.02
 20
146.743
 30
0
 11
99.0199
 21
117.298
 31
0
  0
LINE
  5
31B
330
112
100
AcDbEntity
  8
View013
100
AcDbLine
 10
190.035
 20
114.227
 30
0
 11
195.339
 21
114.227
 31
0
  0
LINE
  5
31C
330
112
100
AcDbEntity
  8
View013
100
AcDbLine
 10
99.0199
 20
117.298
 30
0
 11
101.661
 21
115.773
 31
0
  0
LINE
  5
31D
330
112
100
AcDbEntity
  8
View013
100
AcDbLine
 10
197.98
 20
112.702
 30
0
 11
195.339
 21
114.227
 31
0
  0
LINE
  5
31E
330
112
100
AcDbEntity
  8
View013
100
AcDbLine
 10
106.965
 20
115.773
 30
0
 11
101.661
 21
115.773
 31
0
  0
LINE
  5
31F
330
112
100
AcDbEntity
  8
View013
100
AcDbLine
 10
180.98
 20
83.2572
 30
0
 11
197.98
 21
112.702
 31
0
  0
LINE
  5
320
330
112
100
AcDbEntity
  8
View013
100
AcDbLine
 10
106.965
 20
104.01
 30
0
 11
106.965
 21
115.773
 31
0
  0
LINE
  5
321
330
112
100
AcDbEntity
  8
View013
100
AcDbLine
 10
178.785
 20
84.5247
 30
0
 11
180.98
 21
83.2572
 31
0
  0
LINE
  5
322
330
112
100
AcDbEntity
  8
View013
100
AcDbLine
 10
106.965
 20
104.01
 30
0
 11
104.77
 21
102.743
 31
0
  0
LINE
  5
323
330
112
100
AcDbEntity
  8
View013
100
AcDbLine
 10
178.785
 20
84.5247
 30
0
 11
168.598
 21
78.6433
 31
0
  0
LINE
  5
324
330
112
100
AcDbEntity
  8
View013
100
AcDbLine
 10
104.77
 20
102.743
 30
0
 11
121.77
 21
73.2979
 31
0
  0
LINE
  5
325
330
112
100
AcDbEntity
  8
View013
100
AcDbLine
 10
168.598
 20
78.6433
 30
0
 11
171.25
 21
74.05
 31
0
  0
LINE
  5
326
330
112
100
AcDbEntity
  8
View013
100
AcDbLine
 10
121.77
 20
73.2979
 30
0
 11
124.411
 21
74.8229
 31
0
  0
LINE
  5
327
330
112
100
AcDbEntity
  8
View013
100
AcDbLine
 10
171.25
 20
71
 30
0
 11
171.25
 21
74.05
 31
0
  0
LINE
  5
328
330
112
100
AcDbEntity
  8
View013
100
AcDbLine
 10
127.063
 20
79.4163
 30
0
 11
124.411
 21
74.8229
 31
0
  0
LINE
  5
329
330
112
100
AcDbEntity
  8
View013
100
AcDbLine
 10
137.25
 20
71
 30
0
 11
171.25
 21
71
 31
0
  0
LINE
  5
32A
330
112
100
AcDbEntity
  8
View013
100
AcDbLine
 10
137.25
 20
73.5349
 30
0
 11
127.063
 21
79.4163
 31
0
  0
LINE
  5
32B
330
112
100
AcDbEntity
  8
View013
100
AcDbLine
 10
137.25
 20
73.5349
 30
0
 11
137.25
 21
71
 31
0
  0
CIRCLE
  5
32C
330
112
100
AcDbEntity
  8
View013
100
AcDbCircle
 10
129.905
 20
75.1225
 40
1.55
  0
CIRCLE
  5
32D
330
112
100
AcDbEntity
  8
View013
100
AcDbCircle
 10
123.263
 20
151.043
 40
1.55
  0
LINE
  5
32E
330
112
100
AcDbEntity
  8
View013
100
AcDbLine
 10
109.5
 20
154
 30
0
 11
109.5
 21
151
 31
0
  0
ARC
  5
32F
330
112
100
AcDbEntity
  8
View013
100
AcDbCircle
 10
111.5
 20
154
 30
0
 40
2
100
AcDbArc
 50
90
 51
180
  0
ARC
  5
330
330
112
100
AcDbEntity
  8
View013
100
AcDbCircle
 10
112.5
 20
151
 30
0
 40
3
100
AcDbArc
 50
180
 51
0
  0
LINE
  5
331
330
112
100
AcDbEntity
  8
View013
100
AcDbLine
 10
114.5
 20
156
 30
0
 11
111.5
 21
156
 31
0
  0
LINE
  5
332
330
112
100
AcDbEntity
  8
View013
100
AcDbLine
 10
115.5
 20
151
 30
0
 11
115.5
 21
155
 31
0
  0
ARC
  5
333
330
112
100
AcDbEntity
  8
View013
100
AcDbCircle
 10
114.5
 20
155
 30
0
 40
1
100
AcDbArc
 50
0
 51
90
  0
CIRCLE
  5
334
330
112
100
AcDbEntity
  8
View013
100
AcDbCircle
 10
107.523
 20
147.014
 40
1.6
  0
CIRCLE
  5
335
330
112
100
AcDbEntity
  8
View013
100
AcDbCircle
 10
167.095
 20
154.878
 40
1.55
  0
CIRCLE
  5
336
330
112
100
AcDbEntity
  8
View013
100
AcDbCircle
 10
192.333
 20
118.835
 40
1.55
  0
CIRCLE
  5
337
330
112
100
AcDbEntity
  8
View013
100
AcDbCircle
 10
189.477
 20
147.014
 40
1.6
  0
ARC
  5
338
330
112
100
AcDbEntity
  8
View013
100
AcDbCircle
 10
185.5
 20
154
 30
0
 40
2
100
AcDbArc
 50
0
 51
90
  0
LINE
  5
339
330
112
100
AcDbEntity
  8
View013
100
AcDbLine
 10
182.5
 20
156
 30
0
 11
185.5
 21
156
 31
0
  0
LINE
  5
33A
330
112
100
AcDbEntity
  8
View013
100
AcDbLine
 10
187.5
 20
154
 30
0
 11
187.5
 21
151
 31
0
  0
ARC
  5
33B
330
112
100
AcDbEntity
  8
View013
100
AcDbCircle
 10
182.5
 20
155
 30
0
 40
1
100
AcDbArc
 50
90
 51
180
  0
ARC
  5
33C
330
112
100
AcDbEntity
  8
View013
100
AcDbCircle
 10
184.5
 20
151
 30
0
 40
3
100
AcDbArc
 50
180
 51
0
  0
LINE
  5
33D
330
112
100
AcDbEntity
  8
View013
100
AcDbLine
 10
181.5
 20
151
 30
0
 11
181.5
 21
155
 31
0
  0
CIRCLE
  5
33E
330
112
100
AcDbEntity
  8
View013
100
AcDbCircle
 10
173.737
 20
78.9573
 40
1.55
  0
ARC
  5
33F
330
112
100
AcDbEntity
  8
View013
100
AcDbCircle
 10
148.5
 20
65
 30
0
 40
21
100
AcDbArc
 50
180
 51
0
  0
ARC
  5
340
330
112
100
AcDbEntity
  8
View013
100
AcDbCircle
 10
167.5
 20
65
 30
0
 40
2
100
AcDbArc
 50
0
 51
90
  0
ARC
  5
341
330
112
100
AcDbEntity
  8
View013
100
AcDbCircle
 10
129.5
 20
65
 30
0
 40
2
100
AcDbArc
 50
90
 51
180
  0
LINE
  5
342
330
112
100
AcDbEntity
  8
View013
100
AcDbLine
 10
167.5
 20
67
 30
0
 11
129.5
 21
67
 31
0
  0
ENDSEC
  0
SECTION
  2
OBJECTS
  0
DICTIONARY
  5
500
330
0
100
AcDbDictionary
  3
ACAD_GROUP
350
501
  0
DICTIONARY
  5
501
330
500
100
AcDbDictionary
  0
ENDSEC
  0
EOF